<?xml version="1.0" encoding="utf-8"?>
<!-- Generator: Adobe Illustrator 21.0.0, SVG Export Plug-In . SVG Version: 6.00 Build 0)  -->
<svg version="1.1" id="Ayırma_Modu" xmlns="http://www.w3.org/2000/svg" xmlns:xlink="http://www.w3.org/1999/xlink" x="0px"
	 y="0px" viewBox="0 0 500 200" style="enable-background:new 0 0 500 200;" xml:space="preserve">
<style type="text/css">
	.st0{fill:#B2B2B2;}
</style>
<path class="st0" d="M77.1,125.1v-0.9c1.2-0.6,2-1.7,2-3c0-0.4,0-0.8-0.1-1.2h-1.8v-1.1h1.6c-0.1-0.5-0.2-1.2-0.2-1.9
	c0-2.1,1.4-3.4,3.3-3.4c0.9,0,1.5,0.2,1.9,0.4l-0.3,1.1c-0.3-0.2-0.8-0.3-1.6-0.3c-1.4,0-1.9,0.9-1.9,2.2c0,0.7,0.1,1.3,0.2,1.9h2.5
	v1.1h-2.4c0.1,0.7,0.1,1.3-0.1,2c-0.2,0.7-0.6,1.4-1.2,1.9v0h5.2v1.3H77.1z"/>
</svg>
