<?xml version="1.0" encoding="utf-8"?>
<!-- Generator: Adobe Illustrator 21.0.0, SVG Export Plug-In . SVG Version: 6.00 Build 0)  -->
<svg version="1.1" id="katman_1" xmlns="http://www.w3.org/2000/svg" xmlns:xlink="http://www.w3.org/1999/xlink" x="0px" y="0px"
	 viewBox="0 0 99.2 99.2" style="enable-background:new 0 0 99.2 99.2;" xml:space="preserve">
<style type="text/css">
	.st0{fill:#FFFFFF;}
</style>
<title>Headset</title>
<g>
	<path class="st0" d="M49.6,18C65,18,77.5,30.5,77.5,45.9l0,0v0.2h6.3H84v-1c0-19-15.4-34.4-34.4-34.4l0,0
		c-19,0-34.4,15.4-34.4,34.4v1h0.3h6.3v-0.2C21.7,30.5,34.2,18,49.6,18L49.6,18z"/>
	<path class="st0" d="M15.2,47.1c-5.2,0.1-9.3,4.4-9.3,9.6v7.5c0,5.3,4.3,9.6,9.6,9.6h6V47.1h-6H15.2z"/>
	<path class="st0" d="M84,47.1h-0.3h-6v24.5c-0.1,0.2-0.3,0.5-0.5,0.8s-0.3,0.5-0.5,0.7c-2.9,4.1-10.1,11.7-22.5,10.2
		c0,1-0.4,2.1-1,2.9c1.3,0.2,2.7,0.3,4,0.3c11.8,0,18.9-7.6,21.9-11.8l0.3-0.5l0.3-0.5h3.8c5.3,0,9.6-4.3,9.6-9.6v-7.5
		C93.3,51.5,89.2,47.3,84,47.1z"/>
	<path class="st0" d="M46.4,77.9c-3.8,0-6.8,2.4-6.8,5.3s3.1,5.3,6.9,5.3c2.2,0.1,4.3-0.8,5.8-2.5c0.7-0.8,1.1-1.8,1.1-2.8l0,0
		C53.3,80.3,50.2,77.9,46.4,77.9z"/>
</g>
</svg>
