<?xml version="1.0" encoding="utf-8"?>
<!-- Generator: Adobe Illustrator 21.0.0, SVG Export Plug-In . SVG Version: 6.00 Build 0)  -->
<svg version="1.1" id="katman_1" xmlns="http://www.w3.org/2000/svg" xmlns:xlink="http://www.w3.org/1999/xlink" x="0px" y="0px"
	 viewBox="0 0 500 500" style="enable-background:new 0 0 500 500;" xml:space="preserve">
<style type="text/css">
	.st0{fill:#FFFFFF;}
</style>
<g>
	<path class="st0" d="M427.5,72.3v-0.5c0-4.3-3.7-8-8-8H143.3c-4.3,0-8,3.7-8,8v108.9c0,5.1,4.1,7.8,8,7.8s8-2.7,8-7.8V79.8h260.2
		v334c0,1.4-0.1,2.9-0.2,4.4c0,0.7-0.1,1.4-0.1,2.1H151.3v-90.5c0-5.1-4.1-7.8-8-7.8s-8,2.7-8,7.8v98.5c0,4.3,3.7,8,8,8h276.2
		c4.3,0,8-3.7,8-8V115.8c0-4.7,0.1-9.6,0.2-14.3C427.9,91.9,428.2,81.9,427.5,72.3z"/>
	<path class="st0" d="M223.7,309.4l-11.1,9.3c-3.7,3.2-3.2,7.7-0.8,10.5c1.7,1.9,4.1,3.1,6.6,3.1c1.9,0,3.7-0.7,5.2-2l77.2-65.2
		l11.1-9.3c1.5-1.3,2.5-3.4,2.5-5.7c0-2.4-0.9-4.6-2.5-6L234.6,179l-11.1-9.3c-4.1-3.4-9.1-2-11.8,1.2c-2.4,2.8-2.9,7.4,0.8,10.5
		l71.8,60.6H80c-5.1,0-7.9,4.1-7.9,8s2.8,8,7.9,8h204.5L223.7,309.4z"/>
</g>
</svg>
