<?xml version="1.0" encoding="utf-8"?>
<!-- Generator: Adobe Illustrator 21.0.0, SVG Export Plug-In . SVG Version: 6.00 Build 0)  -->
<svg version="1.1" id="Ayırma_Modu" xmlns="http://www.w3.org/2000/svg" xmlns:xlink="http://www.w3.org/1999/xlink" x="0px"
	 y="0px" viewBox="0 0 500 200" style="enable-background:new 0 0 500 200;" xml:space="preserve">
<style type="text/css">
	.st0{fill:#F5F5F5;}
</style>
<path class="st0" d="M74.3,304.4v-1.8c-1,0-2.1-0.3-2.7-0.8l0.4-1.2c0.6,0.4,1.6,0.8,2.6,0.8c1.3,0,2.1-0.7,2.1-1.7
	c0-1-0.7-1.6-2-2.1c-1.8-0.7-2.9-1.5-2.9-3.1c0-1.5,1-2.6,2.7-2.9v-1.8h1.1v1.7c1.1,0,1.8,0.3,2.3,0.6l-0.4,1.2
	c-0.4-0.2-1.1-0.6-2.2-0.6c-1.4,0-1.9,0.8-1.9,1.5c0,0.9,0.7,1.4,2.2,2c1.8,0.7,2.8,1.7,2.8,3.3c0,1.4-1,2.7-2.8,3v1.8H74.3z"/>
</svg>
