<?xml version="1.0" encoding="utf-8"?>
<!-- Generator: Adobe Illustrator 21.0.0, SVG Export Plug-In . SVG Version: 6.00 Build 0)  -->
<svg version="1.1" id="Ayırma_Modu" xmlns="http://www.w3.org/2000/svg" xmlns:xlink="http://www.w3.org/1999/xlink" x="0px"
	 y="0px" viewBox="0 0 500 200" style="enable-background:new 0 0 500 200;" xml:space="preserve">
<style type="text/css">
	.st0{fill:#DDDDDD;}
</style>
<path class="st0" d="M62.5,92.6c-0.5,0.4-1.4,0.7-2.6,0.7c-1.4,0-2.7-0.5-3.5-1.5c-0.7-0.7-1.1-1.7-1.3-3h-1.1v-0.9h1
	c0-0.1,0-0.2,0-0.3c0-0.3,0-0.5,0-0.8h-1V86h1.1c0.2-1.2,0.7-2.2,1.4-2.9c0.9-0.9,2-1.4,3.4-1.4c1,0,1.8,0.3,2.3,0.6l-0.3,1.1
	c-0.4-0.3-1.2-0.5-2-0.5c-0.9,0-1.7,0.3-2.3,1c-0.5,0.5-0.9,1.3-1,2.2h3.4v0.9h-3.6c0,0.2,0,0.5,0,0.7c0,0.1,0,0.2,0,0.3h3.6v0.9
	h-3.5c0.1,1,0.5,1.8,1,2.3c0.6,0.7,1.5,1,2.5,1c0.9,0,1.7-0.3,2.1-0.6L62.5,92.6z"/>
</svg>
