<?xml version="1.0" encoding="utf-8"?>
<!-- Generator: Adobe Illustrator 21.0.0, SVG Export Plug-In . SVG Version: 6.00 Build 0)  -->
<svg version="1.1" id="katman_1" xmlns="http://www.w3.org/2000/svg" xmlns:xlink="http://www.w3.org/1999/xlink" x="0px" y="0px"
	 viewBox="0 0 100 100.1" style="enable-background:new 0 0 100 100.1;" xml:space="preserve">
<style type="text/css">
	.st0{fill:#06855F;}
</style>
<path class="st0" d="M32.3,61.4l18.1,15l0,0L32.3,61.4z M50.4,72.9L34,59.3L50.4,72.9L50.4,72.9z M95,37.4v54.9H5V37.4l9.6-6.3V16
	h23l12.7-8.3L62.8,16h22.6v15L95,37.4z M85.4,43.4l6-5.1l-6-4V43.4z M42.6,16h15.3l-7.6-5L42.6,16z M17.3,45.4L34,59.3l16.3,13.6
	l0,0l32.3-27.5v-13v-3.3V18.8H66.9H62H38.4h-5H17.3v10.5v3.3V45.4z M8.7,38.3l6,5v-8.9L8.7,38.3z M92.3,41.1L50.4,76.5l0,0l-18.1-15
	L7.7,41v48.6h84.5L92.3,41.1L92.3,41.1z M49.8,58.5c-7.1,0-13.1-5.2-13.1-13.4c0-8.9,6.2-16.5,15.7-16.5C60,28.5,65,33.7,65,40.9
	c0,6.5-3.6,10.3-7.7,10.3c-1.7,0-3.3-1.2-3.2-3.8H54c-1.5,2.5-3.5,3.8-6.1,3.8c-2.5,0-4.7-2-4.7-5.4c0-5.3,4.2-10.2,10.2-10.2
	c1.9,0,3.5,0.4,4.6,0.9l-1.5,7.8c-0.6,3.3-0.1,4.8,1.3,4.8c2.2,0,4.7-2.9,4.7-7.9c0-6.2-3.7-10.7-10.4-10.7c-7,0-12.9,5.6-12.9,14.3
	c0,7.2,4.7,11.6,11.1,11.6c2.5,0,4.7-0.5,6.5-1.5l0.7,1.9C55.1,58,52.7,58.5,49.8,58.5z M55.1,38.1c-0.4-0.1-1.2-0.3-2.2-0.3
	c-3.8,0-6.9,3.6-6.9,7.8c0,1.9,0.9,3.3,2.8,3.3c2.5,0,4.8-3.2,5.3-5.9L55.1,38.1z"/>
</svg>
