<?xml version="1.0" encoding="utf-8"?>
<!-- Generator: Adobe Illustrator 21.0.0, SVG Export Plug-In . SVG Version: 6.00 Build 0)  -->
<svg version="1.1" id="katman_1" xmlns="http://www.w3.org/2000/svg" xmlns:xlink="http://www.w3.org/1999/xlink" x="0px" y="0px"
	 viewBox="0 0 31.7 31.9" style="enable-background:new 0 0 31.7 31.9;" xml:space="preserve">
<style type="text/css">
	.st0{fill:#06855F;}
</style>
<g>
	<path class="st0" d="M29.6,24.6l-4.5-4.5c-0.4-0.3-0.8-0.5-1.4-0.5s-1.1,0.2-1.5,0.6l-2.4,2.4l-0.7-0.4c-1.4-0.8-3.4-1.9-5.5-4
		s-3.2-4.1-4-5.5l-0.4-0.6l2.4-2.4c0.8-0.8,0.8-2.1,0.1-2.9L7.2,2.3C6.9,1.9,6.4,1.7,5.9,1.7C5.3,1.7,4.8,2,4.4,2.3L3.3,3.4L3.2,3.6
		c-0.4,0.5-0.7,1.1-1,1.8C1.9,6,1.8,6.6,1.7,7.2C1.1,12,3.4,16.4,9.4,22.4c7.1,7.1,13.1,7.7,14.8,7.7c0.3,0,0.5,0,0.5,0
		c0.6-0.1,1.2-0.2,1.8-0.5c0.6-0.3,1.2-0.6,1.8-1l0.3-0.2l1-1C30.3,26.7,30.3,25.4,29.6,24.6z M28.9,26.9l-0.8,0.8
		c-0.4,0.4-1,0.9-2,1.2c-0.5,0.2-1.1,0.3-1.6,0.4c0,0-0.2,0-0.4,0c-1.6,0-7.4-0.5-14.3-7.5C3.1,15.1,2,11.1,2.5,7.3
		c0.1-0.5,0.2-1,0.4-1.6c0.4-1,0.9-1.6,1.2-2l0.8-0.8c0.2-0.2,0.6-0.4,0.9-0.4s0.6,0.1,0.8,0.3l4.5,4.5c0.5,0.5,0.4,1.3-0.1,1.8
		l-2.8,2.8L8.1,12l0.2,0.3c0.2,0.3,0.3,0.6,0.5,0.9c0.8,1.5,2,3.5,4.1,5.7c2.2,2.2,4.2,3.3,5.7,4.1c0.3,0.2,0.6,0.3,0.9,0.5l0.3,0.2
		l2.9-2.9c0.2-0.2,0.6-0.4,0.9-0.4s0.6,0.1,0.8,0.3l4.5,4.5C29.5,25.6,29.4,26.4,28.9,26.9z"/>
</g>
</svg>
