<svg id="katman_1" data-name="katman 1" xmlns="http://www.w3.org/2000/svg" xmlns:xlink="http://www.w3.org/1999/xlink" viewBox="0 0 480.03 480">
  <defs>
    <style>
      .cls-1 {
        fill: url(#Adsız_degrade);
      }

      .cls-2 {
        fill: url(#Adsız_degrade_2);
      }
    </style>
    <linearGradient id="Adsız_degrade" data-name="Adsız degrade" x1="176" y1="256" x2="320" y2="256" gradientTransform="matrix(1, 0, 0, -1, 0, 512)" gradientUnits="userSpaceOnUse">
      <stop offset="0" stop-color="#096987"/>
      <stop offset="1" stop-color="#5700b1"/>
    </linearGradient>
    <linearGradient id="Adsız_degrade_2" data-name="Adsız degrade 2" x1="15.98" x2="496.02" xlink:href="#Adsız_degrade"/>
  </defs>
  <title>bitcoin</title>
  <g id="Bitcoin">
    <path class="cls-1" d="M320,216a48,48,0,0,0-48-48V144a8,8,0,0,0-16,0v24H240.1l-.1-24a8,8,0,0,0-8-8h0a8,8,0,0,0-8,8l.1,24H184a8,8,0,0,0,0,16h24V328H184a8,8,0,0,0,0,16h40v24a8,8,0,0,0,16,0V344h16.1l-.1,24a8,8,0,0,0,8,8h0a8,8,0,0,0,8-8l.2-24a48,48,0,0,0,26.3-88A48,48,0,0,0,320,216Zm-16,80a32,32,0,0,1-32,32H224V264h48A32,32,0,0,1,304,296Zm-32-48H224V184h48a32,32,0,0,1,0,64Z" transform="translate(-15.98 -16)"/>
    <path class="cls-2" d="M488,264a8,8,0,0,0,0-16H407.6a151.39,151.39,0,0,0-5.1-32H448a23.94,23.94,0,0,0,24-24V166.9a32,32,0,1,0-16,0V192a8,8,0,0,1-8,8H397.2A152.45,152.45,0,0,0,328,122.2V80a8,8,0,0,1,8-8h17.1a32,32,0,1,0,0-16H336a23.94,23.94,0,0,0-24,24v34.8a149,149,0,0,0-48-10.4V24a8,8,0,0,0-16,0v80.4a149,149,0,0,0-48,10.4V80a23.94,23.94,0,0,0-24-24H158.9a32,32,0,1,0,0,16H176a8,8,0,0,1,8,8v42.2A152.89,152.89,0,0,0,114.8,200H64a8,8,0,0,1-8-8V166.9a32,32,0,1,0-16,0V192a23.94,23.94,0,0,0,24,24h45.5a151.39,151.39,0,0,0-5.1,32H24a8,8,0,0,0,0,16h80.4a151.39,151.39,0,0,0,5.1,32H64a23.94,23.94,0,0,0-24,24v25.1a32,32,0,1,0,16,0V320a8,8,0,0,1,8-8h50.8A152.45,152.45,0,0,0,184,389.8V432a8,8,0,0,1-8,8H158.9a32,32,0,1,0,0,16H176a23.94,23.94,0,0,0,24-24V397.2a149,149,0,0,0,48,10.4V488a8,8,0,0,0,16,0V407.6a149,149,0,0,0,48-10.4V432a23.94,23.94,0,0,0,24,24h17.1a32,32,0,1,0,0-16H336a8,8,0,0,1-8-8V389.8A152.89,152.89,0,0,0,397.2,312H448a8,8,0,0,1,8,8v25.1a32,32,0,1,0,16,0V320a23.94,23.94,0,0,0-24-24H402.5a151.39,151.39,0,0,0,5.1-32ZM448,136a16,16,0,1,1,16,16A16,16,0,0,1,448,136ZM384,48a16,16,0,1,1-16,16A16,16,0,0,1,384,48ZM128,80a16,16,0,1,1,16-16A16,16,0,0,1,128,80ZM32,136a16,16,0,1,1,16,16A16,16,0,0,1,32,136ZM64,376a16,16,0,1,1-16-16A16,16,0,0,1,64,376Zm64,88a16,16,0,1,1,16-16A16,16,0,0,1,128,464Zm256-32a16,16,0,1,1-16,16A16,16,0,0,1,384,432Zm96-56a16,16,0,1,1-16-16A16,16,0,0,1,480,376ZM256,392A136,136,0,1,1,392,256,136,136,0,0,1,256,392Z" transform="translate(-15.98 -16)"/>
  </g>
</svg>
