<svg id="Capa_1" data-name="Capa 1" xmlns="http://www.w3.org/2000/svg" xmlns:xlink="http://www.w3.org/1999/xlink" viewBox="0 0 508 369.18">
  <defs>
    <style>
      .cls-1 {
        fill: #5700b1;
      }

      .cls-2 {
        fill: url(#Adsız_degrade);
      }
    </style>
    <linearGradient id="Adsız_degrade" data-name="Adsız degrade" y1="253.99" x2="508" y2="253.99" gradientTransform="matrix(1, 0, 0, -1, 0, 508)" gradientUnits="userSpaceOnUse">
      <stop offset="0" stop-color="#096987"/>
      <stop offset="1" stop-color="#5700b1"/>
    </linearGradient>
  </defs>
  <title>credit-card</title>
  <rect class="cls-1" x="49.2" y="156.08" width="81.9" height="16.4"/>
  <rect class="cls-1" x="49.2" y="205.28" width="122.9" height="16.4"/>
  <rect class="cls-1" x="49.2" y="254.48" width="295" height="16.4"/>
  <rect class="cls-1" x="49.2" y="303.58" width="49.2" height="16.4"/>
  <rect class="cls-1" x="131.1" y="303.58" width="49.2" height="16.4"/>
  <rect class="cls-1" x="213.1" y="303.58" width="49.2" height="16.4"/>
  <path class="cls-1" d="M336,217.3a32.13,32.13,0,0,0-16.3,4.5,32.8,32.8,0,1,0,0,56.6,32.13,32.13,0,0,0,16.3,4.5,32.8,32.8,0,0,0,0-65.6Zm-28.6,48.6a15.23,15.23,0,0,1-4.2.6,16.4,16.4,0,0,1,0-32.8,19.34,19.34,0,0,1,4.2.6,31.82,31.82,0,0,0,0,31.6Zm28.6.6a16.4,16.4,0,1,1,16.4-16.4A16.47,16.47,0,0,1,336,266.5Z" transform="translate(0 -69.42)"/>
  <path class="cls-2" d="M490.9,179.4,147.1,70.8c-2.4-.8-21.6-7.1-30.8,16L88,176.3H24.6A24.71,24.71,0,0,0,0,200.9V414a24.58,24.58,0,0,0,24.6,24.6H385.2a24.43,24.43,0,0,0,20.5-11.1s11.1,3.1,13.6,3.1a24.36,24.36,0,0,0,23.4-17.2l64.2-203.2C508.9,204,510.3,184.6,490.9,179.4ZM122,123l168.9,53.3H182l-69.9-22.1Zm-14.8,46.9,20.5,6.5H105.2ZM393.4,414h-.1a8.24,8.24,0,0,1-8.2,8.2H24.6a8.24,8.24,0,0,1-8.2-8.2V200.9a8.24,8.24,0,0,1,8.2-8.2H385.2a8.24,8.24,0,0,1,8.2,8.2V414Zm33.7-5.5a8.27,8.27,0,0,1-10.3,5.3l-7.1-2.2V265.5l56.9,18Zm44.4-140.7-61.8-19.5V213.9l71.7,22.6Zm19.8-62.5-4.9,15.6-77.1-24.3a24.57,24.57,0,0,0-24.1-20.2H345.3l-218.4-69,4.9-15.6a8.23,8.23,0,0,1,10.3-5.3L485.9,195C492.8,196.8,491.9,203.2,491.3,205.3Z" transform="translate(0 -69.42)"/>
</svg>
