<?xml version="1.0" encoding="utf-8"?>
<!-- Generator: Adobe Illustrator 21.0.0, SVG Export Plug-In . SVG Version: 6.00 Build 0)  -->
<svg version="1.1" id="katman_1" xmlns="http://www.w3.org/2000/svg" xmlns:xlink="http://www.w3.org/1999/xlink" x="0px" y="0px"
	 viewBox="0 0 500 500" style="enable-background:new 0 0 500 500;" xml:space="preserve">
<style type="text/css">
	.st0{fill:#DFDFDF;}
	.st1{fill-rule:evenodd;clip-rule:evenodd;fill:#DFDFDF;}
</style>
<g>
	<g>
		<path class="st0" d="M240.8,185.2v-21.4h18.5v21.4H240.8z M240.8,336.2V213h18.5v123.2H240.8z"/>
	</g>
	<g>
		<path class="st1" d="M128,93.9l-12.7-16.2c-5,3.4-9.2,7.8-13.8,11.8c-4.6,3.9-8.8,8.3-12.8,12.9l15.2,13.8
			c3.6-4.1,7.4-8.2,11.6-11.7C119.6,101,123.4,97,128,93.9z"/>
		<path class="st1" d="M179.2,64.9l-7.3-19.2c-5.8,1.9-11.2,4.6-16.7,7.2c-5.5,2.6-11,5.2-16,8.6l10.4,17.7c4.6-3,9.5-5.4,14.5-7.8
			C169,69,174,66.6,179.2,64.9z"/>
		<path class="st1" d="M236.6,52.3l-1.4-20.5c-6.1,0.1-12.1,1-18.1,2c-6,0.9-12,1.7-17.9,3.4l4.8,20c5.3-1.6,10.7-2.3,16.2-3.1
			C225.6,53.2,231,52.4,236.6,52.3z"/>
		<path class="st1" d="M52.1,248l-20.5-0.2c0.3,12.1,0.6,24.3,2.9,36.2l20.3-3.2C52.6,270,52.4,258.9,52.1,248z"/>
		<path class="st1" d="M61.3,189.7l-19.6-6.2c-3.3,11.7-6.5,23.4-7.9,35.5l20.3,2.9C55.4,210.9,58.3,200.3,61.3,189.7z"/>
		<path class="st1" d="M87.2,137l-16.9-11.7c-6.7,10.1-13.1,20.5-18,31.6l18.6,8.7C75.3,155.6,81.2,146.2,87.2,137z"/>
		<path class="st1" d="M125.3,403.4l-12.9,15.9l14.6,10.9c5.1,3.3,10.3,6.4,15.5,9.5l10.1-17.9c-4.7-2.9-9.5-5.6-14-8.6L125.3,403.4
			z"/>
		<path class="st1" d="M85.5,359.8l-17,11.4c7.1,9.9,14.3,19.6,22.8,28.3l14.9-14.1C98.5,377.6,91.9,368.8,85.5,359.8z"/>
		<path class="st1" d="M60.4,306.7l-19.7,5.9c3.8,11.5,7.8,23,13.5,33.8l18.4-9.1C67.5,327.6,63.9,317.1,60.4,306.7z"/>
		<polygon class="st1" points="292.4,443 296.8,463.1 314.4,458.5 331.6,452.3 323.9,433.3 308.4,438.9 		"/>
		<polygon class="st1" points="233.6,446.8 231.9,467.3 250.1,468.2 268.3,467.3 266.6,446.8 250.1,447.7 		"/>
		<path class="st1" d="M176.4,433.4l-7.6,19.1c5.7,2.1,11.4,4.3,17.1,6.2l17.6,4.5l4.3-20.1l-16-4.1L176.4,433.4z"/>
		<path class="st1" d="M427.5,337l18.4,9.1c5.6-10.8,9.6-22.3,13.4-33.8l-19.7-5.9C436.2,316.8,432.6,327.2,427.5,337z"/>
		<path class="st1" d="M393.9,385.4l14.9,14.1c8.5-8.7,15.7-18.4,22.8-28.3l-17.1-11.4C408.2,368.7,401.6,377.5,393.9,385.4z"/>
		<path class="st1" d="M347.8,421.7l10.2,17.8c5.2-3.2,10.5-6.2,15.5-9.6l14.6-10.9l-13-15.9l-13.2,9.9
			C357.3,416.1,352.4,418.8,347.8,421.7z"/>
		<path class="st1" d="M426.5,165l19.5-6.4c-3.5-11.6-8.6-22.7-14-33.5l-18.2,9.5C418.6,144.5,423.3,154.5,426.5,165z"/>
		<path class="st1" d="M445.8,221.7l20.3-2.9c-1.4-12.1-4.6-23.8-7.9-35.5l-19.6,6.2C441.6,200.2,444.6,210.8,445.8,221.7z"/>
		<path class="st1" d="M445.4,280.5l20.3,3.2c2.3-11.9,2.5-24.1,2.8-36.2l-20.5,0.2C447.6,258.6,447.5,269.7,445.4,280.5z"/>
		<path class="st1" d="M295.7,57.1l4.7-20c-5.8-1.7-11.9-2.5-17.9-3.4c-6-1-12-1.9-18.1-2l-1.3,20.5c5.5,0.1,11,0.9,16.4,1.8
			C284.9,54.9,290.4,55.5,295.7,57.1z"/>
		<path class="st1" d="M350.3,79.1l10.4-17.7c-5.1-3.3-10.5-6-16-8.6c-5.4-2.7-10.9-5.3-16.7-7.2l-7.3,19.2
			c5.2,1.7,10.2,4.1,15.1,6.5C340.8,73.7,345.7,76.1,350.3,79.1z"/>
		<path class="st1" d="M395.9,116.1l15.1-13.9c-4-4.6-8.2-8.9-12.8-12.9c-4.5-4-8.8-8.4-13.8-11.8l-12.6,16.2
			c4.6,3.1,8.4,7.1,12.5,10.7C388.5,108,392.3,111.9,395.9,116.1z"/>
	</g>
</g>
</svg>
