<?xml version="1.0" encoding="utf-8"?>
<!-- Generator: Adobe Illustrator 21.0.0, SVG Export Plug-In . SVG Version: 6.00 Build 0)  -->
<svg version="1.1" id="katman_1" xmlns="http://www.w3.org/2000/svg" xmlns:xlink="http://www.w3.org/1999/xlink" x="0px" y="0px"
	 viewBox="0 0 500 200" style="enable-background:new 0 0 500 200;" xml:space="preserve">
<style type="text/css">
	.st0{fill:#6D7999;}
	.st1{fill:#B6BDD3;}
	.st2{fill:#8590BA;}
</style>
<g>
	<path class="st0" d="M102.1,69H76.6V139h-8.3V69H42.8v-8h59.4V69z"/>
	<path class="st0" d="M132.6,81.9v8.3h-1c-6,0-10.8,2.4-14.6,7.2c-3.5,4.6-5.3,10-5.3,16.4V139h-8.3V82.8h8.3v13.6
		c1.8-5.7,5.6-10,11.5-12.7c2.4-1.2,5.4-1.8,8.8-1.8H132.6z"/>
	<path class="st0" d="M164.7,131.4c7.4,0,12.8-3.1,16-9.3h9.1c-1.9,5-5,9.1-9.1,12.2c-4.2,3.1-9.5,4.6-16.1,4.6
		c-8.3,0-15.1-2.8-20.3-8.3c-5.1-5.4-7.6-12.1-7.6-20.2c0-8.2,2.4-14.9,7.3-20.2c5.2-5.5,11.9-8.3,20.1-8.3c8.3,0,15,2.8,20.1,8.3
		c4.9,5.3,7.3,12.1,7.3,20.2v3.3h-46.3c0.6,5.1,2.6,9.3,6.1,12.6C154.8,129.7,159.3,131.4,164.7,131.4z M164.1,89.4
		c-5.1,0-9.4,1.6-12.8,4.8c-3.2,3-5.2,7-6,11.8h37.6c-0.7-4.9-2.7-8.8-6-11.8C173.4,91,169.2,89.4,164.1,89.4z"/>
	<path class="st0" d="M210,82.8v8.6c2-2.7,4.4-4.9,7.3-6.7c2.9-1.8,6.2-2.8,9.8-2.8c3.7,0,6.9,0.5,9.5,1.5c2.7,1,5,2.6,7,4.6
		c4.6,4.5,6.9,10.4,6.9,17.8V139h-8.3v-32.8c0-5.1-1.4-9.1-4.3-12.2c-2.9-3-6.6-4.5-11.2-4.5c-4.6,0-8.6,1.5-11.8,4.6
		c-3.2,3.2-4.9,7.2-4.9,12.2V139h-8.3V82.8H210z"/>
	<path class="st0" d="M307.4,129.2c-4.4,6.5-11,9.7-19.8,9.7c-8,0-14.5-2.8-19.5-8.3c-4.9-5.5-7.3-12.2-7.3-20.2s2.4-14.8,7.3-20.2
		c5-5.5,11.7-8.3,20-8.3c8.3,0,14.7,3.3,19.2,9.8V61h8.3V139h-8.3V129.2z M288.7,131.4c6,0,10.7-2.1,14.2-6.2c3.3-3.9,5-8.8,5-14.8
		c0-6-1.7-10.9-5-14.8c-3.5-4.1-8.2-6.2-14.2-6.2c-5.9,0-10.7,2.1-14.4,6.2c-3.5,3.9-5.2,8.8-5.2,14.8c0,6,1.7,10.9,5.2,14.8
		C278,129.4,282.8,131.4,288.7,131.4z"/>
	<g>
		<polygon class="st1" points="416.8,85.1 398.9,61.4 392.7,61.4 413.3,89.6 		"/>
		<polygon class="st1" points="424.4,85.2 442.3,61.4 448.6,61.4 427.8,89.7 		"/>
	</g>
	<polygon class="st2" points="340.7,72.8 385.3,72.8 385.3,62.6 330.1,62.6 330.1,138.1 340.7,138.1 340.7,106.3 380.4,106.3 
		380.4,96 340.7,96 	"/>
	<polygon class="st2" points="426.6,98.4 420.6,90.6 414.7,98.4 384.1,138.1 397.5,138.1 420.6,107.4 443.8,138.1 457.2,138.1 	"/>
</g>
</svg>
