<?xml version="1.0" encoding="utf-8"?>
<!-- Generator: Adobe Illustrator 21.0.0, SVG Export Plug-In . SVG Version: 6.00 Build 0)  -->
<svg version="1.1" id="livetype" xmlns="http://www.w3.org/2000/svg" xmlns:xlink="http://www.w3.org/1999/xlink" x="0px" y="0px"
	 viewBox="0 0 151.3 40" style="enable-background:new 0 0 151.3 40;" xml:space="preserve">
<style type="text/css">
	.st0{fill:#D8D8D8;}
	.st1{fill:#F4F4F4;}
	.st2{fill:#F4F4F4;stroke:#F4F4F4;stroke-width:0.25;stroke-miterlimit:10;}
</style>
<title>appstore</title>
<g id="_Group_">
	<g id="_Group_2">
		<path id="_Path_" class="st0" d="M24.8,20.3c0-1.7,0.9-3.3,2.4-4.2c-0.9-1.3-2.4-2.1-4-2.2c-1.7-0.2-3.3,1-4.2,1s-2.2-1-3.6-1
			c-1.9,0.1-3.6,1.1-4.5,2.7c-1.9,3.3-0.5,8.3,1.4,11c0.9,1.3,2,2.8,3.4,2.8s1.9-0.9,3.6-0.9s2.1,0.9,3.6,0.9s2.4-1.3,3.3-2.7
			c0.7-0.9,1.2-2,1.5-3.1C25.9,23.9,24.7,22.2,24.8,20.3z"/>
		<path id="_Path_2" class="st0" d="M22,12.2c0.8-1,1.2-2.2,1.1-3.5c-1.3,0.1-2.4,0.7-3.2,1.7c-0.8,0.9-1.2,2.2-1.1,3.4
			C20.1,13.8,21.2,13.2,22,12.2z"/>
	</g>
</g>
<path class="st1" d="M40.9,15.9H37l-0.9,2.8h-1.6l3.7-10.2h1.6l3.7,10.2h-1.6L40.9,15.9z M37.5,14.5h3.1L39,10.1h-0.1L37.5,14.5z"/>
<path class="st1" d="M51.5,14.9c0,2.3-1.2,3.8-3.1,3.8c-1,0.1-1.9-0.4-2.3-1.3l0,0V21h-1.6v-9.8H46v1.2l0,0c0.5-0.8,1.4-1.3,2.4-1.3
	C50.2,11.1,51.5,12.6,51.5,14.9z M49.9,14.9c0-1.5-0.7-2.5-2-2.5c-1.1,0-2,1-2,2.5s0.8,2.5,2,2.5S49.9,16.4,49.9,14.9z"/>
<path class="st1" d="M59.6,14.9c0,2.3-1.2,3.8-3.1,3.8c-1,0.1-1.9-0.4-2.3-1.3l0,0V21h-1.6v-9.8h1.5v1.2l0,0
	c0.5-0.8,1.4-1.3,2.4-1.3C58.4,11.1,59.6,12.6,59.6,14.9z M58.1,14.9c0-1.5-0.7-2.5-2-2.5c-1.1,0-2,1-2,2.5s0.8,2.5,2,2.5
	S58.1,16.4,58.1,14.9z"/>
<path class="st1" d="M65,15.8c0.1,1,1.1,1.6,2.5,1.6s2.2-0.7,2.2-1.6s-0.6-1.2-1.9-1.6L66.5,14c-1.9-0.5-2.7-1.3-2.7-2.7
	c0-1.7,1.6-3,3.7-3s3.6,1.2,3.7,3h-1.6c-0.1-1-1.1-1.7-2.1-1.6l0,0c-1.2,0-2.1,0.7-2.1,1.6c0,0.7,0.6,1.1,1.9,1.5l1.1,0.2
	c2.1,0.5,3,1.3,3,2.8c0,1.9-1.6,3.1-3.9,3.1s-3.8-1.1-3.9-3L65,15.8L65,15.8z"/>
<path class="st1" d="M74.6,9.4v1.7H76v1.2h-1.4v4.1c0,0.7,0.2,0.9,0.9,0.9H76v1.2c-0.3,0.1-0.5,0.1-0.8,0.1c-1.5,0-2.1-0.6-2.1-2
	v-4.3H72v-1.2h1.1V9.4H74.6z"/>
<path class="st1" d="M76.9,14.9c0-2.3,1.4-3.8,3.5-3.8s3.5,1.5,3.5,3.8s-1.4,3.8-3.5,3.8c-1.9,0-3.5-1.5-3.5-3.4
	C76.9,15.2,76.9,15,76.9,14.9z M82.4,14.9c0-1.6-0.7-2.5-2-2.5s-2,1-2,2.5s0.7,2.5,2,2.5S82.4,16.5,82.4,14.9z"/>
<path class="st1" d="M85.1,11.2h1.5v1.2l0,0c0.2-0.8,1-1.4,1.8-1.3c0.2,0,0.3,0,0.5,0.1v1.4c-0.2-0.1-0.5-0.1-0.7-0.1
	c-0.8,0-1.5,0.7-1.6,1.5v4.6H85C85.1,18.6,85.1,11.2,85.1,11.2z"/>
<path class="st1" d="M96,16.4c-0.4,1.4-1.7,2.4-3.2,2.3c-2.1,0-3.5-1.5-3.5-3.8s1.3-3.9,3.4-3.9s3.4,1.4,3.4,3.7v0.5h-5.3v0.1
	c-0.1,1,0.7,2,1.7,2.1h0.2c0.8,0.1,1.5-0.4,1.7-1.1L96,16.4z M90.8,14.2h3.7c0.1-1-0.7-1.8-1.7-1.9l0,0h-0.2
	C91.6,12.3,90.8,13.1,90.8,14.2L90.8,14.2z"/>
<g>
	<path class="st2" d="M35.5,24.7l-0.4,1.7h-0.6l0.5-1.7H35.5z"/>
	<path class="st2" d="M36.6,30.4v-5.6h1.5c2,0,2.9,0.9,2.9,2.7c0,0.9-0.3,1.5-0.8,2.1c-0.5,0.5-1.3,0.8-2.2,0.8H36.6z M37.3,25.4
		v4.4h0.8c0.7,0,1.3-0.2,1.7-0.6s0.6-0.9,0.6-1.7c0-1.4-0.8-2.1-2.3-2.1C38.1,25.4,37.3,25.4,37.3,25.4z"/>
	<path class="st2" d="M46.4,30.4h-0.7l-0.6-1.6h-2.4l-0.6,1.6h-0.7l2.1-5.6h0.7L46.4,30.4z M44.9,28.3L44,25.9
		c0-0.1-0.1-0.2-0.1-0.4l0,0c0,0.2-0.1,0.3-0.1,0.4l-0.9,2.4H44.9z"/>
	<path class="st2" d="M51.7,30.4h-0.8L48,26c-0.1-0.1-0.1-0.2-0.2-0.3l0,0c0,0.1,0,0.4,0,0.8v4h-0.7v-5.6h0.8l2.8,4.4
		c0.1,0.2,0.2,0.3,0.2,0.4l0,0c0-0.2,0-0.4,0-0.8V25h0.7v5.4H51.7z"/>
	<path class="st2" d="M55.7,24.3c-0.1,0-0.2,0-0.3-0.1s-0.1-0.2-0.1-0.3c0-0.1,0-0.2,0.1-0.3s0.2-0.1,0.3-0.1s0.2,0,0.3,0.1
		s0.1,0.2,0.1,0.3s0,0.2-0.1,0.3S55.8,24.3,55.7,24.3z M56,30.4h-0.7v-5.6H56V30.4z"/>
	<path class="st2" d="M61.9,30.4h-0.8L58.3,26c-0.1-0.1-0.1-0.2-0.2-0.3l0,0c0,0.1,0,0.4,0,0.8v4h-0.7v-5.6h0.8l2.8,4.4
		c0.1,0.2,0.2,0.3,0.2,0.4l0,0c0-0.2,0-0.4,0-0.8V25h0.7C61.9,25,61.9,30.4,61.9,30.4z"/>
	<path class="st2" d="M63.4,30.4v-5.6h1.5c2,0,2.9,0.9,2.9,2.7c0,0.9-0.3,1.5-0.8,2.1c-0.5,0.5-1.3,0.8-2.2,0.8H63.4z M64,25.4v4.4
		h0.8c0.7,0,1.3-0.2,1.7-0.6c0.4-0.4,0.6-0.9,0.6-1.7c0-1.4-0.8-2.1-2.3-2.1C64.8,25.4,64,25.4,64,25.4z"/>
	<path class="st2" d="M69.3,24.3c-0.1,0-0.2,0-0.3-0.1s-0.1-0.2-0.1-0.3c0-0.1,0-0.2,0.1-0.3c0.1-0.1,0.2-0.1,0.3-0.1s0.2,0,0.3,0.1
		c0.1,0.1,0.1,0.2,0.1,0.3s0,0.2-0.1,0.3S69.4,24.3,69.3,24.3z M69.6,30.4H69v-5.6h0.7L69.6,30.4L69.6,30.4z"/>
	<path class="st2" d="M75.1,30.4h-0.8l-0.9-1.6c-0.1-0.1-0.2-0.3-0.2-0.4c-0.1-0.1-0.2-0.2-0.2-0.3C72.9,28,72.8,28,72.7,28
		c-0.1,0-0.2,0-0.3,0h-0.5v2.4h-0.7v-5.6h1.7c0.2,0,0.5,0,0.7,0.1s0.4,0.2,0.5,0.3c0.2,0.1,0.3,0.3,0.4,0.5s0.1,0.4,0.1,0.7
		c0,0.2,0,0.4-0.1,0.5c-0.1,0.2-0.1,0.3-0.2,0.4s-0.2,0.2-0.4,0.3c-0.2,0.1-0.3,0.2-0.5,0.2l0,0c0.1,0,0.2,0.1,0.2,0.1
		c0.1,0.1,0.1,0.1,0.2,0.2s0.1,0.2,0.2,0.2c0.1,0.1,0.1,0.2,0.2,0.3L75.1,30.4z M71.7,25.4v2h0.9c0.2,0,0.3,0,0.5-0.1
		c0.1,0,0.3-0.1,0.4-0.2s0.2-0.2,0.2-0.3c0.1-0.1,0.1-0.3,0.1-0.4c0-0.3-0.1-0.5-0.3-0.7c-0.2-0.2-0.5-0.3-0.8-0.3H71.7z"/>
	<path class="st2" d="M76.2,24.3c-0.1,0-0.2,0-0.3-0.1s-0.1-0.2-0.1-0.3c0-0.1,0-0.2,0.1-0.3c0.1-0.1,0.2-0.1,0.3-0.1s0.2,0,0.3,0.1
		c0.1,0.1,0.1,0.2,0.1,0.3s0,0.2-0.1,0.3S76.3,24.3,76.2,24.3z M76.5,30.4h-0.7v-5.6h0.7V30.4z"/>
	<path class="st2" d="M82.4,30.4h-0.8L78.8,26c-0.1-0.1-0.1-0.2-0.2-0.3l0,0c0,0.1,0,0.4,0,0.8v4H78v-5.6h0.8l2.8,4.4
		c0.1,0.2,0.2,0.3,0.2,0.4l0,0c0-0.2,0-0.4,0-0.8V25h0.7L82.4,30.4L82.4,30.4z"/>
</g>
</svg>
