<svg xmlns="http://www.w3.org/2000/svg" xmlns:xlink="http://www.w3.org/1999/xlink" width="128.11" height="127.36" viewBox="0 0 128.11 127.36">
  <defs>
    <filter id="box" x="1.5" y="1.5" width="126.61" height="125.86" filterUnits="userSpaceOnUse">
      <feOffset dx="4.95" dy="4.95" input="SourceAlpha"/>
      <feGaussianBlur result="blur"/>
      <feFlood flood-color="#bcbcbc"/>
      <feComposite operator="in" in2="blur"/>
      <feComposite in="SourceGraphic"/>
    </filter>
    <filter id="box-2" x="1.5" y="1.5" width="126.61" height="125.86" filterUnits="userSpaceOnUse">
      <feOffset dx="4.95" dy="4.95" input="SourceAlpha"/>
      <feGaussianBlur result="blur-2"/>
      <feFlood flood-color="#bcbcbc"/>
      <feComposite operator="in" in2="blur-2"/>
      <feComposite in="SourceGraphic"/>
    </filter>
    <clipPath id="clip-path">
      <g transform="matrix(1, 0, 0, 1, 0, 0)" filter="url(#box)">
        <rect id="box-3" data-name="box" width="121.66" height="120.91" transform="translate(245 525)" fill="#fff"/>
      </g>
    </clipPath>
  </defs>
  <g id="_1" data-name="1" transform="translate(-243.5 -523.5)">
    <g id="box-4" data-name="box">
      <g transform="matrix(1, 0, 0, 1, 243.5, 523.5)" filter="url(#box-2)">
        <rect id="box-5" data-name="box" width="121.66" height="120.91" transform="translate(1.5 1.5)" fill="#fff"/>
      </g>
      <g id="Clip" clip-path="url(#clip-path)">
        <g id="Vektör_Akıllı_Nesne" data-name="Vektör Akıllı Nesne">
          <g id="Vektör_Akıllı_Nesne-2" data-name="Vektör Akıllı Nesne" transform="translate(269.478 549.478)">
            <g id="Group_26" data-name="Group 26">
              <g id="Group_25" data-name="Group 25">
                <path id="Path_126" data-name="Path 126" d="M71.522,71.522h-70v-70H4.565V68.478H71.522Z"/>
                <rect id="Rectangle_6" data-name="Rectangle 6" width="6.087" height="3.043" transform="translate(3.043 17.043)"/>
                <rect id="Rectangle_7" data-name="Rectangle 7" width="6.087" height="3.043" transform="translate(3.043 34.239)"/>
                <rect id="Rectangle_8" data-name="Rectangle 8" width="6.087" height="3.043" transform="translate(3.043 51.283)"/>
              </g>
              <path id="Path_127" data-name="Path 127" d="M15.065,52.348l-1.217-2.739,6.391-2.891,4.109-17.8,9.13,10.5,6.087-4.87,3.2,4.109,8.217-16.587,16.13-6.087,1.065,2.739L53.109,24.5,43.37,44.435,38.957,38.8l-5.935,4.87-7-8.217L22.978,49Z"/>
            </g>
          </g>
          <path id="Color_Overlay" data-name="Color Overlay" d="M271,621V551h3.043v15.521h4.566v3.044h-4.566v14.152h4.566v3.044h-4.566v14h4.566V603.8h-4.566v14.153H341V621Zm12.326-21.913,6.392-2.892,4.109-17.8,9.13,10.5,6.087-4.869,3.2,4.108,8.218-16.587,16.13-6.087,1.066,2.739-15.065,5.783-9.74,19.935-4.413-5.63-5.935,4.87-7-8.218-3.044,13.543-7.913,3.348Z" fill="#4f505e"/>
        </g>
      </g>
    </g>
    <path id="lines" d="M245,569.052V525h21.721m99.916,0V645.927H287.573" fill="none" stroke="#00b17c" stroke-width="3"/>
  </g>
</svg>
