<svg id="Capa_1" data-name="Capa 1" xmlns="http://www.w3.org/2000/svg" viewBox="0 0 508.1 508.1">
  <title>map point</title>
   <style>
      .cls-1 {
        fill: url(#Adsız_degrade_21);
      }
    </style>
   <linearGradient id="Adsız_degrade_21" data-name="Adsız degrade 21" gradientUnits="userSpaceOnUse" x1="0%" y1="0%" x2="0%" y2="100%">
      <stop offset="0" stop-color="#09ba85"/>
      <stop offset="0.5" stop-color="#03806e"/>
      <stop offset="1" stop-color="#064b5f"/>
    </linearGradient>
  <path class="cls-1" d="M301.8,416.9c51.6-61.7,132.5-169,132.5-236.6C434.4,80.9,353.5,0,254.1,0S73.8,80.9,73.8,180.3c0,67.6,80.9,174.9,132.5,236.6-26.4,8.7-42.4,24.2-42.4,42,0,27.6,39.6,49.2,90.1,49.2s90.1-21.6,90.1-49.2C344.2,441.2,328.2,425.6,301.8,416.9ZM90.2,180.3c0-90.4,73.5-163.9,163.9-163.9S418,89.9,418,180.3c0,80.9-133.7,233.2-163.9,266.5C224,413.4,90.2,261.1,90.2,180.3ZM254.1,491.6c-43.5,0-73.7-17.3-73.7-32.8,0-11.1,15.3-22.3,37.6-28.2,16.6,19.3,28.4,31.9,30.1,33.8l6,6.4,6-6.4c1.8-1.9,13.5-14.5,30.2-33.9,22.5,6,37.6,17.2,37.6,28.3C327.8,474.3,297.6,491.6,254.1,491.6Z"/>
  <path class="cls-1" d="M254.1,73.8A106.5,106.5,0,1,0,360.6,180.3,106.65,106.65,0,0,0,254.1,73.8Zm0,196.6a90.1,90.1,0,1,1,90.1-90.1A90.18,90.18,0,0,1,254.1,270.4Z"/>
  <rect class="cls-1" x="245.9" y="385.1" width="16.4" height="16.4"/>
  <rect class="cls-1" x="245.9" y="352.3" width="16.4" height="16.4"/>
  <rect class="cls-1" x="245.9" y="319.5" width="16.4" height="16.4"/>
</svg>
