<svg id="katman_1" data-name="katman 1" xmlns="http://www.w3.org/2000/svg" viewBox="0 0 31.7 31.9">
  <title>phone</title>
    <style>
      .cls-1 {
        fill: url(#Adsız_degrade_21);
      }
    </style>
   <linearGradient id="Adsız_degrade_21" data-name="Adsız degrade 21" x1="0%" y1="0%" x2="0%" y2="100%" gradientUnits="userSpaceOnUse">
      <stop offset="0" stop-color="#09ba85"/>
      <stop offset="0.5" stop-color="#03806e"/>
      <stop offset="1" stop-color="#064b5f"/>
    </linearGradient>
  <path class="cls-1" d="M29.6,24.6l-4.5-4.5a2.17,2.17,0,0,0-1.4-.5,2,2,0,0,0-1.5.6l-2.4,2.4-.7-.4a23.71,23.71,0,0,1-5.5-4,23.71,23.71,0,0,1-4-5.5l-.4-.6,2.4-2.4a2.15,2.15,0,0,0,.1-2.9L7.2,2.3a1.61,1.61,0,0,0-1.3-.6,2.53,2.53,0,0,0-1.5.6L3.3,3.4l-.1.2a7.68,7.68,0,0,0-1,1.8,6.07,6.07,0,0,0-.5,1.8C1.1,12,3.4,16.4,9.4,22.4c7.1,7.1,13.1,7.7,14.8,7.7h.5a6.07,6.07,0,0,0,1.8-.5,16.18,16.18,0,0,0,1.8-1l.3-.2,1-1A2.13,2.13,0,0,0,29.6,24.6Zm-.7,2.3-.8.8a4.57,4.57,0,0,1-2,1.2,9.36,9.36,0,0,1-1.6.4h-.4c-1.6,0-7.4-.5-14.3-7.5C3.1,15.1,2,11.1,2.5,7.3a12.44,12.44,0,0,1,.4-1.6,7.91,7.91,0,0,1,1.2-2l.8-.8a1.49,1.49,0,0,1,.9-.4,1.14,1.14,0,0,1,.8.3l4.5,4.5A1.27,1.27,0,0,1,11,9.1L8.2,11.9l-.1.1.2.3c.2.3.3.6.5.9a25,25,0,0,0,4.1,5.7A22.23,22.23,0,0,0,18.6,23c.3.2.6.3.9.5l.3.2,2.9-2.9a1.49,1.49,0,0,1,.9-.4,1.14,1.14,0,0,1,.8.3l4.5,4.5A1.08,1.08,0,0,1,28.9,26.9Z"/>
</svg>
