<svg id="katman_1" data-name="katman 1" xmlns="http://www.w3.org/2000/svg" viewBox="0 0 401 401" style="fill: #06855f">
  <title>edit</title>
  <path d="M370.11,251.91a10,10,0,0,0-10,10v88.67a30,30,0,0,1-30,30H49.93a30,30,0,0,1-30-30V90.32a30,30,0,0,1,30-30h88.67a10,10,0,1,0,0-20H49.93A50,50,0,0,0,0,90.32V350.57A50,50,0,0,0,49.93,400.5H330.16a50,50,0,0,0,49.93-49.93V261.89A10,10,0,0,0,370.11,251.91Z"/>
  <path d="M376.14,14.68a44.94,44.94,0,0,0-63.56,0L134.41,192.86a10,10,0,0,0-2.56,4.4l-23.43,84.59a10,10,0,0,0,12.29,12.29l84.59-23.43a10,10,0,0,0,4.4-2.56L387.86,90a45,45,0,0,0,0-63.56Zm-220,184.67L302,53.52l47,47L203.19,246.38Zm-9.39,18.85,37.57,37.58-52,14.4Zm227-142.36L363.14,86.43l-47-47,10.6-10.59a25,25,0,0,1,35.31,0l11.72,11.72A25,25,0,0,1,373.74,75.84Z"/>
</svg>
