<svg id="katman_1" data-name="katman 1" xmlns="http://www.w3.org/2000/svg" xmlns:xlink="http://www.w3.org/1999/xlink" viewBox="0 0 2834.65 2834.65">
  <defs>
    <style>
      .cls-1 {
        fill: url(#Adsız_degrade_21);
      }
    </style>
    <linearGradient id="Adsız_degrade_21" data-name="Adsız degrade 21" x1="121.59" y1="2426.87" x2="2088.69" y2="459.77" gradientUnits="userSpaceOnUse">
      <stop offset="0" stop-color="#8c8c8c"/>
      <stop offset="0.5" stop-color="#a1a1a1"/>
      <stop offset="1" stop-color="#8c8c8c"/>
    </linearGradient>
  </defs>
  <title>money icon</title>
  <path class="cls-1" d="M2294.89,1256.7c-114.76,72.09-335.42,72.92-464.58,55.53a816.54,816.54,0,0,1-85.29-15.87v87.56a693.43,693.43,0,0,0,92.4,18.08c114.8,15,263.12,11,372.26-24.66,52.65-17.18,85.21-37.18,85.21-55.93V1256.7ZM1671.06,530.86c0,36.38-55.31,36.38-55.31,0V442.64a89.87,89.87,0,0,1-61.95-85.22V240.63a89.87,89.87,0,0,1,61.95-85.22V68.28c0-36.38,55.31-36.38,55.31,0v87.13A89.87,89.87,0,0,1,1733,240.63V357.42a89.87,89.87,0,0,1-61.95,85.22Zm6.64-173.45V240.63c0-45.25-68.58-45.25-68.58,0V357.42C1609.12,402.58,1677.7,402.58,1677.7,357.42ZM1367.46,891.49c0,36.38-55.31,36.38-55.31,0V722a89.87,89.87,0,0,1-61.95-85.22V310.1a89.87,89.87,0,0,1,61.95-85.22V121.57c0-36.38,55.31-36.38,55.31,0V224.88a89.87,89.87,0,0,1,61.95,85.22V636.81A89.87,89.87,0,0,1,1367.46,722ZM1305.51,310.1V636.81c0,45.09,68.58,45.09,68.58,0V310.1C1374.09,265,1305.51,265,1305.51,310.1ZM1063.85,783.9c0,36.38-55.31,36.38-55.31,0v-62a89.87,89.87,0,0,1-61.95-85.22V377.37a89.87,89.87,0,0,1,61.95-85.22V121.56c0-36.38,55.31-36.38,55.31,0V292.15a89.87,89.87,0,0,1,61.95,85.22V636.65a89.87,89.87,0,0,1-61.95,85.22v62ZM1001.9,377.37V636.65c0,45.09,68.58,45.09,68.58,0V377.37C1070.48,332.12,1001.9,332.12,1001.9,377.37ZM760.24,948.74c0,36.38-55.31,36.38-55.31,0V833.51A89.87,89.87,0,0,1,643,748.29v-264A89.87,89.87,0,0,1,704.92,399V263.16c0-36.38,55.31-36.38,55.31,0V399a89.87,89.87,0,0,1,61.95,85.22v264a89.87,89.87,0,0,1-61.95,85.22Zm-61.95-464.5v264c0,45.09,68.58,45.09,68.58,0v-264C766.87,439.17,698.29,439.17,698.29,484.24ZM456.63,1302.73c0,36.38-55.31,36.38-55.31,0V1038.86a89.87,89.87,0,0,1-61.95-85.22V406.21A89.87,89.87,0,0,1,401.31,321V68.88c0-36.38,55.31-36.38,55.31,0V321a89.87,89.87,0,0,1,61.95,85.22V953.64a89.87,89.87,0,0,1-61.95,85.22v263.87ZM394.68,406.21V953.64c0,45.09,68.58,45.09,68.58,0V406.21C463.26,361,394.68,361,394.68,406.21ZM153,986.65c0,36.38-55.31,36.38-55.31,0V796.31a89.87,89.87,0,0,1-61.95-85.22V335.56A89.87,89.87,0,0,1,97.7,250.34V68.74c0-36.38,55.31-36.38,55.31,0V250.34A89.87,89.87,0,0,1,215,335.56V711.09A89.87,89.87,0,0,1,153,796.31V986.65ZM91.07,335.56V711.09c0,45.09,68.58,45.09,68.58,0V335.56c0-45.07-68.58-45.07-68.58,0ZM1884.62,2055c17.41-5,25.08,21.42,7.67,26.47l-237.62,68.62c-6.27,1.72-8.88,1.72-9,16.6V2446.5l355.58-106.63v-280.1L1926,2012l-155.51,76Zm54.71-424.27c16.48-7.53,27.93,17.53,11.45,25.06l-118.93,54.58c-16.48,7.53-27.93-17.53-11.45-25.06Zm-821.51-417.61c134.1,43.75,352.58,43.75,486.68,0,134.74-44,88.82-82.88,0-111.86-134.1-43.75-352.58-43.75-486.68,0-52.65,17.18-85.21,37.18-85.21,55.93C1032.62,1184,1096.67,1206.25,1117.83,1213.15Zm-85.13,22.11v63.93c1.77,18.29,34,37.65,85.13,54.34,134.1,43.75,352.58,43.75,486.68,0,52.65-17.18,85.21-37.18,85.21-55.93v-62.39c-18.71,11.58-41.67,21.81-68.14,30.44-145.5,47.47-375.32,47.47-520.81,0-26.43-8.62-49.37-18.84-68.06-30.39Zm0,140.38v67c1.77,18.29,34,37.65,85.13,54.34,134.1,43.75,352.58,43.75,486.68,0,52.65-17.18,85.21-37.18,85.21-55.93v-65.46c-18.71,11.58-41.67,21.81-68.14,30.44-145.5,47.47-375.32,47.47-520.81,0-26.43-8.62-49.37-18.84-68.06-30.39Zm-55.31,19.49q0-119-.08-237.91c0-45.43,47.18-83.54,123.45-108.43,137.8-45,340.69-45.94,481.81-11.09.17-95.69-.08-191.37-.08-287,0-45.43,47.18-83.54,123.45-108.43,145.5-47.47,375.32-47.47,520.81,0,46.54,15.19,123.45,49.57,123.45,108.43V1212l268.86,77.5c61.46,18.19,63,21,62.43,69.38v226.81c-.42,30.56,7.42,49.44-49.75,81.49l-57.24,28,167.71,80.76c47.15,22.7,56.68,38.55,56.68,91.32,0,74.45-.09,149.19-.11,223.49,0,65.76-1.17,68-65.52,87.31l-695,208.43a27.43,27.43,0,0,1-2.77.83L695.14,2789.21c-48.7,15-80.91-13-80.46-12.62,46.53,34.48-405.76-302.22-544.06-405.21-33.59-25-33.11-25-33.11-62.65V2040.28c0-70.17,9.24-57.24,74.29-75.82l-.05-203.18c-3.46-30.66,29.21-40.82,52.42-49.77l813.22-316.38ZM1745,1239.4c27.4,7.42,58.6,13.58,92.63,18.16,65.61,8.83,447,15.36,457.23-77.73v-67.34c-131.18,81.18-406.5,77-550,41.53.05,1.06.09,2.13.09,3.2v82.18Zm0,201.54c0,58.81-76.31,93.16-123.45,108.54-145.5,47.47-375.32,47.47-520.81,0-69-22.52-114.2-55.86-122.18-95.66L199.94,1756.75l751.11,294.13c46,17.77,35.75,16.57,74-3.24l636.16-289.8-234.64-83.49c-34.25-12.08-15.88-64.15,18.36-52.07l256.45,91.25c64.76,23,63.09,18.85,63.09,88.14V2029.4l308.72-150.85V1639.06c0-27.08,1.53-21.74-17.92-28.91L1880.6,1550.3a27.6,27.6,0,1,1,17.72-52.29c63.33,21.7,126.81,44.35,190.42,65L2585,1336.95l-234.77-67.67v52.13c0,45.43-47.18,83.54-123.45,108.43-117.78,38.43-272.79,43-396.45,26.82a783.83,783.83,0,0,1-85.27-15.71Zm-22-350.51c93.31,30.44,571.89,51.64,571.89-55.93V969c-138,85.38-441.4,78.59-589,30.44-26.43-8.62-49.37-18.84-68.06-30.39l0,66.55c1.81,25.84,64.48,48,85.16,54.79ZM1637.92,893c2.17,18.18,34.27,37.39,85.09,54,93.31,30.44,571.89,51.64,571.89-55.93V828.66c-138,85.38-441.4,78.59-589,30.44-26.4-8.61-49.31-18.81-68-30.35ZM1723,806.61c187.89,67.5,565.93,25.63,565.8-58.69,0-18.75-26.48-36-79.12-53.16-134.1-43.75-352.58-43.75-486.68,0-110.39,36-113.61,74.79,0,111.86ZM912.32,1737.83c-32.78,0-59.35,12.22-59.35,27.3s26.57,27.3,59.35,27.3,59.35-12.22,59.35-27.3-26.57-27.3-59.35-27.3Zm797,58.69c-230.78,105.15-461.41,213.07-692.91,316.27l.71,31.46c.71,36.24-54.38,37.31-55.09,1.08l-.7-31c-264.16-94.72-532.08-208.51-794.43-311.24l.07,242.92c0,8.31-1.42,6.29,6.17,9.57l791.32,341.7-1.45-86.33c-.57-36.24,54.53-37.1,55.09-.86l1.4,83.39,689.77-337,.07-259.91Zm419.27,55,479-234.05c21.13-10.7,18.64-22.14,18.64-31.8V1378.74L2129,1605.28Zm-144,131.88,45.65,28.4c226.1-63.9,452.25-127,678.36-190.87l-197.19-95L1984.56,1983.4Zm-394.21,479.69V2194.34l-88.91,25.13L1035.8,2447c-43.13,21.07-40.59,23.78-86.57,3.93l-105.51-45.56-160.84,45.46v17.37c0,36.38-55.31,36.38-55.31,0V2444L92.82,2060.28v248.45c.28,10.52,1.48,11,10.64,18.36l524.4,390.51.38-115.61c0-36.24,55.09-36.24,55.09,0l-.43,133.24,907.45-272.13Zm466.2-400.51v260.7l660.94-198.21c26.2-7.86,26.2-8.69,26.2-38l-.11-218.65-687,194.18ZM403,2215.06l257.43,184.73,103-29.1L403,2215.06Z"/>
</svg>
