<svg id="katman_1" data-name="katman 1" xmlns="http://www.w3.org/2000/svg" xmlns:xlink="http://www.w3.org/1999/xlink" viewBox="0 0 512 425">
  <defs>
    <style>
      .cls-1 {
        fill: url(#Adsız_degrade_11);
      }

      .cls-2 {
        fill: url(#Adsız_degrade_11-2);
      }

      .cls-3 {
        fill: url(#Adsız_degrade_11-3);
      }

      .cls-4 {
        fill: url(#Adsız_degrade_11-4);
      }

      .cls-5 {
        fill: url(#Adsız_degrade_11-5);
      }

      .cls-6 {
        fill: url(#Adsız_degrade_11-6);
      }

      .cls-7 {
        fill: url(#Adsız_degrade_11-7);
      }

      .cls-8 {
        fill: url(#Adsız_degrade_11-8);
      }

      .cls-9 {
        fill: url(#Adsız_degrade_11-9);
      }

      .cls-10 {
        fill: url(#Adsız_degrade_11-10);
      }

      .cls-11 {
        fill: url(#Adsız_degrade_11-11);
      }

      .cls-12 {
        fill: url(#Adsız_degrade_11-12);
      }

      .cls-13 {
        fill: url(#Adsız_degrade_11-13);
      }

      .cls-14 {
        fill: url(#Adsız_degrade_11-14);
      }

      .cls-15 {
        fill: url(#Adsız_degrade_11-15);
      }

      .cls-16 {
        fill: url(#Adsız_degrade_11-16);
      }

      .cls-17 {
        fill: url(#Adsız_degrade_11-17);
      }

      .cls-18 {
        fill: url(#Adsız_degrade_11-18);
      }

      .cls-19 {
        fill: url(#Adsız_degrade_11-19);
      }

      .cls-20 {
        fill: url(#Adsız_degrade_11-20);
      }

      .cls-21 {
        fill: url(#Adsız_degrade_11-21);
      }

      .cls-22 {
        fill: url(#Adsız_degrade_11-22);
      }

      .cls-23 {
        fill: url(#Adsız_degrade_11-23);
      }

      .cls-24 {
        fill: url(#Adsız_degrade_11-24);
      }

      .cls-25 {
        fill: url(#Adsız_degrade_11-25);
      }

      .cls-26 {
        fill: url(#Adsız_degrade_11-26);
      }

      .cls-27 {
        fill: url(#Adsız_degrade_11-27);
      }

      .cls-28 {
        fill: url(#Adsız_degrade_11-28);
      }

      .cls-29 {
        fill: url(#Adsız_degrade_11-29);
      }
    </style>
    <linearGradient id="Adsız_degrade_11" data-name="Adsız degrade 11" x1="141.38" y1="153.76" x2="370.62" y2="383" gradientUnits="userSpaceOnUse">
      <stop offset="0" stop-color="#8c8c8c"/>
      <stop offset="1" stop-color="#a1a1a1"/>
    </linearGradient>
    <linearGradient id="Adsız_degrade_11-2" x1="359.38" y1="33.33" x2="447.06" y2="121.01" xlink:href="#Adsız_degrade_11"/>
    <linearGradient id="Adsız_degrade_11-3" x1="69.81" y1="38.2" x2="147.74" y2="116.14" xlink:href="#Adsız_degrade_11"/>
    <linearGradient id="Adsız_degrade_11-4" x1="108.9" y1="149.54" x2="403.1" y2="443.74" xlink:href="#Adsız_degrade_11"/>
    <linearGradient id="Adsız_degrade_11-5" x1="130.92" y1="290.49" x2="162.16" y2="321.73" xlink:href="#Adsız_degrade_11"/>
    <linearGradient id="Adsız_degrade_11-6" x1="159.21" y1="302.38" x2="182.52" y2="325.69" xlink:href="#Adsız_degrade_11"/>
    <linearGradient id="Adsız_degrade_11-7" x1="171.08" y1="265.01" x2="219.3" y2="313.24" xlink:href="#Adsız_degrade_11"/>
    <linearGradient id="Adsız_degrade_11-8" x1="206.91" y1="299.55" x2="232.11" y2="324.75" xlink:href="#Adsız_degrade_11"/>
    <linearGradient id="Adsız_degrade_11-9" x1="224.51" y1="279.35" x2="263.17" y2="318.02" xlink:href="#Adsız_degrade_11"/>
    <linearGradient id="Adsız_degrade_11-10" x1="254.05" y1="295.02" x2="282.27" y2="323.24" xlink:href="#Adsız_degrade_11"/>
    <linearGradient id="Adsız_degrade_11-11" x1="265.42" y1="256.14" x2="319.56" y2="310.28" xlink:href="#Adsız_degrade_11"/>
    <linearGradient id="Adsız_degrade_11-12" x1="295.91" y1="274.63" x2="337.72" y2="316.44" xlink:href="#Adsız_degrade_11"/>
    <linearGradient id="Adsız_degrade_11-13" x1="324.7" y1="288.03" x2="357.57" y2="320.91" xlink:href="#Adsız_degrade_11"/>
    <linearGradient id="Adsız_degrade_11-14" x1="337.64" y1="253.9" x2="393.28" y2="309.53" xlink:href="#Adsız_degrade_11"/>
    <linearGradient id="Adsız_degrade_11-15" x1="141.19" y1="202.14" x2="151.89" y2="212.84" xlink:href="#Adsız_degrade_11"/>
    <linearGradient id="Adsız_degrade_11-16" x1="162.58" y1="202.14" x2="173.28" y2="212.84" xlink:href="#Adsız_degrade_11"/>
    <linearGradient id="Adsız_degrade_11-17" x1="183.97" y1="202.14" x2="194.66" y2="212.84" xlink:href="#Adsız_degrade_11"/>
    <linearGradient id="Adsız_degrade_11-18" x1="217.58" y1="33.87" x2="294.42" y2="110.72" xlink:href="#Adsız_degrade_11"/>
    <linearGradient id="Adsız_degrade_11-19" x1="236.25" y1="52.55" x2="275.74" y2="92.04" xlink:href="#Adsız_degrade_11"/>
    <linearGradient id="Adsız_degrade_11-20" x1="0.65" y1="156.88" x2="90.75" y2="246.98" xlink:href="#Adsız_degrade_11"/>
    <linearGradient id="Adsız_degrade_11-21" x1="25.16" y1="286.35" x2="40.52" y2="301.7" xlink:href="#Adsız_degrade_11"/>
    <linearGradient id="Adsız_degrade_11-22" x1="28.56" y1="313.66" x2="37.12" y2="322.22" xlink:href="#Adsız_degrade_11"/>
    <linearGradient id="Adsız_degrade_11-23" x1="50.92" y1="286.35" x2="66.28" y2="301.7" xlink:href="#Adsız_degrade_11"/>
    <linearGradient id="Adsız_degrade_11-24" x1="54.32" y1="313.66" x2="62.88" y2="322.22" xlink:href="#Adsız_degrade_11"/>
    <linearGradient id="Adsız_degrade_11-25" x1="421.24" y1="193.35" x2="511.35" y2="283.46" xlink:href="#Adsız_degrade_11"/>
    <linearGradient id="Adsız_degrade_11-26" x1="471.48" y1="138.63" x2="486.84" y2="153.99" xlink:href="#Adsız_degrade_11"/>
    <linearGradient id="Adsız_degrade_11-27" x1="474.88" y1="118.12" x2="483.44" y2="126.68" xlink:href="#Adsız_degrade_11"/>
    <linearGradient id="Adsız_degrade_11-28" x1="445.72" y1="138.63" x2="461.08" y2="153.99" xlink:href="#Adsız_degrade_11"/>
    <linearGradient id="Adsız_degrade_11-29" x1="449.12" y1="118.12" x2="457.68" y2="126.68" xlink:href="#Adsız_degrade_11"/>
  </defs>
  <title>pc icon</title>
  <g>
    <path class="cls-1" d="M400,183.17H112V353.59H400V183.17ZM390,343.59H122V193.17H390V343.59Z"/>
    <polygon class="cls-2" points="461.29 96.78 471.29 96.78 471.29 67.3 325.42 67.3 325.42 77.3 461.29 77.3 461.29 96.78"/>
    <polygon class="cls-3" points="50.71 77.3 186.58 77.3 186.58 67.3 40.71 67.3 40.71 96.78 50.71 96.78 50.71 77.3"/>
    <path class="cls-4" d="M435.51,365H421.4c0-.12,0-.23,0-.35V172.13a10.36,10.36,0,0,0-10.35-10.34H100.94a10.36,10.36,0,0,0-10.35,10.34v192.5c0,.12,0,.24,0,.35H76.5a10.36,10.36,0,0,0-10.34,10.34v21.39A10.36,10.36,0,0,0,76.5,407.07h359a10.36,10.36,0,0,0,10.34-10.35V375.33A10.36,10.36,0,0,0,435.51,365ZM100.58,172.13a.35.35,0,0,1,.35-.34H411.06a.35.35,0,0,1,.35.34v192.5a.35.35,0,0,1-.35.34H100.94a.35.35,0,0,1-.35-.34V172.13ZM287.53,375,286.19,381H225.81L224.47,375Zm148.32,21.74a.35.35,0,0,1-.34.35H76.5a.35.35,0,0,1-.34-.35V375.33a.34.34,0,0,1,.34-.34H214.24l3.54,16h76.43l3.56-16H435.51a.34.34,0,0,1,.34.34Z"/>
    <rect class="cls-5" x="141.19" y="280.21" width="10.69" height="51.79"/>
    <rect class="cls-6" x="165.52" y="296.07" width="10.69" height="35.93"/>
    <rect class="cls-7" x="189.84" y="246.24" width="10.69" height="85.76"/>
    <rect class="cls-8" x="214.17" y="292.29" width="10.69" height="39.71"/>
    <rect class="cls-9" x="238.49" y="265.37" width="10.69" height="66.63"/>
    <rect class="cls-10" x="262.81" y="286.25" width="10.7" height="45.75"/>
    <rect class="cls-11" x="287.14" y="234.42" width="10.69" height="97.58"/>
    <rect class="cls-12" x="311.46" y="259.08" width="10.69" height="72.92"/>
    <rect class="cls-13" x="335.79" y="276.94" width="10.69" height="55.06"/>
    <rect class="cls-14" x="360.11" y="231.42" width="10.69" height="100.58"/>
    <rect class="cls-15" x="141.19" y="202.14" width="10.69" height="10.69"/>
    <rect class="cls-16" x="162.58" y="202.14" width="10.69" height="10.69"/>
    <rect class="cls-17" x="183.97" y="202.14" width="10.69" height="10.69"/>
    <path class="cls-18" d="M256,126.66A54.37,54.37,0,1,0,201.63,72.3,54.43,54.43,0,0,0,256,126.66Zm0-98.73A44.37,44.37,0,1,1,211.63,72.3,44.42,44.42,0,0,1,256,27.93Z"/>
    <path class="cls-19" d="M254.59,77.1c7.28,2.14,7.34,4.34,7.38,6a5.82,5.82,0,0,1-4,5.91,7.09,7.09,0,0,1-1.12.24,5.09,5.09,0,0,1-4-1.26,5.66,5.66,0,0,1-1.92-4.25h-10a15.67,15.67,0,0,0,5.31,11.75,15.26,15.26,0,0,0,4.8,2.86v8.48h10V98.47a15.91,15.91,0,0,0,11-15.7c-.31-11.09-10.67-14.13-14.56-15.27-7.07-2.07-7.2-3.62-7.35-5.26a6.15,6.15,0,0,1,4.69-6.77l.47-.07a5,5,0,0,1,4,1.28,5.66,5.66,0,0,1,1.9,4.25v.39l10,0v-.39a15.66,15.66,0,0,0-5.27-11.76A15.25,15.25,0,0,0,261,46.3v-8.5H251v8.33a16.18,16.18,0,0,0-10.9,17C240.87,71.89,247.52,75,254.59,77.1Z"/>
    <polygon class="cls-20" points="45.7 111.83 11.34 171.34 27.82 171.34 27.82 274.14 37.82 274.14 37.82 161.34 28.66 161.34 45.7 131.82 62.75 161.34 53.59 161.34 53.59 274.14 63.59 274.14 63.59 171.34 80.08 171.34 45.7 111.83"/>
    <rect class="cls-21" x="28.56" y="282.95" width="8.56" height="22.15"/>
    <rect class="cls-22" x="28.56" y="313.66" width="8.56" height="8.56"/>
    <rect class="cls-23" x="54.32" y="282.95" width="8.56" height="22.15"/>
    <rect class="cls-24" x="54.32" y="313.66" width="8.56" height="8.56"/>
    <polygon class="cls-25" points="484.18 268.99 484.18 166.19 474.18 166.19 474.18 278.99 483.34 278.99 466.3 308.51 449.25 278.99 458.41 278.99 458.41 166.19 448.41 166.19 448.41 268.99 431.93 268.99 466.3 328.51 500.66 268.99 484.18 268.99"/>
    <rect class="cls-26" x="474.88" y="135.23" width="8.56" height="22.15"/>
    <rect class="cls-27" x="474.88" y="118.12" width="8.56" height="8.56"/>
    <rect class="cls-28" x="449.12" y="135.23" width="8.56" height="22.15"/>
    <rect class="cls-29" x="449.12" y="118.12" width="8.56" height="8.56"/>
  </g>
</svg>
