<svg id="katman_1" data-name="katman 1" xmlns="http://www.w3.org/2000/svg" xmlns:xlink="http://www.w3.org/1999/xlink" viewBox="0 0 100 72">
  <defs>
    <style>
      .cls-1 {
        fill: url(#Adsız_degrade_21);
      }
    </style>
    <linearGradient id="Adsız_degrade_21" data-name="Adsız degrade 21" x1="17.79" y1="6.81" x2="76.52" y2="65.54" gradientUnits="userSpaceOnUse">
      <stop offset="0" stop-color="#8c8c8c"/>
      <stop offset="0.5" stop-color="#a1a1a1"/>
      <stop offset="1" stop-color="#8c8c8c"/>
    </linearGradient>
  </defs>
  <title>phone icon</title>
  <path class="cls-1" d="M71.4,16.58v.61l1.92.42a1,1,0,0,1,.79,1V21a1,1,0,0,1-1,1h-.35v.9a1,1,0,0,1-2,0V22H70.4a1,1,0,0,1,0-2H72.1v-.61L70.18,19a1,1,0,0,1-.79-1V15.58a1,1,0,0,1,1-1h.35v-.9a1,1,0,0,1,2,0v.9h.35a1,1,0,0,1,0,2ZM64.19,34.29H77.84l-1-1a1,1,0,0,1,1.41-1.41L81,34.59A1,1,0,0,1,81,36l-2.75,2.75a1,1,0,0,1-1.41-1.41l1-1H64.19a8.49,8.49,0,0,1-16.87,0H37.5a1,1,0,0,1,0-2h9.81a8.49,8.49,0,0,1,16.87,0Zm-1.94,1a6.5,6.5,0,1,0-6.5,6.5A6.51,6.51,0,0,0,62.25,35.29ZM57.1,33.58a1,1,0,1,0,0-2h-.35v-.9a1,1,0,0,0-2,0v.9H54.4a1,1,0,0,0-1,1V35a1,1,0,0,0,.79,1l1.92.42V37H54.4a1,1,0,0,0,0,2h.35v.9a1,1,0,0,0,2,0V39h.35a1,1,0,0,0,1-1V35.59a1,1,0,0,0-.79-1l-1.92-.42v-.61ZM87.25,51.29a8.5,8.5,0,1,1-8.5-8.5A8.51,8.51,0,0,1,87.25,51.29Zm-2,0a6.5,6.5,0,1,0-6.5,6.5A6.51,6.51,0,0,0,85.25,51.29ZM80.1,49.58a1,1,0,1,0,0-2h-.35v-.9a1,1,0,0,0-2,0v.9H77.4a1,1,0,0,0-1,1V51a1,1,0,0,0,.79,1l1.92.42V53H77.4a1,1,0,1,0,0,2h.35v.9a1,1,0,0,0,2,0V55h.35a1,1,0,0,0,1-1V51.59a1,1,0,0,0-.79-1l-1.92-.42v-.61Zm7.07-31.67A1,1,0,0,1,87,19l-2.75,2.75a1,1,0,0,1-1.41-1.41l1-1H80.19a8.49,8.49,0,0,1-16.87,0H45.13a1,1,0,0,1,0-2H63.31a8.49,8.49,0,0,1,16.87,0h3.65l-1-1a1,1,0,0,1,1.41-1.41L87,17.59A1,1,0,0,1,87.17,17.91Zm-8.92.38a6.5,6.5,0,1,0-6.5,6.5A6.51,6.51,0,0,0,78.25,18.29ZM68.17,50.91a1,1,0,0,0-.22-.33l-2.75-2.75a1,1,0,0,0-1.41,1.41l1,1H45.13a1,1,0,0,0,0,2H64.84l-1,1a1,1,0,1,0,1.41,1.41L68,52a1,1,0,0,0,.22-1.09ZM41.75,38.5a1,1,0,0,0-1,1v19a2,2,0,0,1-2,2h-22a2,2,0,0,1-2-2v-45a2,2,0,0,1,2-2h22a2,2,0,0,1,2,2v18a1,1,0,0,0,2,0v-18a4,4,0,0,0-4-4h-22a4,4,0,0,0-4,4v45a4,4,0,0,0,4,4h22a4,4,0,0,0,4-4v-19A1,1,0,0,0,41.75,38.5Zm-23-7h6a1,1,0,0,0,0-2h-6a1,1,0,0,0,0,2Zm0-5h6a1,1,0,0,0,0-2h-6a1,1,0,0,0,0,2Zm0,10h4a1,1,0,0,0,0-2h-4a1,1,0,0,0,0,2Zm0,5h14a1,1,0,0,0,0-2h-14a1,1,0,0,0,0,2Zm-1,4a1,1,0,0,1,1-1h18a1,1,0,0,1,1,1v7a1,1,0,0,1-1,1h-18a1,1,0,0,1-1-1Zm2,6h16v-5h-16Z"/>
</svg>
