<svg id="katman_1" data-name="katman 1" xmlns="http://www.w3.org/2000/svg" viewBox="0 0 64 80"><defs><style>.cls-1{fill:#f7f7f7;}</style></defs><title>fast money</title><path class="cls-1" d="M44,13A19,19,0,1,0,63,32,19,19,0,0,0,44,13ZM40.56,40.23a8.84,8.84,0,0,1-1.28-.33,1.23,1.23,0,0,1-.83-1.16V37.11a.63.63,0,0,1,1-.54,6.86,6.86,0,0,0,1.2.57,6.94,6.94,0,0,0,2.35.42h.16a5,5,0,0,0,1.06-.12,3,3,0,0,0,.7-.25l.16-.09a1.52,1.52,0,0,0,.52-.52,1.31,1.31,0,0,0,.17-.66,1.42,1.42,0,0,0-.27-.85,2.74,2.74,0,0,0-.58-.57l-.17-.12a7.85,7.85,0,0,0-1.12-.62l-.47-.21-.93-.39a7.16,7.16,0,0,1-2.86-1.95,4.26,4.26,0,0,1-.94-2.78,4.44,4.44,0,0,1,.51-2.2,4.36,4.36,0,0,1,1.4-1.51,6.28,6.28,0,0,1,2-.87q.38-.09.77-.15V22.45h1.76v1.1a14.75,14.75,0,0,1,2.19.15q.46.07.89.18a1.23,1.23,0,0,1,.93,1.19V26.5a.64.64,0,0,1-.9.58,7,7,0,0,0-1-.36,7.79,7.79,0,0,0-1-.21,7.27,7.27,0,0,0-1-.07h-.13a4.78,4.78,0,0,0-1,.12,3,3,0,0,0-.76.27L43,26.9a1.67,1.67,0,0,0-.55.52,1.23,1.23,0,0,0-.19.68,1.3,1.3,0,0,0,.22.74,2.51,2.51,0,0,0,.62.62h0a6.59,6.59,0,0,0,.95.56l.81.38.48.2a14.22,14.22,0,0,1,1.76.87,6.29,6.29,0,0,1,1.34,1,4.1,4.1,0,0,1,.85,1.33,5.3,5.3,0,0,1-.22,4,4.19,4.19,0,0,1-1.41,1.5,6.09,6.09,0,0,1-2.07.83l-.73.13v1.22H43.12v-1.1A14.3,14.3,0,0,1,40.56,40.23Zm3.22,7.67h-.63V45.78h.63a13.78,13.78,0,1,0,0-27.56h-.63V16.11h.63a15.9,15.9,0,1,1,0,31.79Z"/><path class="cls-1" d="M22.92,17.21H27A22.72,22.72,0,0,1,31.83,13H22.92a2.1,2.1,0,1,0,0,4.21Z"/><path class="cls-1" d="M24,21.45H12.17a2.1,2.1,0,1,0,0,4.21H22.34A22.36,22.36,0,0,1,24,21.45Z"/><path class="cls-1" d="M21.42,32c0-.71,0-1.41.1-2.1H3.1a2.1,2.1,0,1,0,0,4.21H21.53C21.46,33.41,21.42,32.71,21.42,32Z"/><path class="cls-1" d="M22.34,38.35H12a2.1,2.1,0,1,0,0,4.21H24A22.41,22.41,0,0,1,22.34,38.35Z"/><path class="cls-1" d="M27,46.79H22.82a2.1,2.1,0,1,0,0,4.21h9A22.73,22.73,0,0,1,27,46.79Z"/></svg>