<?xml version="1.0" encoding="utf-8"?>
<!-- Generator: Adobe Illustrator 21.0.0, SVG Export Plug-In . SVG Version: 6.00 Build 0)  -->
<svg version="1.1" id="katman_1" xmlns="http://www.w3.org/2000/svg" xmlns:xlink="http://www.w3.org/1999/xlink" x="0px" y="0px"
	 viewBox="0 0 88 87.9" style="enable-background:new 0 0 88 87.9;" xml:space="preserve">
<style type="text/css">
	.st0{fill:#fff;}
</style>
<title>100icons2017</title>
<g>
	<path class="st0" d="M56.2,72.3c-0.1,0-0.2,0-0.3-0.1c-3.9-1.7-7-4.7-8.9-8.4c-0.5-1-4.5-9.6-2.7-13.1c0.3-0.7,1-1.2,1.8-1.4
		c2.1-0.4,3.3,2.4,5.2,6.3c1.9,4.1,4.3,9.3,7.9,10.8c0.4,0.3,0.5,0.8,0.3,1.2c-0.2,0.3-0.5,0.5-0.9,0.4c-4.2-1.8-6.7-7.3-8.8-11.7
		c-1-2.2-2.5-5.5-3.3-5.3c-0.3,0-0.5,0.2-0.6,0.5c-0.9,1.8,0.7,7.4,2.7,11.6c1.7,3.4,4.5,6,8,7.6c0.4,0.2,0.6,0.7,0.5,1.1
		C56.9,72,56.6,72.3,56.2,72.3L56.2,72.3z"/>
	<path class="st0" d="M50.5,75.1c-0.2,0-0.4-0.1-0.6-0.2c-0.4-0.4-9.7-8.7-10.4-17.4c-0.5-5.9,0.5-10.2,3-12.3
		c1.5-1.2,3.6-1.6,5.5-1c3.1,0.8,5.1,4.8,7.3,9.1c2.2,4.2,4.3,8.3,7.4,10c0.4,0.3,0.5,0.8,0.3,1.2c-0.2,0.4-0.7,0.5-1.1,0.3
		c-3.6-2-5.9-6.4-8.1-10.8c-2-3.9-3.9-7.6-6.2-8.2c-1.3-0.5-2.8-0.2-3.9,0.6c-2,1.7-2.9,5.6-2.4,10.8c0.7,8,9.8,16.2,9.9,16.3
		c0.4,0.2,0.5,0.8,0.3,1.2C51.1,75,50.8,75.2,50.5,75.1z"/>
	<path class="st0" d="M36.5,65.5c-0.3,0-0.7-0.2-0.8-0.5c-1.3-3.2-3.8-12.8,0-19.8c4.1-7.4,10.7-7.5,15-5.3s13,17.6,13.9,19.4
		c0.2,0.4,0.1,0.9-0.3,1.2s-0.9,0.1-1.2-0.3c-2.5-4.6-9.8-17-13.1-18.7c-3.9-1.9-9.3-1.8-12.8,4.6s-1.1,15.6,0,18.3
		c0.2,0.4,0,0.9-0.5,1.1C36.7,65.4,36.6,65.4,36.5,65.5L36.5,65.5z"/>
	<path class="st0" d="M44.7,78c-0.2,0-0.4-0.1-0.5-0.2c-2.8-2.3-6.5-8.1-6.7-8.4c-0.3-0.4-0.1-0.9,0.3-1.2c0.4-0.3,0.9-0.1,1.2,0.3
		c0,0.1,3.7,5.8,6.3,8c0.4,0.3,0.4,0.8,0.1,1.2C45.2,77.9,44.9,78,44.7,78L44.7,78z"/>
	<path class="st0" d="M67.1,54.4c-0.3,0-0.6-0.2-0.8-0.5c-0.1-0.2-7.6-17-19.9-19c-6.7-1.1-13.7,2.3-20.8,10.1
		c-0.3,0.3-0.9,0.3-1.2,0c-0.3-0.3-0.3-0.8-0.1-1.2c7.5-8.2,15-11.8,22.3-10.6c13.3,2.2,20.9,19.3,21.2,20c0.2,0.4,0,0.9-0.4,1.1
		C67.3,54.4,67.2,54.4,67.1,54.4z"/>
	<path class="st0" d="M36.4,78c-0.3,0-0.6-0.2-0.7-0.4C27,63.9,27,54.5,28.5,49.1c0.8-3.5,2.8-6.5,5.6-8.8c0.4-0.3,0.9-0.2,1.2,0.2
		s0.2,0.9-0.2,1.2c-0.6,0.4-13.6,10.1,2,35c0.2,0.4,0.1,0.9-0.3,1.2C36.7,78,36.5,78,36.4,78L36.4,78z"/>
	<path class="st0" d="M24.6,65.5c-0.4,0-0.7-0.3-0.8-0.7c-1.7-8.5,0-12.9,0-13.1c0.2-0.4,0.7-0.7,1.1-0.5s0.7,0.7,0.5,1.1l0,0
		c0,0-1.5,4.2,0,12.1C25.4,64.9,25.1,65.4,24.6,65.5C24.6,65.4,24.6,65.4,24.6,65.5L24.6,65.5z"/>
	<path class="st0" d="M31,76.9c-0.2,0-0.5-0.1-0.6-0.3c-2.1-2.3-3.8-5-5-7.8c-0.2-0.4,0.1-0.9,0.5-1.1s0.9,0.1,1.1,0.5
		c1.1,2.7,2.7,5.2,4.6,7.3c0.3,0.3,0.3,0.9,0,1.2C31.4,76.9,31.2,77,31,76.9L31,76.9z"/>
	<path class="st0" d="M68.3,49c-0.4,0-0.7-0.2-0.8-0.6C67.2,47.6,61.3,30,42.9,31c-0.5,0-0.9-0.3-0.9-0.8s0.3-0.9,0.8-0.9l0,0
		C62.5,28.2,69,47.7,69.1,47.9c0.1,0.4-0.1,0.9-0.5,1.1C68.4,49,68.4,49,68.3,49z"/>
	<path class="st0" d="M17.9,50.1c-0.5,0-0.8-0.4-0.8-0.9c0-0.1,0-0.2,0.1-0.3c7-17.8,19.8-18.7,20.3-18.7s0.9,0.3,0.9,0.8
		s-0.3,0.9-0.8,0.9l0,0c-0.5,0-12.3,0.9-18.9,17.7C18.6,49.9,18.2,50.1,17.9,50.1z"/>
	<path class="st0" d="M19.6,60.4c-0.4,0-0.8-0.3-0.8-0.7c-0.4-4.1,0.6-8.2,2.9-11.6c0.3-0.4,0.8-0.5,1.2-0.2
		c0.4,0.3,0.5,0.8,0.2,1.2l0,0c-2,3.1-2.8,6.7-2.5,10.4c0.1,0.5-0.3,0.9-0.7,0.9l0,0H19.6z"/>
	<path class="st0" d="M16.7,42.9c-0.5,0-0.8-0.4-0.8-0.9c0-0.1,0-0.2,0.1-0.3c0.1-0.2,6.3-15.6,25.4-17.6S70,40.4,70.1,40.6
		c0.2,0.4,0,0.9-0.4,1.1c-0.4,0.2-0.9,0-1.1-0.4c-0.1-0.2-9.1-17.5-27.1-15.6s-24,16.4-24,16.6C17.3,42.7,17,42.9,16.7,42.9z"/>
	<path class="st0" d="M17.9,31.9c-0.5,0-0.9-0.4-0.9-0.8c0-0.2,0.1-0.4,0.2-0.5c0.3-0.3,6.7-8,21.8-10.7c6.8-1.4,13.8-0.3,19.8,3
		c2.6,1.4,4.9,3.2,6.9,5.4c0.3,0.4,0.3,0.9-0.1,1.2c-0.4,0.3-0.9,0.3-1.2-0.1l0,0c-0.1-0.1-9-10.8-25.1-7.9
		c-14.6,2.6-20.8,10.1-20.8,10.1C18.4,31.7,18.2,31.9,17.9,31.9z"/>
	<path class="st0" d="M71.3,36.7c-0.3,0-0.5-0.1-0.7-0.3l-3-3.9c-0.3-0.3-0.3-0.9,0-1.2c0.3-0.3,0.9-0.3,1.2,0
		c0.1,0.1,0.1,0.1,0.2,0.2l3,3.9c0.3,0.4,0.2,0.9-0.2,1.2C71.7,36.7,71.5,36.8,71.3,36.7L71.3,36.7z"/>
	<path class="st0" d="M67.1,25.2c-0.3,0-0.5-0.1-0.7-0.3c-0.1-0.1-6-7.8-20.6-8.3c-8.7-0.3-17.2,2.2-24.3,7.2
		c-0.4,0.3-0.9,0.3-1.2-0.1c-0.3-0.4-0.3-0.9,0.1-1.2l0,0c0.4-0.3,10-8.1,25.5-7.6s21.6,8.6,21.9,8.9c0.3,0.4,0.2,0.9-0.2,1.2
		C67.4,25.2,67.2,25.2,67.1,25.2z"/>
	<path class="st0" d="M26.8,16.6c-0.5,0-0.9-0.4-0.9-0.8c0-0.3,0.2-0.6,0.5-0.8l0.3-0.2c10-6.2,22.4-6.7,32.9-1.4
		c0.4,0.2,0.6,0.7,0.5,1.1c-0.2,0.4-0.7,0.6-1.1,0.5c0,0-0.1,0-0.1-0.1c-9.9-5.1-21.8-4.6-31.3,1.3l-0.3,0.2
		C27.1,16.6,27,16.6,26.8,16.6z"/>
</g>
</svg>
