
<svg xmlns="http://www.w3.org/2000/svg" width="425.48" height="45.38" viewBox="0 0 425.48 45.38">
  <g id="footer-logo" transform="translate(-37.26 -52.32)">
    <path id="Path_28" data-name="Path 28" d="M71.69,57H56.88V97.61H52.07V57H37.26V52.44H71.69Z" fill="#6d7999"/>
    <path id="Path_29" data-name="Path 29" d="M89.33,64.52v4.81h-.58a10.27,10.27,0,0,0-8.46,4.17A15,15,0,0,0,77.21,83V97.61H72.4V65h4.81v7.89A12.16,12.16,0,0,1,89,64.52Z" fill="#6d7999"/>
    <path id="Path_30" data-name="Path 30" d="M108,93.25q6.48,0,9.3-5.39h5.26a15.47,15.47,0,0,1-5.29,7.05,15.23,15.23,0,0,1-9.33,2.69,15.51,15.51,0,0,1-11.8-4.81A16.41,16.41,0,0,1,91.7,81.07a16.69,16.69,0,0,1,4.23-11.73,15.23,15.23,0,0,1,11.67-4.81,15.23,15.23,0,0,1,11.67,4.81,16.69,16.69,0,0,1,4.23,11.73V83H96.63a11.64,11.64,0,0,0,3.53,7.31A10.84,10.84,0,0,0,108,93.25Zm-.38-24.37a10.61,10.61,0,0,0-7.44,2.76A11.38,11.38,0,0,0,96.7,78.5h21.8a11.4,11.4,0,0,0-3.5-6.86,10.61,10.61,0,0,0-7.4-2.75Z" fill="#6d7999"/>
    <path id="Path_31" data-name="Path 31" d="M134.21,65v5a16.1,16.1,0,0,1,4.23-3.91,10.35,10.35,0,0,1,5.71-1.6,15.22,15.22,0,0,1,5.51.9,11.19,11.19,0,0,1,4,2.69,13.84,13.84,0,0,1,4,10.32V97.61h-4.81v-19a9.81,9.81,0,0,0-2.5-7.05,8.54,8.54,0,0,0-6.48-2.63A9.57,9.57,0,0,0,137,71.58a9.43,9.43,0,0,0-2.82,7.05v19H129.4V65Z" fill="#6d7999"/>
    <path id="Path_32" data-name="Path 32" d="M190.7,92q-3.85,5.64-11.48,5.64a14.53,14.53,0,0,1-11.28-4.81,17,17,0,0,1-4.23-11.73,17,17,0,0,1,4.23-11.73,14.9,14.9,0,0,1,11.61-4.81,12.72,12.72,0,0,1,11.16,5.71V52.44h4.81V97.61H190.7Zm-10.84,1.28a10.15,10.15,0,0,0,8.21-3.59A12.81,12.81,0,0,0,191,81.07a12.81,12.81,0,0,0-2.89-8.59,10.15,10.15,0,0,0-8.21-3.59,10.65,10.65,0,0,0-8.34,3.59,12.47,12.47,0,0,0-3,8.59,12.46,12.46,0,0,0,3,8.59,10.65,10.65,0,0,0,8.3,3.59Z" fill="#6d7999"/>
    <path id="Path_33" data-name="Path 33" d="M255.29,66.34l-10.46-13.9h-3.68l12.12,16.55Z" fill="#b6bdd3"/>
    <path id="Path_34" data-name="Path 34" d="M259.75,66.38,270.3,52.44h3.69l-12.22,16.6Z" fill="#b6bdd3"/>
    <path id="Path_35" data-name="Path 35" d="M209.57,58.58h26.55V52.47H203.26V97.45h6.31V78.54h23.65V72.36H209.57Z" fill="#8590ba"/>
    <path id="Path_36" data-name="Path 36" d="M261.08,74.14l-3.53-4.6-3.45,4.6L236.12,97.43H244l13.56-17.99,13.62,17.99h7.88Z" fill="#8590ba"/>
    <path id="Path_37" data-name="Path 37" d="M315.79,68.95H314V62l-5.25-9.52h2.07l4.08,7.69,4.1-7.69h2L315.79,62Z" fill="#8590ba"/>
    <path id="Path_38" data-name="Path 38" d="M326,68.95l4.51-16.43h4L339,68.95h-1.8L336,64.72h-7L327.81,69Zm5.89-14.86-2.49,9h6.22l-2.49-9Z" fill="#8590ba"/>
    <path id="Path_39" data-name="Path 39" d="M344,54.15V52.51h11.87v1.64h-5v14.8h-1.8V54.15Z" fill="#8590ba"/>
    <path id="Path_40" data-name="Path 40" d="M363.47,68.95V52.51h1.83V68.95Z" fill="#8590ba"/>
    <path id="Path_41" data-name="Path 41" d="M376.41,62.65v6.29h-1.83V52.51h6.08a5.63,5.63,0,0,1,3.93,1.21,4.89,4.89,0,0,1,1.32,3.78q0,3.8-3,4.77L386,68.95h-2l-3-6.29ZM380.68,61Q384,61,384,57.58t-3.37-3.45h-4.25V61Z" fill="#8590ba"/>
    <path id="Path_42" data-name="Path 42" d="M394.48,68.95V52.51h1.83V68.95Z" fill="#8590ba"/>
    <path id="Path_43" data-name="Path 43" d="M405.59,68.95V52.51h3.3l4.65,13.89,4.65-13.89h3.3V68.95h-1.83V54.46h-.33l-4.77,13.89h-2l-4.77-13.89h-.33V68.95Z" fill="#8590ba"/>
    <path id="Path_44" data-name="Path 44" d="M436.67,68.95H430.8V52.51h5.87q4,0,5.32,3.18a12.691,12.691,0,0,1,.76,4.8q0,6.2-3.09,7.81a6.43,6.43,0,0,1-2.99.65Zm4.2-8.45q0-4.72-2.11-5.89a4.24,4.24,0,0,0-2.09-.48h-4v13.2h4q4.2,0,4.2-6.84Z" fill="#8590ba"/>
    <path id="Path_45" data-name="Path 45" d="M449.61,68.95l4.51-16.43h4l4.51,16.43h-1.8l-1.19-4.23h-7l-1.19,4.23Zm5.89-14.86-2.49,9h6.22l-2.49-9Z" fill="#8590ba"/>
    <path id="Path_46" data-name="Path 46" d="M316.36,97.44H310.5V81h5.87q4,0,5.32,3.18a12.69,12.69,0,0,1,.76,4.8q0,6.2-3.09,7.81a6.43,6.43,0,0,1-3,.65Zm4.2-8.45q0-4.72-2.11-5.89a4.24,4.24,0,0,0-2.09-.48h-4v13.2h4q4.2,0,4.2-6.82Z" fill="#8590ba"/>
    <path id="Path_47" data-name="Path 47" d="M338.13,89.34q0,4.39-1.4,6.36t-5.09,2q-3.69,0-5.09-2t-1.4-6.35q0-4.33,1.43-6.43t5.06-2.1q3.63,0,5.07,2.09T338.13,89.34Zm-11.11,0a10.55,10.55,0,0,0,1,5.19q.95,1.58,3.67,1.58t3.66-1.54a10.519,10.519,0,0,0,.94-5.18,10.9,10.9,0,0,0-1-5.29,3.89,3.89,0,0,0-3.64-1.66Q329,82.44,328,84a10.88,10.88,0,0,0-1,5.29Z" fill="#8590ba"/>
    <path id="Path_48" data-name="Path 48" d="M348,90.67V89h4.54v8.07a28.859,28.859,0,0,1-5.34.57q-3.59,0-5-2.07t-1.39-6.38q0-4.31,1.39-6.39t4.93-2.08a23.38,23.38,0,0,1,4.58.47l.81.14-.07,1.52a31.24,31.24,0,0,0-5.1-.5q-2.73,0-3.68,1.58a10.71,10.71,0,0,0-1,5.25,10.71,10.71,0,0,0,1,5.25q.95,1.58,3.66,1.58a18,18,0,0,0,3.4-.33v-5Zm-2.2-13.75a2.24,2.24,0,0,0,1.47.5,2.19,2.19,0,0,0,1.46-.5,1.67,1.67,0,0,0,.62-1.28H351a3,3,0,0,1-1.09,2.26,4.57,4.57,0,0,1-5.31,0,3,3,0,0,1-1.08-2.26h1.64a1.65,1.65,0,0,0,.63,1.28Z" fill="#8590ba"/>
    <path id="Path_49" data-name="Path 49" d="M357.94,91.15v6.29h-1.83V81h6.08a5.63,5.63,0,0,1,3.93,1.21A4.89,4.89,0,0,1,367.43,86q0,3.8-3,4.77l3.16,6.67h-2l-3-6.29Zm4.27-1.61q3.35,0,3.35-3.45t-3.37-3.45h-4.25v6.91Z" fill="#8590ba"/>
    <path id="Path_50" data-name="Path 50" d="M372.44,92.5q0,3.56,3.85,3.56a4.59,4.59,0,0,0,3-.84,3.35,3.35,0,0,0,1-2.72V81h1.8V92.45a5,5,0,0,1-1.46,4,6.52,6.52,0,0,1-4.31,1.23A6.43,6.43,0,0,1,372,96.45a5,5,0,0,1-1.44-4V81h1.83Z" fill="#8590ba"/>
    <path id="Path_51" data-name="Path 51" d="M401.43,97.44V90h-8.36v7.43h-1.83V81h1.83v7.36h8.36V81h1.8V97.44Z" fill="#8590ba"/>
    <path id="Path_52" data-name="Path 52" d="M405.83,97.44,410.34,81h4l4.51,16.43H417l-1.19-4.23h-7l-1.19,4.23Zm5.89-14.86-2.49,9h6.22l-2.49-9Z" fill="#8590ba"/>
    <path id="Path_53" data-name="Path 53" d="M421.43,97.44V81h3.3l4.65,13.89L434,81h3.3V97.44h-1.83V83h-.33L430.4,96.84h-2L423.59,83h-.33V97.44Z" fill="#8590ba"/>
    <path id="Path_54" data-name="Path 54" d="M450.42,97.44h-9V81h1.83V95.8h7.22Z" fill="#8590ba"/>
    <path id="Path_55" data-name="Path 55" d="M452.74,97.44V81h10v1.61h-8.17V88.3h6.74v1.59h-6.74v5.94h8.17v1.61Z" fill="#8590ba"/>
    <line id="Line_1" data-name="Line 1" y2="45.29" transform="translate(293.72 52.32)" fill="none" stroke="#b6bdd3" stroke-miterlimit="10" stroke-width="1"/>
  </g>
</svg>
