<svg xmlns="http://www.w3.org/2000/svg" width="118" height="22" viewBox="0 0 118 22">
  <g id="Trendfx_logo" data-name="Trendfx logo" transform="translate(-12.173 -17.238)">
    <g id="Group_2" data-name="Group 2">
      <path id="Path_1" data-name="Path 1" d="M29.079,19.486H21.806V39.237H19.445V19.486H12.173V17.238H29.079Z" fill="#6d7999"/>
      <path id="Path_2" data-name="Path 2" d="M37.736,23.125v2.342h-.284A5.059,5.059,0,0,0,33.3,27.5a7.287,7.287,0,0,0-1.511,4.622v7.119H29.425V23.374h2.361v3.841a5.973,5.973,0,0,1,5.793-4.091Z" fill="#6d7999"/>
      <path id="Path_3" data-name="Path 3" d="M46.9,37.114a4.768,4.768,0,0,0,4.565-2.623h2.582a7.162,7.162,0,0,1-7.178,4.746A7.647,7.647,0,0,1,41.073,36.9,7.954,7.954,0,0,1,38.9,31.181a8.091,8.091,0,0,1,2.078-5.714,7.508,7.508,0,0,1,5.73-2.342,7.508,7.508,0,0,1,5.729,2.342,8.089,8.089,0,0,1,2.078,5.714v.937H41.325a5.649,5.649,0,0,0,1.732,3.56A5.349,5.349,0,0,0,46.9,37.114Zm-.189-11.866a5.233,5.233,0,0,0-3.652,1.343,5.526,5.526,0,0,0-1.7,3.341h10.7a5.534,5.534,0,0,0-1.7-3.341A5.234,5.234,0,0,0,46.709,25.248Z" fill="#6d7999"/>
      <path id="Path_4" data-name="Path 4" d="M59.773,23.374V25.81a7.885,7.885,0,0,1,2.078-1.9,5.112,5.112,0,0,1,2.8-.781,7.522,7.522,0,0,1,2.707.438,5.5,5.5,0,0,1,1.984,1.311A6.709,6.709,0,0,1,71.3,29.9v9.337H68.934V29.963a4.755,4.755,0,0,0-1.228-3.435,4.209,4.209,0,0,0-3.179-1.28,4.717,4.717,0,0,0-3.369,1.312,4.574,4.574,0,0,0-1.385,3.435v9.243H57.412V23.374Z" fill="#6d7999"/>
      <path id="Path_5" data-name="Path 5" d="M87.509,36.49a6.388,6.388,0,0,1-5.635,2.748A7.162,7.162,0,0,1,76.333,36.9a8.233,8.233,0,0,1-2.078-5.714,8.233,8.233,0,0,1,2.078-5.714,7.345,7.345,0,0,1,5.7-2.342A6.262,6.262,0,0,1,87.509,25.9V17.238H89.87v22H87.509Zm-5.32.624a5,5,0,0,0,4.03-1.749,6.207,6.207,0,0,0,1.416-4.184A6.209,6.209,0,0,0,86.218,27a5,5,0,0,0-4.03-1.748A5.249,5.249,0,0,0,78.1,27a6.041,6.041,0,0,0-1.48,4.185,6.04,6.04,0,0,0,1.48,4.184A5.247,5.247,0,0,0,82.189,37.114Z" fill="#6d7999"/>
      <g id="Group_1" data-name="Group 1">
        <path id="Path_6" data-name="Path 6" d="M118.647,24.031l-5.072-6.685h-1.786l5.879,7.963Z" fill="#b6bdd3"/>
        <path id="Path_7" data-name="Path 7" d="M120.811,24.054l5.114-6.708h1.786l-5.922,7.986Z" fill="#b6bdd3"/>
      </g>
      <path id="Path_8" data-name="Path 8" d="M97,20.564h12.687v-2.9h-15.7V38.988H97V30.026h11.3V27.1H97Z" fill="#8590ba"/>
      <path id="Path_9" data-name="Path 9" d="M121.454,27.785l-1.711-2.214-1.674,2.213-8.719,11.2h3.821l6.574-8.654,6.605,8.654h3.821Z" fill="#8590ba"/>
    </g>
  </g>
</svg>
