<svg xmlns="http://www.w3.org/2000/svg" viewBox="0 0 245 45.38">
  <g id="footer-logo" transform="translate(-37.26 -52.32)">
    <path id="Path_28" data-name="Path 28" d="M71.69,57H56.88V97.61H52.07V57H37.26V52.44H71.69Z" fill="#6d7999"/>
    <path id="Path_29" data-name="Path 29" d="M89.33,64.52v4.81h-.58a10.27,10.27,0,0,0-8.46,4.17A15,15,0,0,0,77.21,83V97.61H72.4V65h4.81v7.89A12.16,12.16,0,0,1,89,64.52Z" fill="#6d7999"/>
    <path id="Path_30" data-name="Path 30" d="M108,93.25q6.48,0,9.3-5.39h5.26a15.47,15.47,0,0,1-5.29,7.05,15.23,15.23,0,0,1-9.33,2.69,15.51,15.51,0,0,1-11.8-4.81A16.41,16.41,0,0,1,91.7,81.07a16.69,16.69,0,0,1,4.23-11.73,15.23,15.23,0,0,1,11.67-4.81,15.23,15.23,0,0,1,11.67,4.81,16.69,16.69,0,0,1,4.23,11.73V83H96.63a11.64,11.64,0,0,0,3.53,7.31A10.84,10.84,0,0,0,108,93.25Zm-.38-24.37a10.61,10.61,0,0,0-7.44,2.76A11.38,11.38,0,0,0,96.7,78.5h21.8a11.4,11.4,0,0,0-3.5-6.86,10.61,10.61,0,0,0-7.4-2.75Z" fill="#6d7999"/>
    <path id="Path_31" data-name="Path 31" d="M134.21,65v5a16.1,16.1,0,0,1,4.23-3.91,10.35,10.35,0,0,1,5.71-1.6,15.22,15.22,0,0,1,5.51.9,11.19,11.19,0,0,1,4,2.69,13.84,13.84,0,0,1,4,10.32V97.61h-4.81v-19a9.81,9.81,0,0,0-2.5-7.05,8.54,8.54,0,0,0-6.48-2.63A9.57,9.57,0,0,0,137,71.58a9.43,9.43,0,0,0-2.82,7.05v19H129.4V65Z" fill="#6d7999"/>
    <path id="Path_32" data-name="Path 32" d="M190.7,92q-3.85,5.64-11.48,5.64a14.53,14.53,0,0,1-11.28-4.81,17,17,0,0,1-4.23-11.73,17,17,0,0,1,4.23-11.73,14.9,14.9,0,0,1,11.61-4.81,12.72,12.72,0,0,1,11.16,5.71V52.44h4.81V97.61H190.7Zm-10.84,1.28a10.15,10.15,0,0,0,8.21-3.59A12.81,12.81,0,0,0,191,81.07a12.81,12.81,0,0,0-2.89-8.59,10.15,10.15,0,0,0-8.21-3.59,10.65,10.65,0,0,0-8.34,3.59,12.47,12.47,0,0,0-3,8.59,12.46,12.46,0,0,0,3,8.59,10.65,10.65,0,0,0,8.3,3.59Z" fill="#6d7999"/>
    <path id="Path_33" data-name="Path 33" d="M255.29,66.34l-10.46-13.9h-3.68l12.12,16.55Z" fill="#b6bdd3"/>
    <path id="Path_34" data-name="Path 34" d="M259.75,66.38,270.3,52.44h3.69l-12.22,16.6Z" fill="#b6bdd3"/>
    <path id="Path_35" data-name="Path 35" d="M209.57,58.58h26.55V52.47H203.26V97.45h6.31V78.54h23.65V72.36H209.57Z" fill="#8590ba"/>
    <path id="Path_36" data-name="Path 36" d="M261.08,74.14l-3.53-4.6-3.45,4.6L236.12,97.43H244l13.56-17.99,13.62,17.99h7.88Z" fill="#8590ba"/>
  
   
    
  </g>
</svg>
