<?xml version="1.0" encoding="utf-8"?>
<!-- Generator: Adobe Illustrator 21.0.0, SVG Export Plug-In . SVG Version: 6.00 Build 0)  -->
<svg version="1.1" id="katman_1" xmlns="http://www.w3.org/2000/svg" xmlns:xlink="http://www.w3.org/1999/xlink" x="0px" y="0px"
	 viewBox="0 0 100 125" style="enable-background:new 0 0 100 125;" xml:space="preserve">
<style type="text/css">
	.st0{fill:#FFFFFF;}
</style>
<title>real account</title>
<g>
	<path class="st0" d="M57.3,67.6c-0.9,1.5-1.4,3.3-1.4,5.3l6.7,0.3c0-1.3,0.4-2.5,1.2-3.4c0.5-0.6,1.1-1,1.8-1.3
		c-0.6-0.9-1.2-1.8-1.9-2.6v-0.1c-0.6-0.8-1.3-1.5-2-2.2c-0.1,0-0.2,0.1-0.3,0.1C59.6,64.7,58.2,65.9,57.3,67.6z"/>
	<path class="st0" d="M69.1,95.1c0-0.1-0.1-0.1-0.1-0.2c-0.7-0.7-1.5-1-2.6-1c-1.1,0-1.9,0.3-2.6,1c-0.7,0.7-1,1.5-1,2.6
		c0,1.1,0.3,1.9,1,2.6l0,0c0.2,0.2,0.4,0.3,0.6,0.5C66.4,99.2,67.9,97.4,69.1,95.1z"/>
	<path class="st0" d="M65,81.5c-0.5,0.5-1,1.3-1.4,2.2c-0.4,0.9-0.6,2-0.6,3.2v0.6l6.7,0c0-1.3,0.4-2.5,1.1-3.4c0,0,0,0,0-0.1
		c-0.2-2.3-0.6-4.6-1.2-6.7c-0.6,0.6-1.3,1.2-2.2,1.9C66.5,80.1,65.6,80.8,65,81.5z"/>
	<path class="st0" d="M61.6,102.3c-1.2-1.2-1.9-2.8-1.9-4.7c0-1.9,0.6-3.5,1.8-4.8c1.2-1.2,2.8-1.8,4.7-1.8c1.5,0,2.8,0.4,3.9,1.1
		c0.1-0.5,0.3-1.1,0.4-1.6c0,0,0,0-0.1,0h-8.3c-0.6,0-1.1-0.2-1.6-0.6c-0.4-0.4-0.6-1-0.6-1.6v-1.4c0-1.7,0.3-3.2,0.8-4.4
		c0.6-1.3,1.2-2.3,2-3.1c0.7-0.7,1.6-1.6,2.8-2.5c1.1-0.9,1.9-1.7,2.4-2.3c0.2-0.2,0.3-0.5,0.4-0.8c-0.4-0.9-0.8-1.8-1.2-2.6
		c-0.6,0-0.9,0.3-1.1,0.5c-0.3,0.4-0.5,1-0.5,1.7V74c0,1.3-0.9,2.1-2.2,2.1L55,75.8c0,0,0,0,0,0c-0.6,0-1.2-0.3-1.6-0.8
		c-0.4-0.4-0.6-0.9-0.6-1.5v-0.2c0-2.7,0.6-5.2,1.8-7.3c1.1-1.9,2.7-3.5,4.6-4.6c-0.5-0.4-1-0.8-1.5-1.2c-0.2-0.1-0.3-0.2-0.5-0.3
		c-0.6-0.3-1.1-0.7-1.6-1c-0.2-0.1-0.3-0.2-0.5-0.3c-0.6-0.3-1.3-0.7-1.9-1c-0.1,0-0.1-0.1-0.2-0.1c-1.5-0.7-3.1-1.3-4.7-1.8
		c9.5-5.2,12.9-17.1,7.7-26.6c-3.2-5.8-8.9-9.3-15-10c-0.1,0-0.2,0-0.3,0c-0.4-0.1-0.8-0.1-1.2-0.1c-0.1,0-0.3,0-0.4,0
		c-0.1,0-0.2,0-0.3,0c-0.2,0-0.3,0-0.4,0c-0.1,0-0.2,0-0.3,0c-0.2,0-0.3,0-0.4,0c-0.4,0-0.8,0-1.2,0.1c-0.1,0-0.2,0-0.3,0
		c-6.1,0.7-11.8,4.2-15,10c-5.2,9.5-1.8,21.4,7.7,26.6c-1.6,0.5-3.2,1.1-4.7,1.8c-0.1,0-0.1,0.1-0.2,0.1c-0.6,0.3-1.3,0.7-1.9,1
		c-0.2,0.1-0.3,0.2-0.5,0.3c-0.5,0.3-1,0.7-1.6,1c-0.2,0.1-0.3,0.2-0.5,0.3c-0.5,0.4-1,0.8-1.5,1.2c-0.1,0.1-0.2,0.2-0.3,0.3
		c-1.4,1.2-2.8,2.5-4,4v0.1c-4.5,5.5-7.2,12.4-7.3,19.9c0,7.6,2.7,12.4,7.3,15.4v0.1c5.6,3.7,13.8,4.7,23.1,4.8c0.2,0,0.3,0,0.4,0
		c0,0,0.1,0,0.1,0c0.1,0,0.3,0,0.4,0c0.2,0,0.4,0,0.6,0c0,0,0,0,0.1,0s0,0,0.1,0c0.1,0,0.2,0,0.2,0c0,0,0.1,0,0.1,0s0.1,0,0.1,0
		c0.2,0,0.4,0,0.6,0c0.2,0,0.3,0,0.4,0c0,0,0.1,0,0.1,0c0.1,0,0.3,0,0.4,0C48.8,106,56.2,105.2,61.6,102.3
		C61.7,102.4,61.7,102.3,61.6,102.3z"/>
</g>
<g>
	<path class="st0" d="M61.7,88.8c-0.1-0.1-0.2-0.3-0.2-0.5v-1.4c0-1.5,0.2-2.8,0.7-3.8c0.5-1.1,1-2,1.7-2.6c0.7-0.7,1.5-1.5,2.6-2.4
		c1.2-1,2.1-1.8,2.6-2.5c0.5-0.7,0.8-1.5,0.8-2.5c0-1.1-0.2-1.9-0.7-2.5c-0.5-0.6-1.2-0.9-2-0.9c-1,0-1.8,0.3-2.3,1
		c-0.6,0.7-0.8,1.6-0.8,2.7V74c0,0.4-0.2,0.6-0.7,0.6l-8.3-0.4c-0.2,0-0.4-0.1-0.5-0.2c-0.1-0.2-0.2-0.3-0.2-0.5v-0.2
		c0-2.5,0.5-4.6,1.6-6.5c1.1-1.9,2.6-3.4,4.6-4.4c2-1.1,4.3-1.6,6.9-1.6c3.8,0,6.8,1.1,9,3.2c2.2,2.1,3.4,5,3.4,8.6
		c0,1.7-0.3,3.2-0.8,4.5c-0.5,1.3-1.1,2.3-1.8,3c-0.7,0.8-1.6,1.6-2.8,2.6c-1.1,0.9-2,1.6-2.5,2.3c-0.5,0.7-0.8,1.5-0.8,2.5v0.8
		c0,0.2-0.1,0.4-0.2,0.5C70.8,89,70.7,89,70.5,89h-8.3C62,89,61.8,89,61.7,88.8z M62.7,101.3c-1-1-1.4-2.2-1.4-3.7
		c0-1.5,0.5-2.8,1.4-3.7c0.9-0.9,2.1-1.4,3.6-1.4c1.5,0,2.7,0.5,3.7,1.4c1,0.9,1.4,2.2,1.4,3.7c0,1.4-0.5,2.7-1.4,3.6
		c-1,1-2.2,1.5-3.7,1.5C64.9,102.7,63.7,102.2,62.7,101.3z"/>
</g>
</svg>
