<?xml version="1.0" encoding="utf-8"?>
<!-- Generator: Adobe Illustrator 21.0.0, SVG Export Plug-In . SVG Version: 6.00 Build 0)  -->
<svg version="1.1" id="katman_1" xmlns="http://www.w3.org/2000/svg" xmlns:xlink="http://www.w3.org/1999/xlink" x="0px" y="0px"
	 viewBox="0 0 155 60" xml:space="preserve">
<style type="text/css">
	.st0{fill:#FFFFFF;}
	.st1{fill:url(#SVGID_1_);}
	.st2{fill:url(#SVGID_2_);}
	.st3{fill:url(#SVGID_3_);}
	.st4{fill:url(#SVGID_4_);}
	.st5{opacity:0.2;enable-background:new    ;}
	.st6{opacity:0.12;enable-background:new    ;}
	.st7{opacity:0.25;fill:#FFFFFF;enable-background:new    ;}
	.st8{fill:#FFFFFF;stroke:#FFFFFF;stroke-width:0.25;stroke-miterlimit:10;}
</style>
<title>google play</title>
<g id="artwork">
	<path class="st0" d="M74.7,22.8c-2,0-3.7,1.6-3.7,3.6v0.1c0,2,1.6,3.7,3.7,3.7l0,0c2,0,3.7-1.6,3.7-3.6v-0.1c0.1-2-1.5-3.6-3.4-3.7
		C74.9,22.8,74.8,22.8,74.7,22.8z M74.7,28.8c-1.2,0-2.1-1-2.1-2.2v-0.1c0-1.2,0.9-2.2,2.1-2.3c1.2,0,2.1,1,2.1,2.2v0.1
		C76.9,27.7,76,28.7,74.7,28.8C74.8,28.8,74.7,28.8,74.7,28.8z M66.6,22.8c-2,0-3.7,1.6-3.7,3.6v0.1c0,2,1.7,3.7,3.7,3.7
		s3.7-1.7,3.7-3.7S68.6,22.8,66.6,22.8z M66.6,28.8c-1.2,0-2.1-1-2.1-2.2v-0.1c0-1.2,0.9-2.2,2.1-2.3c1.2,0,2.1,1,2.1,2.2v0.1
		C68.7,27.7,67.8,28.7,66.6,28.8z M56.9,23.9v1.6h3.8c0,0.8-0.4,1.5-0.9,2c-0.8,0.8-1.8,1.2-2.9,1.2c-2.3,0-4.2-1.9-4.2-4.2
		s1.9-4.2,4.2-4.2l0,0c1,0,2.1,0.4,2.8,1.1l1.1-1.1c-1.1-1.1-2.5-1.6-4-1.6c-3.2,0-5.8,2.6-5.8,5.8s2.6,5.8,5.8,5.8l0,0
		c2.8,0.2,5.2-2,5.4-4.8c0-0.1,0-0.3,0-0.5c0-0.3,0-0.7-0.1-1L56.9,23.9z M96.5,25.2c-0.5-1.4-1.7-2.3-3.2-2.4
		c-1.9,0-3.5,1.6-3.5,3.6v0.1c0,2,1.6,3.7,3.6,3.7h0.1c1.2,0,2.4-0.6,3.1-1.6l-1.3-0.8c-0.4,0.6-1.1,1-1.8,1c-0.8,0-1.5-0.4-1.8-1.1
		l5-2.1L96.5,25.2z M91.4,26.4c-0.1-1.1,0.8-2.1,1.9-2.2c0.6,0,1.1,0.3,1.4,0.8L91.4,26.4z M87.4,30H89V19.1h-1.6V30z M84.7,23.6
		L84.7,23.6c-0.5-0.5-1.3-0.8-2-0.8c-2,0-3.7,1.7-3.7,3.7s1.7,3.7,3.7,3.7c0.7,0,1.5-0.3,2-0.8h0.1v0.5c0.1,1.1-0.7,2.1-1.8,2.2
		c-0.1,0-0.1,0-0.2,0c-0.8,0-1.6-0.5-1.9-1.3l-1.4,0.6c0.5,1.3,1.9,2.2,3.3,2.2c1.9,0,3.5-1.1,3.5-3.9V23h-1.5L84.7,23.6z
		 M82.8,28.8c-1.2,0-2.1-1-2.1-2.2l0,0c-0.1-1.1,0.7-2.1,1.8-2.3c1.1-0.1,2.1,0.7,2.3,1.8c0,0.1,0,0.3,0,0.4
		C84.9,27.7,84,28.7,82.8,28.8C82.9,28.8,82.8,28.8,82.8,28.8z M104.2,19.1h-3.9V30h1.6v-4.1h2.3c1.9,0.1,3.5-1.3,3.7-3.1
		c0.1-1.9-1.3-3.5-3.1-3.7C104.5,19.1,104.4,19.1,104.2,19.1z M104.2,24.3h-2.3v-3.7h2.3c1,0,1.8,0.8,1.8,1.9S105.2,24.3,104.2,24.3
		z M114.3,22.8c-1.2-0.1-2.4,0.6-2.9,1.7l1.4,0.6c0.5-0.8,1.6-1,2.4-0.5c0.4,0.3,0.7,0.7,0.8,1.1v0.1c-0.5-0.3-1.1-0.4-1.7-0.4
		c-1.6,0-3.1,0.9-3.1,2.5c0.1,1.4,1.2,2.5,2.6,2.4h0.1c0.8,0,1.7-0.4,2.1-1.1h0.1V30h1.6v-4.2C117.6,24.1,116.1,22.7,114.3,22.8
		L114.3,22.8z M114.1,28.8c-0.5,0-1.3-0.3-1.3-0.9c0-0.8,0.9-1.2,1.7-1.2c0.5,0,1,0.1,1.5,0.4C115.9,28,115.1,28.8,114.1,28.8z
		 M123.3,23l-1.9,4.7h-0.1l-1.9-4.7h-1.8l2.9,6.6l-1.7,3.7h1.7L125,23H123.3z M108.6,30h1.6V19.1h-1.6V30z"/>
	
		<linearGradient id="SVGID_1_" gradientUnits="userSpaceOnUse" x1="31.7699" y1="-3608.0298" x2="14.9899" y2="-3624.8098" gradientTransform="matrix(1 0 0 -1 0 -3589.3496)">
		<stop  offset="0" style="stop-color:#00A0FF"/>
		<stop  offset="1.000000e-02" style="stop-color:#00A1FF"/>
		<stop  offset="0.26" style="stop-color:#00BEFF"/>
		<stop  offset="0.51" style="stop-color:#00D2FF"/>
		<stop  offset="0.76" style="stop-color:#00DFFF"/>
		<stop  offset="1" style="stop-color:#00E3FF"/>
	</linearGradient>
	<path class="st1" d="M20.4,17.5c-0.3,0.4-0.5,0.9-0.5,1.4V41c0,0.5,0.2,1,0.5,1.4l0.1,0.1l12.4-12.4v-0.2L20.4,17.5z"/>
	
		<linearGradient id="SVGID_2_" gradientUnits="userSpaceOnUse" x1="43.83" y1="-3619.3997" x2="19.64" y2="-3619.3997" gradientTransform="matrix(1 0 0 -1 0 -3589.3496)">
		<stop  offset="0" style="stop-color:#FFE000"/>
		<stop  offset="0.41" style="stop-color:#FFBD00"/>
		<stop  offset="0.78" style="stop-color:#FFA500"/>
		<stop  offset="1" style="stop-color:#FF9C00"/>
	</linearGradient>
	<path class="st2" d="M37,34.3l-4.1-4.1v-0.3l4.1-4.1l0.1,0.1l4.9,2.8c1.4,0.8,1.4,2.1,0,2.9L37,34.3z"/>
	
		<linearGradient id="SVGID_3_" gradientUnits="userSpaceOnUse" x1="34.8199" y1="-3621.6299" x2="12.0599" y2="-3644.3899" gradientTransform="matrix(1 0 0 -1 0 -3589.3496)">
		<stop  offset="0" style="stop-color:#FF3A44"/>
		<stop  offset="1" style="stop-color:#C31162"/>
	</linearGradient>
	<path class="st3" d="M37.1,34.2L32.9,30L20.4,42.5c0.5,0.5,1.2,0.5,2.1,0.1L37.1,34.2"/>
	
		<linearGradient id="SVGID_4_" gradientUnits="userSpaceOnUse" x1="17.2601" y1="-3599.5598" x2="27.4201" y2="-3609.7197" gradientTransform="matrix(1 0 0 -1 0 -3589.3496)">
		<stop  offset="0" style="stop-color:#32A071"/>
		<stop  offset="7.000000e-02" style="stop-color:#2DA771"/>
		<stop  offset="0.48" style="stop-color:#15CF74"/>
		<stop  offset="0.8" style="stop-color:#06E775"/>
		<stop  offset="1" style="stop-color:#00F076"/>
	</linearGradient>
	<path class="st4" d="M37.1,25.8l-14.6-8.3c-0.6-0.5-1.5-0.4-2.1,0.1L32.9,30L37.1,25.8z"/>
	<path class="st5" d="M37,34.1l-14.5,8.2c-0.6,0.5-1.4,0.5-2,0l0,0l-0.1,0.1l0,0l0.1,0.1l0,0c0.6,0.5,1.4,0.5,2,0L37,34.1z"/>
	<path class="st6" d="M20.4,42.3c-0.3-0.4-0.4-0.9-0.4-1.4V41c0,0.5,0.2,1,0.5,1.4v-0.1L20.4,42.3z"/>
	<path class="st6" d="M42,31.3l-5,2.8l0.1,0.1L42,31.3c0.6-0.2,1-0.7,1-1.3l0,0C43,30.5,42.6,30.9,42,31.3z"/>
	<path class="st7" d="M22.5,17.6L42,28.7c0.6,0.4,1,0.8,1,1.3l0,0c0-0.6-0.4-1.2-1-1.4L22.5,17.5C21.1,16.7,20,17.4,20,19v0.1
		C20,17.5,21.1,16.8,22.5,17.6z"/>
</g>
<g>
	<path class="st8" d="M52.6,36.7l-0.5,2h-0.7l0.6-2H52.6z"/>
	<path class="st8" d="M53.9,43.2v-6.4h1.8c2.2,0,3.4,1,3.4,3.1c0,1-0.3,1.8-0.9,2.4c-0.6,0.6-1.5,0.9-2.5,0.9H53.9z M54.7,37.5v5h1
		c0.8,0,1.5-0.2,2-0.7s0.7-1.1,0.7-1.9c0-1.6-0.9-2.5-2.6-2.5h-1.1C54.7,37.4,54.7,37.5,54.7,37.5z"/>
	<path class="st8" d="M63.7,43.2h-3.4v-6.4h3.2v0.7H61v2.1h2.3v0.7H61v2.2h2.6v0.7H63.7z"/>
	<path class="st8" d="M70.1,43.2h-0.9l-3.3-5.1c-0.1-0.1-0.2-0.3-0.2-0.4l0,0c0,0.1,0,0.4,0,0.9v4.6H65v-6.4h1l3.2,5
		c0.1,0.2,0.2,0.3,0.3,0.4l0,0c0-0.2,0-0.5,0-0.9v-4.5h0.7L70.1,43.2L70.1,43.2z"/>
	<path class="st8" d="M74.6,36.2c-0.1,0-0.2,0-0.3-0.1c-0.1-0.1-0.1-0.2-0.1-0.3s0-0.2,0.1-0.3s0.2-0.1,0.3-0.1s0.2,0,0.3,0.1
		c0.1,0.1,0.1,0.2,0.1,0.3s0,0.2-0.1,0.3S74.7,36.2,74.6,36.2z M75,43.2h-0.7v-6.4H75V43.2z"/>
	<path class="st8" d="M81.8,43.2h-0.9l-3.3-5.1c-0.1-0.1-0.2-0.3-0.2-0.4l0,0c0,0.1,0,0.4,0,0.9v4.6h-0.7v-6.4h1l3.2,5
		c0.1,0.2,0.2,0.3,0.3,0.4l0,0c0-0.2,0-0.5,0-0.9v-4.5h0.7L81.8,43.2L81.8,43.2z"/>
	<path class="st8" d="M83.5,43.2v-6.4h1.8c2.2,0,3.4,1,3.4,3.1c0,1-0.3,1.8-0.9,2.4c-0.6,0.6-1.5,0.9-2.5,0.9H83.5z M84.2,37.5v5h1
		c0.8,0,1.5-0.2,2-0.7c0.5-0.4,0.7-1.1,0.7-1.9c0-1.6-0.9-2.5-2.6-2.5h-1.1V37.5z"/>
	<path class="st8" d="M90.2,36.2c-0.1,0-0.2,0-0.3-0.1c-0.1-0.1-0.1-0.2-0.1-0.3s0-0.2,0.1-0.3s0.2-0.1,0.3-0.1c0.1,0,0.2,0,0.3,0.1
		c0.1,0.1,0.1,0.2,0.1,0.3s0,0.2-0.1,0.3S90.3,36.2,90.2,36.2z M90.6,43.2h-0.7v-6.4h0.7V43.2z"/>
	<path class="st8" d="M96.8,43.2H96l-1.1-1.8c-0.1-0.2-0.2-0.3-0.3-0.4s-0.2-0.2-0.3-0.3c-0.1-0.1-0.2-0.1-0.3-0.2s-0.2-0.1-0.4-0.1
		H93v2.7h-0.7v-6.4h1.9c0.3,0,0.5,0,0.8,0.1c0.2,0.1,0.4,0.2,0.6,0.3s0.3,0.3,0.4,0.5s0.1,0.5,0.1,0.7s0,0.4-0.1,0.6
		s-0.2,0.4-0.3,0.5s-0.3,0.3-0.4,0.4S94.9,40,94.7,40l0,0c0.1,0,0.2,0.1,0.3,0.2c0.1,0.1,0.2,0.1,0.2,0.2s0.1,0.2,0.2,0.3
		s0.1,0.2,0.2,0.4L96.8,43.2z M93,37.5v2.3h1c0.2,0,0.4,0,0.5-0.1c0.2-0.1,0.3-0.1,0.4-0.2c0.1-0.1,0.2-0.2,0.3-0.4
		c0.1-0.2,0.1-0.3,0.1-0.5c0-0.3-0.1-0.6-0.3-0.8c-0.2-0.2-0.5-0.3-1-0.3H93z"/>
	<path class="st8" d="M98.1,36.2c-0.1,0-0.2,0-0.3-0.1c-0.1-0.1-0.1-0.2-0.1-0.3s0-0.2,0.1-0.3s0.2-0.1,0.3-0.1c0.1,0,0.2,0,0.3,0.1
		c0.1,0.1,0.1,0.2,0.1,0.3s0,0.2-0.1,0.3S98.2,36.2,98.1,36.2z M98.5,43.2h-0.7v-6.4h0.7V43.2z"/>
	<path class="st8" d="M105.3,43.2h-0.9l-3.3-5.1c-0.1-0.1-0.2-0.3-0.2-0.4l0,0c0,0.1,0,0.4,0,0.9v4.6h-0.7v-6.4h1l3.2,5
		c0.1,0.2,0.2,0.3,0.3,0.4l0,0c0-0.2,0-0.5,0-0.9v-4.5h0.7L105.3,43.2L105.3,43.2z"/>
</g>
</svg>
