<svg xmlns="http://www.w3.org/2000/svg" width="170" height="123.947" viewBox="0 0 170 123.947">
  <g id="Group_309" data-name="Group 309" transform="translate(-496 -1426)">
    <g id="shadow" opacity="0.102">
      <path id="Dikdörtgen_21_kopya" data-name="Dikdörtgen 21 kopya" d="M534.2,1469.8H645.881l13.658-11.584-13.658-12.873H534.2Z" fill="#096987"/>
      <g id="Vektör_Akıllı_Nesne_kopya_4" data-name="Vektör Akıllı Nesne kopya 4">
        <g id="Vektör_Akıllı_Nesne_kopya_4-2" data-name="Vektör Akıllı Nesne kopya 4" transform="matrix(0, 1, -1, 0, 742.768, 1078.369)">
          <path id="Path_284" data-name="Path 284" d="M386.108,83.413l-5.438-6.646-5.32,6.644-27.718,33.633H359.78l20.9-25.98,21,25.98h12.146Z" fill="#f4f4f4"/>
        </g>
        <path id="Color_Overlay" data-name="Color Overlay" d="M625.724,1480.046l25.979-21-25.979-20.9V1426l33.632,27.718,6.644,5.321-6.646,5.438-33.63,27.716Z" fill="#00181f"/>
      </g>
      <path id="Dikdörtgen_21" data-name="Dikdörtgen 21" d="M627.8,1526.945H513.534L496,1515.719l17.535-12.829H627.8Z" fill="#00181f"/>
      <g id="Vektör_Akıllı_Nesne_kopya_3" data-name="Vektör Akıllı Nesne kopya 3">
        <g id="Vektör_Akıllı_Nesne_kopya_3-2" data-name="Vektör Akıllı Nesne kopya 3" transform="matrix(0.001, 1, -1, 0.001, 611.645, 999.06)">
          <g id="Group_247" data-name="Group 247">
            <path id="Path_286" data-name="Path 286" d="M511.644,106.269,489.773,76.706h-7.7l25.354,35.213Z" fill="#f4f4f4"/>
            <path id="Path_287" data-name="Path 287" d="M520.974,106.371l22.055-29.665h7.7L525.195,112.02Z" fill="#f4f4f4"/>
          </g>
        </g>
        <path id="Color_Overlay-2" data-name="Color Overlay" d="M500.375,1524.409l5.643-4.228,29.7,22.014.011,7.7Zm.076-17.772,35.176-25.4.011,7.7-29.532,21.911Z" fill="#096987"/>
      </g>
    </g>
    <g id="front">
      <path id="up_arrow" data-name="up arrow" d="M566.664,1536.686v-82.471l-8.585-10.086-9.541,10.086v82.471Z" fill="#f5f5f5"/>
      <g id="x">
        <g id="x-2" data-name="x" transform="translate(292.417 1379.913)">
          <path id="Path_290" data-name="Path 290" d="M268.322,64.2l-3.779-5.115-3.7,5.113L241.583,90.087h8.442l14.524-20,14.592,20h8.441Z" fill="#f4f4f4"/>
        </g>
        <path id="Color_Overlay-3" data-name="Color Overlay" d="M571.559,1470l-14.592-20-14.524,20H534l19.263-25.886,3.7-5.114,3.779,5.115L580,1470Z" fill="#00181f"/>
      </g>
      <path id="down_arrow" data-name="down arrow" d="M609.015,1429.816v84.38l-8.32,12.948-9.508-12.948v-84.38Z" fill="#b5b5b5"/>
      <g id="x-3" data-name="x">
        <g id="x-4" data-name="x" transform="matrix(1, -0.001, 0.001, 1, 211.668, 1442.688)">
          <g id="Group_249" data-name="Group 249">
            <path id="Path_292" data-name="Path 292" d="M385.685,77.155,369.2,55.691h-5.807L382.5,81.256Z" fill="#f4f4f4"/>
            <path id="Path_293" data-name="Path 293" d="M392.719,77.229l16.625-21.538h5.807L395.9,81.33Z" fill="#f4f4f4"/>
          </g>
        </g>
        <path id="Color_Overlay-4" data-name="Color Overlay" d="M604.5,1519.379l16.6-21.56,5.807-.008-19.214,25.666Zm-29.357-21.5,5.806-.008,16.518,21.442-3.175,4.106Z" fill="#0e8db5"/>
      </g>
    </g>
  </g>
</svg>
