<?xml version="1.0" encoding="utf-8"?>
<!-- Generator: Adobe Illustrator 21.0.0, SVG Export Plug-In . SVG Version: 6.00 Build 0)  -->
<svg version="1.1" id="katman_1" xmlns="http://www.w3.org/2000/svg" xmlns:xlink="http://www.w3.org/1999/xlink" x="0px" y="0px"
	 viewBox="0 0 558 558" style="enable-background:new 0 0 558 558;" xml:space="preserve">
<style type="text/css">
	.st0{opacity:0.1;}
	.st1{fill:#00181F;}
	.st2{fill:#FFFFFF;}
	.st3{fill:#0E8DB5;}
	.st4{fill:#B5B5B5;}
</style>
<g>
	<g class="st0">
		<polygon class="st1" points="81.5,413.9 27.6,373.8 81.5,333.6 453.9,333.6 453.9,413.9 		"/>
		<polygon class="st2" points="448.7,225.7 502.6,185.6 448.7,145.4 76.3,145.3 76.3,225.6 		"/>
		<g>
			<g>
				<polygon class="st3" points="52.7,361.5 128.5,304.3 128.5,284.4 38.4,350.3 				"/>
				<polygon class="st3" points="52.4,385.8 128.5,443 128.5,463.1 38,396.8 				"/>
			</g>
		</g>
		<polygon class="st1" points="510.8,200.4 530.4,185.4 510.8,170.7 411.2,93.8 411.2,127.5 488.2,185.4 411.2,243.6 411.2,277.1 		
			"/>
	</g>
	<g>
		<polygon class="st4" points="394.3,412.9 354.2,466.8 314,412.9 314,40.5 394.3,40.5 		"/>
		<polygon class="st2" points="207,145.1 166.9,91.2 126.7,145.1 126.7,517.5 207,517.5 		"/>
		<g>
			<g>
				<polygon class="st3" points="341.9,441.7 284.7,365.9 264.8,365.9 330.7,456 				"/>
				<polygon class="st3" points="366.2,442 423.4,365.9 443.5,365.9 377.1,456.4 				"/>
			</g>
		</g>
		<polygon class="st1" points="181.8,83 166.8,63.4 152,83 75.2,182.6 108.9,182.6 166.8,105.6 224.9,182.6 258.5,182.6 		"/>
	</g>
</g>
</svg>
