<?xml version="1.0" encoding="utf-8"?>
<!-- Generator: Adobe Illustrator 21.0.0, SVG Export Plug-In . SVG Version: 6.00 Build 0)  -->
<svg version="1.1" id="katman_1" xmlns="http://www.w3.org/2000/svg" xmlns:xlink="http://www.w3.org/1999/xlink" x="0px" y="0px"
	 viewBox="0 0 538 538" style="enable-background:new 0 0 538 538;" xml:space="preserve">
<style type="text/css">
	.st0{opacity:0.15;fill:#00181F;}
	.st1{fill:#F5F5F5;}
	.st2{fill:#B5B5B5;}
	.st3{fill:#DCDCDC;}
	.st4{fill:#00394A;}
	.st5{fill:#00181F;}
	.st6{fill:#096987;}
</style>
<g>
	<circle class="st0" cx="269" cy="269" r="258"/>
	<circle class="st1" cx="269" cy="269" r="203.3"/>
	<g>
		<path class="st2" d="M269,481.2C152,481.2,56.8,386,56.8,269S152,56.8,269,56.8S481.2,152,481.2,269
			C481.1,386,386,481.2,269,481.2z M269,74.6C161.8,74.6,74.6,161.8,74.6,269S161.8,463.3,269,463.3S463.3,376.2,463.3,269
			S376.1,74.6,269,74.6z"/>
	</g>
	<g>
		<g>
			<g>
				<polygon class="st3" points="254.9,215.8 190.1,129.7 167.3,129.7 242.4,232.2 				"/>
				<polygon class="st3" points="282.5,216.1 347.8,129.7 370.6,129.7 295,232.5 				"/>
			</g>
			<polygon class="st3" points="290.6,264.1 268.7,235.6 247.4,264.1 136.1,408.2 184.8,408.2 268.8,296.9 353.1,408.2 401.8,408.2 
							"/>
		</g>
	</g>
	<g>
		<path class="st4" d="M413.3,465.5l-7.9-10.8c58.9-43.3,94-112.7,94-185.7h13.4C512.7,346.2,475.5,419.7,413.3,465.5z"/>
	</g>
	<g>
		<path class="st4" d="M60.9,169.8L48.8,164C89.2,79.7,175.5,25.2,269,25.2v13.4C180.7,38.6,99,90.1,60.9,169.8z"/>
	</g>
	<rect x="261.6" y="156.1" class="st5" width="8.9" height="115.7"/>
	
		<rect x="295.4" y="256.9" transform="matrix(0.781 -0.6246 0.6246 0.781 -129.3817 255.7046)" class="st5" width="8.9" height="110.9"/>
	<polygon class="st6" points="272,147.5 266,139.7 260.1,147.5 229.5,187.2 242.9,187.2 266,156.5 289.2,187.2 302.6,187.2 	"/>
	<g>
		<g>
			<polygon class="st6" points="331.4,358.2 302.6,350.7 297.8,354.5 331.4,363.9 			"/>
			<polygon class="st6" points="337.4,353.5 336.7,323.8 341.6,319.8 342.8,354.9 			"/>
		</g>
	</g>
</g>
</svg>
