<?xml version="1.0" encoding="utf-8"?>
<!-- Generator: Adobe Illustrator 21.0.0, SVG Export Plug-In . SVG Version: 6.00 Build 0)  -->
<svg version="1.1" id="katman_1" xmlns="http://www.w3.org/2000/svg" xmlns:xlink="http://www.w3.org/1999/xlink" x="0px" y="0px"
	 viewBox="0 0 716 506" style="enable-background:new 0 0 716 506;" xml:space="preserve">
<style type="text/css">
	.st0{opacity:0.2;}
	.st1{fill:#064A5F;}
	.st2{fill:#F5F5F5;}
	.st3{fill:#DDDDDD;}
	.st4{fill:#B2B2B2;}
	.st5{fill:#949494;}
	.st6{fill:#797979;}
	.st7{fill:#0E8DB5;}
	.st8{fill:#00181F;}
</style>
<g>
	<g class="st0">
		<rect x="38" y="283.2" class="st1" width="107.7" height="212.7"/>
		<rect x="171.1" y="210" class="st1" width="107.7" height="285.9"/>
		<rect x="304.2" y="143.3" class="st1" width="107.7" height="352.4"/>
		<rect x="437.2" y="76.1" class="st1" width="107.7" height="419.8"/>
		<rect x="570.3" y="10.1" class="st1" width="107.7" height="485.7"/>
	</g>
	<g>
		<g>
			<rect x="131.3" y="345" class="st2" width="76.4" height="150.9"/>
			<rect x="225.7" y="293.1" class="st3" width="76.4" height="202.8"/>
			<rect x="320.1" y="245.8" class="st4" width="76.4" height="250"/>
			<rect x="414.5" y="198.1" class="st5" width="76.4" height="297.8"/>
			<rect x="508.9" y="151.3" class="st6" width="76.4" height="344.6"/>
		</g>
		<polygon class="st2" points="512.8,88.6 131.3,276.3 130.7,260.4 512.9,72.3 		"/>
		<g>
			<g>
				<polygon class="st7" points="521.3,64.5 534.4,22.7 529,15.3 512.9,64.1 				"/>
				<polygon class="st7" points="527.7,73.6 571.6,74.7 577,82.3 525.2,81.6 				"/>
			</g>
		</g>
		<polygon class="st8" points="516.6,84.9 521,71.2 506.7,70.6 433.2,66.8 444.4,83 500.8,85.2 483.1,138.8 494.3,155 		"/>
	</g>
</g>
</svg>
