<?xml version="1.0" encoding="utf-8"?>
<!-- Generator: Adobe Illustrator 21.0.0, SVG Export Plug-In . SVG Version: 6.00 Build 0)  -->
<svg version="1.1" id="Ayırma_Modu" xmlns="http://www.w3.org/2000/svg" xmlns:xlink="http://www.w3.org/1999/xlink" x="0px"
	 y="0px" viewBox="0 0 298.5 247.5" style="enable-background:new 0 0 298.5 247.5;" xml:space="preserve">
<style type="text/css">
	.st0{opacity:0.2;fill:#024458;}
	.st1{fill:#F5F5F5;}
	.st2{fill:#DDDDDD;}
	.st3{fill:#B2B2B2;}
	.st4{fill:#00181F;}
</style>
<path class="st0" d="M20.8,203.4v-11.7c15.6-7.8,26-22.1,26-39c0-5.2,0-10.4-1.3-15.6H22.1v-14.3h20.8c-1.3-6.5-2.6-15.6-2.6-24.7
	C40.3,70.9,58.4,54,83.1,54c11.7,0,19.5,2.6,24.7,5.2l-3.9,14.3c-3.9-2.6-10.4-3.9-20.8-3.9c-18.2,0-24.7,11.7-24.7,28.6
	c0,9.1,1.3,16.9,2.6,24.7h32.5l2.2,7.1l-2.2,7.2H62.3c1.3,9.1,1.3,16.9-1.3,26c-2.6,9.1-7.8,18.2-15.6,24.7l0,0H113v16.9H20.8V203.4
	z"/>
<path class="st0" d="M204.1,202.8c-5.5,4.4-15.5,7.7-28.7,7.7c-15.5,0-29.7-5.5-38.6-16.5c-7.7-7.7-12.1-18.7-14.4-33.1h-12.1v-9.9
	h11c0-1.1,0-2.2,0-3.3c0-3.3,0-5.5,0-8.9h-11v-8.9h12.1c2.2-13.2,7.7-24.2,15.5-32c9.9-9.9,22.1-15.5,37.5-15.5
	c11,0,19.9,3.3,25.4,6.6l-3.3,12.1c-4.4-3.3-13.2-5.5-22.1-5.5c-9.9,0-18.7,3.3-25.4,11c-5.5,5.5-9.9,14.4-11,24.2h37.5v9.9h-39.7
	c0,2.2,0,5.5,0,7.7c0,1.1,0,2.2,0,3.3h39.7v9.9h-38.6c1.1,11,5.5,19.9,11,25.4c6.6,7.7,16.5,11,27.6,11c9.9,0,18.7-3.3,23.1-6.6
	L204.1,202.8z"/>
<path class="st0" d="M234.9,199.5v-20.4c-11.3,0-23.8-3.4-30.5-9l4.5-13.6c6.8,4.5,18.1,9,29.4,9c14.7,0,23.8-7.9,23.8-19.2
	c0-11.3-7.9-18.1-22.6-23.8c-20.4-7.9-32.8-17-32.8-35.1c0-17,11.3-29.4,30.5-32.8V34.2h12.4v19.3c12.4,0,20.4,3.4,26,6.8L271.1,74
	c-4.5-2.3-12.4-6.8-24.9-6.8c-15.8,0-21.5,9-21.5,17c0,10.2,7.9,15.8,24.9,22.6c20.4,7.9,31.7,19.2,31.7,37.3
	c0,15.8-11.3,30.5-31.7,33.9v20.4h-14.7L234.9,199.5L234.9,199.5z"/>
<path class="st1" d="M228.1,184.8v-18.6c-10.3,0-21.7-3.1-27.8-8.2l4.1-12.4c6.2,4.1,16.5,8.2,26.8,8.2c13.4,0,21.7-7.2,21.7-17.5
	s-7.2-16.5-20.6-21.7c-18.6-7.2-29.9-15.5-29.9-32c0-15.5,10.3-26.8,27.8-29.9V34.2h11.3v17.6c11.3,0,18.6,3.1,23.7,6.2l-4.1,12.4
	c-4.1-2.1-11.3-6.2-22.7-6.2c-14.4,0-19.6,8.2-19.6,15.5c0,9.3,7.2,14.4,22.7,20.6c18.6,7.2,28.9,17.5,28.9,34
	c0,14.4-10.3,27.8-28.9,30.9v18.6h-13.4L228.1,184.8L228.1,184.8z"/>
<path class="st2" d="M203.3,215.3c-5.4,4.3-15.2,7.6-28.2,7.6c-15.2,0-29.2-5.4-37.9-16.2c-7.6-7.6-11.9-18.4-14.1-32.5h-11.9v-9.7
	H122c0-1.1,0-2.2,0-3.2c0-3.2,0-5.4,0-8.7h-10.8V144h11.9c2.2-13,7.6-23.8,15.2-31.4c9.7-9.7,21.7-15.2,36.8-15.2
	c10.8,0,19.5,3.2,24.9,6.5l-3.2,11.9c-4.3-3.2-13-5.4-21.7-5.4c-9.7,0-18.4,3.2-24.9,10.8c-5.4,5.4-9.7,14.1-10.8,23.8h36.8v9.7h-39
	c0,2.2,0,5.4,0,7.6c0,1.1,0,2.2,0,3.2h39v9.7h-37.9c1.1,10.8,5.4,19.5,10.8,24.9c6.5,7.6,16.2,10.8,27.1,10.8
	c9.7,0,18.4-3.2,22.7-6.5L203.3,215.3z"/>
<path class="st3" d="M31.5,194.1v-9.9c13.2-6.6,22-18.7,22-33c0-4.4,0-8.8-1.1-13.2H32.5V126h17.6c-1.1-5.5-2.2-13.2-2.2-20.9
	c0-23.1,15.4-37.4,36.3-37.4c9.9,0,16.5,2.2,20.9,4.4l-3.3,12.1c-3.3-2.2-8.8-3.3-17.6-3.3c-15.4,0-20.9,9.9-20.9,24.2
	c0,7.7,1.1,14.3,2.2,20.9H93l1.9,6l-1.9,6.1H66.6c1.1,7.7,1.1,14.3-1.1,22s-6.6,15.4-13.2,20.9l0,0h57.2v14.3H31.5V194.1z"/>
<g>
	<polygon class="st4" points="233.1,185.6 222.9,172.2 219.4,172.2 231.1,188.1 	"/>
	<polygon class="st4" points="237.4,185.7 247.6,172.2 251.1,172.2 239.3,188.2 	"/>
</g>
<g>
	<polygon class="st4" points="109.3,168 118.3,161.3 118.3,158.9 107.6,166.7 	"/>
	<polygon class="st4" points="109.3,170.9 118.3,177.6 118.3,180 107.6,172.2 	"/>
</g>
<g>
	<polygon class="st4" points="29.8,130.3 39.5,123.2 39.5,120.5 28,128.9 	"/>
	<polygon class="st4" points="29.8,133.4 39.5,140.7 39.5,143.2 28,134.8 	"/>
</g>
<polygon class="st4" points="239.1,30.1 236.1,26.2 233.1,30.1 217.8,50.1 224.4,50.1 236.1,34.7 247.8,50.1 254.6,50.1 "/>
<polygon class="st4" points="164.9,137.4 164.9,142.2 176.1,150.7 164.9,159.1 164.9,164 179.3,152.8 182.1,150.7 179.3,148.5 "/>
<polygon class="st4" points="80.3,115.8 80.3,121.7 93.8,131.9 80.3,142.1 80.3,148.1 97.8,134.5 101.3,131.9 97.8,129.2 "/>
</svg>
