<svg id="Layer_1" data-name="Layer 1" xmlns="http://www.w3.org/2000/svg" viewBox="0 0 151.54 143.94"><defs><style>.cls-1{fill:#053677;}</style></defs><title>IPO-tfx</title><rect class="cls-1" x="8.22" y="14.75" width="5.29" height="114.44"/><g id="g3093"><g id="g3551"><g id="g3111"><path id="path3113" d="M81.4,41.84c-.49,1-1,1.57-.88,2.26s.88,1.28,1.18,2.06c.29-.88.88-1.57.79-2.26.1-.69-.88-1.57-1.08-2.06"/></g><g id="g3115"><path id="path3117" d="M94.39,41.84c.49,1,1,1.57.88,2.26s-.88,1.28-1.18,2.06c-.29-.88-.88-1.57-.79-2.26s.88-1.57,1.08-2.06"/></g><g id="g3119"><path id="path3121" d="M73.93,41.26a.88.88,0,1,0-.88-.88.88.88,0,0,0,.88.88"/></g><g id="g3123"><path id="path3125" d="M74.53,42.57a.88.88,0,1,0-.88.88c.49-.1.88-.39.88-.88"/></g><g id="g3127"><path id="path3129" d="M75,44.67a.88.88,0,1,0-.88.88.88.88,0,0,0,.88-.88"/></g><g id="g3131"><path id="path3133" d="M78.84,37.08a.88.88,0,1,0-.88-.88.88.88,0,0,0,.88.88"/></g><g id="g3135"><path id="path3137" d="M76.62,37.8a.88.88,0,1,0-.88-.88.88.88,0,0,0,.88.88"/></g><g id="g3139"><path id="path3141" d="M75,39.29a.88.88,0,1,0-.88-.88.88.88,0,0,0,.88.88"/></g><g id="g3143"><path id="path3145" d="M81.09,37.35a.88.88,0,1,0-.88-.88.88.88,0,0,0,.88.88"/></g><g id="g3147"><path id="path3149" d="M83.31,38a.88.88,0,1,0-.88-.88.88.88,0,0,0,.88.88"/></g><g id="g3151"><path id="path3153" d="M85.29,38.87A.88.88,0,1,0,84.4,38a.88.88,0,0,0,.88.88"/></g><g id="g3155"><path id="path3157" d="M101,40.37a.88.88,0,1,0,.88-.88.88.88,0,0,0-.88.88"/></g><g id="g3159"><path id="path3161" d="M102.14,41.68a.88.88,0,1,0,.88.88.88.88,0,0,0-.88-.88"/></g><g id="g3163"><path id="path3165" d="M101.7,43.78a.88.88,0,1,0,.88.88.88.88,0,0,0-.88-.88"/></g><g id="g3167"><path id="path3169" d="M97,37.08a.88.88,0,1,0-.88-.88.88.88,0,0,0,.88.88"/></g><g id="g3171"><path id="path3173" d="M99.16,37.8a.88.88,0,1,0-.88-.88.88.88,0,0,0,.88.88"/></g><g id="g3175"><path id="path3177" d="M100.93,39.29a.88.88,0,1,0-.88-.88.88.88,0,0,0,.88.88"/></g><g id="g3179"><path id="path3181" d="M94.69,37.35a.88.88,0,1,0-.88-.88.88.88,0,0,0,.88.88"/></g><g id="g3183"><path id="path3185" d="M92.57,38a.88.88,0,1,0-.88-.88.88.88,0,0,0,.88.88"/></g><g id="g3187"><path id="path3189" d="M89.6,38a.88.88,0,1,0,.88-.88.88.88,0,0,0-.88.88"/></g><g id="g3191"><path id="path3193" d="M86.44,42.75h1V39c-.39-.1-.69-.2-1-.29Z"/></g><g id="g3195"><path id="path3197" d="M89.43,38.71a2.88,2.88,0,0,1-1,.29v3.73h1Z"/></g><g id="g3199"><path id="path3201" d="M87.35,34.54V32.28a2.72,2.72,0,0,0-2.16,2.26Z"/></g><g id="g3203"><path id="path3205" d="M88.43,34.54h2.16a3,3,0,0,0-2.16-2.26Z"/></g><g id="g3207"><path id="path3209" d="M85.25,35.59a2.73,2.73,0,0,0,2.65,2.16,2.65,2.65,0,0,0,2.65-2.16Z"/></g><g id="g3211"><path id="path3213" d="M89.44,32a3.16,3.16,0,0,1-1.18-2,3.62,3.62,0,0,1,2,1.28v-3a3.62,3.62,0,0,1-2,1.28,4.33,4.33,0,0,1,1.18-2.16H86.49a5.28,5.28,0,0,1,1.18,2.16,3.62,3.62,0,0,1-2-1.28v3a3.62,3.62,0,0,1,2-1.28,3.16,3.16,0,0,1-1.18,2Z"/></g><g id="g3215"><path id="path3217" d="M92.61,92.28A57,57,0,0,1,83.46,89h0a2.37,2.37,0,0,0-.59-1.87,2.23,2.23,0,0,0-1.77-.88,2.87,2.87,0,0,0-.88.2,7.86,7.86,0,0,1-1.28-1.28,16.09,16.09,0,0,1-2.75-4.72,16.37,16.37,0,0,1-.79-3.15,2.78,2.78,0,0,1-2.85,2.06c0-.2,0-.59-.2-.69a2.12,2.12,0,0,1-2.65.49,20.88,20.88,0,0,0,1,3.54,21.8,21.8,0,0,0,3.93,6.68l1.77,1.77v.39a2.85,2.85,0,0,0,1.47,2.16,2,2,0,0,0,2.26-.29A25.7,25.7,0,0,0,85,95.33a21.17,21.17,0,0,0,5.6.88,9.39,9.39,0,0,0,4.91-1.77c.69-.49,1.38-1,1.87-1.38l.2-.2a16.06,16.06,0,0,1-5-.59M82.48,88.06l-.29-.2a1.07,1.07,0,0,0-1.47,0,4.27,4.27,0,0,0-.59.69l-.29.29.2.2c.59.49.69,1,.49,1.28-.1.1-.2.2-.29.2a1.23,1.23,0,0,1-1.08-.29l-.2-.1-.1.2c0,.1-.1.1-.1.2s-.1.1-.2.2a3.32,3.32,0,0,0-.39,1v.2a.89.89,0,0,0,.59.59l.1.1a4,4,0,0,0,.88.49,1.58,1.58,0,0,1-1.47.1A2.42,2.42,0,0,1,77,91.5a5.12,5.12,0,0,1,.79-2.36l.1-.1-.1-.1a2.94,2.94,0,0,1-.39-.79,2.87,2.87,0,0,1,.88.2h.1l.1-.1A4.11,4.11,0,0,1,81,86.68a2.07,2.07,0,0,1,1.38.69,1.58,1.58,0,0,1,.49,1.08c0-.1-.2-.2-.39-.39m1.87,5.31a1.18,1.18,0,1,1,1.18-1.18,1.2,1.2,0,0,1-1.18,1.18m5.11,1.57a1.08,1.08,0,1,1,1.08-1.08,1.09,1.09,0,0,1-1.08,1.08"/></g><g id="g3219"><path id="path3221" d="M90.94,100.38a1.25,1.25,0,0,0-.59.1V97.13a21.87,21.87,0,0,1-4.82-.69v4a1.25,1.25,0,0,0-.59-.1,1.86,1.86,0,0,0-1.87,1.87,3.19,3.19,0,0,0,1,2.16c.2-.49.39-.88.69-.88.59,0,.29,2.85,2,2.95a.74.74,0,0,0-.1.49,1.28,1.28,0,0,0,2.56,0,.89.89,0,0,0-.1-.49c1.67-.1,1.38-2.95,2-2.95.29,0,.49.39.69.88a3.63,3.63,0,0,0,.88-2.16,1.59,1.59,0,0,0-1.67-1.87m-3,7.27a.69.69,0,1,1,.69-.69c.1.29-.2.69-.69.69m3.93-4.23a.92.92,0,0,0-.79-.59c-1.18,0-.69,2.95-2.06,2.95a.8.8,0,0,1-.88-.79c0-.39.29-.59.29-.88a.55.55,0,0,0-.59-.49c-.29,0-.59.1-.59.49s.29.49.29.88a.8.8,0,0,1-.88.79c-1.38,0-.88-2.95-2.06-2.95a.92.92,0,0,0-.79.59,3.32,3.32,0,0,1-.39-1.18A1.23,1.23,0,0,1,84.65,101c1.47,0,1.18,2.06,1.87,2.06a.55.55,0,0,0,.59-.49c0-.59-1.08-1.18-1.08-2s.79-1.57,1.57-2.26c.88.69,1.57,1.38,1.57,2.26s-1.08,1.38-1.08,2c0,.29.2.49.59.49.69,0,.39-2.06,1.87-2.06a1.29,1.29,0,0,1,1.28,1.28c.39.29.29.79,0,1.18"/></g><g id="g3223"><path id="path3225" d="M129.74,104.39c-.1-.2-.29-.29-.39-.2-3.83,1.08-8.65-2.06-13.27-5.21-3.93-2.56-7.57-5-10.71-5a8.18,8.18,0,0,0-3.15.69,5.43,5.43,0,0,0-2.46,2.85,12.28,12.28,0,0,1-1.57,2.85,4.7,4.7,0,0,0-.88,2.26,2.85,2.85,0,0,0,.79,1.77,7.46,7.46,0,0,0,2.06,1.38l.59.29c.79.39,1.28.59,1.38,1.08a25.58,25.58,0,0,1-5.8,1.67,43.85,43.85,0,0,1-8.26.69,43.85,43.85,0,0,1-8.26-.69,25.58,25.58,0,0,1-5.8-1.67c.1-.69.49-.88,1.38-1.28l.59-.29a7.55,7.55,0,0,0,2-1.28,2,2,0,0,0,.79-1.67,4.7,4.7,0,0,0-.88-2.26,17.5,17.5,0,0,1-1.57-2.85,5.43,5.43,0,0,0-2.46-2.85,6.32,6.32,0,0,0-3-.69c-3.15,0-6.88,2.46-10.81,5.11-4.62,3-9.44,6.29-13.27,5.21-.2-.1-.39,0-.39.2a.36.36,0,0,0,.2.49A18.2,18.2,0,0,1,49.74,107c1.38,1.08,2.75,2.16,4.13,2.16a9.39,9.39,0,0,0,4.62-1.38,41.29,41.29,0,0,0,4.72-2.95c3-2.06,6.19-4.23,9.24-4.52l-.88.88c-.88.79-1.67,1.47-1.67,2.85a6.79,6.79,0,0,0,.88,2.95,11.53,11.53,0,0,1,.49,1.08,18.34,18.34,0,0,1,.69,2.16l.29,1.18A4.65,4.65,0,0,0,75,114.61c2.56,1.28,7,2,13.07,2s10.52-.69,13.07-2a4.65,4.65,0,0,0,2.75-3.15,10.2,10.2,0,0,1,.29-1.18,9.19,9.19,0,0,1,.69-2.16,8.92,8.92,0,0,1,.69-1.38,4.87,4.87,0,0,0,.79-2.56c0-1.38-.79-2.06-1.77-2.95a8.86,8.86,0,0,0-1-.88c3,.2,6.19,2.36,9.24,4.52a41.29,41.29,0,0,0,4.72,2.95,9.39,9.39,0,0,0,4.62,1.38c1.47,0,2.75-1,4.13-2.16a14,14,0,0,1,3.24-2.06,1.4,1.4,0,0,0,.2-.59"/></g><g id="g3227"><path id="path3229" d="M106.47,73.36A5.59,5.59,0,0,1,105,71.6c-.49-1-2.36-4.72-2.65-5.21a1.83,1.83,0,0,1-.39-1.08,1.75,1.75,0,0,1,.39-1,3.06,3.06,0,0,0,.69-.88c.1-.2.2-.29.29-.49A14.63,14.63,0,0,0,101,59.8a16.73,16.73,0,0,0-3.73-3.24,2.89,2.89,0,0,0,1.47-2.36,2.25,2.25,0,0,0-.79-1.67c.79-2.46,2.16-5.5,3.34-6.78L98.8,44.67a4.06,4.06,0,0,1,.59,2.85A3.25,3.25,0,0,1,98,45.65a8.45,8.45,0,0,1-.88,2.65,2.51,2.51,0,0,1,2.06-.2,2.9,2.9,0,0,1-3.15,1.08c-.88-.2-1.77-.69-1.77-1.38a.88.88,0,0,1,.88-.88c.59.1.59.88.39,1.28.69-.39,1.47-2.46.29-2.75-.88-.2-1.67,1-2,1.87-.2-1.08-.59-2.16-1.47-2.16-1.18.1-.79,2.16-.39,2.75.1-.79.49-1.18.79-1.08s.69.2.59.88-1,1.08-2.16,1.08-2.85-.29-3-2.36a3.78,3.78,0,0,1,2.16,1.28,19,19,0,0,1,0-3.34,3.37,3.37,0,0,1-2.16,1.28A4.59,4.59,0,0,1,90,43.29H85.44a4.11,4.11,0,0,1,1.77,2.36A3.37,3.37,0,0,1,85,44.37a19,19,0,0,1,0,3.34,3.57,3.57,0,0,1,2.16-1.28c-.2,2.06-2.06,2.36-3,2.36S82.1,48.4,82,47.71s.29-.88.69-.88a1,1,0,0,1,.79,1.08c.39-.49.79-2.65-.39-2.75-.88-.1-1.38,1-1.47,2.16-.29-.88-1.08-2.16-2-1.87-1.08.29-.39,2.36.29,2.75-.2-.39-.1-1.18.39-1.28s.88.39.88.88c0,.69-.88,1.18-1.77,1.38a3,3,0,0,1-3.15-1.08,2.22,2.22,0,0,1,2.06.2,9.37,9.37,0,0,1-.88-2.65,3.36,3.36,0,0,1-1.38,1.87,4.06,4.06,0,0,1,.59-2.85l-2.46,1.08c1.18,1.28,2.56,4.32,3.34,6.78a2.05,2.05,0,0,0-.79,1.57,2.89,2.89,0,0,0,1.47,2.36,16.73,16.73,0,0,0-3.73,3.24,20.24,20.24,0,0,0-3.93,6.59,25.77,25.77,0,0,1,2.16,2.46,4.14,4.14,0,0,1,1,2.16,3.35,3.35,0,0,0,.88,2.36,3.37,3.37,0,0,1,.49,1.67H87.5V88.5a1.72,1.72,0,0,0-1.38.69,42.12,42.12,0,0,0,4.13,1.47,3.23,3.23,0,0,1,.79-2s-1.77-.2-2.75-.2V75h12.09a15.89,15.89,0,0,1-1,5.31,14.19,14.19,0,0,1-2.75,4.72,11.25,11.25,0,0,1-4,3.15c-.2.1-.2.29-.49.39a3.52,3.52,0,0,0-.59,1.08,4.15,4.15,0,0,0-.29,1.18,10.08,10.08,0,0,0,1.38.39c4.23,1.08,5.31.79,5.5.59h0a15.75,15.75,0,0,0,2.65-2.46,20.7,20.7,0,0,0,3.93-6.68,22.65,22.65,0,0,0,1.47-8.16,1.65,1.65,0,0,0,.29-1.18m-18.77,1H75.31a17.54,17.54,0,0,1,1-5.5A14.19,14.19,0,0,1,79,64.13a12.16,12.16,0,0,1,4-3.15A12.83,12.83,0,0,1,87.7,59.8Zm.2-20.64a14.92,14.92,0,0,0-8.65,2.36c-1-.59-1.38-1.08-1.38-1.77,0-2.36,6.59-2.56,9.93-2.56h0c3.34,0,9.93.2,9.93,2.56,0,.69-.39,1.18-1.38,1.77a14.43,14.43,0,0,0-8.45-2.36m.59,20.64V59.8a11.23,11.23,0,0,1,4.32,1.08,13.59,13.59,0,0,1,4,3.15,16.09,16.09,0,0,1,2.75,4.72,17.54,17.54,0,0,1,1,5.5C100.48,74.35,88.48,74.35,88.48,74.35Z"/></g><g id="g3231"><path id="path3233" d="M98.57,72c.2.1.1.49-.1.39a13.64,13.64,0,0,0-2.36-6.09h0c.2-.1.49-.29.49-.59a1,1,0,0,0-.79.29l-.29-.29a12.52,12.52,0,0,0-2.65-2.46,10.14,10.14,0,0,0-2.95-1.38c0-.2.29-.29.49-.1,0-.39-.29-.59-.49-.49s-.2.1-.2.29a.84.84,0,0,0-.59-.29,1.05,1.05,0,0,0,.2.59c-.2,0-.29.1-.29.2s0,.49.39.59c-.2-.2-.1-.49.1-.39V67a.87.87,0,0,0-.79.2.66.66,0,0,0,.79.2v5.11c-.29,0-.29-.29-.1-.39-.39,0-.59.39-.49.49a.51.51,0,0,0,.39.2.83.83,0,0,0-.2.59.75.75,0,0,0,.49-.2.51.51,0,0,0,.2.39c.2.1.49-.1.49-.49-.1.2-.49.1-.49-.1h3.54a.87.87,0,0,0,.2.79.87.87,0,0,0,.2-.79h3.93c0,.29-.29.29-.39.1a.37.37,0,1,0,.69.1.83.83,0,0,0,.59.2.75.75,0,0,0-.2-.49.51.51,0,0,0,.39-.2c.39-.39.2-.69-.2-.69M95.23,65.7c-.1.1-.2.2-.1.29s.1.2.39.2a2.15,2.15,0,0,0-.29.49,1.25,1.25,0,0,0,.59-.1c0,.2,0,.29.1.39a.18.18,0,0,0,.29,0A12.31,12.31,0,0,1,98,71.89a.74.74,0,0,0-.49-.1,1.05,1.05,0,0,0,.2.59h-3c0-.2-.1-.39-.2-.39a.59.59,0,0,0-.39.1.75.75,0,0,0-.2-.49.64.64,0,0,0-.2.49.24.24,0,0,0-.39-.1c-.1,0-.2.2-.2.39H90.51a.75.75,0,0,0,.2-.49.75.75,0,0,0-.49.2V68c.2,0,.39-.1.39-.2a.59.59,0,0,0-.1-.39.75.75,0,0,0,.49-.2.64.64,0,0,0-.49-.2.24.24,0,0,0,.1-.39c0-.1-.2-.2-.39-.2V62.85a.75.75,0,0,0,.49.2.74.74,0,0,0-.1-.49A13.21,13.21,0,0,1,93,63.73a9.73,9.73,0,0,1,2.26,2"/></g><g id="g3235"><path id="path3237" d="M96.47,70.66q.29-.15.29-.29c-.2.1-.29,0-.29,0s.29,0,.1-.2-.2-.2-.39-.1-1.08,0-1.08-.79l.29.29a.1.1,0,0,1,.1.1H96a.42.42,0,0,0,.39-.39c0-.39-.29-.59-.79-.88-.2-.1-.29-.29-.39-.39a2.07,2.07,0,0,0-.39-1.08,1.07,1.07,0,0,0-.1-.49,1.23,1.23,0,0,0,.2,1.47c.39.49,1.28.88,1.18,1.28a.21.21,0,0,1-.2.2h-.2c-.1,0-.1,0-.2-.1s-.2-.1-.29-.2A4.29,4.29,0,0,1,94.31,68c-.39-.49-.2-1-.2-1.38.29-.39-.2-1.18-.39-1.38a.47.47,0,0,0,0-.39h-.2c-.1-.1-.1-.2-.2-.2s-.2-.1-.2-.2c-.1.1-.1.2-.2.2h-.29c-.1.1-.1.1-.29.1s-.2.1-.1.2,0,.2.1.2h0l.1.2.1-.2c.1-.1.29-.1.29.1s0,.1-.1.2h-.39c-.1,0-.1.1-.1.2s.1.1.29.1.49-.1.49.1c0,.39-.49.39-.59.88l-.29-.29c-.1-.1-.2-.29-.39-.49a1.36,1.36,0,0,0-.39-.29c-.2-.1-.2-.2-.2-.39s.1-.29.1-.39v-.1c0-.1-.2-.2-.2-.1a.34.34,0,0,1,.1.2l-.1.1v.1h0v.1h0c0-.1-.1-.29-.2-.29h-.1c0-.1-.1-.2-.29-.1h.1v.1a.21.21,0,0,0,.2.2h0c-.2-.1-.29,0-.29.1v.1c-.1,0-.1.2,0,.2v-.1h0l.1.1h.2a.18.18,0,0,0,0,.29c-.1.1-.29.1-.29-.1-.2.29.1.49.29.39v.29a.1.1,0,0,1,.1-.1h0c0,.1,0,.1.1.2v-.1c0,.1.1.1.1.2a1.51,1.51,0,0,0,.88.88,3.34,3.34,0,0,0-.59.59c-.1.1-.39.29-.49.2s-.1-.1-.2-.2-.1-.1-.2,0h-.1a.36.36,0,0,0-.29.1h.2v.1c0,.1,0,.1.29.1h0s-.1.1-.1,0-.2-.1-.29,0l-.1.1h0a.19.19,0,0,0-.1.29.3.3,0,0,1,.1-.2.1.1,0,0,0,.1.1c.1.1.2.2.29-.1h0c0,.1-.1.29,0,.29h.1a.19.19,0,0,0,.29.1c-.1,0-.1-.1-.2-.2h.1c.1-.1,0-.2,0-.29h0c0,.1.1.2.29.1s.1-.1.1-.2a.89.89,0,0,1,.49-.1q0-.15.29-.29c.2-.1.29,0,.29.1,0-.1.1-.2.2-.29,0,.79,1,.69,1.28,1.18a4.42,4.42,0,0,0-.79-.2c-.29,0-.69.29-.69.59a1.21,1.21,0,0,0,.39.79c-.29.1-.39,0-.69,0h0c-.2,0-.29-.39-.49-.29a.1.1,0,0,0-.1.1h0c-.1,0-.29.1-.2.2a.34.34,0,0,1,.2-.1v.1a.1.1,0,0,0,.1.1h.1c0,.1-.29-.1-.29.2a.1.1,0,0,0,.1.1c0,.1.1.2.2.1l-.1-.1h.1v.2c0,.1.1.2.29.1a.1.1,0,0,1-.1-.1h.1v-.1H92c0,.1.1.1.2.1a.1.1,0,0,0,.1-.1.1.1,0,0,1,.1.1c0-.1,0-.2.29,0l.2-.1s.2.1.29,0,.1-.1.1-.29-.2-.2-.2-.39c-.1-.39.49-.59.79-.49a2,2,0,0,0,1,1.08c.39.1.49-.29.59-.2l.1.1v.39c0,.1-.2,0-.39,0s-.1,0-.1.1a.21.21,0,0,0-.2.2A.34.34,0,0,1,95,71v.1a.19.19,0,0,0,.29.1h0c-.1.1-.2.2-.1.29h.1a.34.34,0,0,0,.1.2v-.2h.1c.1,0,.1-.2.2-.2h0c0,.1-.1.2,0,.29h.1c0,.1.1.1.29.1a.1.1,0,0,1-.1-.1l.1-.1c.1-.2-.1-.2-.1-.29s.2,0,.2-.29h0c.1-.1.2-.1.29-.2Z"/></g><g id="g3239"><path id="path3241" d="M86.31,77.5h-.2v-.2A1.16,1.16,0,0,0,84.94,76c-.69,0-2.06.88-3.93.88a6,6,0,0,1-2.36-.69l-.2.59v-.1a.49.49,0,1,0-.49.49.75.75,0,0,0,.39-.2l-.2.59a.34.34,0,0,1,.2.1,7.68,7.68,0,0,0,5.5,7.57c.59-.1,1.08-.1,1.08.49,0,.39-.2.49-.49.49s-.39-.1-.39-.29.39-.1.49-.29-.1-.29-.39-.29a.65.65,0,0,0-.69.59.8.8,0,0,0,.88.79,1.1,1.1,0,0,0,1.18-1.28c.2,0,.39,0,.49-.2v-.59h-.2l.2-6.49h.1c.2,0,.49-.1.49-.39s-.1-.29-.29-.29M79.63,78l4.52,6.49c-2.46-1-4.82-3.15-4.52-6.49m4.62,5.8-4.13-5.9h1l3.34,4.72a7.26,7.26,0,0,0-.2,1.18m.29-1.87L81.6,77.8l.88-.29,2.16,3.15a5.6,5.6,0,0,1-.1,1.28m.69-4.52H85a.54.54,0,0,0-.49.29.36.36,0,0,0,.39.39H85v.2c-.1.39-.2,1-.29,1.67l-1.87-2.65a12,12,0,0,1,2-.69c.39,0,.49.2.39.79"/></g><g id="g3243"><path id="path3245" d="M85.55,64.37c.88,0,1.28-.29,1.28-.59,0-1-2.46-.39-2.46-1,0-.1.1-.2.2-.29h0c1.18-.1,1.28-1,2.06-1.08-1.08-.2-1.18.69-1.67.69a.67.67,0,0,0,.29-.49c-.2.29-.69.29-1,.59,0,.1-.1.1,0,.2-.2.1-.29.2-.29.39,0,.88,2.46.29,2.46,1,0,.2-.39.39-1.08.39-.49,0-.88-.39-1.77-.1,0-.2.29-.49.2-.59a.21.21,0,0,0,.2-.2c-.1-.1-.1-.1-.2-.1v-.1a.1.1,0,0,0-.1-.1.34.34,0,0,0-.2-.1.3.3,0,0,0-.2-.1h-.1c-.1,0-.1,0-.1.1a.34.34,0,0,0-.2-.1c0,.1-.1.1,0,.29-.1,0-.2.2-.29.2a.1.1,0,0,0,.1.1c-.1.1-.1.29-.2.29a.1.1,0,0,0,.1.1,1.25,1.25,0,0,0-.1.59h0l-.2-.2a.36.36,0,0,1-.1-.29c0-.1.1-.2.1-.29v-.1c0-.1-.1-.1-.2-.1l.1.1-.1.1s-.1.1,0,.1h0v.1h0c0-.1,0-.2-.1-.2h-.1c0-.1-.1-.2-.2-.1h.1v.1c0,.1,0,.1.2.1h0c-.2-.1-.29,0-.29.1v.1c-.1,0-.1.1,0,.2a.1.1,0,0,1,.1-.1h.1c-.1.1-.1.2,0,.2h0a.15.15,0,0,1-.29,0c-.2.2.1.39.29.29h0a.1.1,0,0,0,.1.1h.1a.1.1,0,0,0,.1.1v-.1a1.41,1.41,0,0,0,.2.29,2,2,0,0,1-.59.2h-.39c-.1.1-.49.2-.59.1a.3.3,0,0,0-.1-.2l-.1-.1h-.1c-.1-.1-.2-.1-.2,0a.1.1,0,0,1,.1.1v.1s0,.1.2.2h-.1c-.1-.1-.1-.2-.2-.1h-.1a.21.21,0,0,0-.2.2.1.1,0,0,1,.1-.1v.1c0,.1.1.2.29,0h0c-.1.1-.2.2-.1.29h.1a.21.21,0,0,0,.2.2.34.34,0,0,1-.1-.2h.1c.1,0,.1-.2.1-.2h0c0,.1,0,.2.2.2a.21.21,0,0,0,.2-.2h0l.1.1a.1.1,0,0,0,.1-.1v.2s.2-.1.2-.2v.1h.29v0a.3.3,0,0,0,.1.2c0-.29.2-.2.39-.29h0a.1.1,0,0,1-.1.1c.1,0,.29-.1.29-.2l.1-.1c.1,0,.2,0,.2-.1v.2a.84.84,0,0,0,.49-.29c.49-.1-.29-.39.69-.39a.36.36,0,0,0,.29-.1.34.34,0,0,0,.1.49.34.34,0,0,1,.2.1h0c-.1,0-.2,0-.2.1-.2.1-.2-.29-.49-.2h-.1a.21.21,0,0,0-.2.2.34.34,0,0,1,.2-.1h0a.1.1,0,0,0,.1.1H84c0,.1-.29,0-.2.2v.1c0,.1.1.2.2.1a.1.1,0,0,1-.1-.1H84v.2c0,.1.1.2.29.1a.1.1,0,0,1-.1-.1h.1v-.1h.1c0,.1.1.1.2.1s0-.2.2-.2h.39a.59.59,0,0,0-.1-.39c-.1,0,0-.1-.1-.29a.74.74,0,0,0,.49.1c.29,0,0-.1.2-.1s.39-.1.39,0a.1.1,0,0,1,.1.1v.29c0,.1-.2,0-.29,0h-.1a.21.21,0,0,0-.2.2.34.34,0,0,1,.2-.1h0c0,.1.1.2.2.1h0c-.1.1-.2.2-.1.2h.1c0,.1,0,.2.1.2v-.1h.1c.1,0,0-.1.1-.2h0v.2h.1c0,.1.1.1.2.1a.1.1,0,0,1-.1-.1l.1-.1c0-.2-.1-.2-.1-.29s.2,0,.2-.2a.1.1,0,0,0-.1-.1h0a.1.1,0,0,0,.1-.1c-.1,0-.1-.1-.1-.2h0a.34.34,0,0,0,.1-.2c0,.1-.2.1-.2,0a.1.1,0,0,0-.1-.1c-.29.1-.39-.1-.79-.1h0m-2.75-1h0m.69-.2a1,1,0,0,0,.29.1c-.1,0-.1.1-.2.1s-.1-.1-.1-.2m-.2-.1c0,.1-.1.1-.2.1s0-.1-.1-.2a1,1,0,0,1,.29.1m-.29.59h0l.2-.2c0-.1,0-.1-.1-.1.1,0,.1,0,.1-.1h-.1l.1-.1h.1l.2.1v.2a.1.1,0,0,0-.1-.1v.1h-.1v.2q0,.15-.29,0h0"/></g><g id="g3247"><path id="path3249" d="M86.76,67.66c0-.29-.29-.39-1.18-.39s-2.85.29-2.85-.2c0-.2.39-.2.79-.2a.34.34,0,0,0,.2.1c1.08.29,2.46-.29,3.15-.1-.79-.59-1.47,0-2.26-.2.49,0,.69-.1.69-.29-.39.29-1.08-.1-1.57.2a.1.1,0,0,0-.1.1c-.59,0-1.08,0-1.08.39,0,.88,2.36.39,3,.39s.88.1.88.2-.69.29-1.08.29a20.86,20.86,0,0,0-3.64-.1c.1-.2.29-.39.2-.59a.21.21,0,0,0,.2-.2c-.1-.1-.1-.1-.2-.1s0-.1-.1-.2a.1.1,0,0,0-.1-.1,1.22,1.22,0,0,0-.29-.2.36.36,0,0,0-.29-.1H81c-.1,0-.1,0-.1.1-.1-.1-.1-.1-.2-.1s-.1.2,0,.29c-.1,0-.2.29-.29.2a.1.1,0,0,0,.1.1c-.1.2-.1.29-.2.29l.1.1v.29l-.2-.1h-.1a1.36,1.36,0,0,0-.39-.29c-.2-.1-.2-.2-.2-.39s.1-.29.1-.39v-.1a.21.21,0,0,0-.2-.2.34.34,0,0,1,.1.2l-.1.1v.2h0v.1h0c0-.1-.1-.29-.2-.29h-.1c0-.1-.1-.2-.29-.1h.1v.1a.21.21,0,0,0,.2.2h0v.1h0c-.2-.1-.29,0-.29.1V67c-.1.1-.1.2,0,.2v-.1H79c-.1.1-.1.29,0,.29h0c0,.2-.39.2-.29,0-.2.29.1.49.39.39h0a.1.1,0,0,0,.1.1.1.1,0,0,1,.1-.1h0c0,.1,0,.1.1.2v-.1a1.83,1.83,0,0,0,.39.29c.2.1.29.2.39.1a1,1,0,0,0,.1.39h-.59c-.2.1-.59.2-.69.1s0-.1-.1-.2a.1.1,0,0,0-.1-.1h-.1a.18.18,0,0,0-.29,0,.3.3,0,0,1,.2.1v.1c0,.1,0,.1.2.2h-.1c-.1-.1-.1-.2-.2-.1h-.1c-.1,0-.29.1-.2.29l.1-.1V69c0,.1.1.2.39.1h0c-.1.1-.2.2-.1.29h.1c0,.2.1.29.2.29a.34.34,0,0,1-.1-.2h.1a.36.36,0,0,0,.1-.29h0c0,.1,0,.2.2.2a.21.21,0,0,0,.2-.2h0a.34.34,0,0,1,.1.2.1.1,0,0,0,.1-.1.36.36,0,0,1-.1.29c.1,0,.2-.1.2-.29a.1.1,0,0,0,.1.1h.29v.1a.1.1,0,0,1,.1-.1.3.3,0,0,0,.1.2c0-.39.2-.2.49-.39h0a.1.1,0,0,1-.1.1c.29.1.69-.29.79-.49h.29c.79.1.2-.69,1.47-.49.1,0,.2-.1.29-.1-.1.2-.1.49.1.49s.2.1.29.1h0c-.1,0-.2,0-.2.1-.29.2-.29-.39-.49-.29a.1.1,0,0,0-.1.1c-.1,0-.29.1-.2.2a.34.34,0,0,1,.2-.1v.1a.1.1,0,0,0,.1.1h.1c0,.1-.39-.1-.29.2v.1c0,.1.1.2.2.1l-.1-.1h.1v.2c0,.1.1.2.29.1a.3.3,0,0,1-.2-.1h.1v-.1h.2c0,.1.1.1.2.1s0-.2.2-.29h.49a.59.59,0,0,0-.1-.39c-.1,0,0-.2-.1-.29a.89.89,0,0,0,.49.1,1.15,1.15,0,0,0,.69-.2.44.44,0,0,1,.49,0,.1.1,0,0,1,.1.1v.29c0,.1-.2,0-.29,0s-.1,0-.1.1a.21.21,0,0,0-.2.2.34.34,0,0,1,.2-.1h0a.19.19,0,0,0,.29.1h0c-.1.1-.2.2-.1.2H86a.34.34,0,0,0,.1.2v-.2h.1c.1,0,0-.2.1-.2h0c0,.1-.1.2,0,.29h.1c0,.1.1.1.2.1a.1.1,0,0,1-.1-.1l.1-.1c.1-.2-.1-.2-.1-.29s.2,0,.2-.2a.1.1,0,0,0-.1-.1h0c.1,0,.1,0,.2-.1-.2,0-.1-.1-.1-.2h0c.1,0,.1-.1.1-.2-.1.1-.2.2-.2,0,0,0,0-.1-.2-.1a4.07,4.07,0,0,1-1-.1c.49,0,1.38-.1,1.38-.39M80,68.15h0m1.38-1.28a1,1,0,0,0,.29.1c-.2,0-.1.1-.2.1s-.1-.1-.1-.2m-.2-.1c0,.1-.1.1-.2.1s0-.1-.1-.2a1,1,0,0,1,.29.1m-.29.69c0-.1.1-.1,0,0,.2-.1.2-.1.2-.2s0-.1-.1-.1c.1,0,.1,0,.1-.1H81a.1.1,0,0,1,.1-.1h.1l.29.1a.1.1,0,0,1,.1.1v.1a.1.1,0,0,0-.1-.1v.1c-.1,0-.1-.1-.2,0v.2c0,.1-.1.2-.2.1-.29.1-.29,0-.2-.1M81.55,69h0"/></g><g id="g3251"><path id="path3253" d="M86.33,71.41c0-.29-.29-.39-1.08-.39s-3.34.29-3.34-.2c0-.29.88-.2,1.47-.2a.34.34,0,0,0,.2.1c1.08.29,2.16-.39,2.95-.2-.59-.59-1.38.1-2.16-.1.49,0,1-.1,1-.2-.39.2-1.38-.2-1.87.1a.1.1,0,0,0-.1.1c-.79,0-1.77-.1-1.77.39,0,.79,2.85.29,3.54.29s.88.1.88.2-.69.2-1.08.2c-.59,0-3.34-.39-4.42,0,.1-.2.29-.49.2-.59a.21.21,0,0,0,.2-.2c-.1-.1-.1-.1-.2-.1v-.1a.1.1,0,0,0-.1-.1l-.2-.2a.3.3,0,0,0-.2-.1H80c-.1,0-.1,0-.1.1a.34.34,0,0,0-.2-.1c0,.1-.1.2,0,.29-.1,0-.2.29-.29.2a.1.1,0,0,0,.1.1c-.1.1-.1.29-.2.29l.1.1v.29h-.29c-.1,0-.2-.2-.49-.39s-.2-.2-.2-.29.1-.29.1-.39v-.1c0-.1-.2-.2-.2-.1l.1.1-.1.1v.1h0v.1h0c0-.1-.1-.29-.2-.29h-.1c0-.1-.1-.2-.2-.1H78v.1c0,.1.1.1.2.2h0c-.2-.1-.29,0-.29.1v.1c-.1.1-.1.1,0,.2v-.1h.29c-.1.1-.1.2.1.29h0A.15.15,0,0,1,78,71c-.2.29.1.49.39.29h0a.1.1,0,0,0,.1.1h.1c0,.1,0,.1.1.2v-.1a1.64,1.64,0,0,0,.59.49c.1,0,.2,0,.2-.1a.1.1,0,0,0,.1.1.43.43,0,0,0,.1.29H79a.86.86,0,0,1-.69.1c0-.1,0-.1-.1-.2a.1.1,0,0,0-.1-.1H78a.18.18,0,0,0-.29,0,.3.3,0,0,1,.2.1v.1c0,.1,0,.1.2.2H78c-.1-.1-.1-.2-.2-.1h-.1c-.1,0-.29.1-.2.29l.1-.1v.1c0,.1.1.2.29.1h0c-.1.1-.2.2-.1.29h.1c0,.1.1.29.2.2a.34.34,0,0,1-.1-.2h.1c.1,0,.1-.2.1-.2h0c0,.1,0,.2.2.2a.21.21,0,0,0,.2-.2h0a.34.34,0,0,1,.1.2l.1-.1c0,.1,0,.2-.1.2a.21.21,0,0,0,.2-.2v.1h.29v.1a.1.1,0,0,1,.1-.1.3.3,0,0,0,.1.2c0-.39.49-.2.69-.29h0a.1.1,0,0,1-.1.1.36.36,0,0,0,.29-.1h0l.39-.2v-.1h.1c.2,0,.2-.2.29-.2,1.38.2.59-.59,2.16-.39.1,0,.1,0,.2-.1-.1.2-.1.39.1.39s.2.1.29.1h0c-.1,0-.2,0-.2.1-.29.2-.29-.39-.49-.29a.1.1,0,0,0-.1.1c-.1,0-.29.1-.2.2a.34.34,0,0,1,.2-.1v.1a.1.1,0,0,0,.1.1h.1c0,.1-.29-.1-.29.2V73c0,.1.1.2.2.1L83,73h.1v.2c0,.1.1.2.29.1a.1.1,0,0,1-.1-.1h.1v-.1h.2c0,.1.1.1.2.1s0-.2.2-.29h.49a.59.59,0,0,0-.1-.39c-.1,0,0-.2-.1-.29a.89.89,0,0,0,.49.1c.39,0,.49-.1.59-.2a.44.44,0,0,1,.49,0,.1.1,0,0,1,.1.1v.29c0,.1-.2,0-.29,0s-.1,0-.1.1a.21.21,0,0,0-.2.2.34.34,0,0,1,.2-.1h0c0,.1.2.2.2.1h0c-.1.1-.2.2-.1.2h.1a.34.34,0,0,0,.1.2V73h.1c.1,0,0-.2.1-.2h0V73h.1c0,.1.1.1.2.1a.1.1,0,0,1-.1-.1l.1-.1c.1-.2-.1-.2-.1-.29s.2,0,.2-.2a.1.1,0,0,0-.1-.1h0c.1,0,.1,0,.1-.1-.2,0-.1-.1-.1-.2h0a.34.34,0,0,0,.1-.2c0,.1-.2.2-.2,0,0,0,0-.1-.2-.1a3.39,3.39,0,0,1-.88-.1c.39.2,1.18.1,1.18-.2m-6-.69a1,1,0,0,0,.29.1c-.1,0-.1.1-.2.1s-.1-.1-.1-.2m-.2-.1c0,.1-.1.1-.2.1s0-.1-.1-.2a1,1,0,0,1,.29.1m-.29.69h0c.2-.1.2-.1.2-.2s0-.1-.1-.1c.1,0,.1,0,.1-.1h-.1l.1-.1h.1l.29.1a.1.1,0,0,1,.1.1v.1a.1.1,0,0,0-.1-.1v.1h-.2v.2c0,.1-.1.1-.2.1s-.2-.1-.2-.1"/></g><g id="g3255"><path id="path3257" d="M98.09,77.7h0c.1-.1.1-.1.1-.29-.1.1-.2.2-.2,0,0,0,0-.1-.2-.1a4.07,4.07,0,0,1-1-.1h0c.49,0,1.38-.1,1.38-.39s-.29-.39-1.08-.39-3.34.29-3.34-.2c0-.29.88-.2,1.47-.2a.34.34,0,0,0,.2.1c1.08.29,2.26-.49,2.95-.29-.79-.29-1.38.2-2.16,0,.49,0,1-.1,1-.2-.39.2-1.38-.2-1.87.1a.1.1,0,0,0-.1.1c-.79,0-1.77-.1-1.77.39,0,.79,2.85.29,3.54.29s.88.1.88.2-.69.29-1.08.29c-.69,0-3.34-.39-4.42,0,.1-.2.29-.49.2-.59a.21.21,0,0,0,.2-.2c-.1-.1-.1-.1-.2-.1V76a.1.1,0,0,0-.1-.1l-.2-.2a.3.3,0,0,0-.2-.1H92c-.1,0-.1,0-.1.1s-.1-.1-.2-.1-.1.2,0,.29c-.1,0-.2.29-.29.2a.1.1,0,0,0,.1.1c-.1.1-.1.29-.2.29l.1.1v.2h-.29c-.1,0-.2-.2-.49-.39s-.2-.2-.2-.29.1-.29.1-.39v-.1c0-.1-.1-.2-.2-.1l.1.1-.1.1v.1h0v.1h0c0-.1-.1-.2-.2-.29H90c0-.1-.1-.2-.2-.1h.1v.1a.21.21,0,0,0,.2.2h0c-.2-.1-.29,0-.29.1V76c-.1,0-.1.1,0,.2v-.1h.29c-.1.1-.1.29.1.29h0a.15.15,0,0,1-.29,0c-.2.29.1.49.39.29h0a.1.1,0,0,0,.1.1h.1c0,.1,0,.1.1.2v-.1a2,2,0,0,0,.49.49.34.34,0,0,1,.2-.1c0,.1.1.1.1.2h.1c0,.2.2.29.1.29h-.49a.86.86,0,0,1-.69.1c0-.1,0-.1-.1-.2a.1.1,0,0,0-.1-.1h-.1a.18.18,0,0,0-.29,0,.1.1,0,0,1,.1.1v.1c0,.1,0,.1.2.2H90c-.1-.1-.1-.2-.2-.1h-.1c-.1,0-.29.1-.2.29l.1-.1v.1c0,.1.1.2.29.1h0c-.1.1-.2.2-.1.29h.1a.21.21,0,0,0,.2.2.34.34,0,0,1-.1-.2h.1c.1,0,.1-.2.1-.2h0c0,.1,0,.2.2.2a.21.21,0,0,0,.2-.2h0a.34.34,0,0,1,.1.2l.1-.1a.36.36,0,0,1-.1.29c.1,0,.2-.1.2-.29a.1.1,0,0,0,.1.1h.29v.1a.1.1,0,0,1,.1-.1.3.3,0,0,0,.1.2c0-.39.2-.2.49-.39h0a.1.1,0,0,1-.1.1c.1.1.39-.1.39-.29a.3.3,0,0,0,.2-.1c.2,0,.2-.2.29-.2,1.38.2.59-.59,2.16-.39.1,0,.1-.1.2-.2-.1.2-.1.49.1.49s.2.1.29.1h0c-.1,0-.2,0-.2.1-.2.2-.29-.39-.49-.29a.1.1,0,0,0-.1.1.21.21,0,0,0-.2.2.34.34,0,0,1,.2-.1V78a.1.1,0,0,0,.1.1h.1c0,.1-.29-.1-.29.2a.1.1,0,0,0,.1.1c0,.1.1.2.2.1l-.1-.1h.1v.2c0,.1.1.2.29.1a.1.1,0,0,1-.1-.1h.1v-.1h.1c0,.1.1.1.2.1s0-.2.2-.2h.49a.59.59,0,0,0-.1-.39c-.1,0,0-.2-.1-.29a.89.89,0,0,0,.49.1,1.15,1.15,0,0,0,.69-.2.44.44,0,0,1,.49,0,.1.1,0,0,1,.1.1c-.1.2,0,.2,0,.29s-.2,0-.29,0-.1,0-.1.1a.21.21,0,0,0-.2.2.34.34,0,0,1,.2-.1h0c0,.1.1.2.2.1h0c-.1.1-.2.2-.1.2h.1c0,.1,0,.2.1.2v-.2h.1c.1,0,.1-.2.2-.2h0c0,.1-.1.2,0,.2h.1c0,.1.1.1.2.1a.1.1,0,0,1-.1-.1l.1-.1c.1-.2-.1-.2-.1-.29s.2,0,.2-.2a.1.1,0,0,0-.1-.1h0c.1,0,.1,0,.2-.1-.49.29-.39.1-.39,0m-6-1.47a1,1,0,0,0,.29.1l-.1.1a.21.21,0,0,1-.2-.2m-.2-.1c0,.1-.1.1-.2.1s0-.1-.1-.2a1,1,0,0,1,.29.1m-.29.69c0-.1.1-.1,0,0,.2-.1.2-.1.2-.2s0-.1-.1-.1c.1,0,.1,0,.1-.1h-.1v-.1h.1l.29.1v.2a.1.1,0,0,0-.1-.1v.1c-.1,0-.1-.1-.2,0v.2c0,.1-.1.1-.2,0h0m-.2-.39Zm.1-.29h0M92.68,78h0"/></g><g id="g3259"><path id="path3261" d="M94.37,79.78c0,.1.1.1.2.1,1,.29,2.16-.49,2.75-.29-.79-.29-1.28.2-2.06,0a1.82,1.82,0,0,0,1-.2c-.39.2-1.28-.1-1.77.1h-.1c-.59,0-1,0-1,.39,0,.79,2.06.29,2.75.29s.59.1.59.2-.79.2-1.08.2a17.49,17.49,0,0,0-3.34-.1c.1-.2.29-.39.2-.49a.21.21,0,0,0,.2-.2c-.1-.1-.1-.1-.2-.1v-.1a.1.1,0,0,0-.1-.1l-.2-.2a.3.3,0,0,0-.2-.1h-.1c-.1,0-.1,0-.1.1a.34.34,0,0,0-.2-.1c0,.1-.1.2,0,.29-.1,0-.2.2-.29.2a.1.1,0,0,0,.1.1c-.1.1-.1.29-.2.29l.1.1a.36.36,0,0,1-.1.29h-.1a.74.74,0,0,1-.39-.1c-.2-.1-.2-.2-.2-.29s.1-.29.1-.39v-.1c0-.1-.1-.2-.2-.1l.1.1-.1.1v.1h0v.1h0a.21.21,0,0,0-.2-.2h-.1c0-.1-.1-.2-.2-.1H90v.1c0,.1.1.1.2.1h0c-.2-.1-.29,0-.29.1V80c-.1,0-.1.1,0,.2v-.1h.2c-.1.1-.1.2.1.29h0a.15.15,0,0,1-.29,0c-.2.29.1.49.39.29h0a.1.1,0,0,0,.1.1h0c0,.1,0,.1.1.1v-.1s0-.1.29.1a.1.1,0,0,0,.1.1h.2v.39h-.49c-.1.1-.49.2-.59.1s0-.1-.1-.2a.1.1,0,0,0-.1-.1h-.1a.18.18,0,0,0-.29,0,.1.1,0,0,1,.1.1v.1s0,.1.2.2h-.1c-.1-.1-.1-.2-.2-.1h-.1c-.1,0-.29.1-.2.2a.1.1,0,0,1,.1-.1v.1c0,.1.1.2.29,0h0c-.1.1-.2.2-.1.29h.1a.21.21,0,0,0,.2.2.34.34,0,0,1-.1-.2h.1c.1,0,.1-.2.1-.2h0c0,.1,0,.2.2.2a.21.21,0,0,0,.2-.2h0a.34.34,0,0,1,.1.2l.1-.1c0,.1,0,.2-.1.2a.21.21,0,0,0,.2-.2.1.1,0,0,0,.1.1h.29V82a.1.1,0,0,1,.1-.1.3.3,0,0,0,.1.2c0-.39.29-.29.49-.39h0a.1.1,0,0,1-.1.1c.2.1.49-.2.59-.39l.1-.1v.1c.2,0,.2-.2.29-.2.69.1.2-.59,1.28-.39.1,0,.2-.1.29-.1-.1.1-.1.49.1.49s.2.1.29.1h0c-.1,0-.2,0-.2.1-.2.2-.2-.39-.49-.29h-.1a.21.21,0,0,0-.2.2.34.34,0,0,1,.2-.1v.1a.1.1,0,0,0,.1.1h.1c0,.1-.29-.1-.29.2v.1c0,.1.1.2.2.1l-.1-.1h.1v.2c0,.1.1.2.29.1a.1.1,0,0,1-.1-.1h.1v-.1h.1c0,.1.1.1.2.1s0-.2.2-.2h.49a.59.59,0,0,0-.1-.39c-.1,0,0-.1-.1-.29a.74.74,0,0,0,.49.1,1.26,1.26,0,0,0,.69-.1.44.44,0,0,1,.49,0s.1,0,0,.1,0,.2-.1.29-.2,0-.29,0H96a.21.21,0,0,0-.2.2.34.34,0,0,1,.2-.1h0c0,.1.1.2.2.1h0c-.1.1-.29.2-.2.2h.1c0,.1,0,.2.1.2a.3.3,0,0,1,.1-.2h.1c.1,0,.1-.2.2-.2h0c-.1.1-.1.2,0,.2h.1c0,.1.1.1.2.1a.1.1,0,0,1-.1-.1l.1-.1c.1-.2-.1-.2,0-.29s.2,0,.29-.2a.1.1,0,0,0-.1-.1h0c.1,0,.1,0,.2-.1-.1,0-.1-.1-.1-.2h0c.1,0,.1-.1.1-.2-.1.1-.2.1-.2,0a.1.1,0,0,0-.1-.1,4.07,4.07,0,0,1-1-.1h0c.49,0,1.38-.1,1.38-.39s0-.39-.79-.39-2.56.29-2.56-.2c-.49.29-.1.29.29.29m-2.56,0c0,.1-.1.1-.2.1s0-.1-.1-.2c.1,0,.2.1.29.1m.2.49c-.1,0-.1-.1,0,0-.2-.1-.1-.1,0,0h-.2v.2a.34.34,0,0,1-.2.1c-.1,0-.1-.1-.1-.2a.1.1,0,0,1,.1-.1c.1,0,.1,0,.1-.1s0-.1-.1-.1c.1,0,.1,0,.1-.1h-.1v-.1h.1L92,80v.29h0m.1-.2c-.1,0-.1-.1-.1-.2a1,1,0,0,0,.29.1c-.1,0-.1.1-.2.1"/></g><g id="g3263"><path id="path3265" d="M93.5,83.48c0,.1.1.1.2.1,1,.29,2.16-.49,2.75-.29-.79-.29-1.28.2-2.06,0a1.82,1.82,0,0,0,1-.2c-.39.2-1.28-.2-1.77.1a.1.1,0,0,0-.1.1c-.29.1-.59.2-.59.49,0,.69,2.56.1,2.56.39s-.49.39-1.18.39a9.44,9.44,0,0,0-2.56-.1h0c.1-.2.29-.49.2-.59a.21.21,0,0,0,.2-.2c-.1-.1-.1-.1-.2-.1v-.1a.1.1,0,0,0-.1-.1.34.34,0,0,0-.2-.1c-.1-.1-.2,0-.2-.1h-.1a.1.1,0,0,0-.1.1.34.34,0,0,0-.2-.1c0,.1-.1.2,0,.29-.1,0-.2.2-.29.2a.1.1,0,0,0,.1.1c-.1.1-.1.29-.2.29l.1.1c0,.2-.1.49,0,.59-.2-.2-.39-.49-.59-.59s-.2-.2-.2-.29.1-.2.1-.39v-.1c0-.1-.1-.1-.2-.1l.1.1-.1.1v.1h0v.1h0a.21.21,0,0,0-.2-.2h-.1c0-.1-.1-.2-.2-.1h.1v.1c0,.1.1.1.2.1h0c-.2-.1-.2,0-.29.1v.1c-.1,0-.1.1,0,.2v-.1h.2c-.1.1-.1.2.1.2h0a.15.15,0,0,1-.29,0c-.2.2.1.39.29.29h0a.1.1,0,0,0,.1.1h0c0,.1,0,.1.1.1v-.1a.63.63,0,0,0,.29.49c.1.2.2.29.39.29a.3.3,0,0,1,.1.2h-.49c-.1,0-.2.1-.29.1h0a.36.36,0,0,1-.29-.1.3.3,0,0,0-.1-.2.1.1,0,0,0-.1-.1h-.1c-.1-.1-.2-.1-.2,0a.1.1,0,0,1,.1.1v.1s0,.1.2.2h-.1c-.1-.1-.1-.2-.2-.1H89a.21.21,0,0,0-.2.2.1.1,0,0,1,.1-.1v.1c0,.1.1.2.29,0h0c-.1.1-.2.2-.1.29h0a.21.21,0,0,0,.2.2.34.34,0,0,1-.1-.2h.1c.1,0,.1-.2.1-.2h0c0,.1,0,.2.2.2a.21.21,0,0,0,.2-.2h0l.1.1a.1.1,0,0,0,.1-.1c0,.1,0,.1-.1.2s.2-.1.2-.2v.1h.29v.1a.1.1,0,0,1,.1-.1.3.3,0,0,0,.1.2c0-.29.2-.2.39-.29h0a.1.1,0,0,1-.1.1c.1,0,.29-.1.29-.2a.86.86,0,0,0,.2-.59h.1c.29,0,.39-.2.69-.2a.59.59,0,0,0-.1.39c0,.1.2.29.29.39h0c-.1,0-.2,0-.2.1-.2.1-.2-.29-.49-.2l-.1.1a.21.21,0,0,0-.2.2.34.34,0,0,1,.2-.1h0a.1.1,0,0,0,.1.1h.1c0,.1-.29-.1-.2.2v.1c0,.1.1.2.2.1l-.1-.1h.1v.2c0,.1.1.2.29.1a.1.1,0,0,1-.1-.1H92v-.1h.1a.34.34,0,0,0,.2.1c.2-.1,0-.2.2-.2h.1c.1,0,.2.1.29,0a.59.59,0,0,0-.1-.39c-.1,0,.1-.49-.29-.79.2,0,.79.1.88,0a.69.69,0,0,1,.39.2v.1c-.2.1-.1.1-.2.2h0l-.2-.2h-.1c-.1,0-.2,0-.2.1h.2v.1h0c-.1,0-.29,0-.2.1v.1c-.1,0-.1.1,0,.2a.1.1,0,0,1,.1-.1v.1a.34.34,0,0,1,.2-.1h0c-.1,0-.2.1-.1.2V86c0,.1,0,.2.1.2v-.1h.1c.2-.1.1-.2.1-.29s.1.1.29,0v-.1h0s.1.1.1,0,0-.1.1-.2h0a.3.3,0,0,0,.2-.1c-.1,0-.29-.1-.2-.1s.2-.2.1-.29-.39-.2-.39-.39h.29c.88,0,1.47-.2,1.38-.49,0-.59-2.65,0-2.65-.39.39-.2.49-.29.69-.29m-1.87,0a1,1,0,0,0,.29.1c-.1,0-.1.1-.2.1s-.1-.1-.1-.2m-.2,0c0,.1-.1.1-.2.1s0-.1-.1-.2c.1,0,.29,0,.29.1m-.2.59h0a.3.3,0,0,1,.2-.1c0-.1,0-.1-.1-.1.1,0,.1,0,.1-.1h-.1v-.1h.1l.2.1V84a.1.1,0,0,0-.1-.1V84h-.1v.2c0,.1-.1.1-.2.1s-.1-.2,0-.2"/></g><g id="g3267"><path id="path3269" d="M51.38,38.1a.59.59,0,1,0-1.18,0,.59.59,0,1,0,1.18,0"/></g><g id="g3271"><path id="path3273" d="M51.11,36.35a.59.59,0,1,0-1.18,0,.63.63,0,0,0,.59.59c.39.1.59-.2.59-.59"/></g><g id="g3275"><path id="path3277" d="M51.52,35.6a.57.57,0,0,0,.59-.59.63.63,0,0,0-.59-.59.59.59,0,0,0,0,1.18"/></g><g id="g3279"><path id="path3281" d="M53.18,35.56a.59.59,0,1,0-.59-.59.63.63,0,0,0,.59.59"/></g><g id="g3283"><path id="path3285" d="M60.35,34.38a.63.63,0,0,0,.88-.88.55.55,0,0,0-.88,0,.73.73,0,0,0,0,.88"/></g><g id="g3287"><path id="path3289" d="M60.2,33a.55.55,0,0,0,0-.88c-.29-.2-.69-.29-.88,0s-.2.69,0,.88a.73.73,0,0,0,.88,0"/></g><g id="g3291"><path id="path3293" d="M58.55,32.74a.74.74,0,0,0,0-.88.55.55,0,0,0-.88,0,.73.73,0,0,0,0,.88.55.55,0,0,0,.88,0"/></g><g id="g3295"><path id="path3297" d="M57.08,33.79a.63.63,0,1,0-.88,0,.55.55,0,0,0,.88,0"/></g><g id="g3299"><path id="path3301" d="M53,32.91,53.54,34l.59-.79h.1a6.49,6.49,0,0,1,.1,1.38.78.78,0,0,0,.79.79.85.85,0,0,0,.79-.79.83.83,0,0,0-.39-.69,7.15,7.15,0,0,1-.88-.79V33l1.08.1-.39-1.18-.79.69h0l-.1-1.18-1.08.39.69.88v.1Z"/></g><g id="g3303"><path id="path3305" d="M60.36,35a6.21,6.21,0,0,1,.39.88,3.14,3.14,0,0,1-.69-.59l.1,1.47a1.16,1.16,0,0,1,.49-.49c-.1,1-.39,1.38-.79,1.38a.68.68,0,0,1-.79-.49c-.1-.39.29-.69.69-.29.1-.88-.69-.88-1-.49a1.3,1.3,0,0,0-.49-1.87c-.49.79-.29,1.28.29,2-.59-.29-1.08.2-.59.88.1-.59.59-.39.69,0s-.29.88-.88,1.08c-.88.29-1.18-.29-1.38-.79a1.23,1.23,0,0,1,1.18.29l-.39-1.47a1.56,1.56,0,0,1-.88.88A6.19,6.19,0,0,1,56.63,36l-1.77.69a5.73,5.73,0,0,1,1.08.69,1.62,1.62,0,0,1-1.18,0l.69,1.38c.1-.59.39-1,.69-1a1.06,1.06,0,0,1-.49,1.57,1.12,1.12,0,0,1-1.38-.1c-.2-.39,0-.88.49-.49-.1-.79-.79-.79-1-.2,0-.88-.2-1.38-1.08-1.57a1.26,1.26,0,0,0,.88,1.67c-.49-.1-1,.39-.29,1,0-.49.49-.59.69-.2a.64.64,0,0,1-.2.88c-.29.2-.79.2-1.57-.49a1.05,1.05,0,0,1,.79,0l-.88-1.18a1.23,1.23,0,0,1-.1.88,1.49,1.49,0,0,1-.39-.88l-.69.59a7.5,7.5,0,0,1,2.36,2.36c1-.59,2.75-1.47,3.83-2a20.09,20.09,0,0,1,4.13-1.28,8.77,8.77,0,0,1,.1-3.34Z"/></g><g id="g3307"><path id="path3309" d="M74.23,75c.29-.69-1-1.47-1.18-2.36s0-1.87-1.18-3.15-4.82-5.31-6-6.59a1.85,1.85,0,0,1,1.67.49c.39.39,1.18,1.18,2,1.87a21.14,21.14,0,0,1,4-6.49c.2-.29.49-.49.69-.79A8.8,8.8,0,0,0,72,58.8,3.76,3.76,0,0,0,71.28,56c.29-1.57,0-3.44-3.44-5.7,1.77.39,2.85,2.06,4.23.79-1.18,0-1.28-2.65-5.7-4.91,1.67,0,2.95,2.65,4.91,1.18-1.87-.2-2.46-3.44-5.8-4.52,1.18.1,2.36.69,3.34-.69-1.18.29-1.87-.79-3-.88a3.89,3.89,0,0,0-.1-3.34,3.86,3.86,0,0,0-2.36.88c-.1-.79-.88-.79-1.67-.79,0,.29.2.79-.2.88a33.61,33.61,0,0,0-4.13,1.28,19.5,19.5,0,0,0-3.73,2.06c-.29.2-.59-.29-.79-.49-.49.49-1.08,1.08-.69,1.67a5,5,0,0,0-2.56.88,2.87,2.87,0,0,0,2.06,2.46c-2.06,2.06-.2,3.93-2,5.7,2.56.1,2.06-3.44,3.34-3.93-.1,2.46-1.47,2.95-1.47,5.6,0,1.47.88,2.95.1,3.93,2.16-.59,1.57-5.31,2.85-6.68a3.9,3.9,0,0,1-.2,2.36c-.79,2.16.1,5.21-1.08,6.09,2.16-.2,2.46-3.64,4.23-4.91-1.57,3.15-3,9.73-5.41,13.07-3.64,5-5.9,11-9.24,11a2.5,2.5,0,0,1-2.65-2.75c0-5.6,9.73-9.53,9.73-15.53A3.61,3.61,0,0,0,46.32,57a5.36,5.36,0,0,0-2.95,1.18,2.62,2.62,0,0,0-1.18-.29c-3.44,0-2.56,6.19-5.5,6.09,1.18.69,3.24-.59,4.42-2.36-.49,4-6.29,2.95-5.8,7.76.79-3.73,9.93-3.24,9.93-8.94a1.91,1.91,0,0,0-.79-1.57,4.07,4.07,0,0,1,2-.59c1.08,0,2.06.79,2.06,2.46,0,5-9.63,9.34-9.63,15.53a4,4,0,0,0,.79,2.56,1.58,1.58,0,0,1-2-.49c-.1,1.57,2.26,2.56,3.64,1.77a3.49,3.49,0,0,0,1,.2,2.59,2.59,0,0,1-2.65,1.47c2.36,1.87,6.49-.59,6.29-2.65,1.87-1.47,3-4.13,4.42-5.8a4.93,4.93,0,0,0-.2,1.18c-1.38,2.56-2.65,4.72-3,8.06-.29,2.75-1.67,5.31-3.64,5.31-.39,0-1.08-.59-1.47-.29-.59.49,0,1.08,0,1.57,0,.79-1.47,1.57-1.47,4,0,1.08.59,2.36.39,3.15a4.34,4.34,0,0,0,1.77-2.65c.69,3.24-1.38,3,.1,5.9.2-1,1.08-1.38,1.67-1s.29.69-.1,1.08-.79,2.56,1.08,2.46c-.39-.2-.39-.79.59-1,1.38-.29,1.77.39,3.15.39.88,0,1.08-1.18,1.87-1.18s.69.59.49,1c1.08-.29,1.38-.88,1.38-1.57s-.49-1-.1-1.28,1.67,0,1.18,1.08c.69-.1,1.08-.59,1.08-1.47s-1-1.28-1.77-1.18a1.67,1.67,0,0,0-1.57-.79c-1.57,0-1.38,1.28-2.46,1.28-1.77,0-3.44-2.26-3.44-6.09,0-2.06,2.16-2.56,3.73-3.24A13.61,13.61,0,0,0,55.46,83c1.28-2.16,1.28-4.52,1.18-7.27A4.64,4.64,0,0,1,59.1,80a2.61,2.61,0,0,1-1.57,2.65c-.59.29-.79.2-.88.49a.68.68,0,0,0,.49.79c.79.39.59,1.18.88,2a6.75,6.75,0,0,0,2.16,3,9.14,9.14,0,0,0,0-2.36c1.67.79.29,4.23,3.64,4.23a.88.88,0,0,1-.1-1.38c.29-.2.79.2,1.38,1.08s.49.79,2,.79.88-.49,1.67-.49.79,1,.29,1.67A1.74,1.74,0,0,0,70.3,90c1.18-.69,1.87.29,2.06,1a1.63,1.63,0,0,0-1-2.75,1.14,1.14,0,0,0-.88-1,8.39,8.39,0,0,0-1.57,0c-.59,0-.88.88-1.57.88-2.06,0-6.09-3.73-6.09-5.31s3.83-2.56,3.83-5c0-3.24-3.15-4.32-5.9-6.39,1-1.08,3.73-1.38,5.31-.59.2-.88.79-.69,1-2.26.59,1.38,0,2.56.59,3.15.49-.69,1.57-.59,1.57-2.26.39,1.08-.49,2.65.39,3.44.1-.88.69-1.08,1-1.08s.59.2.59.79c0,1.28-1.57.69-1.57,2.16,0,.59.79.79.79,1.18a.84.84,0,0,1-1.38.49,1.71,1.71,0,0,0,1.47,1.08,2.16,2.16,0,0,0,1.77-1.28c.39.88.1,2-.59,2.06.69.39,2.36,0,2.16-2.16,1,.2,1.47.79.88,2,.79-.2,1.47-.59,1.47-1.38,0-.59-.69-.79-.39-1.67M56,45.82c-.88.1-.88-.79-2.46-1.18a24.09,24.09,0,0,0,3.73-1.28c.29,1.08-.2,2.36-1.28,2.46m6.29,6.59A1.72,1.72,0,0,1,60,51.23c-.2-.69-.39-1.28-.1-1.47.49-.49.69-.88.39-1.47s-1.08-.39-1.87-.2c.39-.69.39-1.18-.1-1.08s-.59,1.08-1,.88-.1-.69-.1-1,.29-.59.69-.79l3.24-1.28a.74.74,0,0,1,1,.1c.2.2.79.49.59.79s-.88-.39-1.38,0-.1.59.69.88c-.69.39-1.47.69-1.18,1.47.2.59.59.79,1.28.79.39,0,.59.49,1,1.18a1.8,1.8,0,0,1-.88,2.36m.2-9.14a1.75,1.75,0,0,1-2.56-.88,23.76,23.76,0,0,0,3.54-1.67c-.88,1.38-.29,2-1,2.56"/></g><g id="g3311"><path id="path3313" d="M136,90.65a2.75,2.75,0,1,0,5.5,0,2.75,2.75,0,1,0-5.5,0m.69,0a2.06,2.06,0,1,1,4.13,0,2,2,0,0,1-2.16,2,2,2,0,0,1-2-2"/></g><g id="g3315"><path id="path3317" d="M125.86,93.08a1.66,1.66,0,0,0-.69,1,1.76,1.76,0,0,0,.39,1.38,2.06,2.06,0,0,0,1.38.69,2.8,2.8,0,0,0,1.57-.2,1.75,1.75,0,0,0,.88-1.18,1.87,1.87,0,0,0-1.77-2.06,3.15,3.15,0,0,0-1.77.39M127,95.54a1.2,1.2,0,0,1-1.18-1.28.9.9,0,0,1,.39-.59,1.61,1.61,0,0,1,1.18-.2,1.37,1.37,0,0,1,1.28,1.18v.1a1.36,1.36,0,0,1-1.67.79"/></g><g id="g3319"><path id="path3321" d="M110.81,55a1.83,1.83,0,0,0-.59,2.46h0a1.93,1.93,0,0,0,2.56.1,1.84,1.84,0,0,0,.79-1.38,1.41,1.41,0,0,0-.29-1.08,1.21,1.21,0,0,0-1-.49,1.51,1.51,0,0,0-1.47.39m-.1,1.57a1.36,1.36,0,0,1,.59-1.08,1.29,1.29,0,0,1,1-.29.54.54,0,0,1,.49.29.65.65,0,0,1,.1.59,1.31,1.31,0,0,1-.59.88,1.19,1.19,0,0,1-1.57,0v-.39"/></g><g id="g3323"><path id="path3325" d="M122.6,88.58a2.37,2.37,0,0,0-.69,1.67v.1a2.23,2.23,0,0,0,.59,1.57,1.43,1.43,0,0,0,2.16,0,2.37,2.37,0,0,0,.69-1.67,2.41,2.41,0,0,0-.49-1.47,1.68,1.68,0,0,0-1.28-.69,1.56,1.56,0,0,0-1,.49m1.08,3.15h0a.84.84,0,0,1-.59-.29,1.57,1.57,0,0,1-.39-1.18,1.63,1.63,0,0,1,.49-1.18,1.12,1.12,0,0,1,.59-.29,1.22,1.22,0,0,1,1,1.47,1.63,1.63,0,0,1-.49,1.18.84.84,0,0,1-.59.29m0,.69Z"/></g><g id="g3327"><path id="path3329" d="M109.3,66.62a1.2,1.2,0,0,0-.88.79,1.93,1.93,0,0,0,1.18,2.46,2.22,2.22,0,0,0,1.77.1,1.2,1.2,0,0,0,.88-.79,1.25,1.25,0,0,0,0-1.18,2.46,2.46,0,0,0-1.18-1.28,2.24,2.24,0,0,0-1.77-.1m.49,2.65c-.69-.29-1.08-1.08-.79-1.57a.59.59,0,0,1,.49-.39,1.64,1.64,0,0,1,1.18.1,1.93,1.93,0,0,1,.88.88.83.83,0,0,1,0,.69.59.59,0,0,1-.49.39,2,2,0,0,1-1.28-.1"/></g><g id="g3331"><path id="path3333" d="M137.95,63.8c.88,2.46,2.65,3.34,4,2.65-3-.39-.59-5.5-4.42-5.5a1.25,1.25,0,0,0-.59.1,3.2,3.2,0,0,0-2.56-1A4.74,4.74,0,0,0,130,64.88c0,7,8.16,7.67,8.16,13.86a2.89,2.89,0,0,1-2.95,2.95c-1.38,0-2.46-1.57-3.64-3.93a34.11,34.11,0,0,0-2.95-4.32,1.89,1.89,0,0,0,1.18.39,1.72,1.72,0,0,0,1.18-.39,1.58,1.58,0,0,0,.49-1.08v-.1a2.09,2.09,0,0,0-.69-1.57,2.22,2.22,0,0,0-1.57-.79,1.72,1.72,0,0,0-1.18.39,1.58,1.58,0,0,0-.49,1.08v.1a1.67,1.67,0,0,0,.1.69c-1.77-2.26-3.34-4.52-3.34-5.8,0-1.08.79-2.06,1.67-3.15l.29.2.2-.29c.29-.39,1-1.08,2.46-2.65l.1-.1h0l.29-.39-.88-.69a18.55,18.55,0,0,0,.59-1.77c.29,1.08.88,1.87,1.67,1.57-.49-1.18.49-2.75-.2-5.6.69,1.08,1.67,1.67,2.36,1.47-1.77-1.57.49-3.83-1.77-7.27a1.41,1.41,0,0,0,1.67-.29c-2.16-.29-1.18-3-4.91-4,1-.2,1.47-.69,1.38-1.18-1,.69-1.87-1.38-5.11-1.28a4.9,4.9,0,0,0-2.65-3.15,5.44,5.44,0,0,1-.2,2.56L110.63,29.89q-.44-.44-.59-.29c-.1.1-.1.29.1.49l9.14,11.5a17.72,17.72,0,0,0-2.06.79,1.19,1.19,0,0,0-.79,1.18,22.73,22.73,0,0,0-3.93,2.56c-.59.49-1,.59-.49,1.77.2.39-.39,1.47.88.69.88-.49,2.85-1.57,3.15-.88.2.39-.79.79-1.47,1.08s-1.38.79-1.28,1.08.59,0,.69.29a.64.64,0,0,0,.49.59c.29,0,.59-.59.79-.39s-.1,1.47-.29,1.77a2.08,2.08,0,0,0,1.77-1.87c0-.79.2-1,.39-1.08s.39.79.1,1.38c.59-.1,1.08-.88,1.08-2.16a1.94,1.94,0,0,1,.79-.39c.39,0,1.08,1,2.06,1a3.09,3.09,0,0,0,2.95-2.16,1.85,1.85,0,0,0-.29-1.47,2.44,2.44,0,0,1,.88,2c0,2.56-4.52,3.73-6.39,5.5l-.2.2-2.16-.79-.1.49a1.55,1.55,0,0,1-.1.39c-.2.69-.69,2.26-1,3.15l-.1.39.2.1a11.14,11.14,0,0,0-2.46,5.5,10.52,10.52,0,0,0-1.57-1.38,1.25,1.25,0,0,0,.1-.59,1.93,1.93,0,0,0-.49-1.47,1.36,1.36,0,0,0-1-.49,1.64,1.64,0,0,0-1.08.39l-.2.2c-.1-.1-.2-.1-.2-.2a19.25,19.25,0,0,1-2.06-1.77,1,1,0,0,0-.88-.39h-1c-.29,0-.49.2-.88.59-.2.2-.69.49-1.18,1l.79.79c.1.2.29.29.39.49.1-.1.29-.2.39-.29a1.16,1.16,0,0,1,1.67.39,46.54,46.54,0,0,0,3.34,4.13c-.2.1-.29.1-.49.2a7.5,7.5,0,0,1-2.56.2c-.59-.1-.69-.2-1.18.49a5.45,5.45,0,0,1-.59.79c-.2.29-.39.49.1,1.28.59,1.08,2.16,3.83,2.75,5.11s1.08,1.47,2.16,1.87a16.49,16.49,0,0,1,2.85,1.57l.1-1a5.89,5.89,0,0,0-1.57-.79c-.39-.1-.49-.29,0-.29a9.63,9.63,0,0,1,2.46.79,8.23,8.23,0,0,0-1.67-2.56,2.66,2.66,0,0,0-1.77,0c0,.2-.1.49-.39.49s-.49-.2-.39-.49.49-.39.39-.88-.79-.59-1.18-.69c-.59-.88-1.28-2.16-1.67-2.65a.71.71,0,0,1,.1-1c.49-.39,1.57.2,3.73.39.79,0,1.67.1,2.65.1.29,2.56,1.28,4.91,4.82,5.8a5.77,5.77,0,0,1,4,3.34c-7-.1-8.06,2.56-8.06,5.21,0,2.95,2.46,2.75,2.46,4.91,0,1.87-5.9,2.65-7.67,2.95a4.88,4.88,0,0,0-3,1.28c-.69.69-1.47,1.38-2.75,2.75a7.83,7.83,0,0,0,1.08.1l1-1.28c.29-.39.49-.79.69-.79s.1.39-.2.79L103.94,93c3.44.2,3.64-1.08,3.64-1.57s-.88-.88-.39-1.18.88-.1,1.28.39.49.88,1.47.49c0,0,7.47-3.15,8.45-3.54s.59-.79.1-1.18a2.33,2.33,0,0,1-.69-2c0-2.26,1.38-2.95,3.83-2.95,0,.39-.1.79-.1,1.08,0,3.54,5.41,7,6.78,7,.69,0,1.47-.49,1.57,1.67,0,1.57.39,2.65.1,4.52a3.44,3.44,0,0,1-1.87,2.85c-1.08.79-2.16,3.15-2.56,3.64.49.29,1,.39,1.38-.79.29-1,.69-1.67,1.18-1.87-.39,1.08-.69,2.65-1,3.15,1.38.2,3.64-1,3.64-2s-.79-.88-.79-1.57c0-.29.39-.59.79-.59.59,0,1,.39,1,.69.59-.29,1-.88,1-2.36a9.54,9.54,0,0,0-.1-1.67.34.34,0,0,0,.1.2,1.53,1.53,0,0,0,1.28.69,2.56,2.56,0,0,0,1.47-.39,2.48,2.48,0,0,0,1-1.47v-.39a1.59,1.59,0,0,0-.29-.88,1.8,1.8,0,0,0-1-.69,2.37,2.37,0,0,0-1.77.39,2.09,2.09,0,0,0-1,1.28,45.24,45.24,0,0,1-.2-4.52c.1-1.08.1-1.57-.2-1.77s-.79.49-1.28.49a3.58,3.58,0,0,1-2.06-2.95c0-1.57,1.67-3.54,1.57-5.6,0-.69.39-1,.69-.39a9.55,9.55,0,0,0,1.47,2.46c-.39,2.65,2.46,5.21,4.82,3.34-1.18.2-2-.88-2.56-2,.2,0,.39.1.69.1h.39c.88,1.08,3.54,1,4.23-1.67a2.69,2.69,0,0,1-2.16.88,4.4,4.4,0,0,0,1.57-3.44c0-6.68-8.16-7.47-8.16-13.56a3.75,3.75,0,0,1,3.34-3.73,2.79,2.79,0,0,1,1.28.39,3.4,3.4,0,0,0-.79,2.36c.2,4.82,8.06,4.62,8.16,6.88.69-3.83-5.11-2.75-5.31-7.47M117,45.32c.39-.69,0-1.87,1.38-1.87.69,0,1.28.69,2.06.88a10.2,10.2,0,0,0-3.44,1m-7.17,14.74a1.5,1.5,0,0,1-.39,1,.75.75,0,0,1-.49.2c-.49,0-.79-.59-.79-1.18V60a1.5,1.5,0,0,1,.39-1,.75.75,0,0,1,.49-.2.84.84,0,0,1,.49.29,1.66,1.66,0,0,1,.29,1M133,93.87a1.8,1.8,0,0,1,.69-1,1.36,1.36,0,0,1,1.18-.29.71.71,0,0,1,.59.39h0c.2.2.1.49.1.69a1.8,1.8,0,0,1-.69,1c-.69.39-1.47.39-1.77-.1a.91.91,0,0,1-.1-.69m-4.91-22.41a.85.85,0,0,1,.29-.59.83.83,0,0,1,.59-.2,1.36,1.36,0,0,1,1.08.59,1.81,1.81,0,0,1,.49,1.18.85.85,0,0,1-.29.59h0a.83.83,0,0,1-.59.2,1.36,1.36,0,0,1-1.08-.59,2,2,0,0,1-.49-1.18M114.85,56.33c.39-1.18,1.08-3.54,1.08-3.54l1.28.49a3.09,3.09,0,0,0-1.18.88,1.39,1.39,0,0,0,1.08-.1l-.49,1.28c-.1-.2-.49-.69-.79-.69a1.23,1.23,0,0,0,.79,1.57c.79.39,1.28.49,1.47.1s-.29-1-.88-.79c-.1-.69.29-1,.69-1a.83.83,0,0,1,.69.69A2,2,0,0,1,120,53.08a2,2,0,0,1-.69,2.46,1,1,0,0,1,1.08.1.81.81,0,0,1-.39,1.18.65.65,0,0,0-1.18-.29c-.2.39.1.88.79,1.28a1.23,1.23,0,0,0,1.87-.49,1.85,1.85,0,0,0-1.18.2l.79-1.57a1.62,1.62,0,0,0,.49.88,1.91,1.91,0,0,0,0-1.47l1.77,1a2.05,2.05,0,0,0-1.28.79,1.37,1.37,0,0,0,1.08,0l-.88,1.47a1.57,1.57,0,0,0-.39-1.08,1.27,1.27,0,0,0,.49,1.87c.69.39,1.18.49,1.47.1s-.2-1.08-.79-.88c0-.69.39-1,.79-1s.59.39.69.88c.29-1.08.69-1.67,1.77-1.87a2,2,0,0,1-1.18,2.26c.39-.1.79-.1,1,.2a.74.74,0,0,1-.49,1.08c-.1-.69-.88-.79-1.08-.39s.1.79.79,1.18a1.25,1.25,0,0,0,1.77-.1,1.48,1.48,0,0,0-1.08-.39l.79-1.08a1.21,1.21,0,0,0,.49,1,3.86,3.86,0,0,0,.1-1.47l1.08.79s-1.67,1.77-2.46,2.75Zm11,27.72c-.49.59-1.18.88-1.67.49a1.33,1.33,0,0,1-.1-1.77,1.22,1.22,0,0,1,1.67-.49,1.33,1.33,0,0,1,.1,1.77M129,79c-.49.59-1.18.88-1.67.49a1.33,1.33,0,0,1-.1-1.77c.49-.59,1.18-.88,1.67-.49A1.22,1.22,0,0,1,129,79"/></g></g></g></svg>