<?xml version="1.0" encoding="utf-8"?>
<!-- Generator: Adobe Illustrator 21.0.0, SVG Export Plug-In . SVG Version: 6.00 Build 0)  -->
<svg version="1.1" id="katman_1" xmlns="http://www.w3.org/2000/svg" xmlns:xlink="http://www.w3.org/1999/xlink" x="0px" y="0px"
	 viewBox="0 0 100 125" style="enable-background:new 0 0 100 125;" xml:space="preserve">
<style type="text/css">
	.st0{fill:#FFFFFF;}
</style>
<title>real account</title>
<path class="st0" d="M57,99c-4.4,0-7.9-3.6-7.9-7.9V75.2c0-4.4,3.6-7.9,7.9-7.9h1.1v-6.5c-0.2-0.2-0.5-0.4-0.7-0.5s-0.3-0.2-0.5-0.3
	c-0.5-0.4-1-0.7-1.6-1c-0.2-0.1-0.3-0.2-0.5-0.3c-0.6-0.4-1.3-0.7-1.9-1c-0.1,0-0.1-0.1-0.2-0.1c-1.5-0.7-3-1.3-4.7-1.8
	c9.5-5.2,12.9-17.1,7.7-26.6c-3.2-5.8-8.9-9.3-15-10c-0.1,0-0.2,0-0.3,0c-0.4,0-0.8-0.1-1.2-0.1c-0.2,0-0.5,0-0.7,0s-0.5,0-0.7,0
	c-0.4,0-0.8,0-1.2,0.1c-0.1,0-0.2,0-0.3,0c-6.1,0.7-11.8,4.2-15,10c-5.2,9.5-1.8,21.4,7.7,26.6c-1.6,0.5-3.2,1.1-4.7,1.8
	c-0.1,0-0.1,0.1-0.2,0.1c-0.6,0.3-1.3,0.7-1.9,1c-0.2,0.1-0.3,0.2-0.5,0.3c-0.5,0.3-1,0.7-1.6,1c-0.2,0.1-0.3,0.2-0.5,0.3
	c-0.5,0.4-1,0.8-1.5,1.2c-0.1,0.1-0.2,0.2-0.3,0.3c-1.4,1.2-2.8,2.5-4,4v0.1c-4.5,5.5-7.2,12.4-7.3,19.9c0,7.6,2.7,12.4,7.3,15.4
	v0.1c5.6,3.7,13.8,4.7,23.1,4.8c0.2,0,0.4,0,0.5,0c0.3,0,0.7,0,1,0c0,0,0,0,0.1,0s0,0,0.1,0c0.3,0,0.7,0,1,0c0.2,0,0.4,0,0.5,0
	c9.3-0.1,17.5-1.1,23.1-4.8V101c0.9-0.6,1.7-1.2,2.4-2H57z"/>
<path class="st0" d="M81.4,69.1h-1v-5.9c0-5.5-4.4-9.9-9.9-9.9s-9.9,4.4-9.9,9.9v5.9h-1c-3.8,0-6.9,3.1-6.9,6.9v13.9
	c0,3.8,3.1,6.9,6.9,6.9h21.8c3.8,0,6.9-3.1,6.9-6.9V76C88.3,72.2,85.2,69.1,81.4,69.1z M66.5,63.1c0-2.2,1.8-4,4-4s4,1.8,4,4V69
	h-7.9L66.5,63.1L66.5,63.1z"/>
</svg>
