<svg xmlns="http://www.w3.org/2000/svg" width="140" height="26" viewBox="0 0 140 26">
  <g id="TrendFX_Logo" data-name="TrendFX Logo" transform="translate(-14.442 -20.372)">
    <g id="Group_308" data-name="Group 308">
      <path id="Path_386" data-name="Path 386" d="M34.5,23.029H25.872V46.372h-2.8V23.029H14.442V20.372H34.5Z" fill="#06855f"/>
      <path id="Path_387" data-name="Path 387" d="M44.772,27.329V30.1h-.336a6.01,6.01,0,0,0-4.93,2.4,8.59,8.59,0,0,0-1.793,5.462v8.414h-2.8V27.624h2.8v4.539A6.773,6.773,0,0,1,41.6,27.92a6.878,6.878,0,0,1,2.988-.591Z" fill="#06855f"/>
      <path id="Path_388" data-name="Path 388" d="M55.641,43.862a5.661,5.661,0,0,0,5.416-3.1H64.12A8.5,8.5,0,0,1,55.6,46.372,9.09,9.09,0,0,1,48.731,43.6a9.379,9.379,0,0,1-2.578-6.753A9.541,9.541,0,0,1,48.619,30.1a8.926,8.926,0,0,1,6.8-2.768,8.925,8.925,0,0,1,6.8,2.768,9.538,9.538,0,0,1,2.466,6.753v1.107H49.03a6.666,6.666,0,0,0,2.055,4.207A6.36,6.36,0,0,0,55.641,43.862Zm-.224-14.023a6.223,6.223,0,0,0-4.333,1.587,6.522,6.522,0,0,0-2.017,3.948h12.7a6.531,6.531,0,0,0-2.017-3.948A6.224,6.224,0,0,0,55.417,29.839Z" fill="#06855f"/>
      <path id="Path_389" data-name="Path 389" d="M70.917,27.624V30.5a9.342,9.342,0,0,1,2.465-2.251,6.082,6.082,0,0,1,3.324-.923,8.956,8.956,0,0,1,3.212.517A6.523,6.523,0,0,1,82.272,29.4a7.913,7.913,0,0,1,2.316,5.941V46.372h-2.8V35.411a5.607,5.607,0,0,0-1.457-4.06,5,5,0,0,0-3.772-1.513,5.609,5.609,0,0,0-4,1.55,5.4,5.4,0,0,0-1.644,4.059V46.372h-2.8V27.624Z" fill="#06855f"/>
      <path id="Path_390" data-name="Path 390" d="M103.824,43.124a7.588,7.588,0,0,1-6.686,3.247A8.514,8.514,0,0,1,90.565,43.6,9.707,9.707,0,0,1,88.1,36.851,9.707,9.707,0,0,1,90.565,30.1a8.731,8.731,0,0,1,6.76-2.768,7.438,7.438,0,0,1,6.5,3.285V20.372h2.8v26h-2.8Zm-6.312.738a5.944,5.944,0,0,0,4.781-2.067,7.318,7.318,0,0,0,1.68-4.945,7.32,7.32,0,0,0-1.68-4.945,5.946,5.946,0,0,0-4.781-2.066,6.239,6.239,0,0,0-4.856,2.066A7.123,7.123,0,0,0,90.9,36.851,7.121,7.121,0,0,0,92.656,41.8,6.237,6.237,0,0,0,97.512,43.862Z" fill="#06855f"/>
      <g id="Group_307" data-name="Group 307">
        <path id="Path_391" data-name="Path 391" d="M140.768,28.4l-6.017-7.9h-2.119l6.976,9.411Z" fill="#96c2cc"/>
        <path id="Path_392" data-name="Path 392" d="M143.335,28.428,149.4,20.5h2.119L144.5,29.938Z" fill="#96c2cc"/>
      </g>
      <path id="Path_393" data-name="Path 393" d="M115.083,24.3h15.052V20.878H111.5v25.2h3.579V35.485h13.409V32.022H115.083Z" fill="#064a5f"/>
      <path id="Path_394" data-name="Path 394" d="M144.1,32.837l-2.03-2.616-1.986,2.615-10.345,13.24h4.534l7.8-10.227,7.837,10.227h4.533Z" fill="#064a5f"/>
    </g>
  </g>
</svg>
