<svg xmlns="http://www.w3.org/2000/svg" width="33" height="29" viewBox="0 0 33 29">
  <g id="icon" transform="translate(-742 -910)">
    <g id="box_2" data-name="box 2" fill="#06855f">
      <path d="M 774.5 937.9776000976563 L 766.3068237304688 931.6053466796875 L 766.1714477539063 931.5 L 765.9998779296875 931.5 L 744.5 931.5 L 744.5 915.4998779296875 L 774.5 915.4998779296875 L 774.5 932 L 774.5 937.9776000976563 Z" stroke="none"/>
      <path d="M 745 915.9998779296875 L 745 931 L 765.9998779296875 931 L 766.3429565429688 931 L 766.6138305664063 931.2106323242188 L 774 936.9552612304688 L 774 932 L 774 915.9998779296875 L 745 915.9998779296875 M 744 914.9998779296875 L 775 914.9998779296875 L 775 932 L 775 938.9998779296875 L 765.9998779296875 932 L 744 932 L 744 914.9998779296875 Z" stroke="none" fill="#06855f"/>
    </g>
    <g id="box" fill="#fff">
      <path d="M 772.4998779296875 932.9775390625 L 764.3069458007813 926.6053466796875 L 764.1715698242188 926.5 L 764 926.5 L 742.5 926.5 L 742.5 910.4998779296875 L 772.4998779296875 910.4998779296875 L 772.4998779296875 927 L 772.4998779296875 932.9775390625 Z" stroke="none"/>
      <path d="M 743 910.9998779296875 L 743 926 L 764 926 L 764.3431396484375 926 L 764.6139526367188 926.2106323242188 L 771.9998779296875 931.9552612304688 L 771.9998779296875 927 L 771.9998779296875 910.9998779296875 L 743 910.9998779296875 M 742 909.9998779296875 L 772.9998779296875 909.9998779296875 L 772.9998779296875 927 L 772.9998779296875 933.9998779296875 L 764 927 L 742 927 L 742 909.9998779296875 Z" stroke="none" fill="#06855f"/>
    </g>
    <g id="lines" fill="none">
      <path d="M747,922v-1h21v1Zm0-3v-1h21v1Zm0-3v-1h21v1Z" stroke="none"/>
      <path d="M 767.9996948242188 921.9996337890625 L 747 921.9996337890625 L 747 920.9996948242188 L 767.9996948242188 920.9996948242188 L 767.9996948242188 921.9996337890625 Z M 767.9996948242188 918.9999389648438 L 747 918.9999389648438 L 747 918 L 767.9996948242188 918 L 767.9996948242188 918.9999389648438 Z M 767.9996948242188 916.000244140625 L 747 916.000244140625 L 747 915.0003051757813 L 767.9996948242188 915.0003051757813 L 767.9996948242188 916.000244140625 Z" stroke="none" fill="#06855f"/>
    </g>
  </g>
</svg>
