<svg id="katman_1" data-name="katman 1" xmlns="http://www.w3.org/2000/svg" viewBox="0 0 48 60" style="fill: #4f505e">
  <title>icon 1</title>
  <g>
    <g>
      <polygon points="47 47 1 47 1 1 3 1 3 45 47 45 47 47"/>
      <rect x="2" y="11.2" width="4" height="2"/>
      <rect x="2" y="22.5" width="4" height="2"/>
      <rect x="2" y="33.7" width="4" height="2"/>
    </g>
    <polygon points="9.9 34.4 9.1 32.6 13.3 30.7 16 19 22 25.9 26 22.7 28.1 25.4 33.5 14.5 44.1 10.5 44.8 12.3 34.9 16.1 28.5 29.2 25.6 25.5 21.7 28.7 17.1 23.3 15.1 32.2 9.9 34.4"/>
  </g>
</svg>
