<svg id="katman_1" data-name="katman 1" xmlns="http://www.w3.org/2000/svg" viewBox="0 0 512 640" style="fill: #4f505e">
  <defs>
    <style>
      .cls-1 {
        stroke: #4f505e;
        stroke-miterlimit: 10;
        stroke-width: 9px;
      }
    </style>
  </defs>
  <title>icon 2</title>
  <g>
    <path class="cls-1" d="M190.66,212.81a3,3,0,1,0-3,5.2l75.51,43.6.11,0a2.92,2.92,0,0,0,.48.2l.21.07a3,3,0,0,0,.64.08h.07a3,3,0,0,0,.67-.09l.17,0a2.91,2.91,0,0,0,.54-.22l.11-.05a3.19,3.19,0,0,0,.5-.36l90.27-81,53.8,1.31a3,3,0,0,0,2.41-1.12l42.91-53.32v28a3,3,0,0,0,6,0V123.26a3,3,0,0,0-3-3H426.88a3,3,0,0,0,0,6h22.19l-39.65,49.26-53.51-1.31a3,3,0,0,0-2.08.77l-89.54,80.34Z"/>
    <path class="cls-1" d="M111,259a3,3,0,0,0-3-3H76.91a3,3,0,0,0,0,6H108A3,3,0,0,0,111,259Z"/>
    <path class="cls-1" d="M130.5,178.06l-27-15.54a3,3,0,0,0-3,5.2l27,15.54a3,3,0,1,0,3-5.2Z"/>
    <path class="cls-1" d="M183.73,124.81a3,3,0,1,0,5.2-3L173.39,94.89a3,3,0,0,0-5.2,3Z"/>
    <path class="cls-1" d="M169.3,424.2a3,3,0,0,0,4.1-1.1l15.53-26.92a3,3,0,1,0-5.2-3L168.2,420.11A3,3,0,0,0,169.3,424.2Z"/>
    <path class="cls-1" d="M102.05,355.89a3,3,0,0,0,1.5-.4l27-15.56a3,3,0,0,0-3-5.2l-27,15.56a3,3,0,0,0,1.5,5.6Z"/>
    <path class="cls-1" d="M260.68,494.57C130.79,494.57,25.11,388.89,25.11,259S130.79,23.44,260.68,23.44a3,3,0,0,0,0-6A241.57,241.57,0,0,0,89.86,429.82a240,240,0,0,0,170.81,70.76,3,3,0,0,0,0-6Z"/>
    <path class="cls-1" d="M261.68,415.25v31.09a3,3,0,0,0,6,0V415.25a3,3,0,0,0-6,0Z"/>
    <path class="cls-1" d="M485.89,462H458.72V198.67a3,3,0,0,0-6,0V462H413.83V259.83a3,3,0,0,0-6,0V462H366.2V277.68a3,3,0,0,0-6,0V462h-38.9V356.69a3,3,0,0,0-6,0V462H264.67c-111.95,0-203-91.07-203-203s91.08-203,203-203a3,3,0,0,0,0-6c-115.26,0-209,93.77-209,209a209,209,0,0,0,209,209H485.89a3,3,0,0,0,0-6Z"/>
    <path class="cls-1" d="M267.68,101.8V70.69a3,3,0,0,0-6,0V101.8a3,3,0,0,0,6,0Z"/>
  </g>
</svg>
