<svg id="katman_1" data-name="katman 1" xmlns="http://www.w3.org/2000/svg" viewBox="0 0 128 160" style="fill: #4f505e">
  <title>icon 3</title>
  <g>
    <path d="M24.41,43.15a2,2,0,0,0,0,2.83h0L42.07,63.65a2,2,0,1,0,2.83-2.83L27.23,43.15A2,2,0,0,0,24.41,43.15Z"/>
    <path d="M81.49,52.9V28.23a2,2,0,0,0-4,0V52.9a2,2,0,0,0,4,0Z"/>
    <path d="M50.48,17.47a2,2,0,1,0-3.88,1l6,24a2,2,0,1,0,3.88-1Z"/>
    <path d="M24.11,88.75c6.28,9,6.23,13.06,6.19,17C30,134.39,49.85,143.24,61.64,144c.9.05,1.77.08,2.64.08a38.56,38.56,0,0,0,29-12.63l6.55-7.22.11-.13,3.25-3.59a9.06,9.06,0,0,0-4.5-15.26,8.14,8.14,0,0,0-7-10.25,8.38,8.38,0,0,0,.5-2.8A9,9,0,0,0,85,83.3L95.85,72.41A9,9,0,1,0,83.07,59.59l-.22.23C71,72.51,56.18,87,50.35,89.32c-3.4,1.4-4.22.31-6.85-4a31.62,31.62,0,0,0-7.16-8.9c-3.46-2.81-7.53-2.89-10.9-.22C21.63,79.21,21.08,84.39,24.11,88.75ZM96.76,109a5,5,0,0,1,3.57,1.48,5.09,5.09,0,0,1,0,7.2l0,0-3.17,3.49a4.6,4.6,0,0,1-5.18-.87l-.18-.19a4.63,4.63,0,0,1-.38-6.19l5-5Zm-3-8.94a4.14,4.14,0,0,1,.24,5.62,2,2,0,0,0-.23.25h0L88,111.68a4.62,4.62,0,0,1-4.78-1l-.24-.24a4.67,4.67,0,0,1-.28-6.16c.8-.62,4.15-3.27,5.93-4.8a4.17,4.17,0,0,1,5.08.59Zm-7-11.51a5,5,0,0,1,1.48,3.57,6.33,6.33,0,0,1-2.1,4.22c-1.22,1.06-3.85,3.17-5.79,4.69a4.8,4.8,0,0,1-4.73-1.24l-.13-.13a4.86,4.86,0,0,1,0-6.87l4.7-4.7a5,5,0,0,1,6.56.45ZM27.93,79.29c1.92-1.52,3.85-1.46,5.89.19a27.89,27.89,0,0,1,6.26,7.86,21.25,21.25,0,0,0,3.46,4.75l.12.16c.17.18,4,4.37.1,10.46a2,2,0,0,0,3.37,2.15,13,13,0,0,0,1.84-11,11.37,11.37,0,0,0,2.88-.79c7.87-3.23,26.32-22.38,33.9-30.47a5,5,0,0,1,3.6-1.6A5.06,5.06,0,0,1,93,69.62h0L72.65,90a8.86,8.86,0,0,0,0,12.53l0,0,.11.11a8.78,8.78,0,0,0,5.11,2.51,8.7,8.7,0,0,0,2.28,8.17l.08.07.08.08a8.63,8.63,0,0,0,6.1,2.5,8.59,8.59,0,0,0,2.48,7l.15.17a8.68,8.68,0,0,0,4.21,2.32l-3,3.31-.08.09A35.08,35.08,0,0,1,61.88,140a31.27,31.27,0,0,1-14.44-5h1.8c5-.32,9.57-3.35,13.65-9a2,2,0,0,0-3.25-2.33c-3.33,4.64-6.9,7.12-10.62,7.37-5.19.34-9.18-3.81-9.24-3.87a2,2,0,0,0-.29-.25c-3.13-4.94-5.28-11.72-5.18-21.09.06-5.29-.42-10.07-6.91-19.35C25.89,84.31,25.48,81.25,27.93,79.29Z"/>
    <polygon points="59.07 56.73 54.65 57.37 57.85 60.49 57.09 64.89 61.04 62.81 64.99 64.89 64.23 60.49 67.43 57.37 63.01 56.73 61.04 52.73 59.07 56.73"/>
    <polygon points="65.5 32.68 66.85 35.72 68.45 32.79 71.76 32.45 69.47 30.03 70.17 26.77 67.16 28.2 64.27 26.53 64.7 29.84 62.22 32.07 65.5 32.68"/>
    <polygon points="38.89 31.34 36.48 29.05 36.12 32.36 33.19 33.95 36.23 35.31 36.84 38.59 39.07 36.11 42.38 36.55 40.71 33.66 42.15 30.66 38.89 31.34"/>
  </g>
</svg>
