<svg id="katman_1" data-name="katman 1" xmlns="http://www.w3.org/2000/svg" viewBox="0 0 200 250" style="fill: #4f505e">
  <title>icon 4</title>
  <g>
    <g>
      <polygon points="132.27 200 112.2 157.93 118.05 155.15 131.38 183.11 138.59 162.78 158.9 169.98 145.87 142.64 151.71 139.85 171.48 181.3 142.53 171.05 132.27 200"/>
      <polygon points="67.73 200 57.48 171.05 28.53 181.3 48.29 139.85 54.14 142.64 41.1 169.98 61.42 162.78 68.62 183.11 81.96 155.15 87.8 157.93 67.73 200"/>
    </g>
    <path d="M100,125.17a47.12,47.12,0,1,1,47.12-47.12A47.17,47.17,0,0,1,100,125.17Zm0-87.76a40.64,40.64,0,1,0,40.64,40.64A40.69,40.69,0,0,0,100,37.41Z"/>
    <path d="M81.68,105.55l3.5-20.4L70.36,70.7l20.48-3L100,49.16l9.16,18.57,20.49,3L114.83,85.15l3.5,20.4L100,95.92ZM100,88.61l9.73,5.11-1.86-10.83,7.86-7.67-10.87-1.58L100,63.79l-4.86,9.85L84.27,75.22l7.86,7.67L90.28,93.72Z"/>
    <path d="M100,156.21l-13.8-14.08-18.32,7.26L61,130.91l-19.69-.82,1.24-19.68L24.9,101.64,34,84.18,21.47,69,36.92,56.74l-5.31-19,19.1-4.91,2.88-19.51L73,16.65,83.59,0,100,10.91,116.41,0,127,16.65l19.44-3.3,2.88,19.51,19.09,4.91-5.3,19L178.53,69,166,84.18l9.13,17.46-17.66,8.78,1.24,19.68-19.7.82-6.87,18.47-18.32-7.26ZM87.82,134.52,100,147l12.17-12.43,16.17,6.4,6.06-16.31,17.4-.72-1.09-17.36,15.59-7.75-8.06-15.42L169.34,70,155.7,59.14l4.68-16.75-16.86-4.33L141,20.84l-17.16,2.91-9.33-14.7L100,18.69,85.51,9.05l-9.32,14.7L59,20.84,56.49,38.06,39.63,42.39l4.68,16.75L30.67,70l11.1,13.41L33.7,98.78l15.58,7.75L48.2,123.9l17.39.72,6.07,16.31Z"/>
  </g>
</svg>
