<svg id="katman_1" data-name="katman 1" xmlns="http://www.w3.org/2000/svg" viewBox="0 0 6.83 8.53" style="fill: #4f505e">
  <title>icon 5</title>
  <g>
    <path d="M4,5A.08.08,0,1,0,4,4.9,1.51,1.51,0,0,1,3.71,5a.27.27,0,0,1-.19,0C3.35,5,2.3,4.5,2.07,4.4V3.14l.08-.06a5.41,5.41,0,0,0,.8-.24,2.54,2.54,0,0,1,1.28-.11l.81,1,0,0-.08.1A.08.08,0,1,0,5,4l.08-.1.08-.09a.08.08,0,0,0,0-.1l-.06,0,.06,0L4.32,2.61a.08.08,0,0,0-.06,0v0a2.71,2.71,0,0,0-1.37.12,5.29,5.29,0,0,1-.78.23h0L1.94,3a.08.08,0,0,0,0,.07h0V4.44a.08.08,0,0,0,0,.08l0-.07,0,.07s1.3.61,1.5.69a.41.41,0,0,0,.3,0A1.65,1.65,0,0,0,4,5Z"/>
    <path d="M2.73,2.91a.08.08,0,0,0-.15-.05s-.31.88.18,1h0c.19,0,.29-.11.41-.25s.35-.44.92,0h0a6.24,6.24,0,0,1,.81.54.14.14,0,0,1,0,.08.12.12,0,0,1,0,.07.14.14,0,0,1-.07.06.36.36,0,0,1-.19,0L3.93,3.9A.08.08,0,1,0,3.86,4l.75.43h0a.53.53,0,0,0,.29,0,.29.29,0,0,0,.14-.12.28.28,0,0,0,0-.16A.29.29,0,0,0,5,4a6,6,0,0,0-.85-.58c-.69-.51-.92-.21-1.13,0s-.16.21-.27.19h0C2.49,3.61,2.73,2.91,2.73,2.91Z"/>
    <path d="M3.73,4.3a.08.08,0,0,0-.07.14l.69.36a.35.35,0,0,0,.24,0,.3.3,0,0,0,.13-.07.23.23,0,0,0,.07-.14.39.39,0,0,0-.08-.25.08.08,0,1,0-.13.09.24.24,0,0,1,.05.15.07.07,0,0,1,0,0l-.06,0a.19.19,0,0,1-.13,0Z"/>
    <path d="M3.66,4.69a.08.08,0,1,0-.08.14l.49.27,0-.07,0,.07h0c.06,0,.47.09.39-.37a.08.08,0,1,0-.15,0c0,.23-.15.2-.2.19Z"/>
    <path d="M1.12,2.74h.7A.23.23,0,0,1,2,2.81H2A.23.23,0,0,1,2.06,3V4.54A.23.23,0,0,1,2,4.7H2a.23.23,0,0,1-.16.07h-.7A.23.23,0,0,1,1,4.7H1a.23.23,0,0,1-.07-.16V3A.23.23,0,0,1,1,2.81H1A.23.23,0,0,1,1.12,2.74Zm.7.16h-.7l-.06,0h0A.08.08,0,0,0,1,3V4.54a.08.08,0,0,0,0,.06h0l.06,0h.7l.06,0h0a.08.08,0,0,0,0-.06V3a.08.08,0,0,0,0-.06h0Z"/>
    <path d="M4.83,2l-.55.44a.08.08,0,0,0,0,.11l1,1.22.05,0,.06,0,.55-.44a.08.08,0,0,0,0-.11L4.94,2,4.88,2Zm-.65.32.55-.44a.23.23,0,0,1,.33,0L6,3.15a.23.23,0,0,1,0,.33l-.55.44a.23.23,0,0,1-.33,0l-1-1.22a.23.23,0,0,1,0-.33Z"/>
  </g>
</svg>
