<svg id="katman_1" data-name="katman 1" xmlns="http://www.w3.org/2000/svg" viewBox="0 0 64 80" style="fill: #4f505e">
  <defs>
    <style>
      .cls-1 {
        stroke: #4f505e;
        stroke-miterlimit: 10;
        stroke-width: 0.5px;
      }
    </style>
  </defs>
  <title>icon 6</title>
  <path class="cls-1" d="M33.09,15.05q.19.5.34,1a16,16,0,0,1,14.5,14.5q.51.16,1,.35A17,17,0,0,0,33.09,15.05Zm-18,18A17,17,0,0,0,30.91,48.95q-.19-.5-.34-1a16,16,0,0,1-14.5-14.5Q15.56,33.27,15.05,33.08Z"/>
  <path class="cls-1" d="M20,8A12,12,0,1,0,32,20,12,12,0,0,0,20,8Zm0,1A11,11,0,1,1,9,20,11,11,0,0,1,20,9Z"/>
  <path class="cls-1" d="M42.42,15l-.5.86a19.13,19.13,0,0,1,6.26,6.26l.86-.5A20.18,20.18,0,0,0,42.42,15Z"/>
  <path class="cls-1" d="M15.82,41.92l-.86.5A20.18,20.18,0,0,0,21.58,49l.5-.86A19.13,19.13,0,0,1,15.82,41.92Z"/>
  <path class="cls-1" d="M44,32A12,12,0,1,0,56,44,12,12,0,0,0,44,32Zm0,1A11,11,0,1,1,33,44,11,11,0,0,1,44,33Z"/>
  <path class="cls-1" d="M15.5,52v1.5h-1V52Zm-1,1.5v1H13v-1Zm0,1h1V56h-1Zm1,0v-1H17v1Z"/>
  <path class="cls-1" d="M10.5,46v1.5h-1V46Zm-1,1.5v1H8v-1Zm0,1h1V50h-1Zm1,0v-1H12v1Z"/>
  <path class="cls-1" d="M49.5,8V9.5h-1V8Zm-1,1.5v1H47v-1Zm0,1h1V12h-1Zm1,0v-1H51v1Z"/>
  <path class="cls-1" d="M54.5,14v1.5h-1V14Zm-1,1.5v1H52v-1Zm0,1h1V18h-1Zm1,0v-1H56v1Z"/>
  <path class="cls-1" d="M15,16H25v1H15Z"/>
  <path class="cls-1" d="M15,19H25v1H15Z"/>
  <path class="cls-1" d="M15,22h6v1H15Z"/>
  <path class="cls-1" d="M45.5,44.5A1.5,1.5,0,1,1,44,43,1.5,1.5,0,0,1,45.5,44.5Z"/>
  <path class="cls-1" d="M40.5,44.5A1.5,1.5,0,1,1,39,43,1.5,1.5,0,0,1,40.5,44.5Z"/>
  <path class="cls-1" d="M50.5,44.5A1.5,1.5,0,1,1,49,43,1.5,1.5,0,0,1,50.5,44.5Z"/>
</svg>
