<svg xmlns="http://www.w3.org/2000/svg" xmlns:xlink="http://www.w3.org/1999/xlink" width="64" height="42" viewBox="0 0 64 42">
  <defs>
    <linearGradient id="linear-gradient" x1="0.5" x2="0.5" y2="1" gradientUnits="objectBoundingBox">
      <stop offset="0" stop-color="#09ba85"/>
      <stop offset="1" stop-color="#064a5f"/>
    </linearGradient>
  </defs>
  <g id="Vektör_Akıllı_Nesne" data-name="Vektör Akıllı Nesne" transform="translate(-689 -302)">
    <g id="Vektör_Akıllı_Nesne-2" data-name="Vektör Akıllı Nesne" transform="translate(688.52 288.368)">
      <path id="Path_25" data-name="Path 25" d="M10.306,39.015l7.35,5.149,0,0A2.6,2.6,0,0,0,19.463,48.3a2.608,2.608,0,0,0,3.472,3.489,2.581,2.581,0,0,0,3.485,1.723,2.59,2.59,0,0,0,3.923,1.6,4.631,4.631,0,0,0,2.13.516,4.523,4.523,0,0,0,2.166-.523,2.3,2.3,0,0,0,1.228-1.591,3.856,3.856,0,0,0,3.87-.784,2.943,2.943,0,0,0,1.047-2.209c0-.016,0-.03,0-.045a3.839,3.839,0,0,0,3.946-.709,3.332,3.332,0,0,0,1.2-2.82A3.838,3.838,0,0,0,51.2,43.191a4.021,4.021,0,0,0-.062-.479l3.641-1.619.67,1.591,9.027-3.8-9.39-23.595-9.5,3.994.768,1.821-12.067-3.25-5.8,2.556-11.721-.846.963-2.894L8.491,13.632.48,37.717l9.246,3.042Zm8.415,5.935.893-1.2a1.3,1.3,0,0,1,1.815-.272A1.275,1.275,0,0,1,21.857,45l-1.269,1.709a1.333,1.333,0,0,1-1.593.049A1.288,1.288,0,0,1,18.721,44.95Zm2.329,5.526a1.288,1.288,0,0,1-.272-1.805c.049-.067,2.947-3.969,2.9-3.9a1.3,1.3,0,0,1,1.816-.272,1.284,1.284,0,0,1,.272,1.8l-2.9,3.9A1.331,1.331,0,0,1,21.049,50.476Zm3.632,1.67a1.287,1.287,0,0,1-.286-1.783L26.59,47.41a1.294,1.294,0,0,1,2.073,1.549c-.051.068-2.271,3.027-2.165,2.915A1.331,1.331,0,0,1,24.682,52.146Zm3.508,1.811a1.284,1.284,0,0,1-.367-1.648l1.632-2.2a1.29,1.29,0,0,1,1.98,1.649l-1.43,1.924A1.33,1.33,0,0,1,28.19,53.957Zm5.8,0a3.445,3.445,0,0,1-2.652.153L32.5,52.544a2.575,2.575,0,0,0,.461-1.08l1.406,1.259a.617.617,0,0,1,.205.432A.95.95,0,0,1,33.988,53.96ZM47.325,19.99l7.032-2.956,8.414,21.142-6.61,2.779L50.15,26.693,48,21.55l-.018,0ZM34.4,19.254l12.609,3.4,1.823,4.325,5.4,12.918-3.781,1.682L34.236,26.528l-4.522.967-1.532,3.223a2.335,2.335,0,0,1-4.391-1.5l1.311-5.87Zm-8.482,2.3-1.964.865L22.5,28.935a3.661,3.661,0,0,0,6.885,2.346l1.253-2.634,3.2-.686L49.8,42.77a2.62,2.62,0,0,1,.078.49,2.513,2.513,0,0,1-.867,2.044,2.548,2.548,0,0,1-3.284.024l-9.311-7.958-.87.994L43.933,45.7a2.019,2.019,0,0,1-.079,3.082,2.549,2.549,0,0,1-3.314.065l-7.752-6.659-.87.995,6.992,6.08a1.639,1.639,0,0,1-.053,2.49,2.55,2.55,0,0,1-3.337.087l-1.934-1.593.008-.009-2.288-1.981-.2.234a2.61,2.61,0,0,0-.709-.1c-.057,0-.111.016-.168.02a2.6,2.6,0,0,0-1.047-2.311,2.5,2.5,0,0,0-1.839-.477,2.579,2.579,0,0,0-1.061-2.179,2.621,2.621,0,0,0-3.207.076,2.59,2.59,0,0,0-.855-1.1,2.634,2.634,0,0,0-3.67.548l-.1.137-7.7-5.4,5.6-16.847ZM2.155,36.88,9.334,15.3l6.729,2.213-7.18,21.58Z"/>
    </g>
    <path id="Gradient_Overlay" data-name="Gradient Overlay" d="M718.863,343.483a2.589,2.589,0,0,1-3.923-1.6,2.581,2.581,0,0,1-3.485-1.724,2.608,2.608,0,0,1-3.472-3.488,2.6,2.6,0,0,1-1.808-4.136l0,0-7.35-5.149-.581,1.744L689,326.084,697.011,302l9.247,3.042-.963,2.894,11.721.846,5.8-2.556,12.067,3.25-.768-1.821,9.5-3.993L753,327.256l-9.027,3.8-.67-1.59-3.641,1.619a3.891,3.891,0,0,1,.061.478,3.839,3.839,0,0,1-5.279,3.762,3.33,3.33,0,0,1-1.2,2.82,3.839,3.839,0,0,1-3.946.708c0,.015,0,.03,0,.046a2.941,2.941,0,0,1-1.047,2.209,3.855,3.855,0,0,1-3.869.784,2.306,2.306,0,0,1-1.228,1.59,4.527,4.527,0,0,1-2.165.523A4.632,4.632,0,0,1,718.863,343.483Zm2.158-2.571-1.165,1.569a3.441,3.441,0,0,0,2.651-.153.947.947,0,0,0,.586-.806.617.617,0,0,0-.206-.431l-1.406-1.259A2.562,2.562,0,0,1,721.022,340.912Zm-3.047-2.432-1.632,2.2a1.285,1.285,0,0,0,.367,1.648,1.33,1.33,0,0,0,1.815-.273l1.429-1.924a1.288,1.288,0,0,0-.272-1.805,1.3,1.3,0,0,0-.77-.253A1.282,1.282,0,0,0,717.975,338.48Zm4.14.122-.008.008,1.933,1.593a2.55,2.55,0,0,0,3.338-.087,1.639,1.639,0,0,0,.053-2.489l-6.9-6-.021-.018.009.008-.077-.067.87-.994c.188.162.124.107.061.052l7.691,6.607a2.55,2.55,0,0,0,3.314-.065,2.019,2.019,0,0,0,.078-3.082l-8.3-7.255c.058.052.094.083-.088-.076h0s0,0,0,0l.87-.994,9.311,7.959a2.548,2.548,0,0,0,3.284-.024,2.515,2.515,0,0,0,.868-2.045,2.692,2.692,0,0,0-.077-.49l-15.962-14.809-3.2.686-1.253,2.633a3.661,3.661,0,0,1-6.885-2.345l1.458-6.52,1.965-.865-9.573-.691-5.6,16.847,7.7,5.4.1-.137a2.633,2.633,0,0,1,3.669-.548,2.586,2.586,0,0,1,.855,1.1,2.619,2.619,0,0,1,3.207-.077,2.579,2.579,0,0,1,1.061,2.179,2.5,2.5,0,0,1,1.84.477,2.6,2.6,0,0,1,1.047,2.311c.057,0,.111-.02.168-.02a2.6,2.6,0,0,1,.709.1l.2-.234Zm-7-2.825-2.194,2.953a1.287,1.287,0,0,0,.286,1.783,1.33,1.33,0,0,0,1.816-.272c-.106.112,2.114-2.848,2.165-2.915a1.287,1.287,0,0,0-.273-1.805,1.3,1.3,0,0,0-.772-.252A1.288,1.288,0,0,0,715.11,335.777Zm-5.813,1.261a1.288,1.288,0,0,0,.273,1.805,1.331,1.331,0,0,0,1.815-.272l2.9-3.9a1.284,1.284,0,0,0-.272-1.8,1.3,1.3,0,0,0-1.816.272h0S709.346,336.972,709.3,337.038Zm-1.163-4.922-.893,1.2a1.288,1.288,0,0,0,.273,1.805,1.334,1.334,0,0,0,1.594-.049l1.269-1.709a1.275,1.275,0,0,0-.428-1.52,1.3,1.3,0,0,0-1.814.272Zm12.417-.472Zm18.424-1.7,3.781-1.682-5.4-12.918-1.823-4.324-12.608-3.4-9.3,4.1-1.311,5.87a2.335,2.335,0,0,0,4.391,1.5l1.532-3.224,4.523-.967Zm-3.129-21.584.655,1.555.018,0,2.152,5.143,6.01,14.262,6.61-2.779L742.877,305.4Zm-45.17,16.889,6.728,2.212,7.18-21.58-6.729-2.213Zm29.818,6.347-.016-.014.029.025Zm-.055-.048h0l.039.034Zm0,0,0,0h0Zm0,0Zm4.573-5.744-.074-.063h0l.15.128Zm-.074-.063Z" fill="url(#linear-gradient)"/>
  </g>
</svg>
