<svg id="katman_1" data-name="katman 1" xmlns="http://www.w3.org/2000/svg" viewBox="0 0 846.66 1058.32">
  <title>arkadas bonusu</title>
   <defs>
    <linearGradient id="linear-gradient" x1="0.5" x2="0.5" y2="1" gradientUnits="objectBoundingBox">
      <stop offset="0" stop-color="#d6d6d6"/>
      <stop offset="1" stop-color="#566b71"/>
    </linearGradient>
  </defs>
  <path d="M527.25,754.11c10.45,12-1.54,36.06-12,24.1l-206.39-237c-5.37-6.14-5.22-18.33.13-24.24L515.25,280.11c10.46-12,22.45,12.15,12,24.1l-195.9,225ZM678.18,591a79.24,79.24,0,1,1-79.24,79.24A79.24,79.24,0,0,1,678.18,591Zm0-418a79.24,79.24,0,1,1-79.24,79.24A79.24,79.24,0,0,1,678.18,173.05ZM800.66,447.73A87,87,0,0,0,714,363.13H642.39a87,87,0,0,0-86.7,84.6h245ZM642.39,343.56H714c58.48,0,106.29,47.81,106.29,106.29v7.67a9.79,9.79,0,0,1-9.79,9.79H545.88a9.8,9.8,0,0,1-9.79-9.79v-7.67c0-58.49,47.82-106.29,106.3-106.29Zm35.79-150.93a59.66,59.66,0,1,0,59.66,59.66,59.65,59.65,0,0,0-59.66-59.66ZM800.66,865.69A87,87,0,0,0,714,781.1H642.39a87,87,0,0,0-86.7,84.59h245ZM642.39,761.52H714c58.48,0,106.29,47.81,106.29,106.29v7.67a9.79,9.79,0,0,1-9.79,9.79H545.88a9.8,9.8,0,0,1-9.79-9.79v-7.67C536.09,809.33,583.91,761.52,642.39,761.52Zm35.79-150.93a59.65,59.65,0,1,0,59.66,59.66,59.66,59.66,0,0,0-59.66-59.66ZM168.49,382a79.24,79.24,0,1,1-79.24,79.24A79.24,79.24,0,0,1,168.49,382ZM132.7,552.54h71.58c58.48,0,106.29,47.81,106.29,106.29v7.67a9.79,9.79,0,0,1-9.79,9.79H36.19a9.8,9.8,0,0,1-9.79-9.79v-7.67c0-58.48,47.82-106.29,106.3-106.29Z" fill="url(#linear-gradient)"/>
</svg>
