<svg id="katman_1" data-name="katman 1" xmlns="http://www.w3.org/2000/svg" viewBox="0 0 64 80">
  <title>IB icon</title>
  <defs>
    <linearGradient id="linear-gradient" x1="0.5" x2="0.5" y2="1" gradientUnits="objectBoundingBox">
      <stop offset="0" stop-color="#d6d6d6"/>
      <stop offset="1" stop-color="#566b71"/>
    </linearGradient>
  </defs>
  <g>
    <path d="M32,63.69l1.1-3.37,2.3-7.09,4.15-12.76A1.71,1.71,0,0,1,42,39.36l11.83,5.15,2,.89A1.72,1.72,0,0,1,57,46.86c.34,2.73.67,5.46,1,8.19.31,2.5.63,5,.95,7.51s.63,5,.93,7.47a1.67,1.67,0,0,1-1.77,2H6a1.74,1.74,0,0,1-1.89-2.19c.41-3.18.8-6.36,1.2-9.54q.55-4.41,1.11-8.83c.18-1.45.38-2.9.54-4.36a2,2,0,0,1,1.31-1.76c3.47-1.48,6.92-3,10.37-4.52L22,39.34a1.71,1.71,0,0,1,2.32,1q2.2,6.77,4.41,13.53l3.09,9.46.11.31Z" fill="url(#linear-gradient)"/>
    <path d="M40,28.22c-.06.51-.1,1-.19,1.5a8.5,8.5,0,0,1-3.36,5.19,20.5,20.5,0,0,1-2.59,1.63,3.36,3.36,0,0,1-1.16.28,5.6,5.6,0,0,1-4.08-1.15,9.92,9.92,0,0,1-4-4.85,14.11,14.11,0,0,1-.41-2,6,6,0,0,1-.06-.64c-.18,0-.35,0-.51,0a1.17,1.17,0,0,1-1.12-1.07,19.85,19.85,0,0,0-.69-4.06,2.33,2.33,0,0,1,.2-1.55A1.65,1.65,0,0,0,22,21c0-1.64-.06-3.28,0-4.91a5.05,5.05,0,0,1,1.24-2.88c.39-.5.87-.94,1.3-1.42.24-.26.44-.55.67-.82A7.71,7.71,0,0,1,31.48,8,18.44,18.44,0,0,1,34,8.13a7.78,7.78,0,0,1,5.13,3.2c.25.33.56.61.85.91A6.39,6.39,0,0,1,42,16c.11,1.28.07,2.57.07,3.86,0,.41-.07.83-.09,1.24a1,1,0,0,0,.1.39,2.59,2.59,0,0,1,.09,2.06,10.56,10.56,0,0,0-.48,2.82,8.41,8.41,0,0,1-.13.9,1.12,1.12,0,0,1-1.26.95Z" fill="url(#linear-gradient)"/>
    <path d="M32,61.93l-.83-2.54c-.75-2.31-1.51-4.62-2.25-6.94a1.36,1.36,0,0,1,0-.72,26,26,0,0,0,1-7.09,6.58,6.58,0,0,0-.58-2.83A1.91,1.91,0,0,0,29,41.3c-.27-.27-.2-.53,0-.8a2.29,2.29,0,0,1,1.14-1,5.2,5.2,0,0,1,3.81,0,2.12,2.12,0,0,1,1.26,1.18.46.46,0,0,1,0,.38,5.78,5.78,0,0,0-1,3.72,22.41,22.41,0,0,0,.63,5.28c.12.56.33,1.12.4,1.69A2.63,2.63,0,0,1,35,52.86c-1,3-2,6-3,9.06Z" fill="url(#linear-gradient)"/>
  </g>
</svg>
