<svg id="katman_1" data-name="katman 1" xmlns="http://www.w3.org/2000/svg" viewBox="0 0 98 122.5">
  <title>handshake</title>
   <defs>
    <linearGradient id="linear-gradient2" x1="0.5" x2="0.5" y2="1" gradientUnits="objectBoundingBox">
      <stop offset="0" stop-color="#d6d6d6"/>
      <stop offset="1" stop-color="#566b71"/>
    </linearGradient>
  </defs>
  <path d="M15.55,67.9l11.09,7.81h0a4,4,0,0,0,.83,5.54,3.92,3.92,0,0,0,1.9.74,4,4,0,0,0,1.21,4.91,3.9,3.9,0,0,0,4,.39A3.92,3.92,0,0,0,36,89.43a3.84,3.84,0,0,0,3.81.47,3.92,3.92,0,0,0,1.48,2.28,3.87,3.87,0,0,0,4.44.15,7,7,0,0,0,3.21.78,6.79,6.79,0,0,0,3.27-.79,3.49,3.49,0,0,0,1.85-2.41,5.79,5.79,0,0,0,5.84-1.19,4.48,4.48,0,0,0,1.58-3.35s0,0,0-.07a5.77,5.77,0,0,0,6-1.07,5.07,5.07,0,0,0,1.81-4.28,5.8,5.8,0,0,0,8-5.71,6.16,6.16,0,0,0-.09-.73l5.49-2.46,1,2.41,13.62-5.76L83.11,31.91,68.78,38l1.16,2.76L51.74,35.8,43,39.68,25.31,38.4,26.76,34l-14-4.61L.72,65.93l13.95,4.61Zm12.7,9,1.35-1.82A2,2,0,0,1,33,77l-1.91,2.59a2,2,0,0,1-2.4.08A2,2,0,0,1,28.24,76.9Zm3.51,8.38a2,2,0,0,1-.41-2.74l4.37-5.92A2,2,0,1,1,38.87,79L34.5,84.87A2,2,0,0,1,31.76,85.29Zm5.48,2.53a2,2,0,0,1-.43-2.71l3.31-4.48A2,2,0,0,1,43.24,83c-.08.1-3.43,4.59-3.27,4.42A2,2,0,0,1,37.24,87.82Zm5.29,2.75a2,2,0,0,1-.55-2.5l2.46-3.33a2,2,0,0,1,3,2.5l-2.16,2.92A2,2,0,0,1,42.53,90.57Zm8.75,0a5.17,5.17,0,0,1-4,.23L49,88.42a3.93,3.93,0,0,0,.69-1.64l2.12,1.91a.94.94,0,0,1,.31.66A1.44,1.44,0,0,1,51.28,90.57ZM71.4,39,82,34.55,94.7,66.63l-10,4.22L75.66,49.21l-3.25-7.8h0ZM51.9,37.92l19,5.15,2.75,6.56,8.15,19.6-5.7,2.55L51.65,49l-6.82,1.47-2.31,4.89A3.52,3.52,0,0,1,35.89,53l2-8.9ZM39.1,41.4l-3,1.31-2.2,9.89a5.52,5.52,0,0,0,10.39,3.56l1.89-4,4.83-1L75.13,73.6a4,4,0,0,1,.12.74A3.81,3.81,0,0,1,69,77.48l-14-12.07-1.31,1.51L66.28,78a3.07,3.07,0,0,1-.12,4.68,3.83,3.83,0,0,1-5,.1l-11.7-10.1-1.31,1.51L58.7,83.44a2.49,2.49,0,0,1-.08,3.78,3.83,3.83,0,0,1-5,.13l-2.92-2.42h0l-3.45-3-.31.35a3.94,3.94,0,0,0-1.07-.16c-.09,0-.17,0-.25,0A4,4,0,0,0,44,78.64a3.75,3.75,0,0,0-2.77-.72,3.95,3.95,0,0,0-6.44-3.19A3.94,3.94,0,0,0,28,73.89l-.15.21L16.2,65.91l8.45-25.56ZM3.25,64.66,14.08,31.92l10.15,3.36L13.4,68Z" fill="url(#linear-gradient2)"/>
</svg>
