<?xml version="1.0" encoding="utf-8"?>
<!-- Generator: Adobe Illustrator 21.0.0, SVG Export Plug-In . SVG Version: 6.00 Build 0)  -->
<svg version="1.1"
	 id="katman_1" xmlns:cc="http://creativecommons.org/ns#" xmlns:dc="http://purl.org/dc/elements/1.1/" xmlns:inkscape="http://www.inkscape.org/namespaces/inkscape" xmlns:rdf="http://www.w3.org/1999/02/22-rdf-syntax-ns#" xmlns:sodipodi="http://sodipodi.sourceforge.net/DTD/sodipodi-0.dtd" xmlns:svg="http://www.w3.org/2000/svg"
	 xmlns="http://www.w3.org/2000/svg" xmlns:xlink="http://www.w3.org/1999/xlink" x="0px" y="0px" viewBox="0 0 512 511.9"
	 style="enable-background:new 0 0 512 511.9;" xml:space="preserve">
<style type="text/css">
	.st0{fill:#06855F;}
</style>
<path class="st0" d="M256,25.6C128.8,25.6,25.6,128.8,25.6,256S128.8,486.4,256,486.4S486.4,383.2,486.4,256S383.2,25.6,256,25.6z
	 M256,37.2c120.9,0,218.7,97.9,218.7,218.7c0,120.9-97.9,218.7-218.7,218.7c-120.9,0-218.7-97.9-218.7-218.7
	C37.3,135.1,135.1,37.2,256,37.2L256,37.2z M256,128.2c-38.1,0-69.1,31-69.1,69.1c0,27.1,15.7,50.6,38.5,61.9
	c-52.8,14.5-102.5,64.4-105.9,124.5h11.6c4.1-65.4,58-117.1,124.3-117.4c0.2,0,0.4,0,0.6,0s0.4,0,0.6,0
	c66.3,0.3,120.2,52,124.3,117.4h11.6c-3.5-60.2-53.1-110-105.9-124.5c22.8-11.3,38.5-34.8,38.5-61.9
	C325.1,159.2,294.1,128.2,256,128.2L256,128.2z M256,139.6c31.9,0,57.6,25.7,57.6,57.6c0,31.7-25.4,57.3-57,57.6c-0.2,0-0.4,0-0.6,0
	c-0.2,0-0.4,0-0.6,0c-31.6-0.3-57-25.9-57-57.6C198.4,165.4,224.1,139.6,256,139.6z"/>
</svg>
