<?xml version="1.0" encoding="utf-8"?>
<!-- Generator: Adobe Illustrator 23.0.1, SVG Export Plug-In . SVG Version: 6.00 Build 0)  -->
<svg version="1.1" id="katman_1" xmlns="http://www.w3.org/2000/svg" xmlns:xlink="http://www.w3.org/1999/xlink" x="0px" y="0px"
	 viewBox="0 0 1440 722" style="enable-background:new 0 0 1440 722;" xml:space="preserve">
<style type="text/css">
	.st0{fill:none;stroke:#96C2CC;stroke-width:0.75;stroke-miterlimit:10;}
	.st1{fill:#96C2CC;}
	.st2{fill:#064A5F;}
</style>
<path class="st0" d="M1440.1,607.8c-43.5-13.3-219.3-73-344.4-200.5c-143.6-146.3-268.6-124.7-368.6-80s-154.7,119.2-353.8-65.6
	C235.1,133.5,81.1,156.4-0.3,182.5"/>
<path class="st0" d="M1440.4,525.2c-60.3-5.3-224.5-24.8-291.1-82.7c-82.3-71.6-202.7-203-464.5-76.3S339.2,169,222.2,148
	C119.8,129.6,74.8,252,0.2,268.2"/>
<g>
	<g>
		<g>
			<g>
				<polygon class="st1" points="1409.2,577.1 1415.2,569 1417.4,569 1410.3,578.7 				"/>
				<polygon class="st1" points="1406.6,577.1 1400.4,569 1398.3,569 1405.4,578.7 				"/>
			</g>
			<polygon class="st2" points="1405.8,581.6 1407.8,579 1409.9,581.6 1420.3,595.2 1415.7,595.2 1407.8,584.7 1399.9,595.2 
				1395.3,595.2 			"/>
		</g>
	</g>
	<g>
		<g>
			<g>
				<polygon class="st1" points="1359.2,580.5 1364.1,574 1365.8,574 1360.1,581.8 				"/>
				<polygon class="st1" points="1357.1,580.6 1352.1,574 1350.3,574 1356.1,581.8 				"/>
			</g>
			<polygon class="st2" points="1356.4,584.2 1358.1,582.1 1359.7,584.2 1368.2,595.2 1364.5,595.2 1358.1,586.7 1351.7,595.2 
				1347.9,595.2 			"/>
		</g>
	</g>
	<g>
		<g>
			<g>
				<polygon class="st1" points="1165.2,475.8 1171.8,467 1174.2,467 1166.5,477.4 				"/>
				<polygon class="st1" points="1162.4,475.8 1155.7,467 1153.4,467 1161.1,477.5 				"/>
			</g>
			<polygon class="st2" points="1161.6,480.7 1163.8,477.8 1166,480.7 1177.4,495.5 1172.4,495.5 1163.8,484.1 1155.2,495.5 
				1150.2,495.5 			"/>
		</g>
	</g>
	<g>
		<g>
			<g>
				<polygon class="st1" points="1212.7,505 1216.7,499.8 1218,499.8 1213.5,506 				"/>
				<polygon class="st1" points="1211,505 1207,499.8 1205.7,499.8 1210.3,506 				"/>
			</g>
			<polygon class="st2" points="1210.5,508 1211.9,506.2 1213.2,508 1219.9,516.8 1217,516.8 1211.9,510 1206.7,516.8 1203.7,516.8 
							"/>
		</g>
	</g>
	<g>
		<g>
			<g>
				<polygon class="st1" points="1104.1,440.5 1108.1,435.2 1109.4,435.2 1104.9,441.5 				"/>
				<polygon class="st1" points="1102.4,440.5 1098.4,435.2 1097.1,435.2 1101.7,441.5 				"/>
			</g>
			<polygon class="st2" points="1101.9,443.4 1103.3,441.7 1104.6,443.4 1111.3,452.2 1108.4,452.2 1103.3,445.4 1098.1,452.2 
				1095.1,452.2 			"/>
		</g>
	</g>
	<g>
		<g>
			<g>
				<polygon class="st1" points="1043.6,453.8 1047.6,448.6 1049,448.6 1044.4,454.8 				"/>
				<polygon class="st1" points="1042,453.9 1038,448.6 1036.6,448.6 1041.2,454.9 				"/>
			</g>
			<polygon class="st2" points="1041.5,456.8 1042.8,455 1044.1,456.8 1050.9,465.6 1047.9,465.6 1042.8,458.8 1037.7,465.6 
				1034.7,465.6 			"/>
		</g>
	</g>
	<g>
		<g>
			<g>
				<polygon class="st1" points="899.1,513.5 903.1,508.3 904.5,508.3 899.9,514.5 				"/>
				<polygon class="st1" points="897.5,513.5 893.5,508.3 892.1,508.3 896.7,514.5 				"/>
			</g>
			<polygon class="st2" points="897,516.5 898.3,514.7 899.6,516.5 906.4,525.2 903.4,525.2 898.3,518.5 893.2,525.2 890.2,525.2 
							"/>
		</g>
	</g>
	<g>
		<g>
			<g>
				<polygon class="st1" points="938.9,507.1 942.8,501.9 944.2,501.9 939.6,508.1 				"/>
				<polygon class="st1" points="937.2,507.1 933.2,501.9 931.8,501.9 936.4,508.2 				"/>
			</g>
			<polygon class="st2" points="936.7,510.1 938,508.3 939.3,510.1 946.1,518.9 943.1,518.9 938,512.1 932.9,518.9 929.9,518.9 			
				"/>
		</g>
	</g>
	<g>
		<g>
			<g>
				<polygon class="st1" points="802.5,425.8 806.5,420.6 807.9,420.6 803.3,426.8 				"/>
				<polygon class="st1" points="800.8,425.8 796.8,420.6 795.5,420.6 800.1,426.8 				"/>
			</g>
			<polygon class="st2" points="800.3,428.8 801.7,427 803,428.8 809.8,437.6 806.8,437.6 801.7,430.8 796.5,437.6 793.5,437.6 			
				"/>
		</g>
	</g>
	<g>
		<g>
			<g>
				<polygon class="st1" points="573.1,399.4 577,394.1 578.4,394.1 573.8,400.4 				"/>
				<polygon class="st1" points="571.4,399.4 567.4,394.1 566,394.1 570.6,400.4 				"/>
			</g>
			<polygon class="st2" points="570.9,402.3 572.2,400.6 573.5,402.3 580.3,411.1 577.3,411.1 572.2,404.3 567.1,411.1 564.1,411.1 
							"/>
		</g>
	</g>
	<g>
		<g>
			<g>
				<polygon class="st1" points="625.8,359.7 629.8,354.5 631.1,354.5 626.6,360.7 				"/>
				<polygon class="st1" points="624.1,359.7 620.1,354.5 618.7,354.5 623.4,360.7 				"/>
			</g>
			<polygon class="st2" points="623.6,362.7 625,360.9 626.3,362.7 633,371.4 630.1,371.4 624.9,364.7 619.8,371.4 616.8,371.4 			
				"/>
		</g>
	</g>
	<g>
		<g>
			<g>
				<polygon class="st1" points="675.9,384.4 679.9,379.2 681.3,379.2 676.7,385.4 				"/>
				<polygon class="st1" points="674.2,384.4 670.2,379.2 668.9,379.2 673.5,385.4 				"/>
			</g>
			<polygon class="st2" points="673.7,387.4 675.1,385.6 676.4,387.4 683.1,396.2 680.2,396.2 675.1,389.4 669.9,396.2 666.9,396.2 
							"/>
		</g>
	</g>
	<g>
		<g>
			<g>
				<polygon class="st1" points="443.2,335.4 447.1,330.2 448.5,330.2 443.9,336.4 				"/>
				<polygon class="st1" points="441.5,335.5 437.5,330.2 436.1,330.2 440.7,336.5 				"/>
			</g>
			<polygon class="st2" points="441,338.4 442.3,336.6 443.6,338.4 450.4,347.2 447.4,347.2 442.3,340.4 437.2,347.2 434.2,347.2 
							"/>
		</g>
	</g>
	<g>
		<g>
			<g>
				<polygon class="st1" points="530.2,397.7 533.4,393.4 534.5,393.4 530.8,398.5 				"/>
				<polygon class="st1" points="528.8,397.7 525.5,393.4 524.4,393.4 528.2,398.5 				"/>
			</g>
			<polygon class="st2" points="528.4,400.1 529.5,398.7 530.5,400.1 536.1,407.3 533.6,407.3 529.5,401.7 525.3,407.3 522.8,407.3 
							"/>
		</g>
	</g>
	<g>
		<g>
			<g>
				<polygon class="st1" points="308.2,272 311.5,267.7 312.6,267.7 308.9,272.8 				"/>
				<polygon class="st1" points="306.9,272 303.6,267.7 302.5,267.7 306.2,272.8 				"/>
			</g>
			<polygon class="st2" points="306.5,274.4 307.5,273 308.6,274.4 314.2,281.6 311.7,281.6 307.5,276 303.3,281.6 300.9,281.6 			
				"/>
		</g>
	</g>
	<g>
		<g>
			<g>
				<polygon class="st1" points="377.3,354.9 380.5,350.7 381.6,350.7 377.9,355.8 				"/>
				<polygon class="st1" points="375.9,355 372.6,350.7 371.5,350.7 375.3,355.8 				"/>
			</g>
			<polygon class="st2" points="375.5,357.4 376.6,355.9 377.6,357.4 383.2,364.5 380.7,364.5 376.6,359 372.4,364.5 369.9,364.5 
							"/>
		</g>
	</g>
	<g>
		<g>
			<g>
				<polygon class="st1" points="217.9,278.9 221.1,274.6 222.2,274.6 218.5,279.7 				"/>
				<polygon class="st1" points="216.5,278.9 213.2,274.6 212.1,274.6 215.9,279.8 				"/>
			</g>
			<polygon class="st2" points="216.1,281.3 217.2,279.9 218.2,281.3 223.8,288.5 221.3,288.5 217.2,283 213,288.5 210.5,288.5 			
				"/>
		</g>
	</g>
	<g>
		<g>
			<g>
				<polygon class="st1" points="93.5,246.3 96.7,242 97.8,242 94.1,247.1 				"/>
				<polygon class="st1" points="92.1,246.3 88.9,242 87.7,242 91.5,247.2 				"/>
			</g>
			<polygon class="st2" points="91.7,248.7 92.8,247.3 93.9,248.7 99.4,255.9 97,255.9 92.8,250.4 88.6,255.9 86.2,255.9 			"/>
		</g>
	</g>
	<g>
		<g>
			<g>
				<polygon class="st1" points="78.4,235.5 81,232 81.9,232 78.9,236.1 				"/>
				<polygon class="st1" points="77.2,235.5 74.6,232 73.7,232 76.7,236.1 				"/>
			</g>
			<polygon class="st2" points="76.9,237.4 77.8,236.3 78.7,237.4 83.2,243.3 81.2,243.3 77.8,238.8 74.4,243.3 72.4,243.3 			"/>
		</g>
	</g>
	<g>
		<g>
			<g>
				<polygon class="st1" points="9.7,151.5 12.3,148 13.2,148 10.2,152.2 				"/>
				<polygon class="st1" points="8.5,151.5 5.9,148 5,148 8,152.2 				"/>
			</g>
			<polygon class="st2" points="8.2,153.5 9.1,152.3 10,153.4 14.5,159.3 12.5,159.3 9.1,154.8 5.7,159.3 3.7,159.3 			"/>
		</g>
	</g>
	<g>
		<g>
			<g>
				<polygon class="st1" points="148.2,265.1 151.4,260.8 152.5,260.8 148.8,265.9 				"/>
				<polygon class="st1" points="146.8,265.1 143.6,260.8 142.4,260.8 146.2,265.9 				"/>
			</g>
			<polygon class="st2" points="146.4,267.5 147.5,266 148.6,267.5 154.1,274.6 151.7,274.6 147.5,269.1 143.3,274.6 140.9,274.6 
							"/>
		</g>
	</g>
	<g>
		<g>
			<g>
				<polygon class="st1" points="69.5,218.1 72.8,213.9 73.9,213.9 70.2,219 				"/>
				<polygon class="st1" points="68.2,218.2 64.9,213.9 63.8,213.9 67.5,219 				"/>
			</g>
			<polygon class="st2" points="67.8,220.6 68.8,219.1 69.9,220.6 75.4,227.7 73,227.7 68.8,222.2 64.6,227.7 62.2,227.7 			"/>
		</g>
	</g>
	<g>
		<g>
			<g>
				<polygon class="st1" points="251.7,240.6 254.9,236.3 256,236.3 252.3,241.5 				"/>
				<polygon class="st1" points="250.3,240.6 247,236.3 245.9,236.3 249.7,241.5 				"/>
			</g>
			<polygon class="st2" points="249.9,243 251,241.6 252,243 257.6,250.2 255.1,250.2 251,244.7 246.8,250.2 244.3,250.2 			"/>
		</g>
	</g>
	<g>
		<g>
			<g>
				<polygon class="st1" points="387.4,374.3 390.6,370 391.8,370 388,375.1 				"/>
				<polygon class="st1" points="386,374.3 382.8,370 381.6,370 385.4,375.1 				"/>
			</g>
			<polygon class="st2" points="385.6,376.7 386.7,375.3 387.8,376.7 393.3,383.8 390.9,383.8 386.7,378.3 382.5,383.8 380.1,383.8 
							"/>
		</g>
	</g>
	<g>
		<g>
			<g>
				<polygon class="st1" points="188.3,270.2 191.5,265.9 192.6,265.9 188.9,271 				"/>
				<polygon class="st1" points="186.9,270.2 183.6,265.9 182.5,265.9 186.3,271 				"/>
			</g>
			<polygon class="st2" points="186.5,272.6 187.6,271.1 188.6,272.6 194.2,279.7 191.7,279.7 187.6,274.2 183.4,279.7 180.9,279.7 
							"/>
		</g>
	</g>
	<g>
		<g>
			<g>
				<polygon class="st1" points="18.2,167.4 21.4,163.1 22.5,163.1 18.8,168.2 				"/>
				<polygon class="st1" points="16.8,167.4 13.5,163.1 12.4,163.1 16.2,168.2 				"/>
			</g>
			<polygon class="st2" points="16.4,169.8 17.5,168.4 18.5,169.8 24.1,177 21.6,177 17.5,171.4 13.3,177 10.8,177 			"/>
		</g>
	</g>
	<g>
		<g>
			<g>
				<polygon class="st1" points="712.5,345.9 715.5,341.9 716.5,341.9 713,346.7 				"/>
				<polygon class="st1" points="711.2,345.9 708.1,341.9 707.1,341.9 710.6,346.7 				"/>
			</g>
			<polygon class="st2" points="710.8,348.2 711.8,346.8 712.8,348.2 718,354.9 715.7,354.9 711.8,349.7 707.9,354.9 705.6,354.9 
							"/>
		</g>
	</g>
	<g>
		<g>
			<g>
				<polygon class="st1" points="424.8,348.4 427.8,344.4 428.8,344.4 425.3,349.2 				"/>
				<polygon class="st1" points="423.5,348.4 420.4,344.4 419.4,344.4 422.9,349.2 				"/>
			</g>
			<polygon class="st2" points="423.1,350.6 424.1,349.3 425.1,350.6 430.3,357.3 428,357.3 424.1,352.2 420.2,357.3 417.9,357.3 
							"/>
		</g>
	</g>
	<g>
		<g>
			<g>
				<polygon class="st1" points="636.4,383 639.4,378.9 640.5,378.9 637,383.7 				"/>
				<polygon class="st1" points="635.1,383 632.1,378.9 631,378.9 634.5,383.7 				"/>
			</g>
			<polygon class="st2" points="634.7,385.2 635.7,383.9 636.7,385.2 641.9,391.9 639.6,391.9 635.7,386.7 631.8,391.9 629.5,391.9 
							"/>
		</g>
	</g>
	<g>
		<g>
			<g>
				<polygon class="st1" points="487.4,365 490.4,361 491.5,361 488,365.8 				"/>
				<polygon class="st1" points="486.1,365.1 483.1,361 482,361 485.5,365.8 				"/>
			</g>
			<polygon class="st2" points="485.7,367.3 486.8,366 487.8,367.3 492.9,374 490.7,374 486.8,368.8 482.8,374 480.6,374 			"/>
		</g>
	</g>
	<g>
		<g>
			<g>
				<polygon class="st1" points="1243.4,536.8 1248.3,530.2 1250.1,530.2 1244.4,538 				"/>
				<polygon class="st1" points="1241.3,536.8 1236.3,530.2 1234.6,530.2 1240.3,538 				"/>
			</g>
			<polygon class="st2" points="1240.7,540.5 1242.3,538.3 1244,540.5 1252.5,551.5 1248.7,551.5 1242.3,543 1235.9,551.5 
				1232.2,551.5 			"/>
		</g>
	</g>
	<g>
		<g>
			<g>
				<polygon class="st1" points="1086.1,464.3 1091,457.8 1092.8,457.8 1087,465.6 				"/>
				<polygon class="st1" points="1084,464.3 1079,457.8 1077.3,457.8 1083,465.6 				"/>
			</g>
			<polygon class="st2" points="1083.3,468 1085,465.8 1086.6,468 1095.1,479 1091.4,479 1085,470.5 1078.6,479 1074.9,479 			"/>
		</g>
	</g>
	<g>
		<g>
			<g>
				<polygon class="st1" points="870.3,545.7 875.3,539.1 877,539.1 871.3,546.9 				"/>
				<polygon class="st1" points="868.2,545.7 863.2,539.1 861.5,539.1 867.3,546.9 				"/>
			</g>
			<polygon class="st2" points="867.6,549.4 869.3,547.2 870.9,549.4 879.4,560.4 875.7,560.4 869.3,551.9 862.8,560.4 859.1,560.4 
							"/>
		</g>
	</g>
	<g>
		<g>
			<g>
				<polygon class="st1" points="1063.6,478.1 1069.6,470 1071.7,470 1064.7,479.6 				"/>
				<polygon class="st1" points="1061,478.1 1054.9,470 1052.8,470 1059.8,479.6 				"/>
			</g>
			<polygon class="st2" points="1060.2,482.6 1062.3,479.9 1064.3,482.6 1074.6,496 1070.1,496 1062.3,485.6 1054.4,496 1049.9,496 
							"/>
		</g>
	</g>
	<g>
		<g>
			<g>
				<polygon class="st1" points="848,516 854.1,508 856.2,508 849.2,517.5 				"/>
				<polygon class="st1" points="845.5,516 839.4,508 837.2,508 844.3,517.6 				"/>
			</g>
			<polygon class="st2" points="844.7,520.5 846.7,517.9 848.7,520.5 859.1,534 854.6,534 846.7,523.6 838.9,534 834.3,534 			"/>
		</g>
	</g>
	<g>
		<g>
			<g>
				<polygon class="st1" points="962.3,488.1 968.4,480.1 970.5,480.1 963.5,489.6 				"/>
				<polygon class="st1" points="959.7,488.1 953.7,480.1 951.5,480.1 958.6,489.7 				"/>
			</g>
			<polygon class="st2" points="959,492.6 961,489.9 963,492.6 973.4,506 968.8,506 961,495.7 953.2,506 948.6,506 			"/>
		</g>
	</g>
	<g>
		<g>
			<g>
				<polygon class="st1" points="1297.4,537.6 1302.3,531 1304,531 1298.3,538.8 				"/>
				<polygon class="st1" points="1295.2,537.6 1290.3,531 1288.5,531 1294.3,538.9 				"/>
			</g>
			<polygon class="st2" points="1294.6,541.3 1296.3,539.1 1297.9,541.3 1306.4,552.3 1302.7,552.3 1296.3,543.8 1289.9,552.3 
				1286.1,552.3 			"/>
		</g>
	</g>
	<g>
		<g>
			<g>
				<polygon class="st1" points="1191.2,491.5 1196.2,485 1197.9,485 1192.2,492.8 				"/>
				<polygon class="st1" points="1189.1,491.6 1184.1,485 1182.4,485 1188.2,492.8 				"/>
			</g>
			<polygon class="st2" points="1188.5,495.2 1190.2,493.1 1191.8,495.2 1200.3,506.2 1196.6,506.2 1190.2,497.7 1183.7,506.2 
				1180,506.2 			"/>
		</g>
	</g>
	<g>
		<g>
			<g>
				<polygon class="st1" points="816.7,452.7 823.3,443.9 825.7,443.9 818,454.4 				"/>
				<polygon class="st1" points="813.9,452.7 807.2,443.9 804.9,443.9 812.6,454.4 				"/>
			</g>
			<polygon class="st2" points="813,457.6 815.3,454.7 817.5,457.6 828.9,472.4 823.9,472.4 815.3,461 806.6,472.4 801.6,472.4 			
				"/>
		</g>
	</g>
	<g>
		<g>
			<g>
				<polygon class="st1" points="745.2,360.9 751.8,352.1 754.2,352.1 746.5,362.6 				"/>
				<polygon class="st1" points="742.4,361 735.7,352.1 733.4,352.1 741.1,362.6 				"/>
			</g>
			<polygon class="st2" points="741.5,365.9 743.8,363 746,365.9 757.4,380.6 752.4,380.6 743.8,369.2 735.1,380.6 730.1,380.6 			
				"/>
		</g>
	</g>
	<g>
		<g>
			<g>
				<polygon class="st1" points="465.5,346.7 472.1,337.9 474.4,337.9 466.7,348.4 				"/>
				<polygon class="st1" points="462.6,346.7 455.9,337.9 453.6,337.9 461.3,348.4 				"/>
			</g>
			<polygon class="st2" points="461.8,351.6 464,348.7 466.2,351.6 477.6,366.4 472.6,366.4 464,355 455.4,366.4 450.4,366.4 			"/>
		</g>
	</g>
	<g>
		<g>
			<g>
				<polygon class="st1" points="344.7,307.1 351.3,298.3 353.6,298.3 345.9,308.8 				"/>
				<polygon class="st1" points="341.8,307.2 335.1,298.3 332.8,298.3 340.5,308.9 				"/>
			</g>
			<polygon class="st2" points="341,312.1 343.2,309.2 345.4,312.1 356.8,326.8 351.8,326.8 343.2,315.4 334.6,326.8 329.6,326.8 
							"/>
		</g>
	</g>
	<g>
		<g>
			<g>
				<polygon class="st1" points="832.3,486.4 837.2,479.9 839,479.9 833.2,487.7 				"/>
				<polygon class="st1" points="830.2,486.5 825.2,479.9 823.5,479.9 829.2,487.7 				"/>
			</g>
			<polygon class="st2" points="829.6,490.1 831.2,488 832.9,490.1 841.4,501.1 837.6,501.1 831.2,492.6 824.8,501.1 821.1,501.1 
							"/>
		</g>
	</g>
	<g>
		<g>
			<g>
				<polygon class="st1" points="656.4,396.8 661.4,390.2 663.1,390.2 657.4,398 				"/>
				<polygon class="st1" points="654.3,396.8 649.3,390.2 647.6,390.2 653.4,398 				"/>
			</g>
			<polygon class="st2" points="653.7,400.4 655.4,398.3 657,400.4 665.5,411.4 661.8,411.4 655.3,402.9 648.9,411.4 645.2,411.4 
							"/>
		</g>
	</g>
	<g>
		<g>
			<g>
				<polygon class="st1" points="507.6,378.9 513.3,371.4 515.3,371.4 508.7,380.4 				"/>
				<polygon class="st1" points="505.2,379 499.6,371.4 497.6,371.4 504.1,380.4 				"/>
			</g>
			<polygon class="st2" points="504.5,383.1 506.4,380.7 508.3,383.1 518,395.7 513.7,395.7 506.4,386 499.1,395.7 494.8,395.7 			
				"/>
		</g>
	</g>
	<g>
		<g>
			<g>
				<polygon class="st1" points="318.5,293.2 323.3,286.8 325,286.8 319.4,294.5 				"/>
				<polygon class="st1" points="316.4,293.3 311.6,286.8 309.9,286.8 315.5,294.5 				"/>
			</g>
			<polygon class="st2" points="315.8,296.8 317.4,294.7 319,296.8 327.3,307.5 323.7,307.5 317.4,299.3 311.2,307.5 307.5,307.5 
							"/>
		</g>
	</g>
	<g>
		<g>
			<g>
				<polygon class="st1" points="237.1,262.2 241.9,255.8 243.6,255.8 238,263.4 				"/>
				<polygon class="st1" points="235,262.2 230.2,255.8 228.5,255.8 234.1,263.5 				"/>
			</g>
			<polygon class="st2" points="234.4,265.8 236,263.7 237.6,265.8 245.9,276.5 242.3,276.5 236,268.2 229.8,276.5 226.2,276.5 			
				"/>
		</g>
	</g>
	<g>
		<g>
			<g>
				<polygon class="st1" points="108.8,267.8 114,260.8 115.9,260.8 109.8,269.1 				"/>
				<polygon class="st1" points="106.5,267.8 101.2,260.8 99.4,260.8 105.5,269.1 				"/>
			</g>
			<polygon class="st2" points="105.9,271.7 107.6,269.4 109.4,271.7 118.4,283.4 114.4,283.4 107.6,274.3 100.8,283.4 96.9,283.4 
							"/>
		</g>
	</g>
	<g>
		<g>
			<g>
				<polygon class="st1" points="28.8,186.4 33,180.8 34.5,180.8 29.6,187.5 				"/>
				<polygon class="st1" points="27,186.5 22.7,180.8 21.2,180.8 26.1,187.5 				"/>
			</g>
			<polygon class="st2" points="26.4,189.6 27.9,187.7 29.3,189.6 36.6,199.1 33.4,199.1 27.9,191.8 22.3,199.1 19.1,199.1 			"/>
		</g>
	</g>
	<g>
		<g>
			<g>
				<polygon class="st1" points="129.9,254.2 133.8,249 135.2,249 130.7,255.2 				"/>
				<polygon class="st1" points="128.2,254.2 124.2,249 122.9,249 127.5,255.2 				"/>
			</g>
			<polygon class="st2" points="127.7,257.1 129,255.4 130.3,257.1 137.1,265.9 134.1,265.9 129,259.1 123.9,265.9 120.9,265.9 			
				"/>
		</g>
	</g>
	<g>
		<g>
			<g>
				<polygon class="st1" points="694.4,358.9 699.3,352.3 701.1,352.3 695.3,360.1 				"/>
				<polygon class="st1" points="692.3,358.9 687.3,352.3 685.5,352.3 691.3,360.2 				"/>
			</g>
			<polygon class="st2" points="691.6,362.6 693.3,360.4 694.9,362.6 703.4,373.6 699.7,373.6 693.3,365.1 686.9,373.6 683.1,373.6 
							"/>
		</g>
	</g>
	<g>
		<g>
			<g>
				<polygon class="st1" points="771.5,384.5 776.5,378 778.2,378 772.5,385.8 				"/>
				<polygon class="st1" points="769.4,384.6 764.4,378 762.7,378 768.5,385.8 				"/>
			</g>
			<polygon class="st2" points="768.8,388.2 770.5,386 772.1,388.2 780.6,399.2 776.9,399.2 770.5,390.7 764,399.2 760.3,399.2 			
				"/>
		</g>
	</g>
	<g>
		<g>
			<g>
				<polygon class="st1" points="289.3,254.3 294.2,247.7 295.9,247.7 290.2,255.6 				"/>
				<polygon class="st1" points="287.2,254.3 282.2,247.7 280.4,247.7 286.2,255.6 				"/>
			</g>
			<polygon class="st2" points="286.5,258 288.2,255.8 289.8,258 298.3,269 294.6,269 288.2,260.5 281.8,269 278,269 			"/>
		</g>
	</g>
	<g>
		<g>
			<g>
				<polygon class="st1" points="407.4,358.5 412.3,352 414.1,352 408.3,359.8 				"/>
				<polygon class="st1" points="405.3,358.6 400.3,352 398.6,352 404.3,359.8 				"/>
			</g>
			<polygon class="st2" points="404.7,362.2 406.3,360.1 407.9,362.2 416.4,373.2 412.7,373.2 406.3,364.7 399.9,373.2 396.2,373.2 
							"/>
		</g>
	</g>
	<g>
		<g>
			<g>
				<polygon class="st1" points="199.6,290.6 204.6,284.1 206.3,284.1 200.6,291.9 				"/>
				<polygon class="st1" points="197.5,290.7 192.5,284.1 190.8,284.1 196.6,291.9 				"/>
			</g>
			<polygon class="st2" points="196.9,294.3 198.6,292.2 200.2,294.3 208.7,305.3 205,305.3 198.6,296.8 192.1,305.3 188.4,305.3 
							"/>
		</g>
	</g>
	<g>
		<g>
			<g>
				<polygon class="st1" points="357.9,337.8 362.8,331.3 364.6,331.3 358.8,339.1 				"/>
				<polygon class="st1" points="355.8,337.9 350.8,331.3 349.1,331.3 354.8,339.1 				"/>
			</g>
			<polygon class="st2" points="355.2,341.5 356.8,339.4 358.4,341.5 366.9,352.5 363.2,352.5 356.8,344 350.4,352.5 346.7,352.5 
							"/>
		</g>
	</g>
	<g>
		<g>
			<g>
				<polygon class="st1" points="168.2,251.5 173.1,244.9 174.8,244.9 169.1,252.8 				"/>
				<polygon class="st1" points="166,251.5 161.1,244.9 159.3,244.9 165.1,252.8 				"/>
			</g>
			<polygon class="st2" points="165.4,255.2 167.1,253 168.7,255.2 177.2,266.2 173.5,266.2 167.1,257.7 160.6,266.2 156.9,266.2 
							"/>
		</g>
	</g>
	<g>
		<g>
			<g>
				<polygon class="st1" points="50.2,201.7 55.1,195.2 56.8,195.2 51.1,203 				"/>
				<polygon class="st1" points="48,201.8 43.1,195.2 41.3,195.2 47.1,203 				"/>
			</g>
			<polygon class="st2" points="47.4,205.4 49.1,203.2 50.7,205.4 59.2,216.4 55.5,216.4 49.1,207.9 42.7,216.4 38.9,216.4 			"/>
		</g>
	</g>
	<g>
		<g>
			<g>
				<polygon class="st1" points="274.4,225.9 280.2,218.2 282.3,218.2 275.5,227.4 				"/>
				<polygon class="st1" points="271.9,226 266,218.2 264,218.2 270.8,227.5 				"/>
			</g>
			<polygon class="st2" points="271.2,230.3 273.1,227.7 275,230.3 285.1,243.3 280.7,243.3 273.1,233.2 265.5,243.3 261.1,243.3 
							"/>
		</g>
	</g>
	<g>
		<g>
			<g>
				<polygon class="st1" points="1124.7,421.8 1129.6,415.2 1131.3,415.2 1125.6,423.1 				"/>
				<polygon class="st1" points="1122.6,421.8 1117.6,415.2 1115.8,415.2 1121.6,423.1 				"/>
			</g>
			<polygon class="st2" points="1121.9,425.5 1123.6,423.3 1125.2,425.5 1133.7,436.5 1130,436.5 1123.6,428 1117.2,436.5 
				1113.4,436.5 			"/>
		</g>
	</g>
	<g>
		<g>
			<g>
				<polygon class="st1" points="1384.3,559.1 1391,550.2 1393.4,550.2 1385.6,560.8 				"/>
				<polygon class="st1" points="1381.5,559.1 1374.8,550.2 1372.4,550.2 1380.2,560.8 				"/>
			</g>
			<polygon class="st2" points="1380.6,564.1 1382.9,561.2 1385.1,564.1 1396.6,579 1391.6,579 1382.9,567.5 1374.2,579 1369.2,579 
							"/>
		</g>
	</g>
	<g>
		<g>
			<g>
				<polygon class="st1" points="1270.8,519.3 1277.5,510.4 1279.9,510.4 1272.1,520.9 				"/>
				<polygon class="st1" points="1268,519.3 1261.3,510.4 1258.9,510.4 1266.7,521 				"/>
			</g>
			<polygon class="st2" points="1267.1,524.2 1269.4,521.3 1271.6,524.2 1283.1,539.1 1278.1,539.1 1269.4,527.6 1260.7,539.1 
				1255.7,539.1 			"/>
		</g>
	</g>
	<g>
		<g>
			<g>
				<polygon class="st1" points="1150.2,442 1156.8,433.1 1159.2,433.1 1151.4,443.7 				"/>
				<polygon class="st1" points="1147.3,442 1140.6,433.1 1138.2,433.1 1146,443.7 				"/>
			</g>
			<polygon class="st2" points="1146.5,447 1148.7,444 1150.9,447 1162.4,461.9 1157.4,461.9 1148.7,450.4 1140,461.9 1135,461.9 
							"/>
		</g>
	</g>
	<g>
		<g>
			<g>
				<polygon class="st1" points="600,376.4 606.7,367.5 609.1,367.5 601.3,378.1 				"/>
				<polygon class="st1" points="597.2,376.4 590.4,367.5 588.1,367.5 595.9,378.1 				"/>
			</g>
			<polygon class="st2" points="596.3,381.4 598.6,378.4 600.8,381.4 612.3,396.2 607.2,396.2 598.6,384.8 589.9,396.2 584.9,396.2 
							"/>
		</g>
	</g>
	<g>
		<g>
			<g>
				<polygon class="st1" points="980.6,451.4 988.3,441.2 991,441.2 982.1,453.4 				"/>
				<polygon class="st1" points="977.3,451.5 969.6,441.2 966.9,441.2 975.9,453.4 				"/>
			</g>
			<polygon class="st2" points="976.4,457.2 979,453.8 981.5,457.2 994.7,474.3 988.9,474.3 979,461.1 968.9,474.3 963.1,474.3 			
				"/>
		</g>
	</g>
	<g>
		<g>
			<g>
				<polygon class="st1" points="1318.3,564.6 1325,555.7 1327.4,555.7 1319.6,566.3 				"/>
				<polygon class="st1" points="1315.5,564.6 1308.8,555.7 1306.4,555.7 1314.2,566.3 				"/>
			</g>
			<polygon class="st2" points="1314.6,569.6 1316.9,566.6 1319.1,569.6 1330.6,584.4 1325.6,584.4 1316.9,572.9 1308.2,584.4 
				1303.2,584.4 			"/>
		</g>
	</g>
	<g>
		<g>
			<g>
				<polygon class="st1" points="1431.1,590.3 1434.1,586.4 1435.1,586.4 1431.7,591.1 				"/>
				<polygon class="st1" points="1429.8,590.4 1426.8,586.4 1425.8,586.4 1429.2,591.1 				"/>
			</g>
			<polygon class="st2" points="1429.4,592.6 1430.4,591.3 1431.4,592.6 1436.5,599.2 1434.3,599.2 1430.4,594.1 1426.6,599.2 
				1424.3,599.2 			"/>
		</g>
	</g>
	<g>
		<g>
			<g>
				<polygon class="st1" points="1226.7,525.3 1229.7,521.3 1230.8,521.3 1227.3,526 				"/>
				<polygon class="st1" points="1225.4,525.3 1222.4,521.3 1221.4,521.3 1224.9,526 				"/>
			</g>
			<polygon class="st2" points="1225.1,527.5 1226.1,526.2 1227.1,527.5 1232.2,534.1 1229.9,534.1 1226.1,529 1222.2,534.1 
				1219.9,534.1 			"/>
		</g>
	</g>
	<g>
		<g>
			<g>
				<polygon class="st1" points="1025.6,442.4 1028.6,438.4 1029.6,438.4 1026.2,443.1 				"/>
				<polygon class="st1" points="1024.3,442.4 1021.3,438.4 1020.3,438.4 1023.8,443.2 				"/>
			</g>
			<polygon class="st2" points="1024,444.6 1025,443.3 1025.9,444.6 1031.1,451.3 1028.8,451.3 1025,446.1 1021.1,451.3 
				1018.8,451.3 			"/>
		</g>
	</g>
	<g>
		<g>
			<g>
				<polygon class="st1" points="889.3,534.1 892.3,530.1 893.3,530.1 889.9,534.9 				"/>
				<polygon class="st1" points="888,534.1 885,530.1 884,530.1 887.5,534.9 				"/>
			</g>
			<polygon class="st2" points="887.7,536.3 888.7,535 889.7,536.3 894.8,543 892.5,543 888.7,537.8 884.8,543 882.5,543 			"/>
		</g>
	</g>
	<g>
		<g>
			<g>
				<polygon class="st1" points="783.9,410.7 786.9,406.7 787.9,406.7 784.5,411.4 				"/>
				<polygon class="st1" points="782.6,410.7 779.6,406.7 778.5,406.7 782,411.5 				"/>
			</g>
			<polygon class="st2" points="782.2,412.9 783.2,411.6 784.2,412.9 789.3,419.6 787.1,419.6 783.2,414.4 779.3,419.6 777.1,419.6 
							"/>
		</g>
	</g>
	<g>
		<g>
			<g>
				<polygon class="st1" points="1006.2,426.3 1010.6,420.6 1012.1,420.6 1007.1,427.4 				"/>
				<polygon class="st1" points="1004.4,426.4 1000,420.6 998.5,420.6 1003.5,427.5 				"/>
			</g>
			<polygon class="st2" points="1003.8,429.6 1005.3,427.7 1006.7,429.6 1014.2,439.2 1010.9,439.2 1005.3,431.8 999.6,439.2 
				996.3,439.2 			"/>
		</g>
	</g>
	<g>
		<g>
			<g>
				<polygon class="st1" points="918,498.3 922.4,492.5 923.9,492.5 918.9,499.4 				"/>
				<polygon class="st1" points="916.2,498.3 911.8,492.5 910.3,492.5 915.4,499.4 				"/>
			</g>
			<polygon class="st2" points="915.6,501.6 917.1,499.6 918.5,501.6 926,511.2 922.7,511.2 917.1,503.8 911.4,511.2 908.2,511.2 
							"/>
		</g>
	</g>
	<g>
		<g>
			<g>
				<polygon class="st1" points="731.1,331.6 735.4,325.8 737,325.8 731.9,332.7 				"/>
				<polygon class="st1" points="729.2,331.6 724.9,325.8 723.3,325.8 728.4,332.7 				"/>
			</g>
			<polygon class="st2" points="728.7,334.8 730.2,332.9 731.6,334.8 739.1,344.5 735.8,344.5 730.2,337 724.5,344.5 721.2,344.5 
							"/>
		</g>
	</g>
	<g>
		<g>
			<g>
				<polygon class="st1" points="1339.3,592.8 1342.3,588.8 1343.4,588.8 1339.9,593.5 				"/>
				<polygon class="st1" points="1338.1,592.8 1335.1,588.8 1334,588.8 1337.5,593.6 				"/>
			</g>
			<polygon class="st2" points="1337.7,595 1338.7,593.7 1339.7,595 1344.8,601.6 1342.6,601.6 1338.7,596.5 1334.8,601.6 
				1332.6,601.6 			"/>
		</g>
	</g>
</g>
</svg>
