<svg id="katman_1" data-name="katman 1" xmlns="http://www.w3.org/2000/svg" viewBox="0 0 1440 722">
  <defs>
    <style>
      .cls-1 {
        fill: none;
        stroke: #96c2cc;
        stroke-miterlimit: 10;
        stroke-width: 0.75px;
      }

      .cls-2 {
        fill: #96c2cc;
      }

      .cls-3 {
        fill: #064a5f;
      }
    </style>
  </defs>
  <title>background</title>
  <path class="cls-1" d="M0,607.8c43.5-13.3,219.3-73,344.4-200.5C488,261,613,282.6,713,327.3s154.7,119.2,353.8-65.6C1205,133.5,1359,156.4,1440.4,182.5"/>
  <path class="cls-1" d="M-.3,525.2c60.3-5.3,224.5-24.8,291.1-82.7,82.3-71.6,202.7-203,464.5-76.3S1100.9,169,1217.9,148c102.4-18.4,147.4,104,222,120.2"/>
  <g>
    <g>
      <g>
        <polygon class="cls-2" points="30.9 577.1 24.9 569 22.7 569 29.8 578.7 30.9 577.1"/>
        <polygon class="cls-2" points="33.5 577.1 39.7 569 41.8 569 34.7 578.7 33.5 577.1"/>
      </g>
      <polygon class="cls-3" points="34.3 581.6 32.3 579 30.2 581.6 19.8 595.2 24.4 595.2 32.3 584.7 40.2 595.2 44.8 595.2 34.3 581.6"/>
    </g>
    <g>
      <g>
        <polygon class="cls-2" points="80.9 580.5 76 574 74.3 574 80 581.8 80.9 580.5"/>
        <polygon class="cls-2" points="83 580.6 88 574 89.8 574 84 581.8 83 580.6"/>
      </g>
      <polygon class="cls-3" points="83.7 584.2 82 582.1 80.4 584.2 71.9 595.2 75.6 595.2 82 586.7 88.4 595.2 92.2 595.2 83.7 584.2"/>
    </g>
    <g>
      <g>
        <polygon class="cls-2" points="274.9 475.8 268.3 467 265.9 467 273.6 477.4 274.9 475.8"/>
        <polygon class="cls-2" points="277.7 475.8 284.4 467 286.7 467 279 477.5 277.7 475.8"/>
      </g>
      <polygon class="cls-3" points="278.5 480.7 276.3 477.8 274.1 480.7 262.7 495.5 267.7 495.5 276.3 484.1 284.9 495.5 289.9 495.5 278.5 480.7"/>
    </g>
    <g>
      <g>
        <polygon class="cls-2" points="227.4 505 223.4 499.8 222.1 499.8 226.6 506 227.4 505"/>
        <polygon class="cls-2" points="229.1 505 233.1 499.8 234.4 499.8 229.8 506 229.1 505"/>
      </g>
      <polygon class="cls-3" points="229.6 508 228.2 506.2 226.9 508 220.2 516.8 223.1 516.8 228.2 510 233.4 516.8 236.4 516.8 229.6 508"/>
    </g>
    <g>
      <g>
        <polygon class="cls-2" points="336 440.5 332 435.2 330.7 435.2 335.2 441.5 336 440.5"/>
        <polygon class="cls-2" points="337.7 440.5 341.7 435.2 343 435.2 338.4 441.5 337.7 440.5"/>
      </g>
      <polygon class="cls-3" points="338.2 443.4 336.8 441.7 335.5 443.4 328.8 452.2 331.7 452.2 336.8 445.4 342 452.2 345 452.2 338.2 443.4"/>
    </g>
    <g>
      <g>
        <polygon class="cls-2" points="396.5 453.8 392.5 448.6 391.1 448.6 395.7 454.8 396.5 453.8"/>
        <polygon class="cls-2" points="398.1 453.9 402.1 448.6 403.5 448.6 398.9 454.9 398.1 453.9"/>
      </g>
      <polygon class="cls-3" points="398.6 456.8 397.3 455 396 456.8 389.2 465.6 392.2 465.6 397.3 458.8 402.4 465.6 405.4 465.6 398.6 456.8"/>
    </g>
    <g>
      <g>
        <polygon class="cls-2" points="541 513.5 537 508.3 535.6 508.3 540.2 514.5 541 513.5"/>
        <polygon class="cls-2" points="542.6 513.5 546.6 508.3 548 508.3 543.4 514.5 542.6 513.5"/>
      </g>
      <polygon class="cls-3" points="543.1 516.5 541.8 514.7 540.5 516.5 533.7 525.2 536.7 525.2 541.8 518.5 546.9 525.2 549.9 525.2 543.1 516.5"/>
    </g>
    <g>
      <g>
        <polygon class="cls-2" points="501.2 507.1 497.3 501.9 495.9 501.9 500.5 508.1 501.2 507.1"/>
        <polygon class="cls-2" points="502.9 507.1 506.9 501.9 508.3 501.9 503.7 508.2 502.9 507.1"/>
      </g>
      <polygon class="cls-3" points="503.4 510.1 502.1 508.3 500.8 510.1 494 518.9 497 518.9 502.1 512.1 507.2 518.9 510.2 518.9 503.4 510.1"/>
    </g>
    <g>
      <g>
        <polygon class="cls-2" points="637.6 425.8 633.6 420.6 632.2 420.6 636.8 426.8 637.6 425.8"/>
        <polygon class="cls-2" points="639.3 425.8 643.3 420.6 644.6 420.6 640 426.8 639.3 425.8"/>
      </g>
      <polygon class="cls-3" points="639.8 428.8 638.4 427 637.1 428.8 630.3 437.6 633.3 437.6 638.4 430.8 643.6 437.6 646.6 437.6 639.8 428.8"/>
    </g>
    <g>
      <g>
        <polygon class="cls-2" points="867 399.4 863.1 394.1 861.7 394.1 866.3 400.4 867 399.4"/>
        <polygon class="cls-2" points="868.7 399.4 872.7 394.1 874.1 394.1 869.5 400.4 868.7 399.4"/>
      </g>
      <polygon class="cls-3" points="869.2 402.3 867.9 400.6 866.6 402.3 859.8 411.1 862.8 411.1 867.9 404.3 873 411.1 876 411.1 869.2 402.3"/>
    </g>
    <g>
      <g>
        <polygon class="cls-2" points="814.3 359.7 810.3 354.5 809 354.5 813.5 360.7 814.3 359.7"/>
        <polygon class="cls-2" points="816 359.7 820 354.5 821.4 354.5 816.7 360.7 816 359.7"/>
      </g>
      <polygon class="cls-3" points="816.5 362.7 815.1 360.9 813.8 362.7 807.1 371.4 810 371.4 815.2 364.7 820.3 371.4 823.3 371.4 816.5 362.7"/>
    </g>
    <g>
      <g>
        <polygon class="cls-2" points="764.2 384.4 760.2 379.2 758.8 379.2 763.4 385.4 764.2 384.4"/>
        <polygon class="cls-2" points="765.9 384.4 769.9 379.2 771.2 379.2 766.6 385.4 765.9 384.4"/>
      </g>
      <polygon class="cls-3" points="766.4 387.4 765 385.6 763.7 387.4 757 396.2 759.9 396.2 765 389.4 770.2 396.2 773.2 396.2 766.4 387.4"/>
    </g>
    <g>
      <g>
        <polygon class="cls-2" points="996.9 335.4 993 330.2 991.6 330.2 996.2 336.4 996.9 335.4"/>
        <polygon class="cls-2" points="998.6 335.5 1002.6 330.2 1004 330.2 999.4 336.5 998.6 335.5"/>
      </g>
      <polygon class="cls-3" points="999.1 338.4 997.8 336.6 996.5 338.4 989.7 347.2 992.7 347.2 997.8 340.4 1002.9 347.2 1005.9 347.2 999.1 338.4"/>
    </g>
    <g>
      <g>
        <polygon class="cls-2" points="909.9 397.7 906.7 393.4 905.6 393.4 909.3 398.5 909.9 397.7"/>
        <polygon class="cls-2" points="911.3 397.7 914.6 393.4 915.7 393.4 911.9 398.5 911.3 397.7"/>
      </g>
      <polygon class="cls-3" points="911.7 400.1 910.6 398.7 909.6 400.1 904 407.3 906.5 407.3 910.6 401.7 914.8 407.3 917.3 407.3 911.7 400.1"/>
    </g>
    <g>
      <g>
        <polygon class="cls-2" points="1131.9 272 1128.6 267.7 1127.5 267.7 1131.2 272.8 1131.9 272"/>
        <polygon class="cls-2" points="1133.2 272 1136.5 267.7 1137.6 267.7 1133.9 272.8 1133.2 272"/>
      </g>
      <polygon class="cls-3" points="1133.6 274.4 1132.6 273 1131.5 274.4 1125.9 281.6 1128.4 281.6 1132.6 276 1136.8 281.6 1139.2 281.6 1133.6 274.4"/>
    </g>
    <g>
      <g>
        <polygon class="cls-2" points="1062.8 354.9 1059.6 350.7 1058.5 350.7 1062.2 355.8 1062.8 354.9"/>
        <polygon class="cls-2" points="1064.2 355 1067.5 350.7 1068.6 350.7 1064.8 355.8 1064.2 355"/>
      </g>
      <polygon class="cls-3" points="1064.6 357.4 1063.5 355.9 1062.5 357.4 1056.9 364.5 1059.4 364.5 1063.5 359 1067.7 364.5 1070.2 364.5 1064.6 357.4"/>
    </g>
    <g>
      <g>
        <polygon class="cls-2" points="1222.2 278.9 1219 274.6 1217.9 274.6 1221.6 279.7 1222.2 278.9"/>
        <polygon class="cls-2" points="1223.6 278.9 1226.9 274.6 1228 274.6 1224.2 279.8 1223.6 278.9"/>
      </g>
      <polygon class="cls-3" points="1224 281.3 1222.9 279.9 1221.9 281.3 1216.3 288.5 1218.8 288.5 1222.9 283 1227.1 288.5 1229.6 288.5 1224 281.3"/>
    </g>
    <g>
      <g>
        <polygon class="cls-2" points="1346.6 246.3 1343.4 242 1342.3 242 1346 247.1 1346.6 246.3"/>
        <polygon class="cls-2" points="1348 246.3 1351.2 242 1352.4 242 1348.6 247.2 1348 246.3"/>
      </g>
      <polygon class="cls-3" points="1348.4 248.7 1347.3 247.3 1346.2 248.7 1340.7 255.9 1343.1 255.9 1347.3 250.4 1351.5 255.9 1353.9 255.9 1348.4 248.7"/>
    </g>
    <g>
      <g>
        <polygon class="cls-2" points="1361.7 235.5 1359.1 232 1358.2 232 1361.2 236.1 1361.7 235.5"/>
        <polygon class="cls-2" points="1362.9 235.5 1365.5 232 1366.4 232 1363.4 236.1 1362.9 235.5"/>
      </g>
      <polygon class="cls-3" points="1363.2 237.4 1362.3 236.3 1361.4 237.4 1356.9 243.3 1358.9 243.3 1362.3 238.8 1365.7 243.3 1367.7 243.3 1363.2 237.4"/>
    </g>
    <g>
      <g>
        <polygon class="cls-2" points="1430.4 151.5 1427.8 148 1426.9 148 1429.9 152.2 1430.4 151.5"/>
        <polygon class="cls-2" points="1431.6 151.5 1434.2 148 1435.1 148 1432.1 152.2 1431.6 151.5"/>
      </g>
      <polygon class="cls-3" points="1431.9 153.5 1431 152.3 1430.1 153.4 1425.6 159.3 1427.6 159.3 1431 154.8 1434.4 159.3 1436.4 159.3 1431.9 153.5"/>
    </g>
    <g>
      <g>
        <polygon class="cls-2" points="1291.9 265.1 1288.7 260.8 1287.6 260.8 1291.3 265.9 1291.9 265.1"/>
        <polygon class="cls-2" points="1293.3 265.1 1296.5 260.8 1297.7 260.8 1293.9 265.9 1293.3 265.1"/>
      </g>
      <polygon class="cls-3" points="1293.7 267.5 1292.6 266 1291.5 267.5 1286 274.6 1288.4 274.6 1292.6 269.1 1296.8 274.6 1299.2 274.6 1293.7 267.5"/>
    </g>
    <g>
      <g>
        <polygon class="cls-2" points="1370.6 218.1 1367.3 213.9 1366.2 213.9 1369.9 219 1370.6 218.1"/>
        <polygon class="cls-2" points="1371.9 218.2 1375.2 213.9 1376.3 213.9 1372.6 219 1371.9 218.2"/>
      </g>
      <polygon class="cls-3" points="1372.3 220.6 1371.3 219.1 1370.2 220.6 1364.7 227.7 1367.1 227.7 1371.3 222.2 1375.5 227.7 1377.9 227.7 1372.3 220.6"/>
    </g>
    <g>
      <g>
        <polygon class="cls-2" points="1188.4 240.6 1185.2 236.3 1184.1 236.3 1187.8 241.5 1188.4 240.6"/>
        <polygon class="cls-2" points="1189.8 240.6 1193.1 236.3 1194.2 236.3 1190.4 241.5 1189.8 240.6"/>
      </g>
      <polygon class="cls-3" points="1190.2 243 1189.1 241.6 1188.1 243 1182.5 250.2 1185 250.2 1189.1 244.7 1193.3 250.2 1195.8 250.2 1190.2 243"/>
    </g>
    <g>
      <g>
        <polygon class="cls-2" points="1052.7 374.3 1049.5 370 1048.3 370 1052.1 375.1 1052.7 374.3"/>
        <polygon class="cls-2" points="1054.1 374.3 1057.3 370 1058.5 370 1054.7 375.1 1054.1 374.3"/>
      </g>
      <polygon class="cls-3" points="1054.5 376.7 1053.4 375.3 1052.3 376.7 1046.8 383.8 1049.2 383.8 1053.4 378.3 1057.6 383.8 1060 383.8 1054.5 376.7"/>
    </g>
    <g>
      <g>
        <polygon class="cls-2" points="1251.8 270.2 1248.6 265.9 1247.5 265.9 1251.2 271 1251.8 270.2"/>
        <polygon class="cls-2" points="1253.2 270.2 1256.5 265.9 1257.6 265.9 1253.8 271 1253.2 270.2"/>
      </g>
      <polygon class="cls-3" points="1253.6 272.6 1252.5 271.1 1251.5 272.6 1245.9 279.7 1248.4 279.7 1252.5 274.2 1256.7 279.7 1259.2 279.7 1253.6 272.6"/>
    </g>
    <g>
      <g>
        <polygon class="cls-2" points="1421.9 167.4 1418.7 163.1 1417.6 163.1 1421.3 168.2 1421.9 167.4"/>
        <polygon class="cls-2" points="1423.3 167.4 1426.6 163.1 1427.7 163.1 1423.9 168.2 1423.3 167.4"/>
      </g>
      <polygon class="cls-3" points="1423.7 169.8 1422.6 168.4 1421.6 169.8 1416 177 1418.5 177 1422.6 171.4 1426.8 177 1429.3 177 1423.7 169.8"/>
    </g>
    <g>
      <g>
        <polygon class="cls-2" points="727.6 345.9 724.6 341.9 723.6 341.9 727.1 346.7 727.6 345.9"/>
        <polygon class="cls-2" points="728.9 345.9 732 341.9 733 341.9 729.5 346.7 728.9 345.9"/>
      </g>
      <polygon class="cls-3" points="729.3 348.2 728.3 346.8 727.3 348.2 722.1 354.9 724.4 354.9 728.3 349.7 732.2 354.9 734.5 354.9 729.3 348.2"/>
    </g>
    <g>
      <g>
        <polygon class="cls-2" points="1015.3 348.4 1012.3 344.4 1011.3 344.4 1014.8 349.2 1015.3 348.4"/>
        <polygon class="cls-2" points="1016.6 348.4 1019.7 344.4 1020.7 344.4 1017.2 349.2 1016.6 348.4"/>
      </g>
      <polygon class="cls-3" points="1017 350.6 1016 349.3 1015 350.6 1009.8 357.3 1012.1 357.3 1016 352.2 1019.9 357.3 1022.2 357.3 1017 350.6"/>
    </g>
    <g>
      <g>
        <polygon class="cls-2" points="803.7 383 800.7 378.9 799.6 378.9 803.1 383.7 803.7 383"/>
        <polygon class="cls-2" points="805 383 808 378.9 809.1 378.9 805.6 383.7 805 383"/>
      </g>
      <polygon class="cls-3" points="805.4 385.2 804.4 383.9 803.4 385.2 798.2 391.9 800.5 391.9 804.4 386.7 808.3 391.9 810.6 391.9 805.4 385.2"/>
    </g>
    <g>
      <g>
        <polygon class="cls-2" points="952.7 365 949.7 361 948.6 361 952.1 365.8 952.7 365"/>
        <polygon class="cls-2" points="954 365.1 957 361 958.1 361 954.6 365.8 954 365.1"/>
      </g>
      <polygon class="cls-3" points="954.4 367.3 953.3 366 952.3 367.3 947.2 374 949.4 374 953.3 368.8 957.3 374 959.5 374 954.4 367.3"/>
    </g>
    <g>
      <g>
        <polygon class="cls-2" points="196.7 536.8 191.8 530.2 190 530.2 195.7 538 196.7 536.8"/>
        <polygon class="cls-2" points="198.8 536.8 203.8 530.2 205.5 530.2 199.8 538 198.8 536.8"/>
      </g>
      <polygon class="cls-3" points="199.4 540.5 197.8 538.3 196.1 540.5 187.6 551.5 191.4 551.5 197.8 543 204.2 551.5 207.9 551.5 199.4 540.5"/>
    </g>
    <g>
      <g>
        <polygon class="cls-2" points="354 464.3 349.1 457.8 347.3 457.8 353.1 465.6 354 464.3"/>
        <polygon class="cls-2" points="356.1 464.3 361.1 457.8 362.8 457.8 357.1 465.6 356.1 464.3"/>
      </g>
      <polygon class="cls-3" points="356.8 468 355.1 465.8 353.5 468 345 479 348.7 479 355.1 470.5 361.5 479 365.2 479 356.8 468"/>
    </g>
    <g>
      <g>
        <polygon class="cls-2" points="569.8 545.7 564.8 539.1 563.1 539.1 568.8 546.9 569.8 545.7"/>
        <polygon class="cls-2" points="571.9 545.7 576.9 539.1 578.6 539.1 572.8 546.9 571.9 545.7"/>
      </g>
      <polygon class="cls-3" points="572.5 549.4 570.8 547.2 569.2 549.4 560.7 560.4 564.4 560.4 570.8 551.9 577.3 560.4 581 560.4 572.5 549.4"/>
    </g>
    <g>
      <g>
        <polygon class="cls-2" points="376.5 478.1 370.5 470 368.4 470 375.4 479.6 376.5 478.1"/>
        <polygon class="cls-2" points="379.1 478.1 385.2 470 387.3 470 380.3 479.6 379.1 478.1"/>
      </g>
      <polygon class="cls-3" points="379.9 482.6 377.8 479.9 375.8 482.6 365.5 496 370 496 377.8 485.6 385.7 496 390.2 496 379.9 482.6"/>
    </g>
    <g>
      <g>
        <polygon class="cls-2" points="592.1 516 586 508 583.9 508 590.9 517.5 592.1 516"/>
        <polygon class="cls-2" points="594.6 516 600.7 508 602.9 508 595.8 517.6 594.6 516"/>
      </g>
      <polygon class="cls-3" points="595.4 520.5 593.4 517.9 591.4 520.5 581 534 585.5 534 593.4 523.6 601.2 534 605.8 534 595.4 520.5"/>
    </g>
    <g>
      <g>
        <polygon class="cls-2" points="477.8 488.1 471.7 480.1 469.6 480.1 476.6 489.6 477.8 488.1"/>
        <polygon class="cls-2" points="480.4 488.1 486.4 480.1 488.6 480.1 481.5 489.7 480.4 488.1"/>
      </g>
      <polygon class="cls-3" points="481.1 492.6 479.1 489.9 477.1 492.6 466.7 506 471.3 506 479.1 495.7 486.9 506 491.5 506 481.1 492.6"/>
    </g>
    <g>
      <g>
        <polygon class="cls-2" points="142.7 537.6 137.8 531 136.1 531 141.8 538.8 142.7 537.6"/>
        <polygon class="cls-2" points="144.9 537.6 149.8 531 151.6 531 145.8 538.9 144.9 537.6"/>
      </g>
      <polygon class="cls-3" points="145.5 541.3 143.8 539.1 142.2 541.3 133.7 552.3 137.4 552.3 143.8 543.8 150.2 552.3 154 552.3 145.5 541.3"/>
    </g>
    <g>
      <g>
        <polygon class="cls-2" points="248.9 491.5 243.9 485 242.2 485 247.9 492.8 248.9 491.5"/>
        <polygon class="cls-2" points="251 491.6 256 485 257.7 485 251.9 492.8 251 491.6"/>
      </g>
      <polygon class="cls-3" points="251.6 495.2 249.9 493.1 248.3 495.2 239.8 506.2 243.5 506.2 249.9 497.7 256.4 506.2 260.1 506.2 251.6 495.2"/>
    </g>
    <g>
      <g>
        <polygon class="cls-2" points="623.4 452.7 616.8 443.9 614.4 443.9 622.1 454.4 623.4 452.7"/>
        <polygon class="cls-2" points="626.2 452.7 632.9 443.9 635.2 443.9 627.5 454.4 626.2 452.7"/>
      </g>
      <polygon class="cls-3" points="627.1 457.6 624.8 454.7 622.6 457.6 611.2 472.4 616.2 472.4 624.8 461 633.5 472.4 638.5 472.4 627.1 457.6"/>
    </g>
    <g>
      <g>
        <polygon class="cls-2" points="694.9 360.9 688.3 352.1 685.9 352.1 693.6 362.6 694.9 360.9"/>
        <polygon class="cls-2" points="697.7 361 704.4 352.1 706.7 352.1 699 362.6 697.7 361"/>
      </g>
      <polygon class="cls-3" points="698.6 365.9 696.3 363 694.1 365.9 682.7 380.6 687.7 380.6 696.3 369.2 705 380.6 710 380.6 698.6 365.9"/>
    </g>
    <g>
      <g>
        <polygon class="cls-2" points="974.6 346.7 968 337.9 965.7 337.9 973.4 348.4 974.6 346.7"/>
        <polygon class="cls-2" points="977.5 346.7 984.2 337.9 986.5 337.9 978.8 348.4 977.5 346.7"/>
      </g>
      <polygon class="cls-3" points="978.3 351.6 976.1 348.7 973.9 351.6 962.5 366.4 967.5 366.4 976.1 355 984.7 366.4 989.7 366.4 978.3 351.6"/>
    </g>
    <g>
      <g>
        <polygon class="cls-2" points="1095.4 307.1 1088.8 298.3 1086.5 298.3 1094.2 308.8 1095.4 307.1"/>
        <polygon class="cls-2" points="1098.3 307.2 1105 298.3 1107.3 298.3 1099.6 308.9 1098.3 307.2"/>
      </g>
      <polygon class="cls-3" points="1099.1 312.1 1096.9 309.2 1094.7 312.1 1083.3 326.8 1088.3 326.8 1096.9 315.4 1105.5 326.8 1110.5 326.8 1099.1 312.1"/>
    </g>
    <g>
      <g>
        <polygon class="cls-2" points="607.8 486.4 602.9 479.9 601.1 479.9 606.9 487.7 607.8 486.4"/>
        <polygon class="cls-2" points="609.9 486.5 614.9 479.9 616.6 479.9 610.9 487.7 609.9 486.5"/>
      </g>
      <polygon class="cls-3" points="610.5 490.1 608.9 488 607.2 490.1 598.7 501.1 602.5 501.1 608.9 492.6 615.3 501.1 619 501.1 610.5 490.1"/>
    </g>
    <g>
      <g>
        <polygon class="cls-2" points="783.7 396.8 778.7 390.2 777 390.2 782.7 398 783.7 396.8"/>
        <polygon class="cls-2" points="785.8 396.8 790.8 390.2 792.5 390.2 786.7 398 785.8 396.8"/>
      </g>
      <polygon class="cls-3" points="786.4 400.4 784.7 398.3 783.1 400.4 774.6 411.4 778.3 411.4 784.8 402.9 791.2 411.4 794.9 411.4 786.4 400.4"/>
    </g>
    <g>
      <g>
        <polygon class="cls-2" points="932.5 378.9 926.8 371.4 924.8 371.4 931.4 380.4 932.5 378.9"/>
        <polygon class="cls-2" points="934.9 379 940.5 371.4 942.5 371.4 936 380.4 934.9 379"/>
      </g>
      <polygon class="cls-3" points="935.6 383.1 933.7 380.7 931.8 383.1 922.1 395.7 926.4 395.7 933.7 386 941 395.7 945.3 395.7 935.6 383.1"/>
    </g>
    <g>
      <g>
        <polygon class="cls-2" points="1121.6 293.2 1116.8 286.8 1115.1 286.8 1120.7 294.5 1121.6 293.2"/>
        <polygon class="cls-2" points="1123.7 293.3 1128.5 286.8 1130.2 286.8 1124.6 294.5 1123.7 293.3"/>
      </g>
      <polygon class="cls-3" points="1124.3 296.8 1122.7 294.7 1121.1 296.8 1112.8 307.5 1116.4 307.5 1122.7 299.3 1128.9 307.5 1132.6 307.5 1124.3 296.8"/>
    </g>
    <g>
      <g>
        <polygon class="cls-2" points="1203 262.2 1198.2 255.8 1196.5 255.8 1202.1 263.4 1203 262.2"/>
        <polygon class="cls-2" points="1205.1 262.2 1209.9 255.8 1211.6 255.8 1206 263.5 1205.1 262.2"/>
      </g>
      <polygon class="cls-3" points="1205.7 265.8 1204.1 263.7 1202.5 265.8 1194.2 276.5 1197.8 276.5 1204.1 268.2 1210.3 276.5 1213.9 276.5 1205.7 265.8"/>
    </g>
    <g>
      <g>
        <polygon class="cls-2" points="1331.3 267.8 1326.1 260.8 1324.2 260.8 1330.3 269.1 1331.3 267.8"/>
        <polygon class="cls-2" points="1333.6 267.8 1338.9 260.8 1340.7 260.8 1334.6 269.1 1333.6 267.8"/>
      </g>
      <polygon class="cls-3" points="1334.2 271.7 1332.5 269.4 1330.7 271.7 1321.7 283.4 1325.7 283.4 1332.5 274.3 1339.3 283.4 1343.2 283.4 1334.2 271.7"/>
    </g>
    <g>
      <g>
        <polygon class="cls-2" points="1411.3 186.4 1407.1 180.8 1405.6 180.8 1410.5 187.5 1411.3 186.4"/>
        <polygon class="cls-2" points="1413.1 186.5 1417.4 180.8 1418.9 180.8 1414 187.5 1413.1 186.5"/>
      </g>
      <polygon class="cls-3" points="1413.7 189.6 1412.2 187.7 1410.8 189.6 1403.5 199.1 1406.7 199.1 1412.2 191.8 1417.8 199.1 1421 199.1 1413.7 189.6"/>
    </g>
    <g>
      <g>
        <polygon class="cls-2" points="1310.2 254.2 1306.3 249 1304.9 249 1309.4 255.2 1310.2 254.2"/>
        <polygon class="cls-2" points="1311.9 254.2 1315.9 249 1317.2 249 1312.6 255.2 1311.9 254.2"/>
      </g>
      <polygon class="cls-3" points="1312.4 257.1 1311.1 255.4 1309.8 257.1 1303 265.9 1306 265.9 1311.1 259.1 1316.2 265.9 1319.2 265.9 1312.4 257.1"/>
    </g>
    <g>
      <g>
        <polygon class="cls-2" points="745.7 358.9 740.8 352.3 739 352.3 744.8 360.1 745.7 358.9"/>
        <polygon class="cls-2" points="747.8 358.9 752.8 352.3 754.6 352.3 748.8 360.2 747.8 358.9"/>
      </g>
      <polygon class="cls-3" points="748.5 362.6 746.8 360.4 745.2 362.6 736.7 373.6 740.4 373.6 746.8 365.1 753.2 373.6 757 373.6 748.5 362.6"/>
    </g>
    <g>
      <g>
        <polygon class="cls-2" points="668.6 384.5 663.6 378 661.9 378 667.6 385.8 668.6 384.5"/>
        <polygon class="cls-2" points="670.7 384.6 675.7 378 677.4 378 671.6 385.8 670.7 384.6"/>
      </g>
      <polygon class="cls-3" points="671.3 388.2 669.6 386 668 388.2 659.5 399.2 663.2 399.2 669.6 390.7 676.1 399.2 679.8 399.2 671.3 388.2"/>
    </g>
    <g>
      <g>
        <polygon class="cls-2" points="1150.8 254.3 1145.9 247.7 1144.2 247.7 1149.9 255.6 1150.8 254.3"/>
        <polygon class="cls-2" points="1152.9 254.3 1157.9 247.7 1159.7 247.7 1153.9 255.6 1152.9 254.3"/>
      </g>
      <polygon class="cls-3" points="1153.6 258 1151.9 255.8 1150.3 258 1141.8 269 1145.5 269 1151.9 260.5 1158.3 269 1162.1 269 1153.6 258"/>
    </g>
    <g>
      <g>
        <polygon class="cls-2" points="1032.7 358.5 1027.8 352 1026 352 1031.8 359.8 1032.7 358.5"/>
        <polygon class="cls-2" points="1034.8 358.6 1039.8 352 1041.5 352 1035.8 359.8 1034.8 358.6"/>
      </g>
      <polygon class="cls-3" points="1035.4 362.2 1033.8 360.1 1032.2 362.2 1023.7 373.2 1027.4 373.2 1033.8 364.7 1040.2 373.2 1043.9 373.2 1035.4 362.2"/>
    </g>
    <g>
      <g>
        <polygon class="cls-2" points="1240.5 290.6 1235.5 284.1 1233.8 284.1 1239.5 291.9 1240.5 290.6"/>
        <polygon class="cls-2" points="1242.6 290.7 1247.6 284.1 1249.3 284.1 1243.5 291.9 1242.6 290.7"/>
      </g>
      <polygon class="cls-3" points="1243.2 294.3 1241.5 292.2 1239.9 294.3 1231.4 305.3 1235.1 305.3 1241.5 296.8 1248 305.3 1251.7 305.3 1243.2 294.3"/>
    </g>
    <g>
      <g>
        <polygon class="cls-2" points="1082.2 337.8 1077.3 331.3 1075.5 331.3 1081.3 339.1 1082.2 337.8"/>
        <polygon class="cls-2" points="1084.3 337.9 1089.3 331.3 1091 331.3 1085.3 339.1 1084.3 337.9"/>
      </g>
      <polygon class="cls-3" points="1084.9 341.5 1083.3 339.4 1081.7 341.5 1073.2 352.5 1076.9 352.5 1083.3 344 1089.7 352.5 1093.4 352.5 1084.9 341.5"/>
    </g>
    <g>
      <g>
        <polygon class="cls-2" points="1271.9 251.5 1267 244.9 1265.3 244.9 1271 252.8 1271.9 251.5"/>
        <polygon class="cls-2" points="1274.1 251.5 1279 244.9 1280.8 244.9 1275 252.8 1274.1 251.5"/>
      </g>
      <polygon class="cls-3" points="1274.7 255.2 1273 253 1271.4 255.2 1262.9 266.2 1266.6 266.2 1273 257.7 1279.5 266.2 1283.2 266.2 1274.7 255.2"/>
    </g>
    <g>
      <g>
        <polygon class="cls-2" points="1389.9 201.7 1385 195.2 1383.3 195.2 1389 203 1389.9 201.7"/>
        <polygon class="cls-2" points="1392.1 201.8 1397 195.2 1398.8 195.2 1393 203 1392.1 201.8"/>
      </g>
      <polygon class="cls-3" points="1392.7 205.4 1391 203.2 1389.4 205.4 1380.9 216.4 1384.6 216.4 1391 207.9 1397.4 216.4 1401.2 216.4 1392.7 205.4"/>
    </g>
    <g>
      <g>
        <polygon class="cls-2" points="1165.7 225.9 1159.9 218.2 1157.8 218.2 1164.6 227.4 1165.7 225.9"/>
        <polygon class="cls-2" points="1168.2 226 1174.1 218.2 1176.1 218.2 1169.3 227.5 1168.2 226"/>
      </g>
      <polygon class="cls-3" points="1168.9 230.3 1167 227.7 1165.1 230.3 1155 243.3 1159.4 243.3 1167 233.2 1174.6 243.3 1179 243.3 1168.9 230.3"/>
    </g>
    <g>
      <g>
        <polygon class="cls-2" points="315.4 421.8 310.5 415.2 308.8 415.2 314.5 423.1 315.4 421.8"/>
        <polygon class="cls-2" points="317.5 421.8 322.5 415.2 324.3 415.2 318.5 423.1 317.5 421.8"/>
      </g>
      <polygon class="cls-3" points="318.2 425.5 316.5 423.3 314.9 425.5 306.4 436.5 310.1 436.5 316.5 428 322.9 436.5 326.7 436.5 318.2 425.5"/>
    </g>
    <g>
      <g>
        <polygon class="cls-2" points="55.8 559.1 49.1 550.2 46.7 550.2 54.5 560.8 55.8 559.1"/>
        <polygon class="cls-2" points="58.6 559.1 65.3 550.2 67.7 550.2 59.9 560.8 58.6 559.1"/>
      </g>
      <polygon class="cls-3" points="59.5 564.1 57.2 561.2 55 564.1 43.5 579 48.5 579 57.2 567.5 65.9 579 70.9 579 59.5 564.1"/>
    </g>
    <g>
      <g>
        <polygon class="cls-2" points="169.3 519.3 162.6 510.4 160.2 510.4 168 520.9 169.3 519.3"/>
        <polygon class="cls-2" points="172.1 519.3 178.8 510.4 181.2 510.4 173.4 521 172.1 519.3"/>
      </g>
      <polygon class="cls-3" points="173 524.2 170.7 521.3 168.5 524.2 157 539.1 162 539.1 170.7 527.6 179.4 539.1 184.4 539.1 173 524.2"/>
    </g>
    <g>
      <g>
        <polygon class="cls-2" points="289.9 442 283.3 433.1 280.9 433.1 288.7 443.7 289.9 442"/>
        <polygon class="cls-2" points="292.8 442 299.5 433.1 301.9 433.1 294.1 443.7 292.8 442"/>
      </g>
      <polygon class="cls-3" points="293.6 447 291.4 444 289.2 447 277.7 461.9 282.7 461.9 291.4 450.4 300.1 461.9 305.1 461.9 293.6 447"/>
    </g>
    <g>
      <g>
        <polygon class="cls-2" points="840.1 376.4 833.4 367.5 831 367.5 838.8 378.1 840.1 376.4"/>
        <polygon class="cls-2" points="842.9 376.4 849.7 367.5 852 367.5 844.2 378.1 842.9 376.4"/>
      </g>
      <polygon class="cls-3" points="843.8 381.4 841.5 378.4 839.3 381.4 827.8 396.2 832.9 396.2 841.5 384.8 850.2 396.2 855.2 396.2 843.8 381.4"/>
    </g>
    <g>
      <g>
        <polygon class="cls-2" points="459.5 451.4 451.8 441.2 449.1 441.2 458 453.4 459.5 451.4"/>
        <polygon class="cls-2" points="462.8 451.5 470.5 441.2 473.2 441.2 464.2 453.4 462.8 451.5"/>
      </g>
      <polygon class="cls-3" points="463.7 457.2 461.1 453.8 458.6 457.2 445.4 474.3 451.2 474.3 461.1 461.1 471.2 474.3 477 474.3 463.7 457.2"/>
    </g>
    <g>
      <g>
        <polygon class="cls-2" points="121.8 564.6 115.1 555.7 112.7 555.7 120.5 566.3 121.8 564.6"/>
        <polygon class="cls-2" points="124.6 564.6 131.3 555.7 133.7 555.7 125.9 566.3 124.6 564.6"/>
      </g>
      <polygon class="cls-3" points="125.5 569.6 123.2 566.6 121 569.6 109.5 584.4 114.5 584.4 123.2 572.9 131.9 584.4 136.9 584.4 125.5 569.6"/>
    </g>
    <g>
      <g>
        <polygon class="cls-2" points="9 590.3 6 586.4 5 586.4 8.4 591.1 9 590.3"/>
        <polygon class="cls-2" points="10.3 590.4 13.3 586.4 14.3 586.4 10.9 591.1 10.3 590.4"/>
      </g>
      <polygon class="cls-3" points="10.7 592.6 9.7 591.3 8.7 592.6 3.6 599.2 5.8 599.2 9.7 594.1 13.5 599.2 15.8 599.2 10.7 592.6"/>
    </g>
    <g>
      <g>
        <polygon class="cls-2" points="213.4 525.3 210.4 521.3 209.3 521.3 212.8 526 213.4 525.3"/>
        <polygon class="cls-2" points="214.7 525.3 217.7 521.3 218.7 521.3 215.2 526 214.7 525.3"/>
      </g>
      <polygon class="cls-3" points="215 527.5 214 526.2 213 527.5 207.9 534.1 210.2 534.1 214 529 217.9 534.1 220.2 534.1 215 527.5"/>
    </g>
    <g>
      <g>
        <polygon class="cls-2" points="414.5 442.4 411.5 438.4 410.5 438.4 413.9 443.1 414.5 442.4"/>
        <polygon class="cls-2" points="415.8 442.4 418.8 438.4 419.8 438.4 416.3 443.2 415.8 442.4"/>
      </g>
      <polygon class="cls-3" points="416.1 444.6 415.1 443.3 414.2 444.6 409 451.3 411.3 451.3 415.1 446.1 419 451.3 421.3 451.3 416.1 444.6"/>
    </g>
    <g>
      <g>
        <polygon class="cls-2" points="550.8 534.1 547.8 530.1 546.8 530.1 550.2 534.9 550.8 534.1"/>
        <polygon class="cls-2" points="552.1 534.1 555.1 530.1 556.1 530.1 552.6 534.9 552.1 534.1"/>
      </g>
      <polygon class="cls-3" points="552.4 536.3 551.4 535 550.4 536.3 545.3 543 547.6 543 551.4 537.8 555.3 543 557.6 543 552.4 536.3"/>
    </g>
    <g>
      <g>
        <polygon class="cls-2" points="656.2 410.7 653.2 406.7 652.2 406.7 655.6 411.4 656.2 410.7"/>
        <polygon class="cls-2" points="657.5 410.7 660.5 406.7 661.6 406.7 658.1 411.5 657.5 410.7"/>
      </g>
      <polygon class="cls-3" points="657.9 412.9 656.9 411.6 655.9 412.9 650.8 419.6 653 419.6 656.9 414.4 660.8 419.6 663 419.6 657.9 412.9"/>
    </g>
    <g>
      <g>
        <polygon class="cls-2" points="433.9 426.3 429.5 420.6 428 420.6 433 427.4 433.9 426.3"/>
        <polygon class="cls-2" points="435.7 426.4 440.1 420.6 441.6 420.6 436.6 427.5 435.7 426.4"/>
      </g>
      <polygon class="cls-3" points="436.3 429.6 434.8 427.7 433.4 429.6 425.9 439.2 429.2 439.2 434.8 431.8 440.5 439.2 443.8 439.2 436.3 429.6"/>
    </g>
    <g>
      <g>
        <polygon class="cls-2" points="522.1 498.3 517.7 492.5 516.2 492.5 521.2 499.4 522.1 498.3"/>
        <polygon class="cls-2" points="523.9 498.3 528.3 492.5 529.8 492.5 524.7 499.4 523.9 498.3"/>
      </g>
      <polygon class="cls-3" points="524.5 501.6 523 499.6 521.6 501.6 514.1 511.2 517.4 511.2 523 503.8 528.7 511.2 531.9 511.2 524.5 501.6"/>
    </g>
    <g>
      <g>
        <polygon class="cls-2" points="709 331.6 704.7 325.8 703.1 325.8 708.2 332.7 709 331.6"/>
        <polygon class="cls-2" points="710.9 331.6 715.2 325.8 716.8 325.8 711.7 332.7 710.9 331.6"/>
      </g>
      <polygon class="cls-3" points="711.4 334.8 709.9 332.9 708.5 334.8 701 344.5 704.3 344.5 709.9 337 715.6 344.5 718.9 344.5 711.4 334.8"/>
    </g>
    <g>
      <g>
        <polygon class="cls-2" points="100.8 592.8 97.8 588.8 96.7 588.8 100.2 593.5 100.8 592.8"/>
        <polygon class="cls-2" points="102 592.8 105 588.8 106.1 588.8 102.6 593.6 102 592.8"/>
      </g>
      <polygon class="cls-3" points="102.4 595 101.4 593.7 100.4 595 95.3 601.6 97.5 601.6 101.4 596.5 105.3 601.6 107.5 601.6 102.4 595"/>
    </g>
  </g>
</svg>
