<svg xmlns="http://www.w3.org/2000/svg" xmlns:xlink="http://www.w3.org/1999/xlink" width="60" height="50.001" viewBox="0 0 60 50.001">
  <defs>
    <linearGradient id="linear-gradient" x1="0.5" y1="0.015" x2="0.5" y2="0.985" gradientUnits="objectBoundingBox">
      <stop offset="0" stop-color="#00b07b"/>
      <stop offset="1" stop-color="#06495f"/>
    </linearGradient>
  </defs>
  <g id="Vektör_Akıllı_Nesne" data-name="Vektör Akıllı Nesne" transform="translate(-487 -599.999)">
    <g id="Vektör_Akıllı_Nesne-2" data-name="Vektör Akıllı Nesne" transform="translate(397.833 213.964)">
      <g id="Element">
        <path id="Path_21" data-name="Path 21" d="M148.163,403.135a4.569,4.569,0,0,0-3.578-1.71H130.313l9.318-13.036a1.482,1.482,0,0,0,.11-1.546,1.5,1.5,0,0,0-1.333-.806h-8.97a1.5,1.5,0,0,0-1.223.628l-9.048,12.657-9.048-12.657a1.5,1.5,0,0,0-1.223-.628h-8.97a1.5,1.5,0,0,0-1.333.806,1.482,1.482,0,0,0,.11,1.546l9.318,13.036H93.749a4.569,4.569,0,0,0-3.578,1.71,4.506,4.506,0,0,0-.89,3.844L94.9,431.692a5.57,5.57,0,0,0,5.47,4.344h37.6a5.57,5.57,0,0,0,5.47-4.344l5.618-24.713A4.506,4.506,0,0,0,148.163,403.135Zm-23.688,29.921,1.791-13.345h7.2l-2.687,13.345Zm-7.59,0-1.791-13.345h8.145l-1.791,13.345Zm-9.327,0-2.687-13.345h7.2l1.791,13.345Zm17.736-28.65-1.655,12.325h-8.945l-1.654-12.325Zm-15.28,0,1.654,12.325h-7.4l-2.481-12.325Zm16.652,12.325,1.654-12.325h8.223l-2.481,12.325Zm3.546-27.714h5.29l-8.789,12.409h-5.371Zm-27.381,0h5.29l8.87,12.409H111.62ZM92.514,405a1.578,1.578,0,0,1,1.235-.59H98.73l2.481,12.325H94.573l-2.366-10.408A1.556,1.556,0,0,1,92.514,405Zm5.31,26.04L95.25,419.711h6.562l2.687,13.345h-4.13A2.591,2.591,0,0,1,97.824,431.036Zm42.685,0a2.591,2.591,0,0,1-2.544,2.02h-4.13l2.687-13.345h6.562Zm5.617-24.713-2.375,10.447a1.5,1.5,0,0,0-.337-.039h-6.293l2.481-12.325h4.981a1.578,1.578,0,0,1,1.235.59A1.555,1.555,0,0,1,146.126,406.323Z" fill="#1e1e1e"/>
      </g>
    </g>
    <path id="Gradient_Overlay" data-name="Gradient Overlay" d="M498.2,650a5.571,5.571,0,0,1-5.47-4.344l-5.618-24.713A4.507,4.507,0,0,1,488,617.1a4.567,4.567,0,0,1,3.578-1.71h14.272l-9.319-13.036a1.483,1.483,0,0,1-.11-1.547,1.5,1.5,0,0,1,1.333-.806h8.969a1.5,1.5,0,0,1,1.223.628L517,613.284l9.049-12.657A1.5,1.5,0,0,1,527.27,600h8.97a1.5,1.5,0,0,1,1.333.806,1.483,1.483,0,0,1-.11,1.547l-9.318,13.036h14.271A4.567,4.567,0,0,1,546,617.1a4.5,4.5,0,0,1,.89,3.844l-5.617,24.713A5.571,5.571,0,0,1,535.8,650Zm33.467-2.981H535.8a2.59,2.59,0,0,0,2.544-2.02l2.574-11.326h-6.561Zm-9.361,0h6.3l2.687-13.345h-7.2Zm-7.59,0h4.564l1.79-13.345h-8.145Zm-9.327,0h6.3L509.9,633.674h-7.2ZM495.658,645a2.589,2.589,0,0,0,2.543,2.02h4.13l-2.687-13.345h-6.562Zm39.3-14.305h6.294a1.478,1.478,0,0,1,.337.04l2.375-10.447a1.558,1.558,0,0,0-.308-1.328,1.578,1.578,0,0,0-1.235-.589h-4.982Zm-10.455,0h7.4l2.481-12.325h-8.223Zm-11.972,0h8.945l1.654-12.325H510.873Zm-10.423,0h7.4l-1.654-12.325h-8.223Zm-11.757-11.735a1.555,1.555,0,0,0-.308,1.328l2.366,10.408h6.638l-2.481-12.325h-4.981A1.578,1.578,0,0,0,490.348,618.959Zm28.828-3.57h5.371l8.789-12.408h-5.29Zm-9.723,0h5.371l-8.87-12.408h-5.291Z" fill="url(#linear-gradient)"/>
  </g>
</svg>
