<svg xmlns="http://www.w3.org/2000/svg" xmlns:xlink="http://www.w3.org/1999/xlink" width="60" height="60" viewBox="0 0 60 60">
  <defs>
    <linearGradient id="linear-gradient" x1="0.5" y1="0.015" x2="0.5" y2="0.985" gradientUnits="objectBoundingBox">
      <stop offset="0" stop-color="#00b07b"/>
      <stop offset="1" stop-color="#06495f"/>
    </linearGradient>
  </defs>
  <g id="Vektör_Akıllı_Nesne" data-name="Vektör Akıllı Nesne" transform="translate(-695 -595)">
    <g id="Vektör_Akıllı_Nesne-2" data-name="Vektör Akıllı Nesne" transform="translate(605.833 497.083)">
      <g id="Element">
        <path id="Path_7" data-name="Path 7" d="M148.953,122.324a1.5,1.5,0,0,0-.922-.683l-7.974-1.992a1.5,1.5,0,1,0-.727,2.91l4.465,1.115-7.727,4.36V103.417a1.5,1.5,0,0,0-3,0v26.31l-4,2.257V116.217a1.5,1.5,0,1,0-3,0v17.46l-2.457,1.387-1.543-1.473V108.417a1.5,1.5,0,1,0-3,0v22.312l-4-3.819c0-.014,0-.027,0-.041V99.417a1.5,1.5,0,1,0-3,0v24.632l-1.026-.98a1.5,1.5,0,0,0-1.862-.167l-1.112.734V107.417a1.5,1.5,0,1,0-3,0v18.2l-4,2.64V116.217a1.5,1.5,0,1,0-3,0v14.019l-8.226,5.429a1.5,1.5,0,0,0,1.652,2.5l15.912-10.5h0l2.428-1.6L122.343,138a1.5,1.5,0,0,0,1.773.221l21.216-11.973-1.113,4.455a1.5,1.5,0,1,0,2.91.727l1.993-7.974A1.5,1.5,0,0,0,148.953,122.324Z" fill="#1e1e1e"/>
        <path id="Path_8" data-name="Path 8" d="M99.567,136.57a1.5,1.5,0,0,0-1.5,1.5v18.348a1.5,1.5,0,0,0,3,0V138.07A1.5,1.5,0,0,0,99.567,136.57Z" fill="#1e1e1e"/>
        <path id="Path_9" data-name="Path 9" d="M106.567,131.923a1.5,1.5,0,0,0-1.5,1.5v22.994a1.5,1.5,0,1,0,3,0V133.423A1.5,1.5,0,0,0,106.567,131.923Z" fill="#1e1e1e"/>
        <path id="Path_10" data-name="Path 10" d="M113.567,134.369a1.5,1.5,0,0,0-1.5,1.5v20.548a1.5,1.5,0,0,0,3,0V135.869A1.5,1.5,0,0,0,113.567,134.369Z" fill="#1e1e1e"/>
        <path id="Path_11" data-name="Path 11" d="M120.567,139.734a1.5,1.5,0,0,0-1.5,1.5v15.183a1.5,1.5,0,1,0,3,0V141.234A1.5,1.5,0,0,0,120.567,139.734Z" fill="#1e1e1e"/>
        <path id="Path_12" data-name="Path 12" d="M127.567,140.054a1.5,1.5,0,0,0-1.5,1.5v14.863a1.5,1.5,0,0,0,3,0V141.554A1.5,1.5,0,0,0,127.567,140.054Z" fill="#1e1e1e"/>
        <path id="Path_13" data-name="Path 13" d="M134.567,135.87a1.5,1.5,0,0,0-1.5,1.5v19.048a1.5,1.5,0,0,0,3,0V137.37A1.5,1.5,0,0,0,134.567,135.87Z" fill="#1e1e1e"/>
      </g>
    </g>
    <path id="Gradient_Overlay" data-name="Gradient Overlay" d="M738.9,653.5V634.452a1.5,1.5,0,1,1,3,0V653.5a1.5,1.5,0,0,1-3,0Zm-7,0V638.636a1.5,1.5,0,1,1,3,0V653.5a1.5,1.5,0,0,1-3,0Zm-7,0V638.316a1.5,1.5,0,0,1,3,0V653.5a1.5,1.5,0,0,1-3,0Zm-7,0V632.951a1.5,1.5,0,0,1,3,0V653.5a1.5,1.5,0,0,1-3,0Zm-7,0V630.506a1.5,1.5,0,1,1,3,0V653.5a1.5,1.5,0,0,1-3,0Zm-7,0V635.153a1.5,1.5,0,1,1,3,0V653.5a1.5,1.5,0,0,1-3,0Zm24.277-18.415-12.509-11.938-2.429,1.6h0l-15.911,10.5a1.5,1.5,0,0,1-1.652-2.5l8.226-5.43V613.3a1.5,1.5,0,1,1,3,0v12.039l4-2.64V604.5a1.5,1.5,0,0,1,3,0v16.22l1.111-.734a1.5,1.5,0,0,1,1.862.167l1.027.98V596.5a1.5,1.5,0,0,1,3,0v27.453c0,.013,0,.027,0,.04l4,3.82V605.5a1.5,1.5,0,0,1,3,0v25.175l1.543,1.472,2.457-1.386V613.3a1.5,1.5,0,1,1,3,0v15.767l4-2.256V600.5a1.5,1.5,0,1,1,3,0v24.618l7.727-4.36-4.465-1.116a1.5,1.5,0,1,1,.727-2.911l7.974,1.993a1.5,1.5,0,0,1,1.092,1.819l-1.993,7.974a1.5,1.5,0,1,1-2.91-.727l1.112-4.455-21.217,11.972a1.5,1.5,0,0,1-1.772-.221Z" fill="url(#linear-gradient)"/>
  </g>
</svg>
