<svg xmlns="http://www.w3.org/2000/svg" xmlns:xlink="http://www.w3.org/1999/xlink" width="58.999" height="60" viewBox="0 0 58.999 60">
  <defs>
    <linearGradient id="linear-gradient" x1="0.5" y1="0.015" x2="0.5" y2="0.985" gradientUnits="objectBoundingBox">
      <stop offset="0" stop-color="#00b07b"/>
      <stop offset="1" stop-color="#06495f"/>
    </linearGradient>
  </defs>
  <path id="Gradient_Overlay" data-name="Gradient Overlay" d="M924.471,655a1.5,1.5,0,0,1-1.5-1.5v-6a1.5,1.5,0,0,1,1.5-1.5h7.524V607.6L914.033,613.1v10.554h5.518a1.5,1.5,0,0,1,1.5,1.5v1a8.528,8.528,0,0,1-17.055,0v-1a1.5,1.5,0,0,1,1.5-1.5h5.518V612.029a1.5,1.5,0,0,1,1.013-1.417l19.55-6.04-6.055-7.1A1.5,1.5,0,0,1,926.678,595h13.645a1.5,1.5,0,0,1,1.147,2.471L937,602.707l16.977-5.154a1.511,1.511,0,0,1,1.364.2,1.5,1.5,0,0,1,.632,1.221v14.945H961.5a1.5,1.5,0,0,1,1.5,1.5v1a8.528,8.528,0,0,1-17.055,0v-1a1.5,1.5,0,0,1,1.5-1.5h5.518v-12.84l-17.962,5.493V646h7.524a1.5,1.5,0,0,1,1.5,1.5v6a1.5,1.5,0,0,1-1.5,1.5Zm1.5-3h15.049v-3H925.976Zm-13.448-20.347a5.519,5.519,0,0,0,5.5-5H907.033A5.518,5.518,0,0,0,912.528,631.652Zm41.945-9.736a5.519,5.519,0,0,0,5.5-5H948.977A5.518,5.518,0,0,0,954.473,621.916ZM933.5,602.184,937.068,598h-7.136ZM911.671,654.56l-5.922-5.9a1.5,1.5,0,0,1,2.129-2.121l3.352,3.342V639.042a1.5,1.5,0,0,1,3.01,0v10.836l3.353-3.342a1.5,1.5,0,0,1,2.129,2.121l-5.922,5.9a1.507,1.507,0,0,1-2.129,0Zm41.83-10.018-5.921-5.9a1.5,1.5,0,0,1,2.128-2.121l3.353,3.343V629.023a1.5,1.5,0,0,1,3.01,0V639.86l3.352-3.343a1.5,1.5,0,0,1,2.129,2.121l-5.921,5.9a1.51,1.51,0,0,1-2.129,0Z" transform="translate(-904.001 -595)" fill="url(#linear-gradient)"/>
</svg>
