<svg xmlns="http://www.w3.org/2000/svg" width="211.998" height="51" viewBox="0 0 211.998 51">
  <g id="Çokgen_1" data-name="Çokgen 1" transform="translate(-942.002 -424)" fill="#fff">
    <path d="M 1151.000122070313 474.5002136230469 L 960.0003051757813 474.5002136230469 C 958.6214599609375 474.5002136230469 957.4996948242188 473.3784484863281 957.4996948242188 471.9996032714844 L 957.4996948242188 458.4058532714844 L 957.4996948242188 458.0721740722656 L 957.1915283203125 457.9441223144531 C 954.540283203125 456.8424682617188 950.7338256835938 455.1661071777344 947.6563110351563 453.4359130859375 C 946.0277099609375 452.520263671875 944.759521484375 451.677490234375 943.886962890625 450.9308776855469 C 942.7423706054688 449.9515991210938 942.5021362304688 449.3403930664063 942.5021362304688 449.0001220703125 C 942.5021362304688 448.6598205566406 942.7423706054688 448.0486145019531 943.886962890625 447.0692443847656 C 944.7595825195313 446.3226013183594 946.0277099609375 445.479736328125 947.6563720703125 444.5640563964844 C 950.73388671875 442.8336791992188 954.5403442382813 441.1571044921875 957.1915283203125 440.0553588867188 L 957.4996948242188 439.9273376464844 L 957.4996948242188 439.5936279296875 L 957.4996948242188 426.9996032714844 C 957.4996948242188 425.6212768554688 958.6214599609375 424.4999084472656 960.0003051757813 424.4999084472656 L 1151.000122070313 424.4999084472656 C 1152.378540039063 424.4999084472656 1153.499877929688 425.6212768554688 1153.499877929688 426.9996032714844 L 1153.499877929688 471.9996032714844 C 1153.499877929688 473.3784484863281 1152.378540039063 474.5002136230469 1151.000122070313 474.5002136230469 Z" stroke="none"/>
    <path d="M 1151.000122070313 474.0002136230469 C 1152.102783203125 474.0002136230469 1152.999877929688 473.1027526855469 1152.999877929688 471.9996032714844 L 1152.999877929688 426.9996032714844 C 1152.999877929688 425.89697265625 1152.102783203125 424.9999084472656 1151.000122070313 424.9999084472656 L 960.0003051757813 424.9999084472656 C 958.8971557617188 424.9999084472656 957.9996948242188 425.89697265625 957.9996948242188 426.9996032714844 L 957.9996948242188 439.5935974121094 L 957.9996948242188 440.2609558105469 L 957.3834228515625 440.5170593261719 C 954.74462890625 441.6136169433594 950.9575805664063 443.2815246582031 947.9013671875 444.9999084472656 C 943.1396484375 447.67724609375 943.0021362304688 448.8726196289063 943.0021362304688 449.0001220703125 C 943.0021362304688 449.1276245117188 943.1396484375 450.3229064941406 947.9013671875 453 C 950.9574584960938 454.7182006835938 954.7445678710938 456.3859252929688 957.3833618164063 457.482421875 L 957.9996948242188 457.738525390625 L 957.9996948242188 458.4058532714844 L 957.9996948242188 471.9996032714844 C 957.9996948242188 473.1027526855469 958.8971557617188 474.0002136230469 960.0003051757813 474.0002136230469 L 1151.000122070313 474.0002136230469 M 1151.000122070313 475.0002136230469 L 960.0003051757813 475.0002136230469 C 958.3434448242188 475.0002136230469 956.9996948242188 473.6565246582031 956.9996948242188 471.9996032714844 L 956.9996948242188 458.4058532714844 C 951.4273681640625 456.0904541015625 942.0021362304688 451.7654724121094 942.0021362304688 449.0001220703125 C 942.0021362304688 446.2347717285156 951.4273681640625 441.9092712402344 956.9996948242188 439.5935974121094 L 956.9996948242188 426.9996032714844 C 956.9996948242188 425.3427124023438 958.3434448242188 423.9999084472656 960.0003051757813 423.9999084472656 L 1151.000122070313 423.9999084472656 C 1152.656982421875 423.9999084472656 1153.999877929688 425.3427124023438 1153.999877929688 426.9996032714844 L 1153.999877929688 471.9996032714844 C 1153.999877929688 473.6565246582031 1152.656982421875 475.0002136230469 1151.000122070313 475.0002136230469 Z" stroke="none" fill="#df0036"/>
  </g>
</svg>
