<svg id="Capa_1" data-name="Capa 1" xmlns="http://www.w3.org/2000/svg" viewBox="0 0 512 512"><defs><style>.cls-1{fill:#f7f7f7;}</style></defs><title>support</title><path class="cls-1" d="M140.8,211.84A43.25,43.25,0,0,0,97.6,255V372.16a43.2,43.2,0,0,0,86.4,0V255A43.25,43.25,0,0,0,140.8,211.84Z"/><path class="cls-1" d="M68.8,255A71.44,71.44,0,0,1,70,242.91a43.11,43.11,0,0,0-30,40.93v59.52a43.11,43.11,0,0,0,30,40.93,71.44,71.44,0,0,1-1.23-12.13Z"/><path class="cls-1" d="M371.2,211.84A43.25,43.25,0,0,0,328,255V372.16a43.25,43.25,0,0,0,43.2,43.2,42.61,42.61,0,0,0,12.38-2,43.11,43.11,0,0,1-41.18,30.82H296.55a43.2,43.2,0,1,0,0,28.8H342.4a72.08,72.08,0,0,0,72-72V255A43.25,43.25,0,0,0,371.2,211.84Z"/><path class="cls-1" d="M442,242.91A71.44,71.44,0,0,1,443.2,255V372.16A71.44,71.44,0,0,1,442,384.29a43.11,43.11,0,0,0,30-40.93V283.84A43.11,43.11,0,0,0,442,242.91Z"/><path class="cls-1" d="M256,10.24c-119.11,0-216,96.89-216,216v.37a71.3,71.3,0,0,1,29.46-13.38C76.19,116.08,157.17,39,256,39s179.81,77,186.54,174.19A71.33,71.33,0,0,1,472,226.61v-.37C472,107.13,375.11,10.24,256,10.24Z"/></svg>