<svg id="katman_1" data-name="katman 1" xmlns="http://www.w3.org/2000/svg" viewBox="0 0 24 24"><defs><style>.cls-1{fill:#00b17c;}.cls-2{fill:#009b63;}.cls-3{fill:#fff;}</style></defs><title>tfx-iletisim-1</title><path class="cls-1" d="M23.8,12C23.8,3,20.8.2,12,.2S.3,3,.3,12s3,11.8,11.8,11.8S23.8,21,23.8,12Z"/><rect class="cls-1" x="0.1" y="0.1" width="23.8" height="23.8"/><polygon class="cls-2" points="23.9 10.3 18 4.8 17 7.4 15.8 7.4 13.5 5.8 9.8 5 8.1 4.8 6 4.8 5.8 5.4 6 8.4 5 6.8 4.3 7.5 4.1 15 3.8 16 4.7 17.1 3.8 17.1 3.8 17.7 10.3 23.9 23.9 23.9 23.9 10.3"/><path class="cls-3" d="M12.4,8.6a.55.55,0,1,1-.6-.5h0C12.1,8,12.3,8.2,12.4,8.6Z"/><path class="cls-3" d="M18.6,16.5v1.1h.6a.65.65,0,0,0,.6-.6v-.6l-1.2.1Z"/><path class="cls-3" d="M11.6,17.7a.78.78,0,0,1,.4-.4h0a1.1,1.1,0,0,1,.8,0l.8.5V16.6H3.8v.6a.65.65,0,0,0,.6.6Z"/><path class="cls-3" d="M13.5,19.8l-1.6-1.2a1.38,1.38,0,0,1-.3-.4h-1l-.7,2.3h-1v.6h5.7v-.6h-.9Z"/><path class="cls-3" d="M17.8,16.2c-.1,0-.2,0-.2.1s-.1.1-.1.2a.3.3,0,0,1-.6,0,.3.3,0,0,0-.6,0,.3.3,0,0,1-.6,0,.3.3,0,0,0-.6,0,.3.3,0,0,1-.6,0V14c0-.1-.1-.3-.2-.3s-.3.1-.3.2v4.4a.32.32,0,0,1-.3.3h-.1l-1.2-.7h-.3c-.1,0-.1.1-.1.2s0,.1.1.2l1.7,1.2H18V16.6A.52.52,0,0,0,17.8,16.2Z"/><path class="cls-3" d="M10.9,9.3a1.21,1.21,0,0,1,0-1.6,1.21,1.21,0,0,1,1.6,0v.1a1.09,1.09,0,0,1,0,1.5,1.78,1.78,0,0,1,.8.7,2.07,2.07,0,0,0-.5-2.8h0a2,2,0,0,0-2.8.5,1.8,1.8,0,0,0,0,2.2Z"/><path class="cls-3" d="M11.8,9.7a1.39,1.39,0,0,0-1.2.7,1.82,1.82,0,0,0,2.4,0A1.39,1.39,0,0,0,11.8,9.7Z"/><path class="cls-3" d="M19.2,6.8h-.6v8.5H18V5.1a.65.65,0,0,0-.6-.6H6.1a.65.65,0,0,0-.6.6h0V15.4H4.9V6.8H4.4a.65.65,0,0,0-.6.6h0V16h9.7V14a1,1,0,0,1,.8-.9h.1a1,1,0,0,1,.7.9v1.8a.78.78,0,0,1,.8.2A.78.78,0,0,1,17,16h0a.84.84,0,0,1,.7-.2.55.55,0,0,1,.5.3h1.4V7.4C19.7,7.1,19.5,6.9,19.2,6.8Zm-7.4-.5A2.6,2.6,0,1,1,9.2,8.9a2.52,2.52,0,0,1,2.6-2.6ZM8.4,5.1H9v.6H8.4Zm-1.2,0h.6v.6H7.2Zm-.6.6H6.1V5.1h.6Zm6.6,8h-.6v-.6h.6Zm3,.7c-.1.1-.2.2-.3.2l-.3-.5c.1,0,.1-.1.2-.1a.91.91,0,0,0,0-1.2h0a.86.86,0,0,0-.6-.3H8.4a.9.9,0,1,0,0,1.8H13v.6H8.4A1.37,1.37,0,0,1,7,13.5,1.45,1.45,0,0,1,8.4,12h6.8a1.37,1.37,0,0,1,1.4,1.4h0a1.28,1.28,0,0,1-.4,1Zm-4.1-1.3v.6h-.6v-.6Zm-1.2,0v.6h-.6v-.6Zm-1.1,0v.6H9.2v-.6Zm-1.2,0v.6H8.1v-.6Z"/></svg>