<svg id="katman_1" data-name="katman 1" xmlns="http://www.w3.org/2000/svg" viewBox="0 0 24 24"><defs><style>.cls-1{fill:#00b17c;}.cls-2,.cls-6{fill:#009b63;}.cls-3{fill:#ccc;}.cls-4{fill:#fff;}.cls-5{fill:#e0e0e0;}.cls-6{stroke:#009b63;stroke-miterlimit:10;stroke-width:0.1px;}</style></defs><title>tfx-iletisim-2</title><rect class="cls-1" x="0.1" y="0.1" width="23.8" height="23.8"/><polygon class="cls-2" points="23.9 15.7 15.8 6 14.8 6.9 13.8 11 15.5 12.5 15.3 13.1 17 13.7 17.2 13.9 16.8 14 11.6 15.4 6.6 15.5 3.4 17.1 9.7 23.9 23.9 23.9 23.9 15.7"/><polygon class="cls-2" points="12.4 4.4 13.9 6.2 11.3 6.6 10.8 5.3 12.4 4.4"/><path class="cls-2" d="M10.5,3.3l.9.8-.6.5-.7-.5Z"/><path class="cls-3" d="M10.8,4a7.22,7.22,0,0,1-.9,2c-.1.1-.2.2-.4.1L9.4,6a5,5,0,0,1-.8-2,1.1,1.1,0,1,1,2.2,0Z"/><path class="cls-3" d="M12.1,5.6a7,7,0,0,1-2,.8c-.1,0-.3,0-.3-.2V6.1a5,5,0,0,1,.8-2,1.1,1.1,0,0,1,1.5.3A.91.91,0,0,1,12.1,5.6Z"/><path class="cls-3" d="M7.2,5.6a7,7,0,0,0,2,.8c.1,0,.3,0,.3-.2V6.1a11.92,11.92,0,0,0-.8-2A1.08,1.08,0,0,0,6.9,5.3Q6.9,5.45,7.2,5.6Z"/><path class="cls-4" d="M15.5,14.4H3.8a.43.43,0,0,1-.4-.4h0V10.9l.2-.9-.2-.8V6.1a.43.43,0,0,1,.4-.4h5l.9.6.9-.6h5a.43.43,0,0,1,.4.4V9.2l-.2.5.2.4V14a.66.66,0,0,1-.5.4Z"/><path class="cls-3" d="M15.9,9.2v1.7H3.4V9.2Z"/><path class="cls-3" d="M10.5,14.4H8.8V5.8h1.7Z"/><circle class="cls-5" cx="7.6" cy="14.1" r="4.6"/><path class="cls-4" d="M7.6,19.2a5.1,5.1,0,1,1,5.1-5.1,5.12,5.12,0,0,1-5.1,5.1Zm0-9.1a4,4,0,1,0,4,4,4,4,0,0,0-4-4Z"/><path class="cls-2" d="M7.5,16.3A2.66,2.66,0,0,1,6.3,16a.52.52,0,0,1-.2-.4.52.52,0,0,1,.4-.2.1.1,0,0,1,.1.1,1,1,0,0,0,.9.2.77.77,0,0,0,.8-.7.66.66,0,0,0-.5-.8,2.73,2.73,0,0,1-1.2-.6.91.91,0,0,1-.3-1,1.22,1.22,0,0,1,.8-.9,1.43,1.43,0,0,1,1.5.3.3.3,0,0,1,0,.4.19.19,0,0,1-.3,0,1,1,0,0,0-.9-.1.66.66,0,0,0-.4.5c0,.2,0,.3.1.4a3.7,3.7,0,0,0,1.1.5,1.3,1.3,0,0,1,.9,1.4,1.81,1.81,0,0,1-1.6,1.2Z"/><path class="cls-2" d="M7.5,16.8a.27.27,0,0,1-.3-.3h0V11.3c0-.2.1-.3.2-.3s.3.1.3.2v5.3C7.8,16.7,7.7,16.8,7.5,16.8Z"/><path class="cls-4" d="M21.5,13.7,14.2,21c-.1.1-.4.2-.5,0l-.1-.1-1-2.8a.22.22,0,0,0-.2-.2l-2.8-1a.37.37,0,0,1-.2-.5.1.1,0,0,1,.1-.1L16.8,9c.1-.1.4-.2.5,0l.1.1,1,2.8a.22.22,0,0,0,.2.2l2.8,1a.37.37,0,0,1,.2.5c-.1,0-.1,0-.1.1Z"/><path class="cls-2" d="M13.7,18.3c0-.4.1-.7.1-.9v-.7c0-.2-.1-.3-.2-.5s-.2-.2-.3-.2a.37.37,0,0,0-.3.1c-.1.1-.2.2-.1.4a.76.76,0,0,0,.2.4l-.4.4a1.14,1.14,0,0,1-.3-.8.75.75,0,0,1,.4-.7,2,2,0,0,1,.8-.4.91.91,0,0,1,.7.3.86.86,0,0,1,.3.6,1.7,1.7,0,0,1,.1.7,3.44,3.44,0,0,1-.1.9l.9-.9.4.4L14,18.9l-.3-.3Z"/><path class="cls-2" d="M14,14.9a1.16,1.16,0,0,1,1.1-1.3h.2a1.83,1.83,0,0,1,1,.7,4.13,4.13,0,0,1,.7,1.1,1.16,1.16,0,0,1-1.1,1.3h-.2a2.59,2.59,0,0,1-1.1-.7A3,3,0,0,1,14,14.9Zm1.5-.6c-.1-.1-.2-.1-.4-.1a.47.47,0,0,0-.5.5c0,.1.1.3.1.4a.78.78,0,0,0,.4.4l.4.4c.1.1.2.1.4.2a.47.47,0,0,0,.5-.5c0-.1-.1-.3-.1-.4a.78.78,0,0,0-.4-.4.7.7,0,0,0-.4-.5Z"/><path class="cls-6" d="M18.4,14.5a1.61,1.61,0,0,1-.7.4c-.1,0-.2,0-.2-.2s0-.2.1-.2h0a.55.55,0,0,0,.5-.3.62.62,0,0,0,.1-.7.38.38,0,0,0-.6-.1l-.9.3a.7.7,0,0,1-.6-1.1,1.56,1.56,0,0,1,.8-.6.2.2,0,1,1,0,.4.66.66,0,0,0-.5.4.3.3,0,0,0,0,.4c.1.1.2.2.3.2a2.61,2.61,0,0,0,.8-.3.83.83,0,0,1,1.1.3c.2.2.1.7-.2,1.1Z"/><path class="cls-6" d="M18.7,14.8a.19.19,0,0,1-.3,0h0l-2.5-2.5a.21.21,0,0,1,.3-.3l2.5,2.5a.19.19,0,0,1,0,.3Z"/></svg>