<svg id="Capa_1" data-name="Capa 1" xmlns="http://www.w3.org/2000/svg" viewBox="0 0 189.67 45.35"><defs><style>.cls-1{isolation:isolate;}.cls-2{fill:#7d7d7d;}.cls-3{fill:#989999;}.cls-4{fill:#fbbc05;}</style></defs><title>tfx-google-star</title><g class="cls-1"><path class="cls-2" d="M74,38.92V31.39h1.05l.11,1.08h0a5.2,5.2,0,0,1,1.08-.91,2.33,2.33,0,0,1,1.26-.36,2.16,2.16,0,0,1,1.35.38,2.2,2.2,0,0,1,.72,1.06,6.37,6.37,0,0,1,1.18-1,2.3,2.3,0,0,1,1.29-.39,2,2,0,0,1,1.73.74,3.6,3.6,0,0,1,.57,2.2v4.77H83.16v-4.6a2.69,2.69,0,0,0-.34-1.54,1.21,1.21,0,0,0-1.05-.47,2.79,2.79,0,0,0-1.89,1.16v5.45H78.61v-4.6a2.69,2.69,0,0,0-.34-1.54,1.23,1.23,0,0,0-1.07-.47,2.79,2.79,0,0,0-1.89,1.16v5.45Z"/><path class="cls-2" d="M89.08,39.1a2,2,0,0,1-1.76-.74,3.68,3.68,0,0,1-.55-2.2V31.39h1.29V36a2.74,2.74,0,0,0,.33,1.54,1.22,1.22,0,0,0,1.08.47,1.82,1.82,0,0,0,1-.3,4.87,4.87,0,0,0,1-1V31.39h1.27v7.53H91.71l-.11-1.18h0a5,5,0,0,1-1.11,1A2.49,2.49,0,0,1,89.08,39.1Zm-.74-9.28a.74.74,0,0,1-.56-.22.81.81,0,0,1,0-1.1.74.74,0,0,1,.56-.22.72.72,0,0,1,.54.22.81.81,0,0,1,0,1.1A.72.72,0,0,1,88.33,29.83Zm3,0a.72.72,0,0,1-.54-.22.81.81,0,0,1,0-1.1.72.72,0,0,1,.54-.22.74.74,0,0,1,.56.22.81.81,0,0,1,0,1.1A.74.74,0,0,1,91.31,29.83Z"/><path class="cls-2" d="M97.27,39.1a4,4,0,0,1-1.53-.29,4.77,4.77,0,0,1-1.27-.74l.63-.85a5.05,5.05,0,0,0,1,.65,2.75,2.75,0,0,0,1.2.25,1.6,1.6,0,0,0,1.11-.34,1.09,1.09,0,0,0,.37-.84.86.86,0,0,0-.16-.51,1.53,1.53,0,0,0-.39-.38,2.9,2.9,0,0,0-.55-.29l-.62-.25q-.4-.14-.81-.32a3.15,3.15,0,0,1-.72-.43,2.18,2.18,0,0,1-.52-.6,1.58,1.58,0,0,1-.2-.82A2,2,0,0,1,95,32.5a2,2,0,0,1,.51-.68,2.43,2.43,0,0,1,.81-.45,3.62,3.62,0,0,1,2.39.08,4.07,4.07,0,0,1,1,.6l-.6.81a4.05,4.05,0,0,0-.81-.48,2.22,2.22,0,0,0-.91-.19,1.45,1.45,0,0,0-1,.33,1,1,0,0,0-.33.76.76.76,0,0,0,.14.46,1.33,1.33,0,0,0,.37.34,3,3,0,0,0,.53.26l.63.24.81.33a3.13,3.13,0,0,1,.74.43,2.1,2.1,0,0,1,.53.63,1.82,1.82,0,0,1,.21.9,2.11,2.11,0,0,1-.18.87,2,2,0,0,1-.53.71,2.5,2.5,0,0,1-.87.49A3.65,3.65,0,0,1,97.27,39.1Zm-1.15,3.31L96,41.79a4.12,4.12,0,0,0,1.33-.25.56.56,0,0,0,.36-.52.54.54,0,0,0-.26-.48,2.48,2.48,0,0,0-.93-.26l.68-1.41H98l-.45,1a2,2,0,0,1,.84.37.9.9,0,0,1,.29.73A1.08,1.08,0,0,1,98,42,4.85,4.85,0,0,1,96.12,42.42Z"/><path class="cls-2" d="M103.85,39.1a2.45,2.45,0,0,1-1-.19,1.74,1.74,0,0,1-.67-.51,2,2,0,0,1-.36-.79,4.5,4.5,0,0,1-.11-1V32.43h-1.11v-1l1.18-.08.15-2.11H103v2.11h2v1h-2v4.18a1.92,1.92,0,0,0,.26,1.08,1,1,0,0,0,.91.38,1.67,1.67,0,0,0,.43-.06,3.27,3.27,0,0,0,.42-.14l.25,1a6.63,6.63,0,0,1-.67.19A3.16,3.16,0,0,1,103.85,39.1Z"/><path class="cls-2" d="M109.55,39.1a3.68,3.68,0,0,1-1.42-.27,3.35,3.35,0,0,1-1.15-.77,3.58,3.58,0,0,1-.77-1.23,4.61,4.61,0,0,1-.28-1.66,4.55,4.55,0,0,1,.29-1.67,3.88,3.88,0,0,1,.76-1.25,3.3,3.3,0,0,1,1.08-.78,3,3,0,0,1,1.25-.27,3.16,3.16,0,0,1,1.28.25,2.5,2.5,0,0,1,.94.71,3.26,3.26,0,0,1,.58,1.12,4.9,4.9,0,0,1,.2,1.46c0,.13,0,.27,0,.39a2,2,0,0,1,0,.33H107.2a2.94,2.94,0,0,0,.75,1.91,2.32,2.32,0,0,0,1.76.71,3,3,0,0,0,1-.16,4.41,4.41,0,0,0,.87-.43l.45.84a6.3,6.3,0,0,1-1.1.54A3.81,3.81,0,0,1,109.55,39.1Zm-2.37-4.55h4a2.7,2.7,0,0,0-.49-1.74,1.67,1.67,0,0,0-1.37-.6,2,2,0,0,0-.77.15,2,2,0,0,0-.66.46,2.51,2.51,0,0,0-.49.74A3.29,3.29,0,0,0,107.18,34.55Z"/><path class="cls-2" d="M114.18,38.92V31.39h1.05l.11,1.36h0a3.48,3.48,0,0,1,.94-1.13,1.94,1.94,0,0,1,1.2-.42,2,2,0,0,1,.81.16l-.25,1.11-.34-.09a2,2,0,0,0-.39,0,1.69,1.69,0,0,0-1,.39,3.08,3.08,0,0,0-.91,1.35v4.83Z"/><path class="cls-2" d="M120.2,29.84a.9.9,0,0,1-.63-.23.81.81,0,0,1,0-1.19,1,1,0,0,1,1.25,0,.82.82,0,0,1,0,1.19A.9.9,0,0,1,120.2,29.84Zm-.65,9.07V31.39h1.27v7.53Z"/><path class="cls-2" d="M126.58,42.15a2.77,2.77,0,0,1-.48,0,2,2,0,0,1-.4-.12l.25-1,.28.07a1.24,1.24,0,0,0,.29,0,1.36,1.36,0,0,0,1.06-.46,3.24,3.24,0,0,0,.64-1.15l.17-.56-3-7.54h1.32l1.53,4.17.36,1q.19.55.36,1.08H129q.17-.51.33-1.07t.31-1.05L131,31.39h1.24l-2.83,8.15a8.67,8.67,0,0,1-.45,1,3.44,3.44,0,0,1-.59.83,2.61,2.61,0,0,1-.77.55A2.38,2.38,0,0,1,126.58,42.15Z"/><path class="cls-2" d="M136.56,39.1a3.4,3.4,0,0,1-1.32-.26,3.26,3.26,0,0,1-1.11-.77,3.73,3.73,0,0,1-.77-1.24,4.55,4.55,0,0,1-.29-1.66,4.6,4.6,0,0,1,.29-1.68,3.8,3.8,0,0,1,.77-1.25,3.2,3.2,0,0,1,1.11-.77,3.45,3.45,0,0,1,2.65,0,3.22,3.22,0,0,1,1.11.77,3.83,3.83,0,0,1,.77,1.25,4.62,4.62,0,0,1,.29,1.68,4.57,4.57,0,0,1-.29,1.66,3.76,3.76,0,0,1-.77,1.24,3.28,3.28,0,0,1-1.11.77A3.4,3.4,0,0,1,136.56,39.1Zm0-1.05a1.88,1.88,0,0,0,.88-.21,2,2,0,0,0,.69-.59,2.82,2.82,0,0,0,.44-.91,4.19,4.19,0,0,0,.15-1.18,4.28,4.28,0,0,0-.15-1.19,2.9,2.9,0,0,0-.44-.92,2,2,0,0,0-.69-.6,2,2,0,0,0-1.77,0,2,2,0,0,0-.69.6,2.86,2.86,0,0,0-.44.92,4.24,4.24,0,0,0-.16,1.19,4.16,4.16,0,0,0,.16,1.18,2.78,2.78,0,0,0,.44.91,2,2,0,0,0,.69.59A1.89,1.89,0,0,0,136.56,38Z"/><path class="cls-2" d="M142,38.92V31.39h1.05l.11,1.36h0a3.48,3.48,0,0,1,.94-1.13,1.94,1.94,0,0,1,1.2-.42,2,2,0,0,1,.81.16l-.25,1.11-.34-.09a2,2,0,0,0-.39,0,1.69,1.69,0,0,0-1,.39,3.08,3.08,0,0,0-.91,1.35v4.83Z"/><path class="cls-2" d="M149.6,39.1a2,2,0,0,1-1.76-.74,3.68,3.68,0,0,1-.55-2.2V31.39h1.29V36a2.74,2.74,0,0,0,.33,1.54A1.23,1.23,0,0,0,150,38a1.82,1.82,0,0,0,1-.3,4.87,4.87,0,0,0,1-1V31.39h1.27v7.53h-1.05l-.11-1.18h0a5,5,0,0,1-1.11,1A2.49,2.49,0,0,1,149.6,39.1Z"/><path class="cls-2" d="M155.82,38.92V31.39h1.05l.11,1.08h0a5.19,5.19,0,0,1,1.08-.91,2.33,2.33,0,0,1,1.26-.36,2.16,2.16,0,0,1,1.35.38,2.2,2.2,0,0,1,.72,1.06,6.35,6.35,0,0,1,1.19-1,2.3,2.3,0,0,1,1.29-.39,2,2,0,0,1,1.73.74,3.6,3.6,0,0,1,.57,2.2v4.77h-1.27v-4.6a2.68,2.68,0,0,0-.34-1.54,1.21,1.21,0,0,0-1.05-.47,2.79,2.79,0,0,0-1.89,1.16v5.45h-1.27v-4.6a2.68,2.68,0,0,0-.34-1.54A1.23,1.23,0,0,0,159,32.3a2.79,2.79,0,0,0-1.89,1.16v5.45Z"/><path class="cls-2" d="M170,39.1a1.19,1.19,0,0,1-1-.43,2.18,2.18,0,0,1-.31-1.27V27.89h1.27v9.6a.66.66,0,0,0,.11.43.32.32,0,0,0,.25.12h.12l.16,0,.17,1a1.11,1.11,0,0,1-.29.09A2.52,2.52,0,0,1,170,39.1Z"/><path class="cls-2" d="M174.34,39.1a2.28,2.28,0,0,1-1.57-.56,2,2,0,0,1-.63-1.58,2.09,2.09,0,0,1,1.1-1.9,9.1,9.1,0,0,1,3.52-.92,3.52,3.52,0,0,0-.07-.7,1.76,1.76,0,0,0-.24-.6,1.27,1.27,0,0,0-.47-.43,1.61,1.61,0,0,0-.77-.16,3,3,0,0,0-1.22.25,6,6,0,0,0-1,.56l-.5-.88a8.27,8.27,0,0,1,1.29-.66,4.3,4.3,0,0,1,1.67-.32,2.31,2.31,0,0,1,2,.84A3.73,3.73,0,0,1,178,34.3v4.61H177l-.11-.9h0a6.3,6.3,0,0,1-1.16.77A2.88,2.88,0,0,1,174.34,39.1Zm.37-1a2.14,2.14,0,0,0,1-.26,5.11,5.11,0,0,0,1-.75V35a12.74,12.74,0,0,0-1.59.29,4.16,4.16,0,0,0-1,.4,1.55,1.55,0,0,0-.57.53,1.27,1.27,0,0,0-.18.66,1.06,1.06,0,0,0,.39.93A1.57,1.57,0,0,0,174.71,38.08Z"/><path class="cls-2" d="M180.41,38.92V31.39h1.05l.11,1.36h0a3.48,3.48,0,0,1,.94-1.13,1.94,1.94,0,0,1,1.2-.42,2,2,0,0,1,.81.16l-.25,1.11-.34-.09a2,2,0,0,0-.39,0,1.69,1.69,0,0,0-1,.39,3.08,3.08,0,0,0-.91,1.35v4.83Z"/><path class="cls-2" d="M185.78,38.92V31.39h1.27v7.53Z"/></g><path class="cls-3" d="M30.57,34.13a5.38,5.38,0,1,1-5.38-5.38A5.31,5.31,0,0,1,30.57,34.13Zm-2.32,0a3.07,3.07,0,1,0-3.06,3.23A3.09,3.09,0,0,0,28.26,34.13Z"/><path class="cls-3" d="M42.24,34.13a5.38,5.38,0,1,1-5.38-5.38A5.31,5.31,0,0,1,42.24,34.13Zm-2.4,0a3.07,3.07,0,1,0-3.06,3.23A3.09,3.09,0,0,0,39.84,34.13Z"/><path class="cls-3" d="M53.32,29.09v9.68c0,4-2.32,5.63-5.13,5.63a5.31,5.31,0,0,1-4.8-3.14l2.07-.83a2.86,2.86,0,0,0,2.73,1.9c1.74,0,2.9-1.08,2.9-3.14v-.74H51a3.61,3.61,0,0,1-2.81,1.24,5.38,5.38,0,0,1,0-10.75A3.61,3.61,0,0,1,51,30.16h.08v-.91l2.23-.17Zm-2.07,5a3,3,0,0,0-2.9-3.31,3.1,3.1,0,0,0-3,3.31,3,3,0,0,0,3,3.23A3,3,0,0,0,51.26,34.13Z"/><path class="cls-3" d="M57,23.46V39.18H54.73V23.46Z"/><path class="cls-3" d="M66,35.87l1.82,1.24a5.32,5.32,0,0,1-9.76-3,5,5,0,0,1,9.68-2l.25.58-7.2,3a2.78,2.78,0,0,0,2.56,1.65A3,3,0,0,0,66,35.87ZM60.36,34l4.8-2a2.11,2.11,0,0,0-2-1.16A3,3,0,0,0,60.36,34Z"/><path class="cls-3" d="M11.13,32.73V30.41h7.69a7.13,7.13,0,0,1,.08,1.41,7.46,7.46,0,0,1-2,5.29,7.72,7.72,0,0,1-5.79,2.32,8.4,8.4,0,0,1-8.52-8.27,8.51,8.51,0,0,1,8.44-8.36,7.75,7.75,0,0,1,5.71,2.32l-1.57,1.57A6,6,0,0,0,5.09,31.07a6,6,0,0,0,6,6,5.9,5.9,0,0,0,4.22-1.65,4.68,4.68,0,0,0,1.24-2.81Z"/><path class="cls-4" d="M47.86,1.29A.55.55,0,0,1,48.44,1a.7.7,0,0,1,.58.33l2.56,5.29a1.73,1.73,0,0,0,1.24.91l5.79.83a.54.54,0,0,1,.5.41.64.64,0,0,1-.17.66l-4.22,4.05a1.67,1.67,0,0,0-.5,1.49l1,5.79a.69.69,0,0,1-.25.66.65.65,0,0,1-.66.08L49.1,18.75a1.75,1.75,0,0,0-1.57,0l-5.21,2.73a.62.62,0,0,1-.66-.08.69.69,0,0,1-.25-.66l1-5.79a1.67,1.67,0,0,0-.5-1.49L37.69,9.4a.64.64,0,0,1-.17-.66.52.52,0,0,1,.5-.41l5.79-.83a1.59,1.59,0,0,0,1.24-.91Z"/><path class="cls-4" d="M71.36,1.29A.55.55,0,0,1,71.94,1a.7.7,0,0,1,.58.33l2.56,5.29a1.73,1.73,0,0,0,1.24.91l5.79.83a.54.54,0,0,1,.5.41.64.64,0,0,1-.17.66l-4.22,4.05a1.67,1.67,0,0,0-.5,1.49l1,5.79a.69.69,0,0,1-.25.66.65.65,0,0,1-.66.08L72.6,18.75a1.75,1.75,0,0,0-1.57,0l-5.21,2.73a.62.62,0,0,1-.66-.08.69.69,0,0,1-.25-.66l1-5.79a1.67,1.67,0,0,0-.5-1.49L61.18,9.4A.64.64,0,0,1,61,8.74a.52.52,0,0,1,.5-.41L67.3,7.5a1.59,1.59,0,0,0,1.24-.91Z"/><path class="cls-4" d="M94.85,1.29A.55.55,0,0,1,95.43,1a.7.7,0,0,1,.58.33l2.56,5.29a1.73,1.73,0,0,0,1.24.91l5.79.83a.54.54,0,0,1,.5.41.64.64,0,0,1-.17.66l-4.22,4.05a1.67,1.67,0,0,0-.5,1.49l1,5.79a.69.69,0,0,1-.25.66.65.65,0,0,1-.66.08l-5.21-2.73a1.75,1.75,0,0,0-1.57,0l-5.21,2.73a.62.62,0,0,1-.66-.08.69.69,0,0,1-.25-.66l1-5.79a1.67,1.67,0,0,0-.5-1.49L84.68,9.4a.64.64,0,0,1-.17-.66.52.52,0,0,1,.5-.41L90.8,7.5A1.59,1.59,0,0,0,92,6.59Z"/><path class="cls-4" d="M118.43,1.29A.55.55,0,0,1,119,1a.7.7,0,0,1,.58.33l2.56,5.29a1.73,1.73,0,0,0,1.24.91l5.79.83a.54.54,0,0,1,.5.41.64.64,0,0,1-.17.66l-4.22,4.05a1.67,1.67,0,0,0-.5,1.49l1,5.79a.69.69,0,0,1-.25.66.65.65,0,0,1-.66.08l-5.21-2.73a1.75,1.75,0,0,0-1.57,0l-5.21,2.73a.62.62,0,0,1-.66-.08.69.69,0,0,1-.25-.66l1-5.79a1.67,1.67,0,0,0-.5-1.49L108.25,9.4a.64.64,0,0,1-.17-.66.52.52,0,0,1,.5-.41l5.79-.83a1.59,1.59,0,0,0,1.24-.91Z"/><path class="cls-4" d="M141.92,1.29A.55.55,0,0,1,142.5,1a.7.7,0,0,1,.58.33l2.56,5.29a1.73,1.73,0,0,0,1.24.91l5.79.83a.54.54,0,0,1,.5.41.64.64,0,0,1-.17.66l-4.22,4.05a1.67,1.67,0,0,0-.5,1.49l1,5.79a.69.69,0,0,1-.25.66.65.65,0,0,1-.66.08l-5.21-2.73a1.75,1.75,0,0,0-1.57,0l-5.21,2.73a.62.62,0,0,1-.66-.08.69.69,0,0,1-.25-.66l1-5.79a1.67,1.67,0,0,0-.5-1.49L131.75,9.4a.64.64,0,0,1-.17-.66.52.52,0,0,1,.5-.41l5.79-.83a1.59,1.59,0,0,0,1.24-.91Z"/></svg>