<svg id="katman_1" data-name="katman 1" xmlns="http://www.w3.org/2000/svg" viewBox="0 0 24 24"><defs><style>.cls-1{fill:#00b17c;}.cls-2{fill:#009b63;}.cls-3{fill:#fff;}</style></defs><title>tfx-iletisim-4</title><rect class="cls-1" x="0.1" y="0.1" width="23.8" height="23.8"/><polygon class="cls-2" points="23.9 12.4 21.5 10 21.3 10.5 14 4.5 12.2 4.3 10.6 5.1 9.7 7.6 10.2 9.1 15.7 13.6 15.8 14.7 16.7 16.1 12.7 11.9 10.3 11.9 7 10 2.4 17 11.3 23.9 23.9 23.9 23.9 12.4"/><path class="cls-3" d="M7,10c-.6-.6-3.4-.8-4.3-.9-.1,0-.2,0-.2.1s-.1.2-.2.3v7.2a.37.37,0,0,0,.4.4H5.1a.52.52,0,0,0,.4-.2,52.78,52.78,0,0,0,1.6-6.6A.19.19,0,0,0,7,10Z"/><path class="cls-3" d="M15.6,11.9c-.8-.2-1.5-.6-2.2-.8-1.4-.6-2.1-.3-3.4,1a2.59,2.59,0,0,0-.9,1.7c0,.1,0,.1.2.2.4.2,1,.2,1.5-.6.1-.1.2-.2.3-.2a1.42,1.42,0,0,0,.6-.2,1.42,1.42,0,0,1,.6-.2h.2c.1,0,.2.1.3.1a19.33,19.33,0,0,0,1.9,1.6,17.27,17.27,0,0,1,2.8,2.6h.1A48.65,48.65,0,0,0,15.6,11.9Z"/><path class="cls-3" d="M21.2,9.9a14.16,14.16,0,0,0-5,.8l-.2.2a.37.37,0,0,0,.1.3,53.25,53.25,0,0,1,2.3,6.3c.1.2.2.3.4.3h2.4a.37.37,0,0,0,.4-.4h0V10.2c0-.1-.1-.3-.4-.3Z"/><path class="cls-3" d="M16.9,17.7C16.6,17,15.2,16,14,15a17.91,17.91,0,0,0-1.8-1.4c-.1.1-.2.1-.2.2a1.42,1.42,0,0,1-.6.2,2.38,2.38,0,0,1-2.4.7,1,1,0,0,1-.7-.7,3.41,3.41,0,0,1,1.1-2.5H7.8a42.74,42.74,0,0,1-1.3,4.8l.9.9c1.5,1.3,3.3,2.6,3.6,2.8a1.69,1.69,0,0,0,1,.3h.2L11,19c-.2-.1-.2-.4-.1-.6s.4-.2.6-.1a.1.1,0,0,1,.1.1L13.2,20c.2.2.3.1.5.1s.3-.2.4-.5l-1.9-1.9a.47.47,0,0,1,.1-.6.45.45,0,0,1,.5,0l2,2a.64.64,0,0,0,.6,0l.3-.3-2.3-2.2c-.2-.1-.2-.4-.1-.6s.4-.2.6-.1a.1.1,0,0,1,.1.1l2.3,2.3c.2.1.3,0,.5-.1S17,18,16.9,17.7Z"/><path class="cls-3" d="M11.4,5.9c0,.2.1.3.4.4h.1V5.5A.46.46,0,0,0,11.4,5.9Z"/><path class="cls-3" d="M12.3,6.9h0L12.2,8a.47.47,0,0,0,.5-.5C12.7,7.2,12.7,7.1,12.3,6.9Z"/><path class="cls-3" d="M12,3.7a3,3,0,0,0-3,3H9a3,3,0,0,0,3,3,3.08,3.08,0,0,0,3-3,2.93,2.93,0,0,0-2.9-3c0-.1,0-.1-.1,0Zm.2,4.7v.3h-.3V8.4c-.7-.1-1-.5-1-.9h.5A.56.56,0,0,0,12,8V6.9h-.2a1.18,1.18,0,0,1-.9-.9.9.9,0,0,1,.9-.9h.1V4.7h.3V5a1.06,1.06,0,0,1,1,.9h-.4a.54.54,0,0,0-.5-.5v1h.2c.5.1.8.3.8.9a1.18,1.18,0,0,1-1.1,1.1Z"/></svg>