<svg id="katman_1" data-name="katman 1" xmlns="http://www.w3.org/2000/svg" viewBox="0 0 24 24"><defs><style>.cls-1{fill:#00b17c;}.cls-2{opacity:0.1;isolation:isolate;}.cls-3{fill:#fff;}</style></defs><title>tfx-iletisim-3</title><rect class="cls-1" x="0.1" y="0.1" width="23.8" height="23.8"/><polygon class="cls-2" points="23.9 14.4 16.3 5.8 9.6 7.3 4.7 12.2 5.3 17.8 6.9 19.9 6.4 20.1 9.3 23.9 23.9 23.9 23.9 14.4"/><path class="cls-3" d="M5.6,18.1C4.2,16,3.1,13.8,3.8,11.2A6.4,6.4,0,0,1,6.4,7.7,12.65,12.65,0,0,1,9.9,6c.4-.1.4-.3.4-.7a6.18,6.18,0,0,0-.4-1.6l6.5,2-5,4.6c-.1-.6-.3-1.1-.4-1.6,0-.2-.1-.3-.3-.2a9.31,9.31,0,0,0-4.1,2.6,4.47,4.47,0,0,0-1.1,3.7A12.17,12.17,0,0,1,5.6,18.1Z"/><path class="cls-3" d="M19.6,15.1V14c0-.3,0-.6-.4-.6a.22.22,0,0,1-.2-.2h0c0-.4-.1-.6-.6-.7a1.07,1.07,0,0,1-.9-.7.46.46,0,0,0-.5-.3l-7.4,1c-.3,0-.6.1-.6.5,0,.2-.1.2-.4.2s-.7.1-1.2.1-.4-.4-.4-.7,0-.6.4-.6l2.8-.4,8.6-1.2c.6-.1.8,0,.9.6.2,1.7.5,3.3.7,5v.5c0,.3-.3.3-.5.3s-.3-.3-.3-.4Z"/><path class="cls-3" d="M15.4,13.3c-.5-.1-.9.2-1.3-.2a.19.19,0,0,0-.3,0c-.3.3-.7.1-1.1.2a1.75,1.75,0,0,1,2.4-.4C15.1,13,15.3,13.1,15.4,13.3Z"/><path class="cls-3" d="M19.1,14.4c0-.5-.2-.7-.6-.7H7.1c-.5,0-.7.2-.7.7v5.1c0,.6.1.7.7.7H18.5c.5,0,.7-.2.7-.7C19.1,17.8,19.1,16.1,19.1,14.4Zm-1.5,3.7a1,1,0,0,0-.7.9c0,.3-.2.3-.4.3H8.9c-.2,0-.4,0-.4-.3a1.28,1.28,0,0,0-1-1c-.2-.1-.3-.1-.3-.4v-.8c0-.5-.1-1.1.6-1.2a1.06,1.06,0,0,0,.6-.7c.1-.4.3-.4.6-.4h7.4c.3,0,.4.1.5.4a1.17,1.17,0,0,0,1,.9c.3,0,.3.1.3.4v.9C18.2,17.5,18.3,18,17.6,18.1Z"/><path class="cls-3" d="M12.2,16.5c0,.1.1.2.2.3h.1v-.6Q12.2,16.35,12.2,16.5Z"/><path class="cls-3" d="M12.7,17.1h0v.6a.27.27,0,0,0,.3-.3C13,17.2,12.9,17.2,12.7,17.1Z"/><path class="cls-3" d="M12.5,15.2A1.79,1.79,0,0,0,10.7,17h0a1.8,1.8,0,0,0,3.6,0,1.68,1.68,0,0,0-1.8-1.8Zm.2,2.8v.2h-.2V18a.56.56,0,0,1-.6-.5h.3a.32.32,0,0,0,.3.3v-.7h-.1a.5.5,0,0,1,0-1h0v-.2h.2V16a.63.63,0,0,1,.6.5H13a.27.27,0,0,0-.3-.3v.6h.1c.3.1.5.2.5.5S13,18,12.7,18Z"/></svg>