<svg id="katman_1" data-name="katman 1" xmlns="http://www.w3.org/2000/svg" xmlns:xlink="http://www.w3.org/1999/xlink" viewBox="0 0 7.4 5.6">
  <defs>
    <style>
      .cls-1 {
        fill: url(#Adsız_degrade);
      }
    </style>
    <linearGradient id="Adsız_degrade" data-name="Adsız degrade" y1="-282.4" x2="7.4" y2="-282.4" gradientTransform="matrix(1, 0, 0, -1, 0, -278.53)" gradientUnits="userSpaceOnUse">
      <stop offset="0" stop-color="#096987"/>
      <stop offset="1" stop-color="#5700b1"/>
    </linearGradient>
  </defs>
  <title>noun_transfer money_2411359</title>
  <path class="cls-1" d="M7.4,1.07,5,1.67a.31.31,0,0,1,.1.2l.8-.2-.7.4a.37.37,0,0,0,.1.3L6,2l-1,.7a1.11,1.11,0,0,0-.3-1,1.12,1.12,0,0,0-1.6-.1l-.1.1a1.35,1.35,0,0,0,0,1.7.86.86,0,0,0,.6.3l-1.4,1-.4,1.1V4.07l1-.5-.1-.1-.1-.1-1,.5L.6,3l1.7-.4v-.3L0,2.77l1.4,1.3v2.6l1.4-1.4.9.9Zm-3.7.4v.2a.48.48,0,0,0-.2.6c.1.1.2.3.4.3a.22.22,0,0,1,.2.2.22.22,0,0,1-.2.2H3.6v.2c.1,0,.1.1.2.1v.2a.55.55,0,0,1-.5-.3,1,1,0,0,1,0-1.3C3.3,1.67,3.5,1.57,3.7,1.47Zm.3,0a.55.55,0,0,1,.5.3,1.09,1.09,0,0,1,.2,1.1l-.7.5v-.2a.48.48,0,0,0,.2-.6c-.1-.1-.2-.3-.4-.3a.22.22,0,0,1-.2-.2.22.22,0,0,1,.2-.2h.3v-.2c-.1,0-.1-.1-.1-.2Zm2.6.3-2.8,4L2.5,4.67Zm-4.2,3,.4.3-.7.7Z" transform="translate(0 -1.07)"/>
</svg>
