<svg id="Capa_1" data-name="Capa 1" xmlns="http://www.w3.org/2000/svg" viewBox="0 0 112.2 112.2"><defs><style>.cls-1{fill:none;stroke:#999fbc;stroke-miterlimit:10;stroke-width:3px;}.cls-2{fill:#999fbc;}.cls-3{fill:#fff;}</style></defs><title>utube default</title><circle class="cls-1" cx="56.1" cy="56.1" r="54.15"/><path class="cls-2" d="M90.33,38.93A8.94,8.94,0,0,0,84,32.64c-5.59-1.53-27.93-1.53-27.93-1.53s-22.35,0-27.93,1.47a9.13,9.13,0,0,0-6.29,6.35C20.4,44.51,20.4,56.1,20.4,56.1s0,11.64,1.47,17.17a9,9,0,0,0,6.29,6.29c5.65,1.53,27.93,1.53,27.93,1.53s22.35,0,27.93-1.47a8.94,8.94,0,0,0,6.29-6.29c1.47-5.59,1.47-17.17,1.47-17.17S91.85,44.51,90.33,38.93Z"/><path class="cls-3" d="M49,66.8,67.57,56.1,49,45.4Z"/></svg>